<svg width="177.1" height="230" viewBox="0 0 130 168" xmlns="http://www.w3.org/2000/svg"
     xmlns:xlink="http://www.w3.org/1999/xlink">
    <g id="kawaii-ghost">
        <g id="kawaii-ghost__body">
            <path d="M63.004.034C27.572 1.238 0 36.002 0 76.472v76.272c0 8.116 5.832 14.718 13 14.718s13-6.602 13-14.718c0-2.705 1.944-4.906 4.333-4.906 2.39 0 4.334 2.2 4.334 4.906 0 8.116 5.831 14.718 13 14.718 3.472 0 6.737-1.53 9.192-4.31 2.456-2.78 3.808-6.477 3.807-10.408 0-2.712 1.939-4.906 4.334-4.906 2.39 0 4.333 2.2 4.333 4.906 0 8.116 5.832 14.718 13 14.718 7.169 0 13-6.602 13-14.718 0-2.705 1.944-4.906 4.334-4.906 2.39 0 4.333 2.2 4.333 4.906 0 8.116 5.832 14.718 13 14.718s13-6.602 13-14.718V73.592c0-41.028-29.82-74.82-66.996-73.558z"
                  id="kawaii-ghost__shape" fill="#43a047"/>
            <path d="M111.5 166.08c4.427-2.35 7.5-7.444 7.5-13.336V73.592C119 35.918 93.857 4.346 60.962.412a6.603 6.603 0 0 1 2.042-.378C100.181-1.228 130 32.564 130 73.592v79.152c0 8.116-5.832 14.718-13 14.718-1.965 0-3.829-.496-5.5-1.383z"
                  id="kawaii-ghost__shadow" fill-opacity=".1" fill="#000000"/>
        </g>
        <g id="kawaii-face" transform="translate(34 57)">
            <defs>
                <path d="M1.45656876,3.14684877 C1.45656876,3.14684877 1.45656876,3.14684877 1.45656876,3.14684877 L0,3.14685315 C0,2.31818182 0.346033696,1.50734266 0.949429952,0.922027972 C1.55390756,0.335664336 2.38979521,0 3.2440659,0 L25.9525272,0 C26.8067979,0 27.6416041,0.335664336 28.2460818,0.922027972 C28.8505594,1.50734266 29.1965931,2.31818182 29.1965931,3.14685315 C29.1890236,5.85734266 28.240675,8.44825175 26.7127199,10.6814685 C25.1771954,12.9104895 23.0317865,14.8122378 20.4040931,16.0227273 C18.6544603,16.8251748 16.6809868,17.3087413 14.5982965,17.3076923 C11.4666916,17.3076923 8.61299495,16.2241259 6.33025392,14.5951049 C4.0399434,12.9587413 2.264358,10.779021 1.16245695,8.33811189 C0.431460764,6.70909091 0.0010813553,4.95314685 0,3.14685315 L1.45656896,3.14685315 Z"
                      id="kawaii-face__path-1"/>
            </defs>
            <g id="kawaii-face__mouth" transform="translate(18.000000, 16.000000)">
                <g id="kawaii-face__mouth__joy" transform="translate(0.000000, 1.000000)">
                    <mask id="kawaii-face__mask-2-vo9757cgif" fill="white">
<!--                        <use xlink:href="#kawaii-face__path-1"/>-->
                    </mask>
                    <use id="Combined-Shape" fill="#000000" xlink:href="#kawaii-face__path-1"/>
                    <path d="M9.59865983,9.95467851 C9.59865983,9.95467851 9.59865983,9.95467851 9.59865983,9.95467851 L9,9.95467851 C9,9.66740582 9.14222222,9.38631493 9.39022222,9.18340586 C9.63866667,8.98013316 10.3333333,8 15,8 C19.6666667,8 20.3608889,8.98013316 20.6093333,9.18340586 C20.8577778,9.38631493 21,9.66740582 21,9.95467851 C20.9968889,10.8943148 20.6071111,11.7924965 19.9791111,12.5666783 C19.348,13.3394055 18.4662222,13.9986781 17.3862222,14.4183144 C16.6671111,14.6964962 15.856,14.8641326 15,14.8637689 C13.7128889,14.8637689 12.54,14.4881326 11.6017778,13.9234054 C10.6604444,13.3561327 9.93066667,12.6004964 9.47777778,11.7543147 C9.17733333,11.1895875 9.00044444,10.5808603 9,9.95467851 L9.59865983,9.95467851 Z"
                          id="kawaii-face__tongue" fill="#E74144" mask="url(#kawaii-face__mask-2-vo9757cgif"
                          transform="translate(15.000000, 11.431885) scale(1, -1) translate(-15.000000, -11.431885)"/>
                </g>
            </g>
            <g id="kawaii-face__blush" transform="translate(0.000000, 15.000000)" fill="#000000" opacity="0.2">
                <circle id="Oval" cx="3" cy="3" r="3"/>
                <circle id="Oval" cx="63" cy="3" r="3"/>
            </g>
            <g id="kawaii-face__eyes" transform="translate(2.000000, 0.000000)" fill="#000000">
                <g id="kawaii-face__eyes__circle" transform="translate(1.000000, 2.000000)">
                    <circle id="Oval-3" cx="4.5" cy="4.5" r="4.5"/>
                    <circle id="Oval-3" cx="56.5" cy="4.5" r="4.5"/>
                </g>
            </g>
        </g>
    </g>
</svg>