<svg xmlns="http://www.w3.org/2000/svg" viewBox="0 0 444 444" width="444" height="444"
     preserveAspectRatio="xMidYMid meet" style="width: 100%; height: 100%; transform: translate3d(0px, 0px, 0px);">
    <defs>
        <clipPath id="__lottie_element_307">
            <rect width="444" height="444" x="0" y="0"/>
        </clipPath>
    </defs>
    <g clip-path="url(#__lottie_element_307)">
        <g transform="matrix(1,0.00000834983256936539,-0.00000834983256936539,1,-7.604331970214844,11.231903076171875)"
           opacity="1" style="display: block;">
            <g opacity="1" transform="matrix(1,0,0,1,125.31600189208984,115.44999694824219)">
                <path stroke-linecap="butt" stroke-linejoin="miter" fill-opacity="0" stroke-miterlimit="10"
                      stroke="rgb(255,255,255)" stroke-opacity="1" stroke-width="8.269"
                      d=" M3.753999948501587,-81.08999633789062 C-1.0989999771118164,-83.3010025024414 -5.533999919891357,-86.69499969482422 -10.425000190734863,-88.86900329589844 C-23.722000122070312,-94.77799987792969 -39.09299850463867,-94.7770004272461 -51.20800018310547,-86.11399841308594 C-60.09199905395508,-79.76200103759766 -66.33999633789062,-70.2750015258789 -71.04000091552734,-60.57600021362305 C-104.64399719238281,8.760000228881836 -60.702999114990234,-50.38100051879883 -42.858001708984375,-59.80799865722656 C-25.013999938964844,-69.23600006103516 -8.652999877929688,-70.86199951171875 -13.468999862670898,-58.77199935913086 C-18.284000396728516,-46.68199920654297 -60.266998291015625,-62.744998931884766 -66.01699829101562,-24.899999618530273 C-71.76799774169922,12.944999694824219 -66.51499938964844,66.61599731445312 -53.694000244140625,29.033000946044922 C-37.20800018310547,-19.298999786376953 -15.131999969482422,-24.059999465942383 -16.474000930786133,-8.14799976348877 C-17.815000534057617,7.763999938964844 -63.12099838256836,13.954000473022461 -36.64899826049805,56.97600173950195 C-13.390999794006348,94.77799987792969 -30.797000885009766,27.511999130249023 14.982999801635742,15.642999649047852 C62.97700119018555,3.2009999752044678 62.13100051879883,24.951000213623047 54.19200134277344,45.542999267578125 C39.82899856567383,82.79499816894531 84.37200164794922,50.439998626708984 85.43900299072266,10.72700023651123 C86.50599670410156,-28.986000061035156 59.7859992980957,-64.66699981689453 38.70199966430664,-50.99700164794922 C17.618999481201172,-37.32699966430664 50.83300018310547,-90.02100372314453 77.73799896240234,-41.45000076293945 C104.64399719238281,7.11899995803833 98.29900360107422,-55.279998779296875 78.23999786376953,-82.24099731445312 C69.82499694824219,-93.5510025024414 56.32600021362305,-92.82099914550781 44.125,-89.05899810791016 C33.888999938964844,-85.9020004272461 24.03700065612793,-79.01300048828125 13.062999725341797,-78.90599822998047 C9.689000129699707,-78.8740005493164 6.646999835968018,-79.77100372314453 3.753999948501587,-81.08999633789062z"/>
            </g>
            <g opacity="1" transform="matrix(1,0,0,1,0,0)">
                <path stroke-linecap="butt" stroke-linejoin="miter" fill-opacity="0" stroke-miterlimit="10"
                      stroke="rgb(28,28,28)" stroke-opacity="1" stroke-width="8.269"
                      d=" M129.08999633789062,98.80500030517578 C129.08999633789062,98.80500030517578 129.08999633789062,320.13800048828125 129.08999633789062,320.13800048828125"/>
            </g>
            <g opacity="1" transform="matrix(1,0,0,1,0,0)">
                <path stroke-linecap="butt" stroke-linejoin="miter" fill-opacity="0" stroke-miterlimit="10"
                      stroke="rgb(28,28,28)" stroke-opacity="1" stroke-width="8.269"
                      d=" M150.6540069580078,320.1390075683594 C150.6540069580078,320.1390075683594 150.6540069580078,95.42900085449219 150.6540069580078,95.42900085449219"/>
            </g>
            <g opacity="1" transform="matrix(1,0,0,1,144.20599365234375,255.61700439453125)">
                <path stroke-linecap="butt" stroke-linejoin="miter" fill-opacity="0" stroke-miterlimit="10"
                      stroke="rgb(28,28,28)" stroke-opacity="1" stroke-width="8.269"
                      d=" M-5.335000038146973,0.4880000054836273 C-5.335000038146973,0.4880000054836273 5.335000038146973,-0.4880000054836273 5.335000038146973,-0.4880000054836273"/>
            </g>
            <g opacity="1" transform="matrix(1,0,0,1,0,0)">
                <path stroke-linecap="butt" stroke-linejoin="miter" fill-opacity="0" stroke-miterlimit="10"
                      stroke="rgb(28,28,28)" stroke-opacity="1" stroke-width="8.269"
                      d=" M130.15699768066406,235.75100708007812 C130.15699768066406,235.75100708007812 142.46200561523438,235.75100708007812 142.46200561523438,235.75100708007812"/>
            </g>
            <g opacity="1" transform="matrix(1,0,0,1,0,0)">
                <path stroke-linecap="butt" stroke-linejoin="miter" fill-opacity="0" stroke-miterlimit="10"
                      stroke="rgb(28,28,28)" stroke-opacity="1" stroke-width="8.269"
                      d=" M130.15699768066406,222.3769989013672 C130.15699768066406,222.3769989013672 150.6540069580078,222.3769989013672 150.6540069580078,222.3769989013672"/>
            </g>
            <g opacity="1" transform="matrix(1,0,0,1,137.39100646972656,203.7530059814453)">
                <path stroke-linecap="butt" stroke-linejoin="miter" fill-opacity="0" stroke-miterlimit="10"
                      stroke="rgb(28,28,28)" stroke-opacity="1" stroke-width="8.269"
                      d=" M-6.539999961853027,-0.18199999630451202 C-6.539999961853027,-0.18199999630451202 6.539999961853027,0.18199999630451202 6.539999961853027,0.18199999630451202"/>
            </g>
            <g opacity="1" transform="matrix(1,0,0,1,0,0)">
                <path stroke-linecap="butt" stroke-linejoin="miter" fill-opacity="0" stroke-miterlimit="10"
                      stroke="rgb(28,28,28)" stroke-opacity="1" stroke-width="8.269"
                      d=" M129.97000122070312,181.6280059814453 C129.97000122070312,181.6280059814453 140.55299377441406,181.6280059814453 140.55299377441406,181.6280059814453"/>
            </g>
            <g opacity="1" transform="matrix(1,0,0,1,139.20799255371094,169.63499450683594)">
                <path stroke-linecap="butt" stroke-linejoin="miter" fill-opacity="0" stroke-miterlimit="10"
                      stroke="rgb(28,28,28)" stroke-opacity="1" stroke-width="8.269"
                      d=" M-9.23799991607666,1.4019999504089355 C-9.23799991607666,1.4019999504089355 9.23799991607666,-1.4019999504089355 9.23799991607666,-1.4019999504089355"/>
            </g>
            <g opacity="1" transform="matrix(1,0,0,1,139.8719940185547,130.95899963378906)">
                <path stroke-linecap="butt" stroke-linejoin="miter" fill-opacity="0" stroke-miterlimit="10"
                      stroke="rgb(28,28,28)" stroke-opacity="1" stroke-width="8.269"
                      d=" M-10.781999588012695,0.9860000014305115 C-10.781999588012695,0.9860000014305115 10.781999588012695,-0.9860000014305115 10.781999588012695,-0.9860000014305115"/>
            </g>
            <g opacity="1" transform="matrix(1,0,0,1,0,0)">
                <path stroke-linecap="butt" stroke-linejoin="miter" fill-opacity="0" stroke-miterlimit="10"
                      stroke="rgb(28,28,28)" stroke-opacity="1" stroke-width="8.269"
                      d=" M129.08999633789062,117.73699951171875 C129.08999633789062,117.73699951171875 142.46200561523438,117.73699951171875 142.46200561523438,117.73699951171875"/>
            </g>
            <g opacity="1" transform="matrix(1,0,0,1,143.50399780273438,148.08299255371094)">
                <path stroke-linecap="butt" stroke-linejoin="miter" fill-opacity="0" stroke-miterlimit="10"
                      stroke="rgb(28,28,28)" stroke-opacity="1" stroke-width="8.269"
                      d=" M-6.539999961853027,-0.18199999630451202 C-6.539999961853027,-0.18199999630451202 6.539999961853027,0.18199999630451202 6.539999961853027,0.18199999630451202"/>
            </g>
            <g opacity="1" transform="matrix(1,0,0,1,143.2220001220703,100.61000061035156)">
                <path stroke-linecap="butt" stroke-linejoin="miter" fill-opacity="0" stroke-miterlimit="10"
                      stroke="rgb(28,28,28)" stroke-opacity="1" stroke-width="8.269"
                      d=" M-26.93899917602539,-25.406999588012695 C-32.154998779296875,-9.279999732971191 -29.843000411987305,-4.02400016784668 -17.214000701904297,-15.449000358581543 C-18.47100067138672,-2.2709999084472656 -22.132999420166016,25.406999588012695 -3.4059998989105225,-14.696000099182129 C-3.4059998989105225,-14.696000099182129 11.291999816894531,15.802000045776367 8.170999526977539,-16.023000717163086 C8.170999526977539,-16.023000717163086 32.154998779296875,18.66200065612793 21.45599937438965,-16.524999618530273"/>
            </g>
        </g>
        <g transform="matrix(1,0,0,1,-2.6060028076171875,11.233001708984375)" opacity="1" style="display: block;">
            <g opacity="1" transform="matrix(1,0,0,1,154.72300720214844,290.9219970703125)">
                <path fill="rgb(230,230,210)" fill-opacity="1"
                      d=" M-71.10299682617188,30.253000259399414 C-71.10299682617188,30.253000259399414 -56.222999572753906,14.770999908447266 -56.222999572753906,14.770999908447266 C-56.222999572753906,14.770999908447266 -66.63899993896484,0.1899999976158142 -66.63899993896484,0.1899999976158142 C-66.63899993896484,0.1899999976158142 -28.94499969482422,-30.253000259399414 6.269999980926514,-15.430000305175781 C6.269999980926514,-15.430000305175781 9.741999626159668,-22.135000228881836 9.741999626159668,-22.135000228881836 C9.741999626159668,-22.135000228881836 31.649999618530273,-21.788000106811523 52.891998291015625,-0.699999988079071 C68.4739990234375,14.770000457763672 71.10299682617188,30.253000259399414 71.10299682617188,30.253000259399414 C71.10299682617188,30.253000259399414 -71.10299682617188,30.253000259399414 -71.10299682617188,30.253000259399414z"/>
            </g>
            <g opacity="1" transform="matrix(1,0,0,1,154.72300720214844,290.9219970703125)">
                <path stroke-linecap="butt" stroke-linejoin="miter" fill-opacity="0" stroke-miterlimit="10"
                      stroke="rgb(255,255,255)" stroke-opacity="1" stroke-width="8.269"
                      d=" M-71.10299682617188,30.253000259399414 C-71.10299682617188,30.253000259399414 -56.222999572753906,14.770999908447266 -56.222999572753906,14.770999908447266 C-56.222999572753906,14.770999908447266 -66.63899993896484,0.1899999976158142 -66.63899993896484,0.1899999976158142 C-66.63899993896484,0.1899999976158142 -28.94499969482422,-30.253000259399414 6.269999980926514,-15.430000305175781 C6.269999980926514,-15.430000305175781 9.741999626159668,-22.135000228881836 9.741999626159668,-22.135000228881836 C9.741999626159668,-22.135000228881836 31.649999618530273,-21.788000106811523 52.891998291015625,-0.699999988079071 C68.4739990234375,14.770000457763672 71.10299682617188,30.253000259399414 71.10299682617188,30.253000259399414"/>
            </g>
            <g opacity="1" transform="matrix(1,0,0,1,124.04299926757812,298.6499938964844)">
                <path stroke-linecap="butt" stroke-linejoin="miter" fill-opacity="0" stroke-miterlimit="10"
                      stroke="rgb(255,255,255)" stroke-opacity="1" stroke-width="8.269"
                      d=" M-35.95899963378906,-7.538000106811523 C-35.95899963378906,-7.538000106811523 35.95800018310547,7.538000106811523 35.95800018310547,7.538000106811523"/>
            </g>
            <g opacity="1" transform="matrix(1,0,0,1,114.88999938964844,307.802001953125)">
                <path stroke-linecap="butt" stroke-linejoin="miter" fill-opacity="0" stroke-miterlimit="10"
                      stroke="rgb(255,255,255)" stroke-opacity="1" stroke-width="8.269"
                      d=" M-16.388999938964844,-2.109999895095825 C-16.388999938964844,-2.109999895095825 16.388999938964844,2.109999895095825 16.388999938964844,2.109999895095825"/>
            </g>
            <g opacity="1" transform="matrix(1,0,0,1,174.83299255371094,284.1730041503906)">
                <path stroke-linecap="butt" stroke-linejoin="miter" fill-opacity="0" stroke-miterlimit="10"
                      stroke="rgb(255,255,255)" stroke-opacity="1" stroke-width="8.269"
                      d=" M-13.84000015258789,-8.680000305175781 C-1.5369999408721924,-3.312999963760376 2.9769999980926514,-0.9129999876022339 13.84000015258789,8.680000305175781"/>
            </g>
        </g>
        <g transform="matrix(1,0,0,1,-7.6060028076171875,11.233001708984375)" opacity="1" style="display: block;">
            <g opacity="1" transform="matrix(1,0,0,1,0,0)">
                <path stroke-linecap="butt" stroke-linejoin="miter" fill-opacity="0" stroke-miterlimit="10"
                      stroke="rgb(28,28,28)" stroke-opacity="1" stroke-width="8.269"
                      d=" M158.46600341796875,352.2279968261719 C158.46600341796875,352.2279968261719 158.46600341796875,335.2130126953125 158.46600341796875,335.2130126953125"/>
            </g>
            <g opacity="1" transform="matrix(1,0,0,1,0,0)">
                <path stroke-linecap="butt" stroke-linejoin="miter" fill-opacity="0" stroke-miterlimit="10"
                      stroke="rgb(28,28,28)" stroke-opacity="1" stroke-width="8.269"
                      d=" M169.45799255371094,352.2279968261719 C169.45799255371094,352.2279968261719 169.45799255371094,340.50201416015625 169.45799255371094,340.50201416015625"/>
            </g>
            <g opacity="1" transform="matrix(1,0,0,1,0,0)">
                <path stroke-linecap="butt" stroke-linejoin="miter" fill-opacity="0" stroke-miterlimit="10"
                      stroke="rgb(28,28,28)" stroke-opacity="1" stroke-width="8.269"
                      d=" M394.3680114746094,360.6520080566406 C394.3680114746094,360.6520080566406 394.3680114746094,342.46099853515625 394.3680114746094,342.46099853515625"/>
            </g>
            <g opacity="1" transform="matrix(1,0,0,1,0,0)">
                <path stroke-linecap="butt" stroke-linejoin="miter" fill-opacity="0" stroke-miterlimit="10"
                      stroke="rgb(28,28,28)" stroke-opacity="1" stroke-width="8.269"
                      d=" M371.55499267578125,360.7359924316406 C371.55499267578125,360.7359924316406 371.55499267578125,343.7200012207031 371.55499267578125,343.7200012207031"/>
            </g>
            <g opacity="1" transform="matrix(1,0,0,1,0,0)">
                <path stroke-linecap="butt" stroke-linejoin="miter" fill-opacity="0" stroke-miterlimit="10"
                      stroke="rgb(28,28,28)" stroke-opacity="1" stroke-width="8.269"
                      d=" M381.67401123046875,358.09100341796875 C381.67401123046875,358.09100341796875 381.67401123046875,346.364990234375 381.67401123046875,346.364990234375"/>
            </g>
        </g>
        <g transform="matrix(1,0,0,1,-7.6060028076171875,11.233001708984375)" opacity="1" style="display: block;">
            <g opacity="1" transform="matrix(1,0,0,1,0,0)">
                <path stroke-linecap="butt" stroke-linejoin="miter" fill-opacity="0" stroke-miterlimit="10"
                      stroke="rgb(255,255,255)" stroke-opacity="1" stroke-width="8.269"
                      d=" M27.288999557495117,354.125 C27.288999557495117,354.125 49.435001373291016,354.125 49.435001373291016,354.125"/>
            </g>
            <g opacity="1" transform="matrix(1,0,0,1,0,0)">
                <path stroke-linecap="butt" stroke-linejoin="miter" fill-opacity="0" stroke-miterlimit="10"
                      stroke="rgb(255,255,255)" stroke-opacity="1" stroke-width="8.269"
                      d=" M76.02100372314453,360.7349853515625 C76.02100372314453,360.7349853515625 91.53399658203125,360.7349853515625 91.53399658203125,360.7349853515625"/>
            </g>
            <g opacity="1" transform="matrix(1,0,0,1,0,0)">
                <path stroke-linecap="butt" stroke-linejoin="miter" fill-opacity="0" stroke-miterlimit="10"
                      stroke="rgb(255,255,255)" stroke-opacity="1" stroke-width="8.269"
                      d=" M405.9079895019531,382.8290100097656 C405.9079895019531,382.8290100097656 431.92401123046875,382.8290100097656 431.92401123046875,382.8290100097656"/>
            </g>
            <g opacity="1" transform="matrix(1,0,0,1,0,0)">
                <path stroke-linecap="butt" stroke-linejoin="miter" fill-opacity="0" stroke-miterlimit="10"
                      stroke="rgb(255,255,255)" stroke-opacity="1" stroke-width="8.269"
                      d=" M218.42300415039062,354.125 C218.42300415039062,354.125 244.32000732421875,354.125 244.32000732421875,354.125"/>
            </g>
            <g opacity="1" transform="matrix(1,0,0,1,124.04299926757812,386.2250061035156)">
                <path fill="rgb(255,255,255)" fill-opacity="1"
                      d=" M24.09600067138672,0 C24.09600067138672,3.2300000190734863 13.307000160217285,5.849999904632568 -0.0010000000474974513,5.849999904632568 C-13.309000015258789,5.849999904632568 -24.097000122070312,3.2300000190734863 -24.097000122070312,0 C-24.097000122070312,-3.2309999465942383 -13.309000015258789,-5.849999904632568 -0.0010000000474974513,-5.849999904632568 C13.307000160217285,-5.849999904632568 24.09600067138672,-3.2309999465942383 24.09600067138672,0z"/>
            </g>
        </g>
        <g transform="matrix(1,0,0,1,-7.6060028076171875,11.233001708984375)" opacity="1" style="display: block;">
            <g opacity="1" transform="matrix(1,0,0,1,298.73699951171875,301.02301025390625)">
                <path fill="rgb(230,230,208)" fill-opacity="1"
                      d=" M-109.39800262451172,-99.84400177001953 C-109.39800262451172,-99.84400177001953 109.39700317382812,-106.18099975585938 109.39700317382812,-106.18099975585938 C109.39700317382812,-106.18099975585938 14.85099983215332,-47.92100143432617 14.85099983215332,-47.92100143432617 C14.85099983215332,-47.92100143432617 17.718000411987305,66.91699981689453 17.718000411987305,66.91699981689453 C17.718000411987305,66.91699981689453 81.5479965209961,90.26899719238281 81.5479965209961,90.26899719238281 C81.5479965209961,90.26899719238281 -4.0920000076293945,106.18000030517578 -59.20100021362305,92.53900146484375 C-59.20100021362305,92.53900146484375 3,71.12899780273438 3,71.12899780273438 C3,71.12899780273438 3,-45.63399887084961 3,-45.63399887084961 C3,-45.63399887084961 -109.39800262451172,-99.84400177001953 -109.39800262451172,-99.84400177001953z"/>
            </g>
            <g opacity="1" transform="matrix(1,0,0,1,279.2330017089844,386.2250061035156)">
                <path stroke-linecap="butt" stroke-linejoin="miter" fill-opacity="0" stroke-miterlimit="10"
                      stroke="rgb(255,255,255)" stroke-opacity="1" stroke-width="8.269"
                      d=" M-8.730999946594238,3.3949999809265137 C-8.730999946594238,3.3949999809265137 8.730999946594238,-3.3959999084472656 8.730999946594238,-3.3959999084472656"/>
            </g>
            <g opacity="1" transform="matrix(1,0,0,1,249.52099609375,212.22900390625)">
                <path stroke-linecap="butt" stroke-linejoin="miter" fill-opacity="0" stroke-miterlimit="10"
                      stroke="rgb(255,255,255)" stroke-opacity="1" stroke-width="8.269"
                      d=" M-13.694999694824219,0.8859999775886536 C-7.160999774932861,0.46299999952316284 2.2090001106262207,-0.14300000667572021 9.656000137329102,-0.6240000128746033"/>
            </g>
            <g opacity="1" transform="matrix(1,0,0,1,284.97100830078125,301.02301025390625)">
                <path stroke-linecap="butt" stroke-linejoin="miter" fill-opacity="0" stroke-miterlimit="10"
                      stroke="rgb(28,28,28)" stroke-opacity="1" stroke-width="8.269"
                      d=" M-109.39800262451172,-99.84400177001953 C-109.39800262451172,-99.84400177001953 109.39700317382812,-106.18099975585938 109.39700317382812,-106.18099975585938 C109.39700317382812,-106.18099975585938 14.85099983215332,-47.92100143432617 14.85099983215332,-47.92100143432617 C14.85099983215332,-47.92100143432617 17.7189998626709,66.91699981689453 17.7189998626709,66.91699981689453 C17.7189998626709,66.91699981689453 81.54900360107422,90.26899719238281 81.54900360107422,90.26899719238281 C81.54900360107422,90.26899719238281 -4.0920000076293945,106.18000030517578 -59.20100021362305,92.53900146484375 C-59.20100021362305,92.53900146484375 3,71.12899780273438 3,71.12899780273438 C3,71.12899780273438 3,-45.63399887084961 3,-45.63399887084961 C3,-45.63399887084961 -109.39800262451172,-99.84400177001953 -109.39800262451172,-99.84400177001953z"/>
            </g>
        </g>
        <g transform="matrix(1,0,0,1,-7.6060028076171875,11.233001708984375)" opacity="1" style="display: block;">
            <g opacity="1" transform="matrix(1,0,0,1,325.95599365234375,179.5970001220703)">
                <path fill="rgb(230,230,210)" fill-opacity="1"
                      d=" M-30.51300048828125,56.02799987792969 C-30.51300048828125,56.02799987792969 30.51300048828125,-56.02799987792969 30.51300048828125,-56.02799987792969"/>
                <path stroke-linecap="butt" stroke-linejoin="miter" fill-opacity="0" stroke-miterlimit="10"
                      stroke="rgb(28,28,28)" stroke-opacity="1" stroke-width="8.269"
                      d=" M-30.51300048828125,56.02799987792969 C-30.51300048828125,56.02799987792969 30.51300048828125,-56.02799987792969 30.51300048828125,-56.02799987792969"/>
            </g>
            <g opacity="1" transform="matrix(1,0,0,1,361.697998046875,127.2030029296875)">
                <path fill="rgb(230,230,208)" fill-opacity="1"
                      d=" M12.187000274658203,3.740999937057495 C10.423999786376953,9.484999656677246 3.5390000343322754,12.465999603271484 -3.191999912261963,10.399999618530273 C-9.92300033569336,8.333999633789062 -13.951000213623047,2.003000020980835 -12.187999725341797,-3.740999937057495 C-10.425000190734863,-9.484000205993652 -3.5399999618530273,-12.465999603271484 3.191999912261963,-10.399999618530273 C9.92199993133545,-8.333000183105469 13.951000213623047,-2.003000020980835 12.187000274658203,3.740999937057495z"/>
            </g>
            <g opacity="1" transform="matrix(1,0,0,1,356.468994140625,123.56800079345703)">
                <path stroke-linecap="butt" stroke-linejoin="miter" fill-opacity="0" stroke-miterlimit="10"
                      stroke="rgb(28,28,28)" stroke-opacity="1" stroke-width="8.269"
                      d=" M12.187999725341797,3.740000009536743 C10.425000190734863,9.484000205993652 3.5399999618530273,12.465999603271484 -3.191999912261963,10.399999618530273 C-9.92300033569336,8.333999633789062 -13.951000213623047,2.003000020980835 -12.187999725341797,-3.740000009536743 C-10.423999786376953,-9.484000205993652 -3.5390000343322754,-12.46500015258789 3.191999912261963,-10.39900016784668 C9.92300033569336,-8.333000183105469 13.951000213623047,-2.003000020980835 12.187999725341797,3.740000009536743z"/>
            </g>
            <g opacity="1" transform="matrix(1,0,0,1,363.07598876953125,111.43699645996094)">
                <path fill="rgb(230,230,210)" fill-opacity="1"
                      d=" M6.60699987411499,-12.130999565124512 C6.60699987411499,-12.130999565124512 -6.60699987411499,12.130999565124512 -6.60699987411499,12.130999565124512"/>
                <path stroke-linecap="butt" stroke-linejoin="miter" fill-opacity="0" stroke-miterlimit="10"
                      stroke="rgb(28,28,28)" stroke-opacity="1" stroke-width="8.269"
                      d=" M6.60699987411499,-12.130999565124512 C6.60699987411499,-12.130999565124512 -6.60699987411499,12.130999565124512 -6.60699987411499,12.130999565124512"/>
            </g>
        </g>
        <g transform="matrix(1,0,0,1,-7.6060028076171875,11.233001708984375)" opacity="1" style="display: block;">
            <g opacity="1" transform="matrix(1,0,0,1,296.7799987792969,229.5749969482422)">
                <path fill="rgb(28,28,28)" fill-opacity="1"
                      d=" M-54.59400177001953,-6.382999897003174 C-54.59400177001953,-6.382999897003174 43.59400177001953,-11.878000259399414 43.59400177001953,-11.878000259399414 C43.59400177001953,-11.878000259399414 -4.396999835968018,18.211000442504883 -4.396999835968018,18.211000442504883 C-4.396999835968018,18.211000442504883 -54.59400177001953,-6.382999897003174 -54.59400177001953,-6.382999897003174z"/>
            </g>
        </g>
    </g>
</svg>