<svg xmlns="http://www.w3.org/2000/svg" viewBox="0 0 444 444" width="444" height="444"
     preserveAspectRatio="xMidYMid meet" style="width: 100%; height: 100%; transform: translate3d(0px, 0px, 0px);">
    <defs>
        <clipPath id="__lottie_element_282">
            <rect width="444" height="444" x="0" y="0"/>
        </clipPath>
    </defs>
    <g clip-path="url(#__lottie_element_282)">
        <g transform="matrix(1,0,0,1,18.753005981445312,20.195999145507812)" opacity="1" style="display: block;">
            <g opacity="1" transform="matrix(1,0,0,1,271.0790100097656,194.5959930419922)">
                <path stroke-linecap="butt" stroke-linejoin="miter" fill-opacity="0" stroke-miterlimit="10"
                      stroke="rgb(255,255,255)" stroke-opacity="1" stroke-width="8.269"
                      d=" M59.064998626708984,86.52400207519531 C59.064998626708984,86.52400207519531 -58.14799880981445,93.24700164794922 -58.14799880981445,93.24700164794922 C-58.14799880981445,93.24700164794922 -61.387001037597656,-8.894000053405762 -61.387001037597656,-8.894000053405762 C-62.45899963378906,-43.58700180053711 -31.415000915527344,-93.24700164794922 3.2939999103546143,-93.24700164794922 C37.88600158691406,-93.24700164794922 62.459999084472656,-43.77299880981445 61.558998107910156,-9.192999839782715 C61.558998107910156,-9.192999839782715 59.064998626708984,86.52400207519531 59.064998626708984,86.52400207519531z"/>
            </g>
            <g opacity="1" transform="matrix(1,0,0,1,0,0)">
                <path stroke-linecap="butt" stroke-linejoin="miter" fill-opacity="0" stroke-miterlimit="10"
                      stroke="rgb(255,255,255)" stroke-opacity="1" stroke-width="8.269"
                      d=" M202.7050018310547,338.6919860839844 C202.7050018310547,338.6919860839844 221.06900024414062,338.6919860839844 221.06900024414062,338.6919860839844"/>
            </g>
            <g opacity="1" transform="matrix(1,0,0,1,0,0)">
                <path stroke-linecap="butt" stroke-linejoin="miter" fill-opacity="0" stroke-miterlimit="10"
                      stroke="rgb(255,255,255)" stroke-opacity="1" stroke-width="8.269"
                      d=" M323.47900390625,338.6919860839844 C323.47900390625,338.6919860839844 347.9599914550781,338.6919860839844 347.9599914550781,338.6919860839844"/>
            </g>
            <g opacity="1" transform="matrix(1,0,0,1,221.01300048828125,312.77301025390625)">
                <path stroke-linecap="butt" stroke-linejoin="miter" fill-opacity="0" stroke-miterlimit="10"
                      stroke="rgb(255,255,255)" stroke-opacity="1" stroke-width="8.269"
                      d=" M9.126999855041504,-25.917999267578125 C9.126999855041504,-25.917999267578125 -9.12600040435791,25.917999267578125 -9.12600040435791,25.917999267578125"/>
            </g>
            <g opacity="1" transform="matrix(1,0,0,1,322.8909912109375,310.3940124511719)">
                <path stroke-linecap="butt" stroke-linejoin="miter" fill-opacity="0" stroke-miterlimit="10"
                      stroke="rgb(255,255,255)" stroke-opacity="1" stroke-width="8.269"
                      d=" M-9.770000457763672,-28.29800033569336 C-9.770000457763672,-28.29800033569336 9.769000053405762,28.29800033569336 9.769000053405762,28.29800033569336"/>
            </g>
            <g opacity="1" transform="matrix(1,0,0,1,231.5449981689453,162.85699462890625)">
                <path stroke-linecap="butt" stroke-linejoin="miter" fill-opacity="0" stroke-miterlimit="10"
                      stroke="rgb(255,255,255)" stroke-opacity="1" stroke-width="8.269"
                      d=" M-1.8940000534057617,5.704999923706055 C-1.8940000534057617,5.704999923706055 1.8949999809265137,-5.705999851226807 1.8949999809265137,-5.705999851226807"/>
            </g>
            <g opacity="1" transform="matrix(1,0,0,1,247.70399475097656,130.9080047607422)">
                <path stroke-linecap="butt" stroke-linejoin="miter" fill-opacity="0" stroke-miterlimit="10"
                      stroke="rgb(255,255,255)" stroke-opacity="1" stroke-width="8.269"
                      d=" M-8.317000389099121,8.291000366210938 C-8.317000389099121,8.291000366210938 8.317000389099121,-8.291000366210938 8.317000389099121,-8.291000366210938"/>
            </g>
            <g opacity="1" transform="matrix(1,0,0,1,250.21299743652344,151.6280059814453)">
                <path stroke-linecap="butt" stroke-linejoin="miter" fill-opacity="0" stroke-miterlimit="10"
                      stroke="rgb(255,255,255)" stroke-opacity="1" stroke-width="8.269"
                      d=" M-3.743000030517578,5.328000068664551 C-3.743000030517578,5.328000068664551 3.743000030517578,-5.328000068664551 3.743000030517578,-5.328000068664551"/>
            </g>
        </g>
        <g transform="matrix(1,0,0,1,18.753005981445312,0.1959991455078125)" opacity="1" style="display: none;">
            <g opacity="1" transform="matrix(1,0,0,1,266.59698486328125,322.0249938964844)">
                <path fill="rgb(28,28,28)" fill-opacity="1"
                      d=" M2.8971171379089355,42.0093994140625 C-3.1154592037200928,41.951904296875 -5.554371356964111,44.77899932861328 3.2360000610351562,44.76100158691406 C11.880000114440918,44.743038177490234 8.665916442871094,42.057674407958984 2.8971171379089355,42.0093994140625z"/>
            </g>
        </g>
        <g transform="matrix(0,0,0,0,322.66400146484375,363.84600830078125)" opacity="1" style="display: block;">
            <g opacity="1" transform="matrix(1,0,0,1,266.59698486328125,322.0249938964844)">
                <path fill="rgb(28,28,28)" fill-opacity="1"
                      d=" M2.0169999599456787,40.9640007019043 C2.0169999599456787,40.9640007019043 -3.38100004196167,34.30400085449219 2.509999990463257,34.2859992980957 C6.61899995803833,34.27299880981445 4.650000095367432,40.77899932861328 2.0169999599456787,40.9640007019043z"/>
            </g>
        </g>
        <g transform="matrix(0,0,0,0,260.66400146484375,363.84600830078125)" opacity="1" style="display: block;">
            <g opacity="1" transform="matrix(1,0,0,1,266.59698486328125,322.0249938964844)">
                <path fill="rgb(28,28,28)" fill-opacity="1"
                      d=" M2.0169999599456787,40.9640007019043 C2.0169999599456787,40.9640007019043 -3.38100004196167,34.30400085449219 2.509999990463257,34.2859992980957 C6.61899995803833,34.27299880981445 4.650000095367432,40.77899932861328 2.0169999599456787,40.9640007019043z"/>
            </g>
        </g>
        <g transform="matrix(1,0,0,1,18.753005981445312,20.195999145507812)" opacity="1" style="display: block;">
            <g opacity="1" transform="matrix(1,0,0,1,110.63300323486328,167.08900451660156)">
                <path fill="rgb(255,255,255)" fill-opacity="1"
                      d=" M-65.50900268554688,19.364999771118164 C-65.50900268554688,19.364999771118164 65.50900268554688,14.574000358581543 65.50900268554688,14.574000358581543 C65.50900268554688,14.574000358581543 44.428001403808594,-19.364999771118164 44.428001403808594,-19.364999771118164 C44.428001403808594,-19.364999771118164 -44.840999603271484,-14.899999618530273 -44.840999603271484,-14.899999618530273 C-44.840999603271484,-14.899999618530273 -65.50900268554688,19.364999771118164 -65.50900268554688,19.364999771118164z"/>
            </g>
            <g opacity="1" transform="matrix(1,0,0,1,110.77999877929688,72.21199798583984)">
                <path fill="rgb(255,255,255)" fill-opacity="1"
                      d=" M-38.01100158691406,29.13800048828125 C-38.01100158691406,29.13800048828125 2.5269999504089355,-29.13800048828125 38.0099983215332,29.13800048828125 C38.0099983215332,29.13800048828125 -38.01100158691406,29.13800048828125 -38.01100158691406,29.13800048828125z"/>
            </g>
            <g opacity="1" transform="matrix(1,0,0,1,110.63300323486328,242.64199829101562)">
                <path stroke-linecap="butt" stroke-linejoin="miter" fill-opacity="0" stroke-miterlimit="10"
                      stroke="rgb(28,28,28)" stroke-opacity="1" stroke-width="8.269"
                      d=" M60.827999114990234,60.979000091552734 C60.827999114990234,60.979000091552734 -61.040000915527344,60.979000091552734 -61.040000915527344,60.979000091552734 C-61.040000915527344,60.979000091552734 -65.50900268554688,-56.1879997253418 -65.50900268554688,-56.1879997253418 C-65.50900268554688,-56.1879997253418 65.50900268554688,-60.979000091552734 65.50900268554688,-60.979000091552734 C65.50900268554688,-60.979000091552734 60.827999114990234,60.979000091552734 60.827999114990234,60.979000091552734z"/>
            </g>
            <g opacity="1" transform="matrix(1,0,0,1,110.77899932861328,126.7699966430664)">
                <path stroke-linecap="butt" stroke-linejoin="miter" fill-opacity="0" stroke-miterlimit="10"
                      stroke="rgb(28,28,28)" stroke-opacity="1" stroke-width="8.269"
                      d=" M44.28099822998047,20.95400047302246 C44.28099822998047,20.95400047302246 -44.987998962402344,25.420000076293945 -44.987998962402344,25.420000076293945 C-44.987998962402344,25.420000076293945 -44.987998962402344,-25.420000076293945 -44.987998962402344,-25.420000076293945 C-44.987998962402344,-25.420000076293945 44.987998962402344,-25.420000076293945 44.987998962402344,-25.420000076293945 C44.987998962402344,-25.420000076293945 44.28099822998047,20.95400047302246 44.28099822998047,20.95400047302246z"/>
            </g>
            <g opacity="1" transform="matrix(1,0,0,1,0,0)">
                <path stroke-linecap="butt" stroke-linejoin="miter" fill-opacity="0" stroke-miterlimit="10"
                      stroke="rgb(28,28,28)" stroke-opacity="1" stroke-width="8.269"
                      d=" M154.76699829101562,197.4029998779297 C154.76699829101562,197.4029998779297 154.76699829101562,208.8560028076172 154.76699829101562,208.8560028076172"/>
            </g>
            <g opacity="1" transform="matrix(1,0,0,1,0,0)">
                <path stroke-linecap="butt" stroke-linejoin="miter" fill-opacity="0" stroke-miterlimit="10"
                      stroke="rgb(28,28,28)" stroke-opacity="1" stroke-width="8.269"
                      d=" M162.3939971923828,213.90899658203125 C162.3939971923828,213.90899658203125 162.3939971923828,221.9929962158203 162.3939971923828,221.9929962158203"/>
            </g>
            <g opacity="1" transform="matrix(1,0,0,1,155.89100646972656,236.4459991455078)">
                <path stroke-linecap="butt" stroke-linejoin="miter" fill-opacity="0" stroke-miterlimit="10"
                      stroke="rgb(28,28,28)" stroke-opacity="1" stroke-width="8.269"
                      d=" M0.9020000100135803,-8.281999588012695 C0.9020000100135803,-8.281999588012695 -0.902999997138977,8.281999588012695 -0.902999997138977,8.281999588012695"/>
            </g>
            <g opacity="1" transform="matrix(1,0,0,1,0,0)">
                <path stroke-linecap="butt" stroke-linejoin="miter" fill-opacity="0" stroke-miterlimit="10"
                      stroke="rgb(28,28,28)" stroke-opacity="1" stroke-width="8.269"
                      d=" M162.3939971923828,251.08099365234375 C162.3939971923828,251.08099365234375 162.3939971923828,259.50201416015625 162.3939971923828,259.50201416015625"/>
            </g>
            <g opacity="1" transform="matrix(1,0,0,1,154.66200256347656,279.1789855957031)">
                <path stroke-linecap="butt" stroke-linejoin="miter" fill-opacity="0" stroke-miterlimit="10"
                      stroke="rgb(28,28,28)" stroke-opacity="1" stroke-width="8.269"
                      d=" M0.6740000247955322,-6.859000205993652 C0.6740000247955322,-6.859000205993652 -0.6740000247955322,6.859000205993652 -0.6740000247955322,6.859000205993652"/>
            </g>
            <g opacity="1" transform="matrix(1,0,0,1,68.98799896240234,320.9289855957031)">
                <path fill="rgb(28,28,28)" fill-opacity="1"
                      d=" M-5.8979997634887695,-17.30699920654297 C-5.8979997634887695,-17.30699920654297 -14.196000099182129,17.761999130249023 -14.196000099182129,17.761999130249023 C-14.196000099182129,17.761999130249023 14.196000099182129,-17.76300048828125 14.196000099182129,-17.76300048828125 C14.196000099182129,-17.76300048828125 -5.8979997634887695,-17.30699920654297 -5.8979997634887695,-17.30699920654297z"/>
            </g>
            <g opacity="1" transform="matrix(1,0,0,1,144.95899963378906,321.156005859375)">
                <path fill="rgb(28,28,28)" fill-opacity="1"
                      d=" M-12.807999610900879,-17.53499984741211 C-12.807999610900879,-17.53499984741211 12.809000015258789,17.53499984741211 12.809000015258789,17.53499984741211 C12.809000015258789,17.53499984741211 11.303000450134277,-17.53499984741211 11.303000450134277,-17.53499984741211 C11.303000450134277,-17.53499984741211 -12.807999610900879,-17.53499984741211 -12.807999610900879,-17.53499984741211z"/>
            </g>
            <g opacity="1" transform="matrix(1,0,0,1,0,0)">
                <path stroke-linecap="butt" stroke-linejoin="miter" fill-opacity="0" stroke-miterlimit="10"
                      stroke="rgb(28,28,28)" stroke-opacity="1" stroke-width="8.269"
                      d=" M43.0880012512207,338.6919860839844 C43.0880012512207,338.6919860839844 66.83100128173828,338.6919860839844 66.83100128173828,338.6919860839844"/>
            </g>
            <g opacity="1" transform="matrix(1,0,0,1,0,0)">
                <path stroke-linecap="butt" stroke-linejoin="miter" fill-opacity="0" stroke-miterlimit="10"
                      stroke="rgb(28,28,28)" stroke-opacity="1" stroke-width="8.269"
                      d=" M148.1199951171875,338.6919860839844 C148.1199951171875,338.6919860839844 166.48399353027344,338.6919860839844 166.48399353027344,338.6919860839844"/>
            </g>
            <g opacity="1" transform="matrix(1,0,0,1,135.14100646972656,123.177001953125)">
                <path stroke-linecap="butt" stroke-linejoin="miter" fill-opacity="0" stroke-miterlimit="10"
                      stroke="rgb(28,28,28)" stroke-opacity="1" stroke-width="8.269"
                      d=" M-6.807000160217285,0.5600000023841858 C-6.807000160217285,0.5600000023841858 6.807000160217285,-0.5600000023841858 6.807000160217285,-0.5600000023841858"/>
            </g>
            <g opacity="1" transform="matrix(1,0,0,1,98.15599822998047,126.22000122070312)">
                <path stroke-linecap="butt" stroke-linejoin="miter" fill-opacity="0" stroke-miterlimit="10"
                      stroke="rgb(28,28,28)" stroke-opacity="1" stroke-width="8.269"
                      d=" M-16.888999938964844,1.3899999856948853 C-16.888999938964844,1.3899999856948853 16.888999938964844,-1.3899999856948853 16.888999938964844,-1.3899999856948853"/>
            </g>
            <g opacity="1" transform="matrix(1,0,0,1,92.47799682617188,242.64199829101562)">
                <path stroke-linecap="butt" stroke-linejoin="miter" fill-opacity="0" stroke-miterlimit="10"
                      stroke="rgb(28,28,28)" stroke-opacity="1" stroke-width="8.269"
                      d=" M-21.163000106811523,37.95600128173828 C-21.163000106811523,37.95600128173828 -26.937999725341797,-37.95600128173828 -26.937999725341797,-37.95600128173828 C-26.937999725341797,-37.95600128173828 26.937999725341797,-36.97100067138672 26.937999725341797,-36.97100067138672 C26.937999725341797,-36.97100067138672 26.937999725341797,36.09600067138672 26.937999725341797,36.09600067138672 C26.937999725341797,36.09600067138672 -21.163000106811523,37.95600128173828 -21.163000106811523,37.95600128173828z"/>
            </g>
            <g opacity="1" transform="matrix(1,0,0,1,0,0)">
                <path stroke-linecap="butt" stroke-linejoin="miter" fill-opacity="0" stroke-miterlimit="10"
                      stroke="rgb(28,28,28)" stroke-opacity="1" stroke-width="8.269"
                      d=" M76.75,242.5030059814453 C76.75,242.5030059814453 89.3740005493164,242.5030059814453 89.3740005493164,242.5030059814453"/>
            </g>
        </g>
        <g transform="matrix(1,0,0,1,18.753005981445312,20.195999145507812)" opacity="1" style="display: block;">
            <g opacity="1" transform="matrix(1,0,0,1,199.64199829101562,161.91900634765625)">
                <path stroke-linecap="butt" stroke-linejoin="miter" fill-opacity="0" stroke-miterlimit="10"
                      stroke="rgb(28,28,28)" stroke-opacity="1" stroke-width="8.269"
                      d=" M-89.00900268554688,-75.17500305175781 C-89.00900268554688,-75.17500305175781 -96.69100189208984,-134.7779998779297 -96.69100189208984,-134.7779998779297 C-96.69100189208984,-134.7779998779297 -60.91899871826172,-136.1439971923828 -60.91899871826172,-136.1439971923828 C-60.91899871826172,-136.1439971923828 -60.933998107910156,-124.16899871826172 -60.933998107910156,-124.16899871826172 C-60.933998107910156,-124.16899871826172 0.5820000171661377,-123.91699981689453 0.5820000171661377,-123.91699981689453 C0.5820000171661377,-123.91699981689453 -1.5069999694824219,-138.41200256347656 -1.5069999694824219,-138.41200256347656 C-1.5069999694824219,-138.41200256347656 72.73100280761719,-141.2469940185547 72.73100280761719,-141.2469940185547 C72.73100280761719,-141.2469940185547 72.48200225830078,-119.62300109863281 72.48200225830078,-119.62300109863281 C72.48200225830078,-119.62300109863281 83.74800109863281,-121.06999969482422 83.74800109863281,-121.06999969482422 C83.74800109863281,-121.06999969482422 87.49299621582031,-84.72899627685547 87.49299621582031,-84.72899627685547 C87.49299621582031,-84.72899627685547 72.0979995727539,-86.12699890136719 72.0979995727539,-86.12699890136719 C72.0979995727539,-86.12699890136719 75.88800048828125,16.743999481201172 75.88800048828125,16.743999481201172 C75.88800048828125,16.743999481201172 48.152000427246094,19.743999481201172 48.152000427246094,19.743999481201172 C48.152000427246094,19.743999481201172 89.94400024414062,36.422000885009766 89.94400024414062,36.422000885009766 C89.94400024414062,36.422000885009766 55.86600112915039,43.314998626708984 55.86600112915039,43.314998626708984 C55.86600112915039,43.314998626708984 92.19300079345703,48.04199981689453 92.19300079345703,48.04199981689453 C92.19300079345703,48.04199981689453 56.99300003051758,60.7859992980957 56.99300003051758,60.7859992980957 C56.99300003051758,60.7859992980957 96.69100189208984,68.15499877929688 96.69100189208984,68.15499877929688 C96.69100189208984,68.15499877929688 53.96200180053711,81.7750015258789 53.96200180053711,81.7750015258789 C53.96200180053711,81.7750015258789 93.6780014038086,88.85700225830078 93.6780014038086,88.85700225830078 C93.6780014038086,88.85700225830078 69.34300231933594,95.63500213623047 69.34300231933594,95.63500213623047 C69.34300231933594,95.63500213623047 68.70600128173828,141.2469940185547 68.70600128173828,141.2469940185547"/>
            </g>
        </g>
        <g transform="matrix(1,0,0,1,18.753005981445312,20.195999145507812)" opacity="1" style="display: block;">
            <g opacity="1" transform="matrix(1,0,0,1,0,0)">
                <path stroke-linecap="butt" stroke-linejoin="miter" fill-opacity="0" stroke-miterlimit="10"
                      stroke="rgb(255,255,255)" stroke-opacity="1" stroke-width="8.269"
                      d=" M26.31800079345703,377.4219970703125 C26.31800079345703,377.4219970703125 41.74100112915039,377.4219970703125 41.74100112915039,377.4219970703125"/>
            </g>
            <g opacity="1" transform="matrix(1,0,0,1,0,0)">
                <path stroke-linecap="butt" stroke-linejoin="miter" fill-opacity="0" stroke-miterlimit="10"
                      stroke="rgb(255,255,255)" stroke-opacity="1" stroke-width="8.269"
                      d=" M4.133999824523926,362.822998046875 C4.133999824523926,362.822998046875 26.31800079345703,362.822998046875 26.31800079345703,362.822998046875"/>
            </g>
            <g opacity="1" transform="matrix(1,0,0,1,0,0)">
                <path stroke-linecap="butt" stroke-linejoin="miter" fill-opacity="0" stroke-miterlimit="10"
                      stroke="rgb(255,255,255)" stroke-opacity="1" stroke-width="8.269"
                      d=" M368.3919982910156,370.10101318359375 C368.3919982910156,370.10101318359375 381.34100341796875,370.10101318359375 381.34100341796875,370.10101318359375"/>
            </g>
            <g opacity="1" transform="matrix(1,0,0,1,0,0)">
                <path stroke-linecap="butt" stroke-linejoin="miter" fill-opacity="0" stroke-miterlimit="10"
                      stroke="rgb(255,255,255)" stroke-opacity="1" stroke-width="8.269"
                      d=" M376.46099853515625,345.125 C376.46099853515625,345.125 402.3590087890625,345.125 402.3590087890625,345.125"/>
            </g>
            <g opacity="1" transform="matrix(1,0,0,1,185.85899353027344,369.1759948730469)">
                <path fill="rgb(255,255,255)" fill-opacity="1"
                      d=" M17.733999252319336,0 C17.733999252319336,3.753000020980835 9.795000076293945,6.796000003814697 0.0010000000474974513,6.796000003814697 C-9.793999671936035,6.796000003814697 -17.733999252319336,3.753000020980835 -17.733999252319336,0 C-17.733999252319336,-3.753999948501587 -9.793999671936035,-6.796000003814697 0.0010000000474974513,-6.796000003814697 C9.795000076293945,-6.796000003814697 17.733999252319336,-3.753999948501587 17.733999252319336,0z"/>
            </g>
        </g>
        <g transform="matrix(1,0,0,1,18.753005981445312,20.195999145507812)" opacity="1" style="display: block;">
            <g opacity="1" transform="matrix(1,0,0,1,0,0)">
                <path stroke-linecap="butt" stroke-linejoin="miter" fill-opacity="0" stroke-miterlimit="10"
                      stroke="rgb(28,28,28)" stroke-opacity="1" stroke-width="7.531"
                      d=" M95.33499908447266,376.2430114746094 C95.33499908447266,376.2430114746094 95.33499908447266,358.052001953125 95.33499908447266,358.052001953125"/>
            </g>
            <g opacity="1" transform="matrix(1,0,0,1,0,0)">
                <path stroke-linecap="butt" stroke-linejoin="miter" fill-opacity="0" stroke-miterlimit="10"
                      stroke="rgb(28,28,28)" stroke-opacity="1" stroke-width="7.531"
                      d=" M105.18099975585938,373.02398681640625 C105.18099975585938,373.02398681640625 105.18099975585938,356.0090026855469 105.18099975585938,356.0090026855469"/>
            </g>
            <g opacity="1" transform="matrix(1,0,0,1,0,0)">
                <path stroke-linecap="butt" stroke-linejoin="miter" fill-opacity="0" stroke-miterlimit="10"
                      stroke="rgb(28,28,28)" stroke-opacity="1" stroke-width="7.531"
                      d=" M116.17400360107422,376.2430114746094 C116.17400360107422,376.2430114746094 116.17400360107422,364.5159912109375 116.17400360107422,364.5159912109375"/>
            </g>
            <g opacity="1" transform="matrix(1,0,0,1,0,0)">
                <path stroke-linecap="butt" stroke-linejoin="miter" fill-opacity="0" stroke-miterlimit="10"
                      stroke="rgb(28,28,28)" stroke-opacity="1" stroke-width="7.531"
                      d=" M296.3330078125,382.93499755859375 C296.3330078125,382.93499755859375 296.3330078125,364.7439880371094 296.3330078125,364.7439880371094"/>
            </g>
            <g opacity="1" transform="matrix(1,0,0,1,0,0)">
                <path stroke-linecap="butt" stroke-linejoin="miter" fill-opacity="0" stroke-miterlimit="10"
                      stroke="rgb(28,28,28)" stroke-opacity="1" stroke-width="7.531"
                      d=" M331.60400390625,378.6300048828125 C331.60400390625,378.6300048828125 331.60400390625,361.614990234375 331.60400390625,361.614990234375"/>
            </g>
            <g opacity="1" transform="matrix(1,0,0,1,0,0)">
                <path stroke-linecap="butt" stroke-linejoin="miter" fill-opacity="0" stroke-miterlimit="10"
                      stroke="rgb(28,28,28)" stroke-opacity="1" stroke-width="7.531"
                      d=" M317.02099609375,373.43701171875 C317.02099609375,373.43701171875 317.02099609375,361.71099853515625 317.02099609375,361.71099853515625"/>
            </g>
        </g>
    </g>
</svg>