<svg xmlns="http://www.w3.org/2000/svg" viewBox="0 0 444 444" width="444" height="444"
     preserveAspectRatio="xMidYMid meet" style="width: 100%; height: 100%; transform: translate3d(0px, 0px, 0px);">
    <defs>
        <clipPath id="__lottie_element_247">
            <rect width="444" height="444" x="0" y="0"/>
        </clipPath>
    </defs>
    <g clip-path="url(#__lottie_element_247)">
        <g transform="matrix(1,0,0,1,11.75299072265625,3.7100067138671875)" opacity="1" style="display: block;">
            <g opacity="1" transform="matrix(1,0,0,1,203.81500244140625,275.2040100097656)">
                <path stroke-linecap="butt" stroke-linejoin="miter" fill-opacity="0" stroke-miterlimit="10"
                      stroke="rgb(255,255,255)" stroke-opacity="1" stroke-width="8.269"
                      d=" M169.87899780273438,54.34600067138672 C169.87899780273438,54.34600067138672 183.14300537109375,-61.01300048828125 127.5979995727539,-54.17399978637695 C87.93800354003906,-49.290000915527344 58.20600128173828,-4.486999988555908 32.79100036621094,21.263999938964844 C7.843999862670898,46.53900146484375 1.6150000095367432,0.5889999866485596 -5.72599983215332,-14.357000350952148 C-20.53700065612793,-44.50600051879883 -44.141998291015625,-18.274999618530273 -58.125,-0.36899998784065247 C-130.00999450683594,91.69499969482422 -78.44000244140625,-91.69499969482422 -183.14199829101562,54.34600067138672 C-183.14199829101562,54.34600067138672 169.87899780273438,54.34600067138672 169.87899780273438,54.34600067138672z"/>
            </g>
        </g>
        <g transform="matrix(1,0,0,1,11.75299072265625,3.7100067138671875)" opacity="1" style="display: block;">
            <g opacity="1" transform="matrix(1,0,0,1,241.63999938964844,24.312999725341797)">
                <path fill="rgb(255,255,255)" fill-opacity="1"
                      d=" M-18.44700050354004,22.386999130249023 C-18.44700050354004,22.386999130249023 -1.0789999961853027,-24.062999725341797 18.44700050354004,24.062999725341797"/>
            </g>
            <g opacity="1" transform="matrix(1,0,0,1,244.7270050048828,229.97999572753906)">
                <path fill="rgb(230,230,208)" fill-opacity="1"
                      d=" M13.692999839782715,-159.93699645996094 C13.692999839782715,-159.93699645996094 33.19900131225586,-161.22300720214844 33.19900131225586,-161.22300720214844 C33.19900131225586,-161.22300720214844 33.14899826049805,-181.11599731445312 33.14899826049805,-181.11599731445312 C33.14899826049805,-181.11599731445312 -30.533000946044922,-184.00999450683594 -30.533000946044922,-184.00999450683594 C-30.533000946044922,-184.00999450683594 -33.19900131225586,-158.38299560546875 -33.19900131225586,-158.38299560546875 C-33.19900131225586,-158.38299560546875 -7.611000061035156,-160.7969970703125 -7.611000061035156,-160.7969970703125 C-7.611000061035156,-160.7969970703125 -5.965000152587891,41.78799819946289 -5.965000152587891,41.78799819946289 C-5.965000152587891,41.78799819946289 -23.22100067138672,42.50400161743164 -23.22100067138672,42.50400161743164 C-23.22100067138672,42.50400161743164 -10.635000228881836,54.391998291015625 -10.635000228881836,54.391998291015625 C-10.635000228881836,54.391998291015625 -16.33799934387207,184.00999450683594 -16.33799934387207,184.00999450683594 C-16.33799934387207,184.00999450683594 21.104999542236328,184.00999450683594 21.104999542236328,184.00999450683594 C21.104999542236328,184.00999450683594 14.553000450134277,55.8650016784668 14.553000450134277,55.8650016784668 C14.553000450134277,55.8650016784668 28.1200008392334,40.37200164794922 28.1200008392334,40.37200164794922 C28.1200008392334,40.37200164794922 8.62399959564209,41.180999755859375 8.62399959564209,41.180999755859375 C8.62399959564209,41.180999755859375 13.692999839782715,-159.93699645996094 13.692999839782715,-159.93699645996094z"/>
            </g>
            <g opacity="1" transform="matrix(1,0,0,1,237.6580047607422,229.97999572753906)">
                <path stroke-linecap="butt" stroke-linejoin="miter" fill-opacity="0" stroke-miterlimit="10"
                      stroke="rgb(28,28,28)" stroke-opacity="1" stroke-width="8.269"
                      d=" M13.692999839782715,-159.93699645996094 C13.692999839782715,-159.93699645996094 33.19900131225586,-161.22300720214844 33.19900131225586,-161.22300720214844 C33.19900131225586,-161.22300720214844 33.14899826049805,-181.11599731445312 33.14899826049805,-181.11599731445312 C33.14899826049805,-181.11599731445312 -30.533000946044922,-184.00999450683594 -30.533000946044922,-184.00999450683594 C-30.533000946044922,-184.00999450683594 -33.19900131225586,-158.38299560546875 -33.19900131225586,-158.38299560546875 C-33.19900131225586,-158.38299560546875 -7.611000061035156,-160.7969970703125 -7.611000061035156,-160.7969970703125 C-7.611000061035156,-160.7969970703125 -5.965000152587891,41.78799819946289 -5.965000152587891,41.78799819946289 C-5.965000152587891,41.78799819946289 -23.22100067138672,42.50400161743164 -23.22100067138672,42.50400161743164 C-23.22100067138672,42.50400161743164 -10.635000228881836,54.391998291015625 -10.635000228881836,54.391998291015625 C-10.635000228881836,54.391998291015625 -16.339000701904297,184.00999450683594 -16.339000701904297,184.00999450683594 C-16.339000701904297,184.00999450683594 21.10300064086914,184.00999450683594 21.10300064086914,184.00999450683594 C21.10300064086914,184.00999450683594 14.553000450134277,55.8650016784668 14.553000450134277,55.8650016784668 C14.553000450134277,55.8650016784668 28.1200008392334,40.37200164794922 28.1200008392334,40.37200164794922 C28.1200008392334,40.37200164794922 8.62399959564209,41.180999755859375 8.62399959564209,41.180999755859375 C8.62399959564209,41.180999755859375 13.692999839782715,-159.93699645996094 13.692999839782715,-159.93699645996094z"/>
            </g>
            <g opacity="1" transform="matrix(1,0,0,1,0,0)">
                <path stroke-linecap="butt" stroke-linejoin="miter" fill-opacity="0" stroke-miterlimit="10"
                      stroke="rgb(28,28,28)" stroke-opacity="1" stroke-width="8.269"
                      d=" M243.29600524902344,294.1619873046875 C243.29600524902344,294.1619873046875 243.29600524902344,302.8760070800781 243.29600524902344,302.8760070800781"/>
            </g>
            <g opacity="1" transform="matrix(1,0,0,1,0,0)">
                <path stroke-linecap="butt" stroke-linejoin="miter" fill-opacity="0" stroke-miterlimit="10"
                      stroke="rgb(28,28,28)" stroke-opacity="1" stroke-width="8.269"
                      d=" M243.29600524902344,320.79901123046875 C243.29600524902344,320.79901123046875 243.29600524902344,333.9419860839844 243.29600524902344,333.9419860839844"/>
            </g>
            <g opacity="1" transform="matrix(1,0,0,1,0,0)">
                <path stroke-linecap="butt" stroke-linejoin="miter" fill-opacity="0" stroke-miterlimit="10"
                      stroke="rgb(28,28,28)" stroke-opacity="1" stroke-width="8.269"
                      d=" M244.7270050048828,349.3970031738281 C244.7270050048828,349.3970031738281 244.7270050048828,368.42999267578125 244.7270050048828,368.42999267578125"/>
            </g>
            <g opacity="1" transform="matrix(1,0,0,1,0,0)">
                <path stroke-linecap="butt" stroke-linejoin="miter" fill-opacity="0" stroke-miterlimit="10"
                      stroke="rgb(28,28,28)" stroke-opacity="1" stroke-width="8.269"
                      d=" M237.6580047607422,378.90399169921875 C237.6580047607422,378.90399169921875 237.6580047607422,389.6830139160156 237.6580047607422,389.6830139160156"/>
            </g>
        </g>
        <g transform="matrix(1,0,0,1,11.75299072265625,3.7100067138671875)" opacity="1" style="display: block;">
            <g opacity="1" transform="matrix(1,0,0,1,273.32598876953125,120.26499938964844)">
                <path fill="rgb(255,255,255)" fill-opacity="1"
                      d=" M-101.43599700927734,-6.952000141143799 C-101.43599700927734,-6.952000141143799 62.882999420166016,-33.49599838256836 62.882999420166016,-33.49599838256836 C62.882999420166016,-33.49599838256836 101.43699645996094,-10.744000434875488 101.43699645996094,-10.744000434875488 C101.43699645996094,-10.744000434875488 69.20500183105469,22.75200080871582 69.20500183105469,22.75200080871582 C69.20500183105469,22.75200080871582 -101.43599700927734,33.49599838256836 -101.43599700927734,33.49599838256836 C-101.43599700927734,33.49599838256836 -101.43599700927734,-6.952000141143799 -101.43599700927734,-6.952000141143799z"/>
            </g>
            <g opacity="1" transform="matrix(1,0,0,1,279.32598876953125,109.26499938964844)">
                <path stroke-linecap="butt" stroke-linejoin="miter" fill-opacity="0" stroke-miterlimit="10"
                      stroke="rgb(28,28,28)" stroke-opacity="1" stroke-width="8.269"
                      d=" M-101.43599700927734,-6.952000141143799 C-101.43599700927734,-6.952000141143799 62.882999420166016,-33.49599838256836 62.882999420166016,-33.49599838256836 C62.882999420166016,-33.49599838256836 101.43699645996094,-10.744000434875488 101.43699645996094,-10.744000434875488 C101.43699645996094,-10.744000434875488 69.20500183105469,22.75200080871582 69.20500183105469,22.75200080871582 C69.20500183105469,22.75200080871582 -101.43599700927734,33.49599838256836 -101.43599700927734,33.49599838256836 C-101.43599700927734,33.49599838256836 -101.43599700927734,-6.952000141143799 -101.43599700927734,-6.952000141143799z"/>
            </g>
        </g>
        <g transform="matrix(1,0,0,1,11.75299072265625,3.7100067138671875)" opacity="1" style="display: block;">
            <g opacity="1" transform="matrix(1,0,0,1,194.0330047607422,163.36099243164062)">
                <path fill="rgb(255,255,255)" fill-opacity="1"
                      d=" M101.43699645996094,-6.952000141143799 C101.43699645996094,-6.952000141143799 -62.88399887084961,-33.49599838256836 -62.88399887084961,-33.49599838256836 C-62.88399887084961,-33.49599838256836 -101.43699645996094,-10.744000434875488 -101.43699645996094,-10.744000434875488 C-101.43699645996094,-10.744000434875488 -69.20500183105469,22.75200080871582 -69.20500183105469,22.75200080871582 C-69.20500183105469,22.75200080871582 101.43699645996094,33.49599838256836 101.43699645996094,33.49599838256836 C101.43699645996094,33.49599838256836 101.43699645996094,-6.952000141143799 101.43699645996094,-6.952000141143799z"/>
            </g>
            <g opacity="1" transform="matrix(1,0,0,1,211.0330047607422,164.36099243164062)">
                <path stroke-linecap="butt" stroke-linejoin="miter" fill-opacity="0" stroke-miterlimit="10"
                      stroke="rgb(28,28,28)" stroke-opacity="1" stroke-width="8.269"
                      d=" M101.43699645996094,-6.952000141143799 C101.43699645996094,-6.952000141143799 -62.88399887084961,-33.49599838256836 -62.88399887084961,-33.49599838256836 C-62.88399887084961,-33.49599838256836 -101.43699645996094,-10.744000434875488 -101.43699645996094,-10.744000434875488 C-101.43699645996094,-10.744000434875488 -69.20500183105469,22.75200080871582 -69.20500183105469,22.75200080871582 C-69.20500183105469,22.75200080871582 101.43699645996094,33.49599838256836 101.43699645996094,33.49599838256836 C101.43699645996094,33.49599838256836 101.43699645996094,-6.952000141143799 101.43699645996094,-6.952000141143799z"/>
            </g>
        </g>
        <g transform="matrix(1,0,0,1,11.75299072265625,3.7100067138671875)" opacity="0.9999915958447436"
           style="display: block;">
            <g opacity="1" transform="matrix(1,0,0,1,0,0)">
                <path stroke-linecap="butt" stroke-linejoin="miter" fill-opacity="0" stroke-miterlimit="10"
                      stroke="rgb(255,255,255)" stroke-opacity="1" stroke-width="8.269"
                      d=" M316.27398681640625,402.70098876953125 C316.27398681640625,402.70098876953125 331.6969909667969,402.70098876953125 331.6969909667969,402.70098876953125"/>
            </g>
            <g opacity="1" transform="matrix(1,0,0,1,0,0)">
                <path stroke-linecap="butt" stroke-linejoin="miter" fill-opacity="0" stroke-miterlimit="10"
                      stroke="rgb(255,255,255)" stroke-opacity="1" stroke-width="8.269"
                      d=" M294.0899963378906,388.10198974609375 C294.0899963378906,388.10198974609375 316.27398681640625,388.10198974609375 316.27398681640625,388.10198974609375"/>
            </g>
            <g opacity="1" transform="matrix(1,0,0,1,0,0)">
                <path stroke-linecap="butt" stroke-linejoin="miter" fill-opacity="0" stroke-miterlimit="10"
                      stroke="rgb(255,255,255)" stroke-opacity="1" stroke-width="8.269"
                      d=" M50.257999420166016,374.50299072265625 C50.257999420166016,374.50299072265625 28.575000762939453,374.50299072265625 28.575000762939453,374.50299072265625"/>
            </g>
            <g opacity="1" transform="matrix(1,0,0,1,0,0)">
                <path stroke-linecap="butt" stroke-linejoin="miter" fill-opacity="0" stroke-miterlimit="10"
                      stroke="rgb(255,255,255)" stroke-opacity="1" stroke-width="8.269"
                      d=" M65.31500244140625,401.2640075683594 C65.31500244140625,401.2640075683594 39.417999267578125,401.2640075683594 39.417999267578125,401.2640075683594"/>
            </g>
            <g opacity="1" transform="matrix(1,0,0,1,129.16700744628906,395.85101318359375)">
                <path fill="rgb(255,255,255)" fill-opacity="1"
                      d=" M-24.09600067138672,0 C-24.09600067138672,3.2309999465942383 -13.307999610900879,5.849999904632568 0,5.849999904632568 C13.307999610900879,5.849999904632568 24.09600067138672,3.2309999465942383 24.09600067138672,0 C24.09600067138672,-3.2300000190734863 13.307999610900879,-5.849999904632568 0,-5.849999904632568 C-13.307999610900879,-5.849999904632568 -24.09600067138672,-3.2300000190734863 -24.09600067138672,0z"/>
            </g>
        </g>
        <g transform="matrix(1,0,0,1,11.75299072265625,3.7100067138671875)" opacity="1" style="display: block;">
            <g opacity="1" transform="matrix(1,0,0,1,0,0)">
                <path stroke-linecap="butt" stroke-linejoin="miter" fill-opacity="0" stroke-miterlimit="10"
                      stroke="rgb(28,28,28)" stroke-opacity="1" stroke-width="8.269"
                      d=" M368.9830017089844,403.572998046875 C368.9830017089844,403.572998046875 368.9830017089844,385.3819885253906 368.9830017089844,385.3819885253906"/>
            </g>
            <g opacity="1" transform="matrix(1,0,0,1,0,0)">
                <path stroke-linecap="butt" stroke-linejoin="miter" fill-opacity="0" stroke-miterlimit="10"
                      stroke="rgb(28,28,28)" stroke-opacity="1" stroke-width="8.269"
                      d=" M378.8280029296875,400.3550109863281 C378.8280029296875,400.3550109863281 378.8280029296875,383.3389892578125 378.8280029296875,383.3389892578125"/>
            </g>
            <g opacity="1" transform="matrix(1,0,0,1,0,0)">
                <path stroke-linecap="butt" stroke-linejoin="miter" fill-opacity="0" stroke-miterlimit="10"
                      stroke="rgb(28,28,28)" stroke-opacity="1" stroke-width="8.269"
                      d=" M389.8210144042969,403.572998046875 C389.8210144042969,403.572998046875 389.8210144042969,391.84698486328125 389.8210144042969,391.84698486328125"/>
            </g>
        </g>
    </g>
</svg>