<svg xmlns="http://www.w3.org/2000/svg" viewBox="0 0 165 165" width="165" height="165"
     preserveAspectRatio="xMidYMid meet" style="width: 100%; height: 100%; transform: translate3d(0px, 0px, 0px);">
    <defs>
        <clipPath id="__lottie_element_122">
            <rect width="165" height="165" x="0" y="0"/>
        </clipPath>
        <mask id="__lottie_element_123">
            <g transform="matrix(1,0,0,1,3.837005615234375,-9.686996459960938)" opacity="1" style="display: block;">
                <path fill="rgb(255,0,0)" fill-opacity="1"
                      d=" M7.83,97.94 C7.83,97.94 7.83,166.19 7.83,166.19 C7.83,166.19 140.38,166.19 140.38,166.19 C140.38,166.19 140.38,74.56 140.38,74.56 C140.38,74.56 7.83,97.94 7.83,97.94z"/>
                <g opacity="1" transform="matrix(1,0,0,1,72.35399627685547,106.03299713134766)"/>
            </g>
        </mask>
    </defs>
    <g clip-path="url(#__lottie_element_122)">
        <g transform="matrix(1,0,0,1,3.837005615234375,-9.686996459960938)" opacity="1" style="display: block;">
            <g opacity="1" transform="matrix(1,0,0,1,84.30500030517578,117.55599975585938)">
                <path fill="rgb(124,224,80)" fill-opacity="1"
                      d=" M44.5880012512207,0.0010000000474974513 C44.5880012512207,24.625999450683594 24.624000549316406,44.5880012512207 -0.0010000000474974513,44.5880012512207 C-24.625,44.5880012512207 -44.5880012512207,24.625999450683594 -44.5880012512207,0.0010000000474974513 C-44.5880012512207,-24.624000549316406 -24.625,-44.5880012512207 -0.0010000000474974513,-44.5880012512207 C24.624000549316406,-44.5880012512207 44.5880012512207,-24.624000549316406 44.5880012512207,0.0010000000474974513z"/>
            </g>
            <g opacity="1" transform="matrix(1,0,0,1,85.33699798583984,57.40700149536133)">
                <path fill="rgb(255,255,255)" fill-opacity="1"
                      d=" M-39.44200134277344,-27.815000534057617 C-39.44200134277344,-27.815000534057617 -47.020999908447266,35.00600051879883 -47.020999908447266,35.00600051879883 C-47.020999908447266,35.00600051879883 47.020999908447266,18.76300048828125 47.020999908447266,18.76300048828125 C47.020999908447266,18.76300048828125 22.795000076293945,-35.00600051879883 22.795000076293945,-35.00600051879883 C22.795000076293945,-35.00600051879883 -39.44200134277344,-27.815000534057617 -39.44200134277344,-27.815000534057617z"/>
            </g>
        </g>
        <g transform="matrix(1,0,0,1,3.837005615234375,-9.686996459960938)" opacity="1" style="display: block;">
            <g opacity="1" transform="matrix(1,0,0,1,0,0)">
                <g opacity="1" transform="matrix(1,0,0,1,60.23099899291992,68.87999725341797)">
                    <path stroke-linecap="butt" stroke-linejoin="miter" fill-opacity="0" stroke-miterlimit="10"
                          stroke="rgb(28,28,28)" stroke-opacity="1" stroke-width="9.757"
                          d=" M31.856000900268555,-5.617000102996826 C31.856000900268555,-5.617000102996826 -31.856000900268555,5.617000102996826 -31.856000900268555,5.617000102996826"/>
                </g>
                <g opacity="1" transform="matrix(1,0,0,1,74.10900115966797,59.70399856567383)">
                    <path stroke-linecap="butt" stroke-linejoin="miter" fill-opacity="0" stroke-miterlimit="10"
                          stroke="rgb(28,28,28)" stroke-opacity="1" stroke-width="9.757"
                          d=" M49.715999603271484,17.777999877929688 C49.715999603271484,17.777999877929688 -49.715999603271484,35.31100082397461 -49.715999603271484,35.31100082397461 C-49.715999603271484,35.31100082397461 -38.82400131225586,-25.150999069213867 -38.82400131225586,-25.150999069213867 C-38.82400131225586,-25.150999069213867 -7.807000160217285,-17.73200035095215 -7.807000160217285,-17.73200035095215 C-7.807000160217285,-17.73200035095215 18.802000045776367,-35.31100082397461 18.802000045776367,-35.31100082397461 C18.802000045776367,-35.31100082397461 49.715999603271484,17.777999877929688 49.715999603271484,17.777999877929688z"/>
                </g>
                <g opacity="1" transform="matrix(1,0,0,1,58.388999938964844,47.20000076293945)">
                    <path stroke-linecap="butt" stroke-linejoin="miter" fill-opacity="0" stroke-miterlimit="10"
                          stroke="rgb(28,28,28)" stroke-opacity="1" stroke-width="9.757"
                          d=" M-7.913000106811523,5.2270002365112305 C-7.913000106811523,5.2270002365112305 7.913000106811523,-5.2270002365112305 7.913000106811523,-5.2270002365112305"/>
                </g>
                <g opacity="1" transform="matrix(1,0,0,1,74.10900115966797,86.2490005493164)">
                    <path stroke-linecap="butt" stroke-linejoin="miter" fill-opacity="0" stroke-miterlimit="10"
                          stroke="rgb(28,28,28)" stroke-opacity="1" stroke-width="9.757"
                          d=" M-66.2770004272461,11.685999870300293 C-66.2770004272461,11.685999870300293 66.2770004272461,-11.685999870300293 66.2770004272461,-11.685999870300293"/>
                </g>
            </g>
        </g>
        <g transform="matrix(1,0,0,1,3.837005615234375,-9.687000274658203)" opacity="1" style="display: block;">
            <g opacity="1" transform="matrix(1,0,0,1,140.0749969482422,47.486000061035156)">
                <path fill="rgb(28,28,28)" fill-opacity="1"
                      d=" M9.6850004196167,-3.6059999465942383 C9.6850004196167,-3.6059999465942383 -9.6850004196167,12.38599967956543 -9.6850004196167,12.38599967956543 C-9.6850004196167,12.38599967956543 -5.521999835968018,-12.38599967956543 -5.521999835968018,-12.38599967956543 C-5.521999835968018,-12.38599967956543 9.6850004196167,-3.6059999465942383 9.6850004196167,-3.6059999465942383z"/>
            </g>
        </g>
        <g mask="url(#__lottie_element_123)" style="display: block;">
            <g transform="matrix(0.5,0.8660253882408142,-0.8660253882408142,0.5,131.84127807617188,-19.331893920898438)"
               opacity="1">
                <g opacity="1" transform="matrix(1,0,0,1,72.35399627685547,106.03299713134766)">
                    <path stroke-linecap="butt" stroke-linejoin="miter" fill-opacity="0" stroke-miterlimit="10"
                          stroke="rgb(28,28,28)" stroke-opacity="1" stroke-width="9.757"
                          d=" M41.89400100708008,-0.0020000000949949026 C41.89400100708008,-4.638000011444092 44.32099914550781,-8.70300006866455 47.96200180053711,-11.017999649047852 C45.733001708984375,-20.780000686645508 40.59700012207031,-29.43400001525879 33.512001037597656,-36.025001525878906 C29.69099998474121,-34.03300094604492 24.96299934387207,-33.9640007019043 20.947999954223633,-36.279998779296875 C16.92799949645996,-38.60300064086914 14.621000289916992,-42.737998962402344 14.437000274658203,-47.055999755859375 C9.869000434875488,-48.45800018310547 5.0269999504089355,-49.2140007019043 -0.003000000026077032,-49.2140007019043 C-5.0279998779296875,-49.2140007019043 -9.871000289916992,-48.45800018310547 -14.442000389099121,-47.055999755859375 C-14.623000144958496,-42.737998962402344 -16.933000564575195,-38.60300064086914 -20.948999404907227,-36.284000396728516 C-24.964000701904297,-33.96200180053711 -29.69499969482422,-34.03300094604492 -33.52000045776367,-36.02799987792969 C-40.60100173950195,-29.434999465942383 -45.73400115966797,-20.780000686645508 -47.96200180053711,-11.017999649047852 C-44.32099914550781,-8.70300006866455 -41.89500045776367,-4.638000011444092 -41.89500045776367,-0.0020000000949949026 C-41.89500045776367,4.63700008392334 -44.32099914550781,8.699000358581543 -47.96200180053711,11.013999938964844 C-45.73400115966797,20.777000427246094 -40.599998474121094,29.43199920654297 -33.518001556396484,36.025001525878906 C-29.690000534057617,34.02899932861328 -24.95800018310547,33.96200180053711 -20.948999404907227,36.27899932861328 C-16.933000564575195,38.60200119018555 -14.623000144958496,42.73699951171875 -14.442000389099121,47.05400085449219 C-9.871000289916992,48.45600128173828 -5.0279998779296875,49.2140007019043 -0.003000000026077032,49.2140007019043 C5.0269999504089355,49.2140007019043 9.869000434875488,48.45600128173828 14.437000274658203,47.05400085449219 C14.621000289916992,42.73699951171875 16.92799949645996,38.60300064086914 20.947999954223633,36.28099822998047 C24.96299934387207,33.9630012512207 29.69099998474121,34.02899932861328 33.512001037597656,36.025001525878906 C40.59700012207031,29.43199920654297 45.733001708984375,20.777000427246094 47.96200180053711,11.015999794006348 C44.32099914550781,8.699000358581543 41.89400100708008,4.63700008392334 41.89400100708008,-0.0020000000949949026z"/>
                </g>
                <g opacity="1" transform="matrix(1,0,0,1,72.35399627685547,127.69300079345703)">
                    <path fill="rgb(28,28,28)" fill-opacity="1"
                          d=" M0,-11.762999534606934 C0,-11.762999534606934 8.779999732971191,11.762999534606934 8.779999732971191,11.762999534606934 C8.779999732971191,11.762999534606934 -8.779999732971191,11.762999534606934 -8.779999732971191,11.762999534606934 C-8.779999732971191,11.762999534606934 0,-11.762999534606934 0,-11.762999534606934z"/>
                </g>
                <g opacity="1" transform="matrix(1,0,0,1,46.40299987792969,88.4020004272461)">
                    <path fill="rgb(28,28,28)" fill-opacity="1"
                          d=" M12.38599967956543,9.685999870300293 C12.38599967956543,9.685999870300293 -12.38599967956543,5.521999835968018 -12.38599967956543,5.521999835968018 C-12.38599967956543,5.521999835968018 -3.6059999465942383,-9.685999870300293 -3.6059999465942383,-9.685999870300293 C-3.6059999465942383,-9.685999870300293 12.38599967956543,9.685999870300293 12.38599967956543,9.685999870300293z"/>
                </g>
                <g opacity="1" transform="matrix(1,0,0,1,93.30500030517578,120.66300201416016)">
                    <path fill="rgb(28,28,28)" fill-opacity="1"
                          d=" M3.6050000190734863,9.6850004196167 C3.6050000190734863,9.6850004196167 -12.385000228881836,-9.6850004196167 -12.385000228881836,-9.6850004196167 C-12.385000228881836,-9.6850004196167 12.385000228881836,-5.520999908447266 12.385000228881836,-5.520999908447266 C12.385000228881836,-5.520999908447266 3.6050000190734863,9.6850004196167 3.6050000190734863,9.6850004196167z"/>
                </g>
                <g opacity="1" transform="matrix(1,0,0,1,93.30400085449219,91.4020004272461)">
                    <path fill="rgb(28,28,28)" fill-opacity="1"
                          d=" M12.38599967956543,5.520999908447266 C12.38599967956543,5.520999908447266 -12.38599967956543,9.685999870300293 -12.38599967956543,9.685999870300293 C-12.38599967956543,9.685999870300293 3.6050000190734863,-9.685999870300293 3.6050000190734863,-9.685999870300293 C3.6050000190734863,-9.685999870300293 12.38599967956543,5.520999908447266 12.38599967956543,5.520999908447266z"/>
                </g>
                <g opacity="1" transform="matrix(1,0,0,1,51.40299987792969,120.66300201416016)">
                    <path fill="rgb(28,28,28)" fill-opacity="1"
                          d=" M-12.385000228881836,-5.521999835968018 C-12.385000228881836,-5.521999835968018 12.385000228881836,-9.6850004196167 12.385000228881836,-9.6850004196167 C12.385000228881836,-9.6850004196167 -3.6050000190734863,9.6850004196167 -3.6050000190734863,9.6850004196167 C-3.6050000190734863,9.6850004196167 -12.385000228881836,-5.521999835968018 -12.385000228881836,-5.521999835968018z"/>
                </g>
                <g opacity="1" transform="matrix(1,0,0,1,72.35399627685547,85.3489990234375)">
                    <path fill="rgb(28,28,28)" fill-opacity="1"
                          d=" M0,10.78600025177002 C0,10.78600025177002 -8.779999732971191,-12.739999771118164 -8.779999732971191,-12.739999771118164 C-8.779999732971191,-12.739999771118164 8.779999732971191,-12.739999771118164 8.779999732971191,-12.739999771118164 C8.779999732971191,-12.739999771118164 0,10.78600025177002 0,10.78600025177002z"/>
                </g>
            </g>
        </g>
    </g>
</svg>