<svg xmlns="http://www.w3.org/2000/svg" width="320px" height="286px" viewBox="0 0 3200 2860"
     preserveAspectRatio="xMidYMid meet">
    <g id="layer101" fill="#ee6622" stroke="none">
        <path d="M1470 2660 c-211 -33 -417 -158 -535 -324 -52 -74 -82 -133 -128 -253 -21 -55 -118 -235 -241 -448 -114 -196 -211 -377 -217 -401 -33 -130 35 -269 156 -320 54 -22 162 -18 215 9 l45 22 5 261 c5 240 7 264 24 283 24 27 70 27 96 1 19 -19 20 -33 20 -445 0 -267 4 -443 11 -475 15 -72 64 -137 129 -174 49 -28 64 -31 136 -31 72 0 86 3 129 30 57 35 110 100 125 153 5 20 10 70 10 110 l0 73 -120 208 c-66 115 -120 219 -120 232 0 14 7 35 16 47 19 27 74 30 97 5 8 -10 137 -229 286 -488 296 -513 316 -541 414 -570 64 -19 100 -19 163 0 61 18 116 62 152 123 24 41 27 57 27 133 l0 85 -112 195 -112 194 -152 6 c-151 5 -152 6 -176 34 -18 21 -23 35 -18 54 13 52 23 55 192 56 185 2 252 18 398 93 73 37 108 64 185 142 127 127 165 195 165 300 0 65 -4 83 -30 129 -34 62 -72 94 -152 127 -32 13 -49 24 -38 24 62 1 160 73 198 145 33 62 31 174 -5 244 -93 179 -294 335 -505 393 -70 19 -109 21 -378 24 -165 1 -325 -1 -355 -6z m609 -546 c54 -16 105 -60 191 -165 34 -41 115 -88 155 -90 11 0 -3 -8 -31 -18 -63 -21 -106 -52 -141 -99 -79 -109 -141 -151 -233 -159 -193 -18 -336 165 -279 357 19 64 109 153 175 174 64 19 99 19 163 0z"/>
    </g>
</svg>