<svg xmlns="http://www.w3.org/2000/svg" width="316px" height="313px" viewBox="0 0 3160 3130" preserveAspectRatio="xMidYMid meet">
    <g id="layer101" fill="#cc2255" stroke="none">
        <path d="M1402 2860 c-274 -35 -540 -162 -740 -354 -187 -180 -304 -382 -368 -637 -35 -141 -43 -369 -20 -514 89 -538 490 -956 1030 -1073 115 -24 408 -24 524 1 398 87 722 339 905 702 91 183 131 355 131 570 0 276 -69 507 -220 738 -61 93 -258 290 -351 351 -153 100 -317 167 -494 201 -103 20 -299 27 -397 15z"/>
    </g>
    <g id="layer102" fill="#ed6523" stroke="none">
        <path d="M1425 2533 c-174 -24 -358 -109 -503 -231 l-53 -45 -47 46 c-70 68 -85 66 -188 -35 -93 -90 -93 -90 -48 -178 32 -66 99 -128 174 -164 l65 -31 468 -5 469 -5 24 -28 c30 -35 31 -69 2 -101 l-23 -25 -250 -5 c-137 -3 -300 -5 -361 -6 -94 0 -115 -3 -135 -19 -32 -25 -31 -82 1 -116 l23 -25 -69 0 -69 0 -115 -230 c-63 -126 -111 -233 -107 -237 4 -4 69 23 144 60 74 38 138 65 141 62 4 -3 -40 -98 -96 -211 -56 -112 -102 -211 -102 -219 0 -10 -10 -15 -27 -15 -22 0 -66 39 -226 197 l-198 198 25 -68 c154 -413 514 -718 960 -815 115 -24 408 -24 524 1 578 126 993 603 1037 1192 l7 90 -319 -318 c-175 -174 -324 -317 -330 -317 -11 0 -85 279 -77 291 2 4 49 -8 104 -26 61 -20 102 -30 106 -24 3 6 -27 59 -66 120 -63 95 -77 110 -109 118 -20 6 -163 42 -318 81 -254 63 -292 70 -381 70 -63 0 -102 4 -110 12 -16 16 -15 55 1 65 6 4 71 8 142 8 72 0 252 1 401 3 263 2 272 3 304 25 105 70 97 223 -14 276 -40 20 -59 21 -395 21 l-353 0 -29 29 c-35 35 -37 71 -6 105 l22 25 455 8 455 8 -100 101 c-156 157 -317 243 -522 279 -79 14 -236 18 -308 8z"/>
    </g>
    <g id="layer103" fill="#eea901" stroke="none">
        <path d="M1464 2211 c-128 -21 -243 -75 -337 -160 l-27 -25 67 -68 67 -68 254 0 c160 0 261 -4 273 -11 11 -5 28 -23 38 -39 l17 -29 79 79 80 80 -259 0 -258 0 -29 29 c-34 35 -37 68 -8 105 l20 26 222 0 222 1 -47 25 c-93 48 -261 73 -374 55z"/>
        <path d="M975 1562 l-71 -3 -114 -229 c-63 -126 -111 -233 -107 -237 4 -4 69 23 144 60 74 38 138 65 141 62 4 -3 -41 -100 -98 -215 -57 -115 -101 -212 -97 -216 4 -4 27 12 52 36 l44 44 49 -41 c348 -294 819 -321 1202 -68 110 73 255 236 315 355 13 27 -8 10 -92 -72 -61 -60 -115 -108 -120 -108 -11 0 -85 279 -77 291 2 4 49 -8 104 -26 61 -20 102 -30 106 -24 3 6 -27 59 -66 120 -63 95 -77 110 -109 118 -20 6 -155 41 -301 78 l-265 68 -285 5 c-157 3 -317 4 -355 2z"/>
        <path d="M491 1459 c-32 -87 -64 -200 -58 -206 9 -8 297 132 297 145 0 4 -46 23 -102 41 -57 19 -109 36 -115 38 -7 3 -17 -6 -22 -18z"/>
    </g>
    <g id="layer104" fill="#eedd01" stroke="none">
        <path d="M1410 1722 c0 -4 17 -25 38 -45 37 -36 39 -37 118 -37 79 0 80 0 117 38 20 21 37 41 37 45 0 4 -70 7 -155 7 -85 0 -155 -4 -155 -8z"/>
        <path d="M1335 1329 l-230 -230 45 -40 c25 -21 81 -57 125 -78 138 -68 276 -86 420 -56 82 17 233 90 290 140 l40 35 -230 230 -230 230 -230 -231z"/>
    </g>
    <g id="layer105" fill="#eeedeb" stroke="none">
        <path d="M1450 1444 l-115 -115 34 -30 c78 -66 223 -82 322 -37 30 14 65 35 79 46 l25 21 -115 116 -115 115 -115 -116z"/>
    </g>
</svg>