<svg version="1.0" xmlns="http://www.w3.org/2000/svg" width="328px" height="251px" viewBox="0 0 3280 2510"
     preserveAspectRatio="xMidYMid meet">
    <g id="layer101" fill="#222222" stroke="none">
        <path d="M1295 2110 c-19 -21 -17 -23 133 -173 l152 -152 22 23 23 22 -150 150 c-82 83 -152 150 -156 150 -3 0 -14 -9 -24 -20z"/>
        <path d="M1834 2058 l-64 -61 0 -67 0 -67 -112 -109 c-62 -60 -159 -154 -215 -209 -112 -107 -126 -135 -68 -135 19 0 35 3 35 8 0 4 95 97 210 207 l210 199 0 64 c0 62 2 67 40 108 33 36 40 51 40 84 0 22 -3 40 -6 40 -3 0 -35 -28 -70 -62z"/>
        <path d="M2058 2061 c-77 -73 -87 -101 -35 -101 25 0 42 9 71 39 33 34 37 43 34 82 l-3 44 -67 -64z"/>
        <path d="M1207 2022 c-9 -10 -17 -23 -17 -28 0 -13 283 -294 296 -294 6 0 18 8 27 18 15 17 7 27 -136 170 -147 147 -154 152 -170 134z"/>
        <path d="M1105 1920 c-19 -21 -17 -23 133 -173 l152 -152 22 23 23 22 -150 150 c-82 83 -152 150 -156 150 -3 0 -14 -9 -24 -20z"/>
        <path d="M2015 1840 c-38 -39 -41 -40 -105 -40 l-65 0 -117 -107 -118 -107 0 -180 0 -181 123 122 122 121 78 4 c89 4 99 -8 47 -57 -21 -20 -30 -38 -30 -59 0 -27 -47 -78 -398 -429 l-397 -397 -486 0 -485 0 -29 -30 -29 -30 535 0 534 0 408 408 c379 379 407 409 407 442 0 26 9 43 35 70 l36 37 -3 109 -3 109 -56 -52 c-55 -52 -57 -53 -119 -53 l-62 0 -77 -75 c-43 -41 -80 -75 -84 -75 -4 0 -7 35 -7 78 l0 77 102 97 103 98 70 0 71 0 62 63 c34 34 62 66 62 70 0 4 -19 7 -43 7 -37 0 -48 -6 -82 -40z"/>
        <path d="M2187 1817 c-37 -34 -67 -65 -67 -69 0 -5 22 -8 48 -8 45 0 51 3 110 63 34 34 62 66 62 70 0 4 -19 7 -42 7 -38 -1 -50 -8 -111 -63z"/>
        <path d="M1080 1760 c0 -43 3 -48 102 -147 57 -57 108 -103 114 -103 6 0 18 8 27 18 15 17 9 26 -113 147 l-130 130 0 -45z"/>
        <path d="M1880 1640 l-35 -29 45 0 c35 0 53 6 80 29 l35 29 -45 1 c-36 0 -53 -6 -80 -30z"/>
        <path d="M1080 1569 c0 -41 4 -49 58 -102 49 -49 63 -57 95 -57 20 0 37 3 37 8 0 4 -43 50 -95 102 l-95 95 0 -46z"/>
        <path d="M955 1300 l-29 -30 242 0 242 0 0 30 0 30 -213 0 -213 0 -29 -30z"/>
        <path d="M2080 1300 l0 -30 107 0 107 0 -29 30 c-27 28 -33 30 -107 30 l-78 0 0 -30z"/>
        <path d="M825 1170 l-29 -30 250 0 250 0 29 30 29 30 -250 0 -250 0 -29 -30z"/>
        <path d="M1992 1177 c-12 -13 -22 -26 -22 -30 0 -4 102 -7 227 -7 l227 0 -29 30 -29 30 -176 0 c-172 0 -177 -1 -198 -23z"/>
        <path d="M690 1035 l-34 -35 250 0 250 0 34 35 34 35 -250 0 -250 0 -34 -35z"/>
        <path d="M2030 1035 l34 -35 250 0 251 1 -37 34 -38 35 -247 0 -247 0 34 -35z"/>
        <path d="M555 900 l-29 -30 250 0 250 0 29 30 29 30 -250 0 -250 0 -29 -30z"/>
        <path d="M2165 900 l29 -30 250 0 250 0 -29 30 -29 30 -250 0 -250 0 29 -30z"/>
        <path d="M1682 868 c-7 -7 -12 -19 -12 -28 0 -8 80 -95 178 -193 l177 -177 534 0 535 0 -29 30 -29 30 -490 0 -491 0 -175 175 c-96 96 -177 175 -180 175 -3 0 -11 -5 -18 -12z"/>
        <path d="M425 770 l-29 -30 250 0 250 0 29 30 29 30 -250 0 -250 0 -29 -30z"/>
        <path d="M2295 770 l29 -30 250 0 250 0 -29 30 -29 30 -250 0 -250 0 29 -30z"/>
        <path d="M285 630 l-29 -30 250 0 250 0 29 30 29 30 -250 0 -250 0 -29 -30z"/>
        <path d="M2435 630 l29 -30 250 0 250 0 -29 30 -29 30 -250 0 -250 0 29 -30z"/>
    </g>

</svg>