<svg version="1.0" xmlns="http://www.w3.org/2000/svg" width="320px" height="307px" viewBox="0 0 3200 3070"
     preserveAspectRatio="xMidYMid meet">
    <g id="layer101" fill="#ff6699" stroke="none">
        <path d="M1505 2786 c-111 -28 -220 -109 -266 -197 -22 -45 -24 -72 -5 -88 9 -8 117 -11 376 -9 360 3 363 3 371 24 19 52 -84 180 -187 232 -100 50 -191 62 -289 38z"/>
        <path d="M1060 2358 c-55 -29 -84 -75 -84 -138 0 -88 62 -150 149 -150 61 0 109 24 136 67 17 28 21 45 17 94 -4 51 -9 64 -38 94 -31 32 -81 55 -120 55 -9 0 -36 -10 -60 -22z m98 -94 c24 -17 30 -62 10 -82 -7 -7 -24 -12 -38 -12 -33 0 -50 17 -50 51 0 24 30 59 50 59 3 0 16 -7 28 -16z"/>
        <path d="M2024 2369 c-41 -12 -91 -69 -100 -114 -19 -105 47 -185 153 -185 95 0 157 66 150 158 -5 64 -28 99 -87 130 -47 24 -67 25 -116 11z m100 -132 c12 -34 -15 -67 -55 -67 -34 0 -54 30 -45 66 13 49 83 50 100 1z"/>
        <path d="M1443 2151 c-38 -24 -53 -68 -53 -163 0 -61 -3 -71 -29 -100 l-29 -33 -264 -5 c-144 -3 -270 -9 -278 -14 -43 -26 -60 -51 -60 -88 0 -41 34 -88 65 -88 19 0 19 -7 -1 -28 -28 -27 -14 -135 26 -211 40 -74 127 -158 204 -196 l55 -27 -27 -23 c-24 -21 -27 -30 -27 -87 1 -48 7 -76 29 -118 32 -64 103 -141 164 -177 l43 -26 -23 -24 c-19 -21 -23 -35 -22 -88 2 -162 158 -323 355 -369 64 -15 89 -34 89 -68 0 -26 29 -22 83 12 112 71 185 244 144 341 l-15 37 41 18 c130 58 219 237 173 347 l-13 33 54 29 c68 35 126 101 153 171 24 65 25 112 5 161 -8 20 -14 37 -13 38 2 2 22 12 46 24 56 29 115 90 146 154 47 93 30 211 -36 249 -17 10 -114 14 -396 18 l-374 5 -29 33 c-27 30 -29 38 -29 112 0 90 -9 123 -43 144 -40 26 -79 29 -114 7z"/>
    </g>
    <g id="layer102" fill="#dddddd" stroke="none">
        <path d="M1873 1734 c-36 -18 -63 -67 -63 -114 0 -22 -9 -41 -29 -61 -24 -24 -38 -29 -76 -29 -62 0 -754 87 -829 104 -33 8 -65 12 -73 9 -19 -7 -26 -47 -20 -109 12 -116 117 -247 253 -315 97 -49 130 -46 224 17 122 83 136 81 255 -35 44 -43 89 -81 100 -84 11 -3 99 -16 195 -27 166 -21 213 -34 252 -67 15 -13 22 -12 68 13 96 52 170 168 170 262 -1 84 -59 154 -140 168 -111 18 -140 50 -140 151 0 54 -4 67 -27 93 -34 37 -77 46 -120 24z"/>
        <path d="M1536 878 c-27 -27 -36 -46 -42 -86 -3 -29 -13 -57 -20 -63 -18 -15 -84 -6 -158 20 l-54 19 -24 -25 c-19 -21 -23 -35 -22 -88 2 -162 158 -323 355 -369 64 -15 89 -34 89 -68 0 -11 7 -18 18 -18 30 0 109 56 143 102 119 162 98 331 -47 374 -60 17 -60 18 -67 117 -5 72 -33 106 -95 114 -37 5 -45 2 -76 -29z"/>
    </g>

</svg>