<svg xmlns="http://www.w3.org/2000/svg" width="298px" height="316px" viewBox="0 0 2980 3160"
     preserveAspectRatio="xMidYMid meet">
    <g id="layer101" fill="#662288" stroke="none">
        <path d="M1205 2871 c-212 -61 -390 -235 -454 -445 -45 -147 -34 -330 28 -463 32 -68 104 -175 139 -206 20 -18 20 -19 -23 -89 -24 -38 -46 -72 -48 -74 -2 -2 -30 9 -63 25 -81 40 -156 54 -255 49 -127 -7 -207 -56 -258 -160 -27 -52 -31 -72 -31 -138 0 -126 22 -159 262 -396 161 -159 215 -207 263 -230 l60 -29 239 -3 c199 -3 247 -1 290 13 73 23 149 78 190 138 66 97 69 113 74 412 2 164 8 275 14 283 17 20 76 15 88 -7 6 -13 10 -185 10 -488 0 -279 5 -486 11 -512 29 -126 118 -240 232 -296 260 -128 577 19 637 295 9 39 11 153 7 400 -4 305 -7 355 -25 432 -27 112 -71 220 -121 301 -23 35 -41 67 -41 71 0 4 18 28 39 54 127 153 179 365 136 566 -39 185 -176 362 -345 444 -144 71 -154 72 -600 71 -343 0 -403 -3 -455 -18z"/>
    </g>
    <g id="layer102" fill="#fc6599" stroke="none">
        <path d="M1254 2701 c-165 -47 -290 -174 -339 -345 -13 -45 -16 -83 -13 -150 9 -156 75 -276 203 -371 36 -26 65 -54 65 -62 0 -8 -24 -48 -54 -89 -29 -40 -71 -107 -92 -149 l-39 -75 175 -174 c101 -101 186 -177 200 -181 18 -4 34 0 53 15 l27 21 0 294 c0 281 1 295 19 305 31 16 416 13 429 -3 8 -9 12 -193 14 -583 l3 -569 24 -48 c103 -207 386 -207 488 1 l28 57 3 245 c7 483 -40 675 -207 853 l-76 80 45 36 c83 66 155 147 183 205 95 193 59 411 -92 562 -59 59 -143 107 -226 129 -92 24 -735 21 -821 -4z m505 -188 c84 -128 84 -128 -90 -128 -130 0 -134 1 -137 22 -2 14 19 55 58 112 80 120 86 120 169 -6z m-311 -242 c2 -13 0 -27 -5 -32 -5 -5 -78 -23 -162 -40 -175 -35 -181 -34 -181 41 0 25 3 50 7 54 4 3 81 5 172 4 l166 -3 3 -24z m659 9 c89 -54 82 -200 -11 -244 -19 -9 -49 -16 -68 -16 -68 0 -138 70 -138 139 0 42 33 102 68 124 37 23 109 21 149 -3z"/>
        <path d="M485 1486 c-52 -23 -82 -83 -70 -144 6 -30 39 -69 188 -220 100 -101 202 -196 227 -210 45 -27 45 -27 255 -27 189 0 214 2 245 19 l35 20 -38 8 c-21 4 -52 15 -70 24 -18 9 -142 126 -277 259 -244 242 -245 243 -314 264 -78 24 -137 26 -181 7z"/>
    </g>

</svg>