<svg xmlns="http://www.w3.org/2000/svg" width="320px" height="313px" viewBox="0 0 3200 3130"
     preserveAspectRatio="xMidYMid meet">
    <g id="layer101" fill="#ff6699" stroke="none">
        <path d="M341 2741 c-7 -5 -13 -19 -13 -32 0 -13 43 -211 96 -441 53 -229 96 -419 96 -423 0 -26 49 26 191 203 l162 204 -249 249 c-137 137 -254 249 -259 249 -6 0 -16 -4 -24 -9z"/>
        <path d="M975 2244 l-365 -456 0 -159 0 -159 -100 -200 c-55 -110 -100 -210 -100 -221 0 -13 64 -108 148 -220 l147 -198 315 -1 315 -1 110 -57 110 -57 3 -82 c4 -114 14 -118 125 -61 l82 43 3 95 c1 52 -1 100 -5 106 -5 6 -76 56 -160 112 l-152 102 -318 2 -318 3 -48 93 c-32 62 -47 101 -43 116 3 12 50 65 104 119 l99 97 524 0 523 0 291 -290 c160 -159 295 -290 299 -290 4 0 16 5 27 10 15 9 19 22 19 66 0 30 4 63 9 72 5 9 54 39 109 66 l99 49 54 108 c31 65 69 124 91 146 21 20 38 46 38 58 0 12 -35 56 -93 113 l-92 92 -95 0 c-66 0 -102 4 -116 14 -29 20 -204 288 -204 311 0 11 77 213 172 449 179 448 181 457 128 464 -19 3 -90 -63 -379 -352 l-357 -356 -345 0 c-282 0 -349 3 -365 14 -19 14 -17 22 59 328 43 172 77 323 77 334 0 21 -17 34 -46 34 -7 0 -178 -205 -379 -456z"/>
        <path d="M1537 2693 c-17 -16 2 -76 106 -333 l112 -275 94 -3 95 -3 58 58 c32 31 58 64 58 73 0 8 -107 122 -237 252 -226 226 -262 255 -286 231z"/>
    </g>
</svg>