<svg xmlns="http://www.w3.org/2000/svg" width="296px" height="306px" viewBox="0 0 2960 3060"
     preserveAspectRatio="xMidYMid meet">
    <g id="layer101" fill="#222323" stroke="none">
        <path d="M531 2797 c-13 -6 -34 -25 -45 -40 -21 -28 -21 -36 -24 -715 -2 -434 1 -717 8 -767 20 -161 127 -312 270 -382 91 -45 135 -52 298 -53 l142 0 0 -95 c0 -88 -1 -95 -20 -95 -18 0 -20 -7 -20 -71 0 -61 3 -75 25 -101 14 -16 25 -41 25 -54 0 -40 46 -119 95 -162 142 -125 364 -81 449 90 14 29 26 64 26 80 0 23 12 35 75 78 75 50 75 51 75 95 l0 45 -52 0 -53 0 33 32 32 32 -43 44 -42 43 24 20 c19 15 39 19 110 19 105 1 157 12 241 53 143 70 250 221 271 382 6 51 9 331 7 765 -3 654 -4 686 -22 713 -33 49 -63 57 -203 57 -110 0 -133 -3 -160 -20 -18 -11 -33 -24 -33 -30 0 -5 -4 -10 -10 -10 -5 0 -10 14 -10 30 l0 30 -240 0 -240 0 0 -127 c0 -112 -4 -140 -31 -238 -17 -60 -34 -113 -38 -118 -4 -4 -22 44 -39 106 -29 101 -32 128 -32 245 l0 132 -240 0 -240 0 0 -30 c0 -33 -11 -38 -31 -14 -29 36 -66 44 -191 44 -78 0 -132 -5 -147 -13z m420 -234 c11 -12 36 -28 55 -35 26 -9 35 -19 39 -42 11 -72 45 -447 45 -503 l0 -62 -41 -18 -41 -18 -44 42 c-24 23 -61 51 -81 62 l-38 19 4 75 c3 94 -16 166 -64 236 l-35 51 47 0 c130 0 195 116 118 208 -13 16 -21 32 -17 36 3 4 12 -1 19 -11 7 -10 22 -28 34 -40z m1041 23 c-47 -51 -54 -101 -22 -154 25 -40 73 -62 136 -62 l47 0 -21 -22 c-11 -13 -33 -48 -49 -78 -25 -50 -28 -65 -28 -156 l0 -101 -47 -28 c-27 -16 -64 -46 -84 -66 l-37 -38 -38 20 -39 19 0 68 c1 69 44 521 51 525 2 1 24 12 50 25 25 12 53 36 63 53 9 16 22 27 27 23 6 -4 3 -15 -9 -28z"/>
    </g>
    <g id="layer102" fill="#455566" stroke="none">
        <path d="M536 2728 c-14 -20 -16 -101 -16 -680 l0 -658 113 56 c61 31 115 61 118 67 4 5 10 27 13 49 11 67 74 177 136 240 l58 58 -41 35 c-52 45 -109 72 -180 86 -50 10 -57 15 -57 35 0 22 4 24 54 24 l55 0 6 45 c5 32 1 64 -15 116 -18 60 -30 81 -76 126 -44 45 -53 59 -48 79 6 23 9 24 100 24 106 0 134 14 134 68 0 49 -26 62 -118 62 -96 0 -122 16 -122 75 0 32 2 35 29 35 23 0 30 -5 33 -22 3 -21 9 -23 65 -26 55 -3 62 -1 68 18 9 27 -2 70 -22 93 -14 14 -35 17 -144 17 -121 0 -129 -1 -143 -22z"/>
        <path d="M2077 2733 c-20 -23 -31 -66 -22 -93 6 -19 13 -21 68 -18 56 3 62 5 65 26 3 17 10 22 33 22 27 0 29 -3 29 -35 0 -59 -26 -75 -123 -75 -69 0 -87 -3 -100 -18 -23 -25 -21 -68 3 -92 17 -17 33 -20 124 -20 98 0 105 -1 111 -21 5 -16 2 -25 -11 -32 -11 -5 -40 -31 -66 -58 -58 -59 -94 -161 -83 -234 l6 -45 55 0 c50 0 54 -2 54 -24 0 -20 -7 -25 -57 -35 -71 -14 -128 -41 -180 -86 l-41 -35 58 -58 c62 -63 125 -173 136 -240 3 -22 9 -44 13 -49 3 -6 57 -36 119 -67 l112 -56 0 658 c0 579 -2 660 -16 680 -14 21 -22 22 -143 22 -109 0 -130 -3 -144 -17z"/>
        <path d="M1330 1198 c-30 -15 -53 -37 -67 -63 -22 -38 -23 -51 -23 -262 l0 -223 239 0 c223 0 240 1 262 20 l24 19 -73 1 c-119 0 -172 40 -172 129 0 23 -10 59 -25 87 -46 86 -21 219 51 271 l29 22 -28 10 c-52 20 -168 14 -217 -11z"/>
    </g>
    <g id="layer103" fill="#eedd00" stroke="none">
        <path d="M950 2708 c0 -113 114 -173 191 -101 l26 24 26 -31 c24 -29 31 -31 79 -28 l53 3 3 88 3 87 -191 0 -190 0 0 -42z"/>
        <path d="M1572 2663 l3 -88 53 -3 c48 -3 55 -1 79 28 l26 31 26 -24 c77 -72 191 -12 191 101 l0 42 -190 0 -191 0 3 -87z"/>
        <path d="M1197 593 c-15 -14 -6 -51 18 -73 16 -15 25 -34 25 -54 0 -75 71 -170 150 -204 55 -23 158 -13 209 21 53 36 99 107 107 168 6 46 9 50 75 93 38 26 69 48 69 51 0 8 -646 6 -653 -2z"/>
    </g>
    <g id="layer104" fill="#8999b8" stroke="none">
        <path d="M1103 2463 c3 -26 9 -81 13 -121 6 -71 9 -76 53 -120 29 -29 51 -63 59 -89 l13 -43 89 0 90 0 -1 63 c0 42 -14 109 -43 207 l-42 145 -118 3 -119 3 6 -48z"/>
        <path d="M1567 2503 c-20 -34 -87 -308 -87 -356 l0 -57 90 0 89 0 13 43 c8 26 30 60 59 89 44 44 47 49 53 120 4 40 9 94 13 121 l6 47 -116 0 c-64 0 -118 -3 -120 -7z"/>
        <path d="M1134 2157 c3 -10 6 -30 6 -43 0 -15 6 -24 15 -24 22 0 18 34 -6 61 -16 19 -19 20 -15 6z"/>
        <path d="M1746 2148 c-20 -28 -21 -58 -2 -58 8 0 16 14 18 38 6 46 4 49 -16 20z"/>
        <path d="M1625 1156 c-85 -38 -121 -148 -74 -226 12 -19 28 -39 35 -43 10 -6 11 -13 4 -27 -5 -10 -10 -32 -10 -49 0 -45 30 -61 115 -61 l70 1 -24 19 c-13 11 -38 20 -57 20 -29 0 -34 4 -34 23 0 20 8 25 58 35 31 7 67 21 79 31 21 18 63 79 63 94 0 4 -43 7 -95 7 l-95 0 0 30 0 30 95 0 95 0 -11 28 c-31 83 -132 124 -214 88z"/>
    </g>
    <g id="layer105" fill="#ffffff" stroke="none">
        <path d="M1147 2033 c-4 -3 -7 -41 -7 -84 l0 -77 -30 -7 c-43 -9 -139 -75 -187 -127 -75 -82 -113 -185 -113 -305 l0 -73 -30 0 c-28 0 -30 2 -30 40 l0 40 -116 -58 -115 -57 6 -45 c24 -160 138 -300 293 -358 57 -21 89 -26 215 -30 l147 -4 0 98 c0 132 11 169 70 225 35 35 60 49 100 59 69 17 196 9 240 -15 19 -10 65 -21 102 -25 94 -10 152 -47 191 -120 25 -48 28 -63 24 -115 -3 -33 -8 -71 -13 -84 l-7 -24 67 7 c220 22 390 178 421 386 l6 45 -115 57 -116 58 0 -40 c0 -38 -2 -40 -30 -40 l-30 0 0 73 c0 120 -38 223 -113 305 -48 52 -144 118 -187 127 -29 6 -29 7 -32 88 l-3 82 -301 3 c-165 1 -303 -1 -307 -5z"/>
    </g>


</svg>