<svg xmlns="http://www.w3.org/2000/svg" width="344px" height="323px" viewBox="0 0 3440 3230"
     preserveAspectRatio="xMidYMid meet">
    <g id="layer101" fill="#333333" stroke="none">
        <path d="M595 2899 c-27 -23 -52 -43 -54 -45 -2 -2 27 -42 65 -88 l69 -86 40 -166 40 -166 352 -166 352 -165 21 -91 c40 -177 32 -161 117 -201 42 -19 78 -33 81 -31 7 8 -90 410 -102 422 -6 6 -162 82 -346 169 -184 86 -340 162 -345 169 -6 8 -25 76 -43 153 l-32 139 -78 96 c-42 53 -79 97 -82 97 -3 0 -27 -18 -55 -40z"/>
        <path d="M1010 2050 c0 -4 16 -74 35 -154 19 -81 35 -148 35 -151 0 -2 -20 -7 -45 -10 -108 -17 -185 -109 -185 -220 0 -53 29 -135 48 -135 4 0 65 47 134 105 69 58 131 105 137 105 10 0 830 -385 836 -392 3 -5 125 -527 125 -538 0 -5 -6 -10 -13 -10 -26 0 -88 -52 -107 -90 -24 -47 -26 -129 -5 -170 9 -17 19 -30 23 -30 4 0 56 41 117 90 64 53 116 88 125 85 33 -10 515 -115 527 -115 10 0 13 24 13 99 l0 99 -150 108 -150 108 0 228 0 228 -66 30 c-37 16 -68 30 -70 30 -2 0 -4 -134 -4 -298 l0 -298 85 -60 c47 -32 85 -62 85 -65 0 -8 -252 49 -261 59 -4 4 -37 135 -73 292 -37 157 -70 294 -75 305 -6 14 -143 84 -453 230 l-445 210 -29 129 -30 129 -82 38 c-45 21 -82 34 -82 29z"/>
        <path d="M2485 1996 l-49 -43 69 -86 c61 -75 72 -95 86 -156 9 -39 13 -71 9 -71 -3 0 -134 61 -291 135 -156 74 -287 135 -290 135 -3 0 17 -96 45 -214 l51 -214 77 -38 c43 -21 80 -35 83 -32 3 3 -6 52 -20 108 -14 56 -25 109 -23 116 2 10 89 -27 291 -122 158 -75 290 -135 292 -132 2 2 -7 46 -20 98 -13 52 -38 157 -55 233 l-32 137 -77 95 c-42 52 -80 94 -86 94 -5 0 -32 -19 -60 -43z"/>
    </g>
</svg>