<svg xmlns="http://www.w3.org/2000/svg" width="344px" height="329px" viewBox="0 0 3440 3290"
     preserveAspectRatio="xMidYMid meet">
    <g id="layer101" fill="#2f364a" stroke="none">
        <path d="M1550 2934 c-706 -113 -1189 -778 -1084 -1493 82 -560 535 -1013 1095 -1095 822 -121 1545 527 1505 1349 -29 610 -451 1102 -1056 1231 -108 23 -343 27 -460 8z"/>
    </g>
    <g id="layer102" fill="#ff931e" stroke="none">
        <path d="M1550 2934 c-178 -28 -363 -102 -526 -210 -86 -56 -212 -169 -264 -234 l-30 -38 170 -573 c94 -315 174 -577 178 -583 3 -6 69 -95 145 -198 110 -149 144 -188 162 -188 12 0 27 6 32 13 5 6 42 107 83 222 40 116 78 213 84 217 6 4 34 8 61 8 125 1 268 53 357 130 58 50 121 143 143 212 10 29 20 56 24 60 4 4 63 19 131 33 69 14 135 27 147 30 25 6 123 139 123 167 0 11 -15 42 -34 71 l-33 52 -294 134 c-162 74 -301 140 -309 148 -12 11 -12 44 3 270 9 141 15 259 11 262 -13 13 -274 9 -364 -5z m368 -1235 c2 -68 0 -88 -12 -92 -18 -7 -236 60 -256 79 -11 11 -12 16 -2 26 19 19 202 77 237 75 l30 -2 3 -86z"/>
    </g>
    <g id="layer103" fill="#ffe877" stroke="none">
        <path d="M2050 2722 c-7 -103 -11 -196 -9 -207 3 -15 70 -50 287 -151 l284 -131 124 -209 c68 -115 124 -213 124 -219 0 -32 -30 -41 -297 -95 l-278 -56 -40 -75 c-26 -49 -66 -101 -120 -155 -98 -99 -203 -156 -335 -181 -47 -8 -91 -18 -99 -22 -7 -3 -59 -138 -115 -298 -57 -160 -109 -299 -116 -308 -7 -9 -22 -15 -33 -13 -24 4 -483 617 -496 663 -27 95 -304 1020 -306 1023 -7 8 -79 -149 -109 -239 -201 -603 70 -1273 633 -1568 384 -200 838 -200 1222 0 697 365 914 1270 457 1913 -121 172 -291 318 -480 415 -83 42 -243 101 -274 101 -7 0 -16 -64 -24 -188z"/>
    </g>
    <g id="layer104" fill="#fefefd" stroke="none">
        <path d="M1552 2934 c-106 -17 -268 -66 -265 -80 1 -5 20 -130 42 -278 23 -147 45 -275 50 -285 5 -9 17 -24 28 -33 10 -9 267 -87 571 -173 527 -149 554 -156 568 -138 34 44 25 91 -31 158 -12 14 -134 76 -310 156 -159 73 -297 138 -305 146 -12 11 -12 44 3 270 9 141 15 259 11 262 -12 13 -274 9 -362 -5z"/>
    </g>
</svg>