<svg xmlns="http://www.w3.org/2000/svg" width="319px" height="262px" viewBox="0 0 3190 2620"
     preserveAspectRatio="xMidYMid meet">
    <g id="layer101" fill="#233344" stroke="none">
        <path d="M1724 2430 c-98 -10 -215 -37 -394 -92 -283 -86 -244 -80 -590 -87 -346 -7 -344 -6 -411 -73 -49 -50 -73 -112 -73 -188 0 -138 91 -238 234 -259 39 -5 45 -10 48 -32 3 -23 -1 -27 -32 -33 -19 -4 -71 -25 -114 -46 -95 -48 -151 -105 -195 -198 -28 -60 -31 -77 -31 -157 0 -149 42 -246 177 -407 76 -92 96 -128 89 -164 -3 -18 -11 -24 -29 -24 -39 0 -92 -30 -108 -61 -60 -114 57 -255 259 -314 43 -13 85 -16 160 -13 91 3 110 7 167 36 126 61 214 186 244 346 47 243 -18 427 -226 651 l-64 68 34 -6 c18 -4 132 -7 252 -7 l219 0 0 -248 c0 -277 10 -385 45 -485 36 -104 81 -173 175 -267 211 -213 400 -217 400 -9 l0 51 64 -59 c70 -64 154 -118 217 -139 53 -19 108 -5 143 37 25 30 26 34 26 178 l0 148 79 80 c60 61 88 99 120 164 44 91 71 181 71 240 l0 37 103 41 c57 23 114 49 127 58 34 24 50 74 50 158 0 86 -17 136 -53 160 -14 9 -114 54 -223 101 -110 48 -210 91 -224 97 -21 9 -9 12 75 17 144 9 212 49 261 155 58 124 2 279 -125 342 -30 15 -67 19 -225 21 l-189 3 -51 45 c-122 107 -288 153 -482 134z"/>
    </g>
    <g id="layer102" fill="#ec2212" stroke="none">
        <path d="M1730 2350 c-106 -12 -187 -31 -417 -99 -189 -56 -309 -81 -388 -81 -107 0 -251 -109 -293 -223 -32 -83 -30 -201 3 -282 14 -33 25 -61 25 -62 0 -2 -22 -3 -49 -3 -117 0 -260 -75 -320 -168 -45 -70 -58 -143 -43 -232 16 -92 55 -168 139 -271 115 -140 123 -155 123 -225 0 -78 -24 -114 -76 -114 -91 0 -99 -49 -21 -126 67 -64 142 -95 249 -102 137 -8 229 32 307 136 60 79 86 174 86 312 -1 101 -4 123 -27 178 -43 104 -88 168 -199 287 -59 62 -112 122 -118 133 -17 31 -13 66 9 90 l20 22 63 -33 62 -32 278 -3 277 -3 0 -172 c0 -184 10 -268 40 -355 23 -66 86 -165 135 -212 19 -19 35 -41 35 -50 0 -27 47 -157 77 -212 32 -60 119 -158 139 -158 25 0 34 39 34 151 l0 111 31 -6 c17 -3 71 -6 119 -6 l87 0 24 -52 c30 -66 100 -162 134 -184 20 -13 28 -14 40 -4 12 10 15 42 15 169 l0 157 50 37 c123 92 208 253 225 428 l6 67 47 17 c26 10 75 31 109 46 34 16 66 29 71 29 5 0 17 8 26 19 13 14 16 33 14 77 l-3 59 -425 5 -425 5 -3 45 c-5 68 6 107 41 147 58 66 140 81 218 40 48 -26 89 -84 89 -129 l0 -28 197 0 c108 0 194 2 192 4 -3 3 -103 47 -224 99 -217 93 -220 95 -218 123 14 162 15 191 3 243 -47 217 -229 374 -455 394 -33 3 -94 1 -135 -3z m266 -122 c98 -52 149 -139 142 -247 -6 -105 -56 -184 -144 -226 -41 -20 -181 -33 -229 -21 -17 4 -70 66 -174 204 -81 109 -151 207 -155 219 -4 11 -1 33 6 48 23 50 52 55 288 52 212 -2 216 -3 266 -29z m670 -864 c54 -26 92 -112 62 -142 -19 -19 -232 -16 -248 3 -25 30 22 124 74 145 33 14 75 11 112 -6z m-618 -284 c5 -73 -71 -139 -144 -125 -69 13 -130 97 -104 145 10 19 18 20 128 18 l117 -3 3 -35z m500 0 c5 -73 -71 -139 -144 -125 -69 13 -130 97 -104 145 10 19 18 20 128 18 l117 -3 3 -35z"/>
        <path d="M2151 1577 c-24 -14 -50 -52 -51 -74 0 -10 25 -13 95 -13 87 0 95 2 95 19 0 55 -88 97 -139 68z"/>
    </g>
    <g id="layer103" fill="#faf9f9" stroke="none">
        <path d="M1752 2351 l-52 -6 53 -41 c47 -36 61 -41 124 -47 120 -10 200 -64 246 -166 24 -54 20 -157 -8 -215 -38 -78 -116 -134 -201 -144 -39 -4 -46 -9 -78 -62 -60 -98 -154 -170 -220 -170 -16 0 -32 -9 -42 -25 -15 -24 -15 -29 1 -72 24 -62 84 -126 143 -151 80 -34 163 -42 470 -42 290 0 293 0 287 20 -18 55 46 138 112 147 83 11 164 -65 149 -140 -4 -21 -2 -28 7 -24 6 3 32 13 57 22 74 29 81 40 78 109 l-3 61 -425 5 -425 5 -3 45 c-5 68 6 107 41 147 58 66 140 81 218 40 48 -26 89 -84 89 -129 l0 -28 197 0 c108 0 194 2 192 4 -3 3 -103 47 -224 99 -217 93 -220 95 -218 123 14 162 15 191 3 243 -56 256 -298 424 -568 392z"/>
        <path d="M1046 865 c-5 -11 -17 -40 -28 -65 -23 -54 -68 -103 -128 -138 -40 -24 -55 -27 -135 -27 -103 0 -134 12 -202 78 l-43 41 0 -56 c0 -72 -25 -108 -76 -108 -91 0 -99 -49 -21 -126 78 -75 143 -98 277 -99 90 0 112 3 152 23 102 50 175 156 204 294 16 76 16 219 0 183z"/>
        <path d="M1630 657 c0 -25 49 -157 77 -209 32 -60 119 -158 139 -158 26 0 35 39 32 151 l-3 112 -40 12 c-50 15 -120 50 -162 81 -36 28 -43 29 -43 11z"/>
        <path d="M2270 595 c-25 -13 -69 -29 -97 -36 -29 -7 -53 -16 -53 -21 0 -39 119 -216 161 -238 42 -23 49 -1 49 166 0 85 -3 154 -7 154 -5 -1 -28 -12 -53 -25z"/>
    </g>
</svg>