<svg xmlns="http://www.w3.org/2000/svg" width="320px" height="313px" viewBox="0 0 3200 3130"
     preserveAspectRatio="xMidYMid meet">
    <g id="layer101" fill="#11bb66" stroke="none">
        <path d="M978 2529 c-464 -232 -618 -313 -618 -327 0 -12 31 -33 98 -67 l97 -50 3 -818 2 -817 233 -116 232 -116 233 116 232 116 0 115 0 115 -232 117 -233 118 -3 101 c-2 78 1 104 12 113 11 10 55 -8 226 -94 116 -58 215 -103 220 -100 6 4 10 53 10 110 l0 105 -232 117 -233 118 -3 85 c-3 98 2 130 23 130 8 0 105 -45 215 -100 110 -55 207 -100 215 -100 12 0 15 18 15 108 l0 107 -235 118 -235 117 0 94 c0 103 5 126 26 126 8 0 104 -45 214 -100 110 -55 207 -100 215 -100 12 0 15 33 17 223 l3 222 115 0 115 0 3 -222 c2 -190 5 -223 17 -223 8 0 105 45 215 100 110 55 207 100 215 100 21 0 26 -32 23 -130 l-3 -85 -232 -118 -233 -117 0 -110 c0 -91 3 -110 15 -110 8 0 105 45 215 100 110 55 207 100 215 100 21 0 26 -32 23 -130 l-3 -85 -232 -118 -233 -117 0 -105 c0 -57 4 -106 10 -110 5 -3 104 42 220 100 169 84 215 104 226 94 10 -8 14 -36 14 -103 0 -50 -4 -96 -8 -102 -4 -7 -103 -59 -219 -118 -156 -78 -213 -111 -213 -124 0 -13 57 -46 215 -125 l215 -107 235 117 235 118 2 700 3 700 97 50 c58 30 98 56 98 65 0 10 -214 122 -625 328 -344 171 -628 312 -633 311 -4 0 -285 -139 -624 -310z"/>
    </g>
</svg>