<svg xmlns="http://www.w3.org/2000/svg" width="309px" height="304px" viewBox="0 0 3090 3040"
     preserveAspectRatio="xMidYMid meet">
    <g id="layer101" fill="#555655" stroke="none">
        <path d="M1425 2695 c-67 -14 -1048 -462 -1104 -503 -42 -31 -81 -113 -81 -172 0 -32 78 -279 275 -871 222 -664 281 -831 301 -850 30 -29 109 -34 139 -9 10 8 92 107 183 220 90 113 174 210 185 217 31 17 423 17 454 0 11 -7 95 -104 185 -217 91 -113 173 -212 183 -220 30 -25 109 -20 139 9 20 19 79 186 301 850 151 455 275 842 275 861 0 60 -20 110 -61 154 -34 38 -95 69 -552 280 -531 244 -589 266 -707 265 -30 0 -82 -6 -115 -14z"/>
    </g>
    <g id="layer102" fill="#66cc66" stroke="none">
        <path d="M1425 2695 c-67 -14 -1048 -462 -1104 -503 -42 -31 -81 -113 -81 -172 0 -32 78 -279 275 -871 222 -664 281 -831 301 -850 30 -29 109 -34 139 -9 10 8 92 107 183 220 90 113 174 210 185 217 31 17 423 17 454 0 11 -7 95 -104 185 -217 91 -113 173 -212 183 -220 30 -25 109 -20 139 9 20 19 79 186 301 850 151 455 275 842 275 861 0 60 -20 110 -61 154 -34 38 -95 69 -552 280 -531 244 -589 266 -707 265 -30 0 -82 -6 -115 -14z m-43 -515 c67 -16 143 -30 168 -30 25 0 101 14 168 30 142 35 159 36 231 14 41 -12 68 -30 117 -78 68 -66 78 -94 47 -128 -28 -31 -60 -22 -121 36 -79 75 -103 80 -235 47 -58 -15 -115 -35 -126 -45 -46 -41 -13 -117 83 -194 67 -54 83 -82 72 -127 -13 -52 -44 -60 -236 -60 -192 0 -223 8 -236 60 -11 45 5 73 72 127 96 77 129 153 83 194 -11 10 -68 30 -126 45 -132 33 -156 28 -235 -47 -60 -57 -88 -66 -120 -37 -34 31 -23 63 46 129 46 46 77 67 112 78 70 21 98 20 236 -14z m-522 -273 c42 -15 70 -58 54 -84 -6 -10 -24 -24 -40 -32 -25 -13 -43 -12 -154 9 -242 44 -294 65 -261 104 11 14 41 16 190 15 109 0 189 -5 211 -12z m1781 -3 c33 -39 -19 -60 -261 -104 -111 -21 -129 -22 -154 -9 -44 21 -54 44 -36 77 24 42 66 51 261 51 149 1 179 -1 190 -15z m-1743 -210 c33 -23 26 -62 -17 -91 -32 -22 -43 -23 -217 -23 -100 0 -189 3 -198 6 -19 7 -21 37 -3 52 18 15 293 70 357 71 36 1 64 -5 78 -15z m1573 -15 c85 -17 160 -36 167 -41 17 -15 15 -45 -4 -52 -9 -3 -98 -6 -198 -6 -174 0 -185 1 -217 23 -43 29 -50 68 -17 91 33 23 95 20 269 -15z m-1549 -248 c96 -35 114 -35 205 -5 78 26 87 27 111 13 20 -11 28 -24 30 -51 3 -31 -2 -40 -45 -78 -76 -68 -116 -90 -171 -97 -64 -7 -132 23 -209 95 -59 54 -68 87 -33 122 25 25 45 25 112 1z m1056 -7 c82 -28 108 -27 200 7 67 24 87 24 112 -1 35 -35 26 -68 -32 -122 -78 -72 -146 -102 -210 -95 -55 7 -95 29 -170 97 -39 34 -48 48 -48 75 0 24 7 39 22 49 30 21 39 20 126 -10z m-1022 -574 c165 -55 176 -98 66 -263 -72 -106 -93 -124 -136 -113 -30 7 -43 43 -49 126 -3 44 -15 89 -36 137 -31 72 -32 92 -3 126 21 24 54 21 158 -13z m1346 13 c29 -34 28 -54 -3 -126 -21 -48 -33 -93 -36 -137 -6 -80 -19 -117 -45 -126 -44 -14 -67 5 -139 113 -110 164 -100 206 61 262 99 34 141 38 162 14z"/>
    </g>
</svg>