<svg version="1.0" xmlns="http://www.w3.org/2000/svg" width="310px" height="305px" viewBox="0 0 3100 3050"
     preserveAspectRatio="xMidYMid meet">
    <g id="layer101" fill="#555555" stroke="none">
        <path d="M1468 2811 c-182 -63 -396 -191 -573 -343 -268 -231 -445 -513 -504 -805 -39 -188 -24 -435 35 -612 135 -401 453 -693 874 -799 94 -24 124 -26 280 -26 156 0 186 2 280 26 421 106 739 398 874 799 37 111 56 236 56 374 0 341 -124 633 -384 903 -202 210 -433 367 -681 465 -129 52 -154 53 -257 18z"/>
    </g>
    <g id="layer102" fill="#ee2211" stroke="none">
        <path d="M1468 2811 c-182 -63 -396 -191 -573 -343 -268 -231 -445 -513 -504 -805 -39 -188 -24 -435 35 -612 135 -401 453 -693 874 -799 94 -24 124 -26 280 -26 156 0 186 2 280 26 421 106 739 398 874 799 37 111 56 236 56 374 0 341 -124 633 -384 903 -202 210 -433 367 -681 465 -129 52 -154 53 -257 18z m163 -468 c162 -175 290 -423 306 -589 3 -36 11 -65 18 -68 7 -2 31 0 54 6 117 30 256 -54 299 -181 18 -52 16 -226 -3 -241 -11 -9 -54 -11 -163 -8 -172 5 -216 20 -282 96 -57 64 -70 118 -70 286 0 124 -3 150 -25 210 -40 115 -159 306 -190 306 -16 0 -92 -114 -138 -205 -57 -113 -67 -162 -67 -315 0 -164 -13 -218 -70 -282 -65 -75 -111 -90 -276 -96 -188 -6 -184 -9 -184 117 0 54 5 113 12 132 43 127 182 211 299 181 56 -14 69 -7 69 39 0 128 89 335 217 502 55 72 133 157 143 157 4 0 27 -21 51 -47z"/>
    </g>
    <g id="layer103" fill="#ffffff" stroke="none">
        <path d="M1492 2665 c-167 -64 -358 -182 -502 -307 -255 -223 -414 -481 -466 -755 -20 -107 -14 -316 11 -408 41 -150 138 -288 252 -361 28 -19 87 -46 130 -60 66 -23 95 -27 188 -28 202 0 336 55 431 179 14 19 34 35 44 35 10 0 33 -19 51 -43 69 -91 173 -144 324 -167 99 -15 196 -6 293 26 186 62 319 211 379 424 28 101 25 366 -5 478 -34 124 -91 248 -167 364 -85 128 -287 333 -425 430 -155 109 -383 219 -452 218 -13 -1 -51 -12 -86 -25z m139 -322 c162 -175 290 -423 306 -589 3 -36 11 -65 18 -68 7 -2 31 0 54 6 117 30 256 -54 299 -181 18 -52 16 -226 -3 -241 -11 -9 -54 -11 -163 -8 -172 5 -216 20 -282 96 -57 64 -70 118 -70 286 0 124 -3 150 -25 210 -40 115 -159 306 -190 306 -16 0 -92 -114 -138 -205 -57 -113 -67 -162 -67 -315 0 -164 -13 -218 -70 -282 -65 -75 -111 -90 -276 -96 -188 -6 -184 -9 -184 117 0 54 5 113 12 132 43 127 182 211 299 181 56 -14 69 -7 69 39 0 128 89 335 217 502 55 72 133 157 143 157 4 0 27 -21 51 -47z"/>
        <path d="M1537 720 c-36 -28 -141 -76 -212 -96 -45 -13 -101 -18 -227 -19 -92 0 -170 -4 -173 -7 -17 -17 165 -125 286 -169 137 -50 210 -62 369 -62 159 0 232 12 369 62 121 44 303 152 286 169 -3 3 -81 7 -173 7 -126 1 -182 6 -227 19 -71 20 -176 68 -212 96 -32 25 -54 25 -86 0z"/>
    </g>
</svg>
