<svg version="1.0" xmlns="http://www.w3.org/2000/svg" width="318px" height="277px" viewBox="0 0 3180 2770"
     preserveAspectRatio="xMidYMid meet">
    <g id="layer101" fill="#333333" stroke="none">
        <path d="M1730 2287 l0 -192 -165 -165 -165 -165 0 -142 0 -143 100 0 100 0 0 98 0 97 165 165 165 165 0 137 0 138 230 0 230 0 0 -588 0 -588 45 -44 c25 -24 45 -48 45 -52 0 -4 -31 -8 -70 -8 -70 0 -70 0 -151 -60 -97 -72 -211 -129 -334 -166 -83 -26 -103 -28 -260 -28 -198 0 -265 14 -422 89 -121 57 -199 113 -294 211 -118 122 -194 255 -240 419 -20 71 -23 112 -28 358 l-6 278 -158 -132 -158 -132 3 -120 c2 -69 7 -122 13 -124 6 -1 64 42 130 98 125 105 142 118 133 103 -3 -5 -58 -100 -122 -212 l-117 -203 16 -57 c9 -31 28 -88 42 -126 31 -82 20 -90 130 101 72 126 102 169 90 127 -3 -11 -25 -126 -48 -256 l-41 -238 45 -62 c24 -35 62 -83 84 -107 l39 -44 33 194 c19 107 37 197 40 201 4 4 28 -117 55 -270 27 -152 53 -283 59 -291 26 -31 202 -139 213 -129 3 3 -11 99 -31 212 -20 113 -35 212 -33 220 2 8 75 -112 163 -265 l160 -279 46 -14 c61 -18 198 -40 205 -33 4 3 -51 105 -121 227 -70 121 -125 223 -123 225 2 3 128 -99 278 -225 232 -195 279 -230 306 -230 38 0 193 29 212 39 10 6 -50 62 -199 187 -117 98 -220 184 -229 191 -8 6 -13 14 -10 17 3 3 172 -56 375 -129 203 -74 377 -135 385 -135 18 0 200 117 200 128 0 4 -134 56 -297 116 -164 60 -305 112 -313 117 -8 5 175 9 415 9 l430 0 -193 193 -192 192 0 648 0 647 -430 0 -430 0 0 -193z"/>
        <path d="M571 2311 c-81 -29 -107 -43 -117 -64 -15 -27 -66 -209 -61 -214 2 -1 67 21 145 49 l142 51 0 109 c0 59 -1 108 -2 107 -2 0 -50 -17 -107 -38z"/>
        <path d="M2159 1618 c-125 -72 -93 -272 47 -295 l34 -6 0 162 c0 160 0 161 -22 161 -13 0 -39 -10 -59 -22z"/>
    </g>
</svg>