<svg xmlns="http://www.w3.org/2000/svg" width="320px" height="313px" viewBox="0 0 3200 3130"
     preserveAspectRatio="xMidYMid meet">
    <g id="layer101" fill="#eeaa00" stroke="none">
        <path d="M1010 2446 c-203 -45 -382 -155 -505 -308 -67 -85 -138 -227 -166 -333 -28 -104 -31 -306 -6 -410 78 -322 320 -571 634 -651 83 -21 118 -24 270 -24 194 0 219 6 253 63 12 18 20 50 20 75 l0 42 339 0 c295 0 342 -2 355 -16 19 -19 20 -26 4 -42 -8 -8 -61 -12 -171 -12 -143 0 -163 -2 -197 -21 -50 -29 -70 -65 -70 -133 0 -48 4 -60 31 -91 19 -21 47 -39 72 -46 55 -15 331 -5 416 16 319 77 569 319 650 630 73 278 -4 590 -199 808 -147 164 -368 270 -587 284 l-93 6 0 31 c0 44 -29 97 -69 123 l-34 23 -446 -1 c-311 -1 -463 -5 -501 -13z m930 -115 c7 -15 6 -23 -6 -35 -13 -14 -56 -16 -312 -16 -279 0 -299 -1 -330 -20 -69 -42 -91 -128 -51 -200 39 -70 42 -70 375 -70 261 0 300 -2 315 -16 14 -13 16 -21 8 -35 -9 -18 -27 -19 -307 -19 -270 0 -300 -2 -332 -19 -48 -26 -72 -62 -77 -118 -6 -65 20 -111 77 -140 43 -22 53 -23 337 -23 279 0 293 -1 303 -19 8 -16 6 -23 -12 -35 -19 -14 -66 -16 -317 -16 -275 0 -296 -1 -326 -20 -64 -40 -84 -146 -38 -209 43 -58 60 -61 385 -61 283 0 298 -1 308 -19 7 -15 6 -23 -6 -35 -14 -14 -68 -16 -447 -16 -400 0 -435 -1 -466 -18 -93 -50 -95 -193 -5 -253 25 -17 49 -19 191 -19 89 0 168 -3 177 -6 20 -8 21 -38 1 -54 -22 -18 -322 -8 -400 14 -269 76 -481 299 -540 570 -24 107 -17 293 15 386 29 88 81 183 135 252 113 145 307 256 490 281 17 2 213 5 437 6 393 1 408 0 418 -18z m350 -190 c277 -83 473 -286 541 -560 18 -70 21 -106 17 -205 -7 -196 -66 -336 -201 -482 -166 -178 -342 -247 -617 -242 -134 3 -145 4 -148 22 -8 39 22 46 190 46 177 0 204 7 238 63 28 45 26 115 -3 158 -46 69 -43 69 -523 69 -423 0 -454 2 -454 31 0 4 7 15 16 23 13 14 56 16 312 16 279 0 299 1 330 20 93 57 95 186 3 247 -33 23 -39 23 -336 23 -251 0 -305 2 -314 14 -9 11 -10 20 -2 35 11 19 22 20 319 23 l309 3 36 28 c42 32 63 87 53 141 -9 48 -59 103 -104 116 -21 6 -160 10 -323 10 -256 0 -288 2 -293 16 -15 40 3 43 317 46 281 3 304 4 335 23 39 23 72 81 72 125 0 50 -35 107 -80 130 -37 19 -58 20 -333 20 -214 0 -296 3 -305 12 -16 16 -15 23 4 43 15 15 58 16 443 13 408 -4 429 -5 501 -27z m-1070 -1096 l0 -36 -71 3 c-54 2 -75 7 -82 20 -20 32 8 48 84 48 l69 0 0 -35z"/>
    </g>
    <g id="layer102" fill="#1199ff" stroke="none">
        <path d="M1010 2446 c-203 -45 -382 -155 -505 -308 -67 -85 -138 -227 -166 -333 -28 -104 -31 -306 -6 -410 78 -322 320 -571 634 -651 83 -21 118 -24 270 -24 194 0 219 6 253 63 11 18 20 49 20 70 l0 37 -55 0 c-47 0 -55 -3 -55 -19 0 -39 -21 -43 -192 -38 -181 5 -238 16 -354 72 -204 98 -360 296 -409 519 -24 107 -17 293 15 386 69 206 211 371 395 460 152 73 150 73 637 77 428 4 437 4 447 -16 8 -15 7 -23 -5 -35 -13 -14 -54 -16 -290 -16 l-274 0 0 -55 0 -55 293 0 c274 0 294 1 325 20 93 57 95 186 3 247 l-34 23 -446 -1 c-311 -1 -463 -5 -501 -13z"/>
        <path d="M1910 2047 c0 -41 5 -58 20 -72 15 -13 17 -22 9 -36 -9 -18 -26 -19 -289 -19 l-280 0 0 -61 0 -60 293 3 c271 3 294 4 325 23 39 23 72 81 72 125 0 50 -35 107 -80 130 -62 32 -70 28 -70 -33z"/>
        <path d="M1910 1685 c0 -43 5 -60 22 -77 l21 -21 -23 -19 c-20 -16 -45 -18 -291 -18 l-269 0 0 -55 0 -55 288 0 c261 0 291 2 322 19 54 29 75 64 75 126 0 74 -47 133 -117 149 -28 6 -28 6 -28 -49z"/>
        <path d="M1910 1315 c0 -30 4 -55 10 -55 5 0 14 -9 20 -19 7 -15 6 -23 -6 -35 -13 -14 -54 -16 -290 -16 l-274 0 0 -55 0 -55 293 0 c274 0 294 1 325 20 67 41 90 120 54 190 -20 40 -74 80 -108 80 -22 0 -24 -4 -24 -55z"/>
        <path d="M1021 1172 c-93 -50 -95 -193 -5 -253 25 -16 49 -19 164 -19 l135 0 -30 18 c-17 10 -39 35 -50 55 -19 36 -20 36 -89 39 -51 2 -72 7 -79 20 -20 32 8 48 84 48 68 0 68 0 84 35 10 19 31 43 48 54 l32 21 -130 0 c-107 0 -136 -3 -164 -18z"/>
    </g>

</svg>