<svg xmlns="http://www.w3.org/2000/svg" width="344px" height="329px" viewBox="0 0 3440 3290"
     preserveAspectRatio="xMidYMid meet">
    <g id="layer101" fill="#a64596" stroke="none">
        <path d="M1032 2544 c-16 -11 -22 -25 -22 -53 0 -53 23 -71 92 -71 44 0 59 -4 76 -23 28 -30 28 -48 -1 -75 -22 -21 -31 -22 -239 -22 -242 0 -248 -2 -248 -73 0 -65 8 -67 320 -67 206 0 280 -3 292 -12 27 -21 30 -53 9 -79 -19 -24 -22 -24 -247 -29 l-228 -5 -13 -25 c-14 -26 -9 -65 9 -87 7 -9 40 -13 98 -13 73 0 92 -3 114 -21 30 -23 33 -45 10 -77 -15 -22 -18 -22 -265 -22 l-250 0 -24 -25 c-14 -13 -25 -31 -25 -40 0 -20 19 -57 34 -67 6 -4 164 -8 351 -8 376 0 385 -1 385 -60 0 -58 -11 -60 -356 -60 -288 0 -312 -1 -327 -18 -23 -25 -21 -78 3 -102 19 -19 33 -20 239 -20 216 0 220 0 235 -22 23 -32 20 -54 -10 -77 -19 -15 -41 -21 -79 -21 -60 0 -85 -19 -85 -67 0 -57 15 -61 223 -65 185 -3 189 -3 208 -27 21 -26 18 -58 -9 -78 -12 -10 -86 -13 -292 -13 -314 0 -320 -1 -320 -69 0 -72 -3 -71 348 -71 299 0 313 -1 332 -20 11 -11 20 -29 20 -40 0 -11 -9 -29 -20 -40 -17 -17 -33 -20 -108 -20 -76 0 -91 -3 -107 -20 -26 -29 -24 -79 4 -102 22 -17 52 -18 510 -18 269 0 517 5 556 10 158 23 285 70 411 152 198 131 348 341 406 574 32 126 32 341 0 467 -27 109 -75 214 -141 310 -58 84 -210 237 -235 237 -35 0 -132 -57 -183 -107 -34 -33 -65 -77 -86 -120 -30 -64 -32 -75 -32 -178 0 -103 2 -114 31 -175 17 -36 45 -83 63 -104 17 -21 36 -56 43 -77 23 -77 -31 -167 -113 -189 -35 -10 -51 -8 -117 14 -100 33 -163 40 -241 27 -178 -29 -316 -152 -366 -328 l-22 -75 -43 72 c-46 76 -49 91 -35 196 7 54 5 68 -16 110 -13 27 -56 82 -96 122 -39 41 -70 79 -67 85 2 7 27 27 54 45 55 36 61 55 30 95 -25 32 -25 44 1 58 19 10 21 17 15 58 -5 42 -3 50 19 71 26 25 33 67 16 99 -6 10 -7 28 -4 40 9 35 53 51 140 51 99 0 144 13 190 53 45 39 63 82 63 147 0 28 -6 65 -14 83 -17 43 -76 93 -123 106 -23 7 -172 11 -378 11 -292 0 -344 -2 -363 -16z m526 -140 c30 -20 30 -68 0 -88 -17 -12 -49 -16 -134 -16 -110 0 -113 1 -133 26 -12 15 -21 30 -21 34 0 4 9 19 21 34 20 25 23 26 133 26 85 0 117 -4 134 -16z m-301 -542 c10 -43 -26 -79 -69 -69 -30 8 -48 44 -37 75 18 48 93 44 106 -6z m115 -489 c26 -23 22 -58 -8 -82 -21 -16 -41 -21 -90 -21 -76 0 -112 12 -123 42 -9 23 2 56 23 70 6 4 49 8 95 8 65 0 89 -4 103 -17z m186 -509 c32 -22 27 -73 -9 -93 -24 -13 -29 -13 -53 2 -34 22 -36 69 -4 91 28 20 38 20 66 0z"/>
    </g>
    <g id="layer102" fill="#b75d73" stroke="none">
        <path d="M1032 2544 c-16 -11 -22 -25 -22 -53 0 -53 23 -71 92 -71 44 0 59 -4 76 -23 28 -30 28 -48 -1 -75 -22 -21 -31 -22 -239 -22 -242 0 -248 -2 -248 -73 0 -65 8 -67 320 -67 206 0 280 -3 292 -12 27 -21 30 -53 9 -79 -19 -24 -22 -24 -247 -29 l-228 -5 -13 -25 c-14 -26 -9 -65 9 -87 7 -9 40 -13 98 -13 73 0 92 -3 114 -21 30 -23 33 -45 10 -77 -15 -22 -18 -22 -265 -22 l-250 0 -24 -25 c-14 -13 -25 -31 -25 -40 0 -20 19 -57 34 -67 6 -4 164 -8 351 -8 376 0 385 -1 385 -60 0 -58 -11 -60 -356 -60 -288 0 -312 -1 -327 -18 -23 -25 -21 -78 3 -102 19 -19 33 -20 239 -20 216 0 220 0 235 -22 23 -32 20 -54 -10 -77 -19 -15 -41 -21 -79 -21 -60 0 -85 -19 -85 -67 0 -57 15 -61 223 -65 185 -3 189 -3 208 -27 21 -26 18 -58 -9 -78 -12 -10 -86 -13 -292 -13 -314 0 -320 -1 -320 -69 0 -72 -3 -71 348 -71 299 0 313 -1 332 -20 11 -11 20 -29 20 -40 0 -11 -9 -29 -20 -40 -17 -17 -33 -20 -108 -20 -76 0 -91 -3 -107 -20 -26 -29 -24 -79 4 -102 22 -17 52 -18 506 -18 265 0 503 3 529 6 l46 7 0 403 c0 458 9 417 -90 429 -117 14 -260 -32 -351 -113 -64 -57 -109 -130 -134 -219 l-22 -75 -43 72 c-46 76 -49 91 -35 196 7 54 5 68 -16 110 -13 27 -56 82 -96 122 -39 41 -70 79 -67 85 2 7 27 27 54 45 55 36 61 55 30 95 -25 32 -25 44 1 58 19 10 21 17 15 58 -5 42 -3 50 19 71 26 25 33 67 16 99 -6 10 -7 28 -4 40 9 35 53 51 140 51 99 0 144 13 190 53 45 39 63 82 63 147 0 28 -6 65 -14 83 -17 43 -76 93 -123 106 -23 7 -172 11 -378 11 -292 0 -344 -2 -363 -16z m526 -140 c30 -20 30 -68 0 -88 -17 -12 -49 -16 -134 -16 -110 0 -113 1 -133 26 -12 15 -21 30 -21 34 0 4 9 19 21 34 20 25 23 26 133 26 85 0 117 -4 134 -16z m-301 -542 c10 -43 -26 -79 -69 -69 -30 8 -48 44 -37 75 18 48 93 44 106 -6z m115 -489 c26 -23 22 -58 -8 -82 -21 -16 -41 -21 -90 -21 -76 0 -112 12 -123 42 -9 23 2 56 23 70 6 4 49 8 95 8 65 0 89 -4 103 -17z m186 -509 c32 -22 27 -73 -9 -93 -24 -13 -29 -13 -53 2 -34 22 -36 69 -4 91 28 20 38 20 66 0z"/>
    </g>
    <g id="layer103" fill="#be6862" stroke="none">
        <path d="M1032 2544 c-16 -11 -22 -25 -22 -53 0 -53 23 -71 92 -71 44 0 59 -4 76 -23 28 -30 28 -48 -1 -75 -22 -21 -31 -22 -239 -22 -242 0 -248 -2 -248 -73 0 -65 8 -67 320 -67 206 0 280 -3 292 -12 27 -21 30 -53 9 -79 -19 -24 -22 -24 -247 -29 l-228 -5 -13 -25 c-14 -26 -9 -65 9 -87 7 -9 40 -13 98 -13 73 0 92 -3 114 -21 30 -23 33 -45 10 -77 -15 -22 -18 -22 -265 -22 l-250 0 -24 -25 c-14 -13 -25 -31 -25 -40 0 -20 19 -57 34 -67 6 -4 164 -8 351 -8 376 0 385 -1 385 -60 0 -58 -11 -60 -356 -60 -288 0 -312 -1 -327 -18 -23 -25 -21 -78 3 -102 19 -19 33 -20 239 -20 216 0 220 0 235 -22 23 -32 20 -54 -10 -77 -19 -15 -41 -21 -79 -21 -60 0 -85 -19 -85 -67 0 -57 15 -61 223 -65 185 -3 189 -3 208 -27 21 -26 18 -58 -9 -78 -12 -10 -86 -13 -292 -13 -314 0 -320 -1 -320 -69 0 -72 -3 -71 348 -71 299 0 313 -1 332 -20 11 -11 20 -29 20 -40 0 -11 -9 -29 -20 -40 -17 -17 -33 -20 -108 -20 -76 0 -91 -3 -107 -20 -26 -29 -24 -79 4 -102 22 -17 49 -18 440 -17 229 0 410 3 404 6 -10 4 -13 96 -13 414 0 321 -3 409 -12 409 -27 0 -135 -59 -179 -99 -64 -56 -109 -129 -134 -218 l-22 -75 -43 72 c-46 76 -49 91 -35 196 7 54 5 68 -16 110 -13 27 -56 82 -96 122 -39 41 -70 79 -67 85 2 7 27 27 54 45 55 36 61 55 30 95 -25 32 -25 44 1 58 19 10 21 17 15 58 -5 42 -3 50 19 71 26 25 33 67 16 99 -6 10 -7 28 -4 40 9 35 53 51 140 51 99 0 144 13 190 53 45 39 63 82 63 147 0 28 -6 65 -14 83 -17 43 -76 93 -123 106 -23 7 -172 11 -378 11 -292 0 -344 -2 -363 -16z m526 -140 c30 -20 30 -68 0 -88 -17 -12 -49 -16 -134 -16 -110 0 -113 1 -133 26 -12 15 -21 30 -21 34 0 4 9 19 21 34 20 25 23 26 133 26 85 0 117 -4 134 -16z m-301 -542 c10 -43 -26 -79 -69 -69 -30 8 -48 44 -37 75 18 48 93 44 106 -6z m115 -489 c26 -23 22 -58 -8 -82 -21 -16 -41 -21 -90 -21 -76 0 -112 12 -123 42 -9 23 2 56 23 70 6 4 49 8 95 8 65 0 89 -4 103 -17z m186 -509 c32 -22 27 -73 -9 -93 -24 -13 -29 -13 -53 2 -34 22 -36 69 -4 91 28 20 38 20 66 0z"/>
    </g>
    <g id="layer104" fill="#cf7f3f" stroke="none">
        <path d="M1032 2544 c-16 -11 -22 -25 -22 -53 0 -53 23 -71 92 -71 44 0 59 -4 76 -23 28 -30 28 -48 -1 -75 -22 -21 -31 -22 -239 -22 -242 0 -248 -2 -248 -73 0 -65 8 -67 320 -67 206 0 280 -3 292 -12 27 -21 30 -53 9 -79 -19 -24 -22 -24 -247 -29 l-228 -5 -13 -25 c-14 -26 -9 -65 9 -87 7 -9 40 -13 98 -13 73 0 92 -3 114 -21 30 -23 33 -45 10 -77 -15 -22 -18 -22 -265 -22 l-250 0 -24 -25 c-14 -13 -25 -31 -25 -40 0 -20 19 -57 34 -67 6 -4 164 -8 351 -8 376 0 385 -1 385 -60 0 -58 -11 -60 -356 -60 -288 0 -312 -1 -327 -18 -23 -25 -21 -78 3 -102 19 -19 33 -20 239 -20 216 0 220 0 235 -22 23 -32 20 -54 -10 -77 -19 -15 -41 -21 -79 -21 -60 0 -85 -19 -85 -67 0 -57 15 -61 223 -65 185 -3 189 -3 208 -27 21 -26 18 -58 -9 -78 -12 -10 -86 -13 -292 -13 -314 0 -320 -1 -320 -69 0 -72 -3 -71 348 -71 299 0 313 -1 332 -20 11 -11 20 -29 20 -40 0 -11 -9 -29 -20 -40 -17 -17 -33 -20 -108 -20 -76 0 -91 -3 -107 -20 -26 -29 -24 -79 4 -102 21 -16 45 -18 255 -18 127 0 241 3 254 6 l22 6 0 276 c0 151 -3 272 -7 268 -5 -4 -8 -11 -9 -14 0 -4 -4 -14 -7 -22 -4 -8 -9 -28 -11 -44 -3 -16 -7 -30 -9 -33 -2 -2 -24 28 -47 68 -46 75 -49 91 -35 195 7 54 5 68 -16 110 -13 27 -56 82 -96 122 -39 41 -70 79 -67 85 2 7 27 27 54 45 55 36 61 55 30 95 -25 32 -25 44 1 58 19 10 21 17 15 58 -5 42 -3 50 19 71 26 25 33 67 16 99 -24 44 23 91 91 91 18 0 43 3 56 6 22 6 22 8 22 194 0 186 0 188 -22 194 -13 3 -156 6 -318 6 -251 0 -299 -2 -318 -16z m526 -140 c30 -20 30 -68 0 -88 -17 -12 -49 -16 -134 -16 -110 0 -113 1 -133 26 -12 15 -21 30 -21 34 0 4 9 19 21 34 20 25 23 26 133 26 85 0 117 -4 134 -16z m-301 -542 c10 -43 -26 -79 -69 -69 -30 8 -48 44 -37 75 18 48 93 44 106 -6z m115 -489 c26 -23 22 -58 -8 -82 -21 -16 -41 -21 -90 -21 -76 0 -112 12 -123 42 -9 23 2 56 23 70 6 4 49 8 95 8 65 0 89 -4 103 -17z m186 -509 c32 -22 27 -73 -9 -93 -24 -13 -29 -13 -53 2 -34 22 -36 69 -4 91 28 20 38 20 66 0z"/>
        <path d="M960 740 c-27 -27 -25 -66 5 -95 30 -30 54 -31 89 -4 50 40 21 119 -44 119 -17 0 -39 -9 -50 -20z"/>
    </g>
    <g id="layer105" fill="#e39a17" stroke="none">
        <path d="M835 2535 c-30 -30 -31 -54 -4 -89 40 -50 119 -24 119 40 0 68 -68 97 -115 49z"/>
        <path d="M707 2282 c-25 -28 -22 -87 5 -106 24 -17 163 -22 227 -10 31 6 31 7 31 70 l0 64 -123 0 c-107 0 -126 -2 -140 -18z"/>
        <path d="M385 2026 c-26 -19 -26 -83 0 -102 14 -11 59 -14 181 -14 157 0 163 1 178 22 9 12 16 32 16 43 0 11 -7 31 -16 43 -15 21 -21 22 -178 22 -122 0 -167 -3 -181 -14z"/>
        <path d="M829 2024 c-7 -9 -13 -31 -13 -49 0 -53 17 -65 90 -65 l64 0 0 65 0 65 -64 0 c-46 0 -67 -4 -77 -16z"/>
        <path d="M515 1765 c-14 -13 -25 -31 -25 -40 0 -20 19 -57 34 -67 6 -4 109 -8 229 -8 l217 0 0 64 c0 63 0 64 -31 70 -17 3 -114 6 -216 6 -182 0 -184 0 -208 -25z"/>
        <path d="M380 1503 c-52 -66 41 -152 100 -93 26 26 26 81 2 103 -29 27 -77 22 -102 -10z"/>
        <path d="M577 1512 c-23 -25 -21 -78 3 -102 18 -18 33 -20 174 -20 84 0 168 3 185 6 31 6 31 7 31 70 l0 64 -188 0 c-170 0 -191 -2 -205 -18z"/>
        <path d="M506 1248 c-9 -12 -16 -32 -16 -43 0 -11 7 -31 16 -43 14 -21 22 -22 149 -22 150 0 165 6 165 65 0 59 -15 65 -165 65 -127 0 -135 -1 -149 -22z"/>
        <path d="M897 1252 c-39 -42 -9 -112 46 -112 26 0 27 1 27 65 0 65 0 65 -28 65 -16 0 -36 -8 -45 -18z"/>
        <path d="M712 1004 c-16 -11 -22 -25 -22 -53 0 -63 17 -71 158 -71 l122 0 0 64 c0 63 0 64 -31 70 -64 12 -203 7 -227 -10z"/>
        <path d="M955 733 c-12 -11 -15 -25 -11 -47 11 -54 24 -50 28 8 1 31 2 56 1 56 -1 0 -9 -7 -18 -17z"/>
    </g>
</svg>