<svg xmlns="http://www.w3.org/2000/svg" width="320px" height="326px" viewBox="0 0 3200 3260"
     preserveAspectRatio="xMidYMid meet">
    <g id="layer101" fill="#eeaa00" stroke="none">
        <path d="M1779 2961 c-24 -24 -29 -38 -29 -76 0 -59 35 -98 96 -108 73 -12 132 -79 119 -137 -4 -16 -22 -43 -41 -60 l-35 -30 -129 0 -130 0 0 131 0 131 -34 34 c-43 43 -100 47 -143 10 -28 -24 -28 -26 -33 -163 l-5 -138 -112 -3 -111 -3 -4 137 -3 136 -33 29 c-45 40 -99 40 -144 0 l-33 -29 -5 -143 -5 -142 -40 -12 c-403 -120 -529 -631 -226 -917 69 -66 181 -132 244 -143 31 -6 33 -9 50 -84 10 -43 35 -114 56 -159 l39 -80 -25 -24 c-76 -69 -85 -234 -18 -302 15 -15 16 -21 7 -35 -69 -94 -68 -242 3 -301 14 -12 14 -15 -4 -34 -72 -77 -66 -247 11 -300 12 -9 40 -16 62 -16 39 0 47 7 283 243 195 194 250 254 273 301 17 33 30 70 30 83 0 19 5 23 30 23 23 0 30 -5 30 -19 0 -10 16 -49 35 -87 29 -60 67 -102 273 -306 224 -224 240 -238 275 -238 55 0 84 18 108 68 37 76 25 170 -33 256 -11 15 -11 19 0 23 17 7 44 60 53 108 10 52 -6 125 -37 171 -22 32 -23 38 -11 53 32 36 49 85 49 140 0 64 -17 111 -56 158 -27 32 -27 33 -9 63 l17 30 82 -81 c117 -116 117 -116 112 114 -4 201 -12 236 -77 309 l-31 36 0 272 c0 304 -4 325 -65 354 -41 20 -58 20 -95 1 -54 -28 -60 -54 -60 -267 0 -182 1 -194 20 -206 11 -7 20 -19 20 -27 0 -21 -40 -45 -77 -45 -95 0 -213 -83 -263 -185 -23 -47 -25 -62 -28 -238 -4 -237 -6 -236 127 -103 96 96 96 96 146 96 52 0 95 -20 95 -44 0 -26 -36 -46 -81 -46 -42 0 -48 -4 -119 -76 -104 -105 -139 -121 -199 -89 -47 24 -53 54 -49 266 l3 194 32 68 c22 46 53 88 93 128 l60 59 0 202 c0 112 -5 219 -10 239 -15 54 -53 84 -107 84 -38 0 -49 -5 -74 -33 l-29 -32 0 -254 c0 -247 -1 -254 -23 -287 -14 -21 -38 -39 -63 -48 -35 -12 -44 -12 -76 3 -66 32 -68 42 -68 424 l0 340 154 3 c152 4 153 4 222 39 113 58 178 166 177 296 -1 165 -160 324 -324 324 -43 0 -55 -5 -80 -29z m-359 -686 c0 -102 -47 -165 -122 -165 -32 0 -47 7 -74 34 -33 33 -34 37 -34 110 l0 76 115 0 115 0 0 -55z m-455 -584 c-10 -9 -77 33 -121 76 -69 70 -89 121 -89 233 0 79 4 102 23 137 33 62 79 111 136 144 l51 29 3 -307 c1 -168 0 -309 -3 -312z m1214 -235 c34 -41 -24 -101 -75 -78 -21 10 -25 18 -22 49 5 60 58 76 97 29z m336 -10 c11 -33 -2 -57 -38 -70 -48 -18 -87 44 -54 86 28 35 76 27 92 -16z m-1069 -308 c132 -57 217 -193 199 -322 -13 -102 -32 -127 -283 -378 -130 -131 -243 -238 -250 -238 -16 0 -42 59 -42 95 0 57 33 102 198 267 142 143 165 171 156 186 -24 37 -45 25 -169 -98 -84 -83 -129 -121 -142 -118 -26 5 -48 74 -39 123 7 33 30 62 142 176 74 75 134 139 134 143 0 19 -23 46 -38 46 -10 0 -53 -36 -97 -80 -44 -44 -87 -80 -97 -80 -10 0 -24 13 -33 30 -65 126 91 279 271 265 33 -2 74 -10 90 -17z m942 -107 c12 -21 22 -55 22 -75 0 -46 -25 -96 -48 -96 -10 0 -40 22 -67 50 l-49 49 50 55 c27 29 54 54 60 55 6 1 20 -16 32 -38z m7 -337 c8 -18 15 -46 15 -63 0 -46 -26 -101 -47 -101 -10 0 -72 54 -138 120 -83 83 -127 120 -142 120 -13 0 -23 -2 -23 -4 0 -2 -3 -12 -6 -21 -5 -11 41 -64 164 -188 94 -95 176 -185 181 -200 23 -60 0 -157 -36 -157 -11 0 -113 95 -245 228 -180 180 -232 239 -252 282 -14 30 -26 60 -26 66 0 7 21 15 47 19 64 9 186 55 248 92 l50 31 97 -96 c54 -53 105 -111 113 -128z"/>
    </g>
</svg>