<!DOCTYPE svg PUBLIC "-//W3C//DTD SVG 20010904//EN" "http://www.w3.org/TR/2001/REC-SVG-20010904/DTD/svg10.dtd">
<svg version="1.0" xmlns="http://www.w3.org/2000/svg" width="309px" height="304px" viewBox="0 0 3090 3040" preserveAspectRatio="xMidYMid meet">
<g id="layer101" fill="#cc44ee" stroke="none">
 <path d="M807 2753 c-4 -3 -7 -59 -7 -122 l0 -117 63 -62 c59 -58 72 -82 247 -432 l185 -370 -70 -70 -69 -70 -67 0 -66 0 -56 59 c-56 58 -57 61 -57 116 0 56 1 58 60 119 60 62 60 63 60 122 0 60 0 60 -60 119 -60 59 -60 60 -60 117 l0 58 -292 -2 -293 -3 -3 -350 -2 -349 120 -121 120 -120 -60 -60 -61 -60 3 -115 3 -115 314 -3 c212 -1 319 -6 328 -13 10 -9 13 -48 13 -155 l0 -144 57 -86 57 -86 238 -119 238 -119 114 0 c132 0 126 -6 126 109 l0 77 55 54 55 54 0 88 0 88 -56 0 c-91 0 -110 20 -78 83 22 42 30 47 87 47 40 0 47 3 47 20 0 11 55 129 121 262 l121 243 -101 202 c-55 112 -101 210 -101 218 0 8 68 150 150 315 l150 300 160 80 160 80 0 115 c0 111 -1 115 -22 120 -13 3 -198 4 -413 3 l-390 -3 -3 -120 -3 -120 -97 -190 c-61 -119 -103 -190 -112 -190 -9 0 -41 51 -83 132 l-67 133 30 60 c28 55 30 67 30 168 0 71 -4 112 -12 120 -9 9 -107 12 -378 12 -202 0 -370 -3 -373 -7z m1280 -1470 c4 -10 -11 -50 -38 -102 l-44 -86 -118 -3 c-94 -2 -118 0 -123 12 -3 7 15 55 40 105 l46 91 115 0 c99 0 117 -2 122 -17z m-388 -509 c33 -42 36 -65 11 -86 -18 -14 -40 -18 -114 -18 -114 0 -135 11 -117 60 21 62 36 70 122 70 71 0 79 -2 98 -26z"/>
 <path d="M2281 1952 l-103 -207 81 -163 c45 -89 85 -162 89 -162 4 0 18 20 30 45 21 44 22 56 22 370 0 179 -3 325 -8 325 -4 0 -54 -93 -111 -208z"/>
 <path d="M2257 1075 c-37 -74 -67 -140 -67 -145 0 -6 42 -10 105 -10 l105 0 0 118 c0 117 0 119 -28 145 -15 15 -32 27 -38 27 -5 0 -40 -61 -77 -135z"/>
 </g>

</svg>