<svg xmlns="http://www.w3.org/2000/svg" width="316px" height="313px" viewBox="0 0 3160 3130"
     preserveAspectRatio="xMidYMid meet">
    <g id="layer101" fill="#e43221" stroke="none">
        <path d="M1532 2848 c-9 -9 -12 -101 -12 -352 l0 -341 -77 77 c-43 42 -91 82 -106 87 -45 17 -530 14 -570 -3 -43 -18 -307 -287 -307 -312 0 -11 47 -67 115 -134 63 -63 115 -121 115 -129 0 -8 -49 -65 -110 -126 l-110 -112 0 -294 c0 -216 3 -298 12 -307 19 -19 570 -17 607 3 16 8 31 11 35 8 3 -4 6 -63 6 -132 l0 -125 212 -213 c165 -166 218 -213 238 -213 20 0 71 46 232 207 114 115 212 221 218 236 5 16 10 78 10 138 l0 110 30 -16 c24 -12 78 -15 313 -15 207 0 286 3 295 12 9 9 12 91 12 307 l0 294 -110 112 c-60 61 -110 118 -110 126 0 8 52 66 115 129 68 67 115 123 115 134 0 25 -264 294 -307 312 -40 17 -525 20 -569 4 -15 -6 -59 -42 -99 -80 -39 -39 -75 -70 -78 -70 -4 0 -7 150 -7 333 0 246 -3 336 -12 345 -7 7 -28 12 -48 12 -20 0 -41 -5 -48 -12z m-176 -709 c35 -34 61 -66 58 -70 -9 -15 -290 -11 -327 5 -18 8 -57 39 -87 70 l-54 56 173 0 173 0 64 -61z m804 5 c-30 -31 -69 -62 -87 -70 -37 -16 -318 -20 -327 -5 -3 4 23 36 58 70 l64 61 173 0 173 0 -54 -56z m-1312 -27 c23 -23 42 -46 42 -50 0 -9 -184 -9 -194 0 -9 10 75 93 94 93 9 0 35 -19 58 -43z m1580 0 c23 -24 39 -46 36 -50 -10 -9 -194 -9 -194 0 0 14 85 93 100 93 9 0 35 -19 58 -43z m-1538 -184 c0 -12 -83 -93 -95 -93 -6 0 -33 23 -60 50 l-49 50 102 0 c56 0 102 -3 102 -7z m464 -63 l-72 -70 -168 0 -169 0 71 70 72 70 168 0 169 0 -71 -70z m790 0 l71 -70 -169 0 -168 0 -72 70 -71 70 169 0 168 0 72 -70z m326 61 c0 -13 -88 -91 -102 -91 -13 0 -98 79 -98 92 0 4 45 8 100 8 55 0 100 -4 100 -9z m-949 -173 c1 -168 -3 -232 -16 -257 -7 -14 -39 -51 -69 -81 l-56 -54 0 162 c0 100 4 172 11 185 13 26 110 127 121 127 4 0 8 -37 9 -82z m197 18 l62 -64 0 -173 0 -173 -56 54 c-83 82 -84 86 -84 265 0 85 4 155 8 155 5 0 37 -29 70 -64z m-568 -104 c0 -5 -29 -37 -64 -70 l-64 -62 -168 0 -168 0 59 61 c33 33 69 65 80 69 26 11 325 13 325 2z m1257 -64 l68 -68 -168 0 -169 0 -64 62 c-35 33 -64 65 -64 70 0 5 70 8 165 6 l165 -3 67 -67z m-1147 -184 c0 -171 -5 -187 -84 -264 l-56 -54 0 173 0 173 61 64 c34 35 66 61 70 58 5 -3 9 -70 9 -150z m780 6 c12 -42 13 -290 2 -307 -10 -16 -116 89 -131 130 -12 31 -15 309 -4 321 12 12 123 -107 133 -144z m-1156 -18 c3 -5 -62 -75 -145 -158 l-149 -149 0 147 c0 129 2 148 18 157 20 12 269 15 276 3z m1667 -2 c17 -10 19 -23 19 -158 l0 -147 -149 149 c-83 83 -148 153 -145 158 8 12 252 10 275 -2z m-1572 -386 c-9 -11 -44 -14 -150 -14 -77 0 -139 3 -139 7 0 4 66 74 148 156 l147 147 3 -141 c2 -96 -1 -146 -9 -155z m1491 -6 c0 -14 -275 -9 -288 4 -8 8 -12 58 -12 157 l0 146 150 -150 c83 -82 150 -153 150 -157z m-950 195 l0 -97 -135 -135 -135 -136 0 104 0 104 127 129 c70 70 131 128 135 128 4 0 8 -44 8 -97z m263 -31 l127 -129 0 -104 0 -104 -132 133 -133 132 -3 100 c-2 55 0 100 5 100 5 0 66 -58 136 -128z m-263 -492 c0 -126 -3 -230 -7 -230 -15 0 -223 215 -223 230 0 15 208 230 222 230 5 0 8 -103 8 -230z m242 123 c60 -59 108 -114 108 -123 0 -15 -208 -230 -222 -230 -5 0 -8 104 -8 230 0 127 3 230 7 230 4 0 56 -48 115 -107z"/>
    </g>
    <g id="layer102" fill="#e56017" stroke="none">
        <path d="M765 2316 c-42 -19 -305 -288 -305 -312 0 -11 47 -67 115 -134 63 -63 115 -121 115 -129 0 -8 -49 -65 -110 -126 l-110 -112 0 -294 c0 -216 3 -298 12 -307 19 -19 570 -17 607 3 16 8 31 11 35 8 3 -4 6 -63 6 -132 l0 -125 212 -213 c165 -166 218 -213 238 -213 20 0 71 46 232 207 114 115 212 221 218 236 5 16 10 78 10 138 l0 110 30 -16 c24 -12 78 -15 313 -15 207 0 286 3 295 12 9 9 12 91 12 307 l0 294 -110 112 c-60 61 -110 118 -110 126 0 8 52 66 115 129 68 67 115 123 115 134 0 25 -264 294 -307 312 -24 10 -85 14 -241 14 l-209 0 -39 -47 c-38 -47 -79 -99 -119 -152 -10 -14 4 -5 33 22 l51 47 173 0 172 0 -54 -56 c-78 -79 -92 -84 -271 -84 -140 0 -151 1 -145 18 4 9 -8 1 -26 -19 -34 -38 -80 -59 -128 -59 -15 0 -39 -9 -54 -21 -24 -19 -36 -15 -18 6 5 6 14 29 22 52 11 35 10 53 -3 115 -11 54 -15 64 -16 38 l-1 -35 -77 77 c-43 42 -91 82 -106 87 -44 17 -534 14 -572 -3z m591 -177 c35 -34 61 -66 58 -70 -9 -15 -290 -11 -327 5 -18 8 -57 39 -87 70 l-54 56 173 0 173 0 64 -61z m-508 -22 c23 -23 42 -46 42 -50 0 -9 -184 -9 -194 0 -9 10 75 93 94 93 9 0 35 -19 58 -43z m1580 0 c23 -24 39 -46 36 -50 -10 -9 -194 -9 -194 0 0 14 85 93 100 93 9 0 35 -19 58 -43z m-1538 -184 c0 -12 -83 -93 -95 -93 -6 0 -33 23 -60 50 l-49 50 102 0 c56 0 102 -3 102 -7z m464 -63 l-72 -70 -168 0 -169 0 71 70 72 70 168 0 169 0 -71 -70z m790 0 l71 -70 -169 0 -168 0 -72 70 -71 70 169 0 168 0 72 -70z m326 61 c0 -13 -88 -91 -102 -91 -13 0 -98 79 -98 92 0 4 45 8 100 8 55 0 100 -4 100 -9z m-949 -173 c1 -168 -3 -232 -16 -257 -7 -14 -39 -51 -69 -81 l-56 -54 0 162 c0 100 4 172 11 185 13 26 110 127 121 127 4 0 8 -37 9 -82z m197 18 l62 -64 0 -173 0 -173 -56 54 c-83 82 -84 86 -84 265 0 85 4 155 8 155 5 0 37 -29 70 -64z m-568 -104 c0 -5 -29 -37 -64 -70 l-64 -62 -168 0 -168 0 59 61 c33 33 69 65 80 69 26 11 325 13 325 2z m1257 -64 l68 -68 -168 0 -169 0 -64 62 c-35 33 -64 65 -64 70 0 5 70 8 165 6 l165 -3 67 -67z m-1147 -184 c0 -171 -5 -187 -84 -264 l-56 -54 0 173 0 173 61 64 c34 35 66 61 70 58 5 -3 9 -70 9 -150z m780 6 c12 -42 13 -290 2 -307 -10 -16 -116 89 -131 130 -12 31 -15 309 -4 321 12 12 123 -107 133 -144z m-1156 -18 c3 -5 -62 -75 -145 -158 l-149 -149 0 147 c0 129 2 148 18 157 20 12 269 15 276 3z m1667 -2 c17 -10 19 -23 19 -158 l0 -147 -149 149 c-83 83 -148 153 -145 158 8 12 252 10 275 -2z m-1572 -386 c-9 -11 -44 -14 -150 -14 -77 0 -139 3 -139 7 0 4 66 74 148 156 l147 147 3 -141 c2 -96 -1 -146 -9 -155z m1491 -6 c0 -14 -275 -9 -288 4 -8 8 -12 58 -12 157 l0 146 150 -150 c83 -82 150 -153 150 -157z m-950 195 l0 -97 -135 -135 -135 -136 0 104 0 104 127 129 c70 70 131 128 135 128 4 0 8 -44 8 -97z m263 -31 l127 -129 0 -104 0 -104 -132 133 -133 132 -3 100 c-2 55 0 100 5 100 5 0 66 -58 136 -128z m-263 -492 c0 -126 -3 -230 -7 -230 -15 0 -223 215 -223 230 0 15 208 230 222 230 5 0 8 -103 8 -230z m242 123 c60 -59 108 -114 108 -123 0 -15 -208 -230 -222 -230 -5 0 -8 104 -8 230 0 127 3 230 7 230 4 0 56 -48 115 -107z"/>
    </g>
    <g id="layer103" fill="#d92164" stroke="none">
        <path d="M765 2316 c-43 -20 -305 -288 -305 -312 0 -11 47 -67 115 -134 63 -63 115 -121 115 -129 0 -8 -49 -65 -110 -126 l-110 -112 0 -294 c0 -216 3 -298 12 -307 19 -19 570 -17 607 3 16 8 31 11 35 8 3 -4 6 -63 6 -132 l0 -125 212 -213 c165 -166 218 -213 238 -213 20 0 71 46 232 207 114 115 212 221 218 236 5 16 10 78 10 138 l0 110 30 -16 c24 -12 78 -15 313 -15 207 0 286 3 295 12 9 9 12 91 12 307 l0 294 -110 112 c-60 61 -110 118 -110 126 0 8 52 66 115 129 68 67 115 123 115 134 0 25 -264 294 -307 312 -24 10 -85 14 -241 14 l-209 0 -39 -47 c-38 -47 -79 -99 -119 -152 -10 -14 4 -5 33 22 l51 47 173 0 172 0 -54 -56 c-78 -79 -92 -84 -271 -84 -140 0 -151 1 -145 18 4 9 -8 1 -26 -19 -34 -38 -80 -59 -128 -59 -14 0 -45 -14 -68 -31 -48 -35 -67 -33 -77 8 -4 17 -22 39 -46 56 -38 26 -45 27 -159 27 -144 0 -165 7 -240 84 l-54 56 95 0 c53 0 99 3 102 6 3 4 -28 32 -71 62 l-77 56 -100 3 c-71 2 -109 -1 -130 -11z m83 -199 c23 -23 42 -46 42 -50 0 -9 -184 -9 -194 0 -9 10 75 93 94 93 9 0 35 -19 58 -43z m1580 0 c23 -24 39 -46 36 -50 -10 -9 -194 -9 -194 0 0 14 85 93 100 93 9 0 35 -19 58 -43z m-1538 -184 c0 -12 -83 -93 -95 -93 -6 0 -33 23 -60 50 l-49 50 102 0 c56 0 102 -3 102 -7z m464 -63 l-72 -70 -168 0 -169 0 71 70 72 70 168 0 169 0 -71 -70z m790 0 l71 -70 -169 0 -168 0 -72 70 -71 70 169 0 168 0 72 -70z m326 61 c0 -13 -88 -91 -102 -91 -13 0 -98 79 -98 92 0 4 45 8 100 8 55 0 100 -4 100 -9z m-949 -173 c1 -168 -3 -232 -16 -257 -7 -14 -39 -51 -69 -81 l-56 -54 0 162 c0 100 4 172 11 185 13 26 110 127 121 127 4 0 8 -37 9 -82z m197 18 l62 -64 0 -173 0 -173 -56 54 c-83 82 -84 86 -84 265 0 85 4 155 8 155 5 0 37 -29 70 -64z m-568 -104 c0 -5 -29 -37 -64 -70 l-64 -62 -168 0 -168 0 59 61 c33 33 69 65 80 69 26 11 325 13 325 2z m1257 -64 l68 -68 -168 0 -169 0 -64 62 c-35 33 -64 65 -64 70 0 5 70 8 165 6 l165 -3 67 -67z m-1147 -184 c0 -171 -5 -187 -84 -264 l-56 -54 0 173 0 173 61 64 c34 35 66 61 70 58 5 -3 9 -70 9 -150z m780 6 c12 -42 13 -290 2 -307 -10 -16 -116 89 -131 130 -12 31 -15 309 -4 321 12 12 123 -107 133 -144z m-1156 -18 c3 -5 -62 -75 -145 -158 l-149 -149 0 147 c0 129 2 148 18 157 20 12 269 15 276 3z m1667 -2 c17 -10 19 -23 19 -158 l0 -147 -149 149 c-83 83 -148 153 -145 158 8 12 252 10 275 -2z m-1572 -386 c-9 -11 -44 -14 -150 -14 -77 0 -139 3 -139 7 0 4 66 74 148 156 l147 147 3 -141 c2 -96 -1 -146 -9 -155z m1491 -6 c0 -14 -275 -9 -288 4 -8 8 -12 58 -12 157 l0 146 150 -150 c83 -82 150 -153 150 -157z m-950 195 l0 -97 -135 -135 -135 -136 0 104 0 104 127 129 c70 70 131 128 135 128 4 0 8 -44 8 -97z m263 -31 l127 -129 0 -104 0 -104 -132 133 -133 132 -3 100 c-2 55 0 100 5 100 5 0 66 -58 136 -128z m-263 -492 c0 -126 -3 -230 -7 -230 -15 0 -223 215 -223 230 0 15 208 230 222 230 5 0 8 -103 8 -230z m242 123 c60 -59 108 -114 108 -123 0 -15 -208 -230 -222 -230 -5 0 -8 104 -8 230 0 127 3 230 7 230 4 0 56 -48 115 -107z"/>
    </g>
    <g id="layer104" fill="#c61dd2" stroke="none">
        <path d="M765 2316 c-43 -20 -305 -288 -305 -312 0 -11 47 -67 115 -134 63 -63 115 -121 115 -129 0 -8 -49 -65 -110 -126 l-110 -112 0 -294 c0 -216 3 -298 12 -307 19 -19 570 -17 607 3 16 8 31 11 35 8 3 -4 6 -63 6 -132 l0 -125 212 -213 c165 -166 218 -213 238 -213 20 0 71 46 232 207 114 115 212 221 218 236 5 16 10 78 10 138 l0 110 30 -16 c24 -12 78 -15 313 -15 207 0 286 3 295 12 9 9 12 91 12 307 l0 294 -110 112 c-60 61 -110 117 -110 125 0 8 52 67 116 131 136 136 135 134 50 219 l-56 54 -62 -13 c-78 -16 -83 -19 -64 -40 9 -10 13 -21 9 -24 -3 -4 -55 -7 -115 -7 -100 0 -129 -5 -325 -55 -119 -30 -219 -57 -221 -60 -3 -3 57 -5 133 -5 l137 0 72 -70 71 -70 -168 0 -169 0 -68 66 -68 66 -79 -12 c-106 -17 -103 -15 -103 -49 0 -23 -4 -29 -15 -25 -8 4 -15 13 -15 21 0 9 -5 33 -12 54 -9 31 -14 37 -24 28 -20 -16 -41 -4 -49 28 -4 17 -22 39 -46 56 -38 26 -45 27 -159 27 -144 0 -165 7 -240 84 l-54 56 95 0 c53 0 99 3 102 6 3 4 -28 32 -71 62 l-77 56 -100 3 c-71 2 -109 -1 -130 -11z m83 -199 c23 -23 42 -46 42 -50 0 -9 -184 -9 -194 0 -9 10 75 93 94 93 9 0 35 -19 58 -43z m42 -184 c0 -12 -83 -93 -95 -93 -6 0 -33 23 -60 50 l-49 50 102 0 c56 0 102 -3 102 -7z m464 -63 l-72 -70 -168 0 -169 0 71 70 72 70 168 0 169 0 -71 -70z m1116 61 c0 -13 -88 -91 -102 -91 -13 0 -98 79 -98 92 0 4 45 8 100 8 55 0 100 -4 100 -9z m-949 -173 c1 -168 -3 -232 -16 -257 -7 -14 -39 -51 -69 -81 l-56 -54 0 162 c0 100 4 172 11 185 13 26 110 127 121 127 4 0 8 -37 9 -82z m197 18 l62 -64 0 -173 0 -173 -56 54 c-83 82 -84 86 -84 265 0 85 4 155 8 155 5 0 37 -29 70 -64z m-568 -104 c0 -5 -29 -37 -64 -70 l-64 -62 -168 0 -168 0 59 61 c33 33 69 65 80 69 26 11 325 13 325 2z m1257 -64 l68 -68 -168 0 -169 0 -64 62 c-35 33 -64 65 -64 70 0 5 70 8 165 6 l165 -3 67 -67z m-1147 -184 c0 -171 -5 -187 -84 -264 l-56 -54 0 173 0 173 61 64 c34 35 66 61 70 58 5 -3 9 -70 9 -150z m780 6 c12 -42 13 -290 2 -307 -10 -16 -116 89 -131 130 -12 31 -15 309 -4 321 12 12 123 -107 133 -144z m-1156 -18 c3 -5 -62 -75 -145 -158 l-149 -149 0 147 c0 129 2 148 18 157 20 12 269 15 276 3z m1667 -2 c17 -10 19 -23 19 -158 l0 -147 -149 149 c-83 83 -148 153 -145 158 8 12 252 10 275 -2z m-1572 -386 c-9 -11 -44 -14 -150 -14 -77 0 -139 3 -139 7 0 4 66 74 148 156 l147 147 3 -141 c2 -96 -1 -146 -9 -155z m1491 -6 c0 -14 -275 -9 -288 4 -8 8 -12 58 -12 157 l0 146 150 -150 c83 -82 150 -153 150 -157z m-950 195 l0 -97 -135 -135 -135 -136 0 104 0 104 127 129 c70 70 131 128 135 128 4 0 8 -44 8 -97z m263 -31 l127 -129 0 -104 0 -104 -132 133 -133 132 -3 100 c-2 55 0 100 5 100 5 0 66 -58 136 -128z m-263 -492 c0 -126 -3 -230 -7 -230 -15 0 -223 215 -223 230 0 15 208 230 222 230 5 0 8 -103 8 -230z m242 123 c60 -59 108 -114 108 -123 0 -15 -208 -230 -222 -230 -5 0 -8 104 -8 230 0 127 3 230 7 230 4 0 56 -48 115 -107z"/>
    </g>
    <g id="layer105" fill="#d77574" stroke="none">
        <path d="M765 2316 c-43 -20 -305 -288 -305 -312 0 -11 47 -67 115 -134 63 -63 115 -121 115 -129 0 -8 -49 -65 -110 -126 l-110 -112 0 -294 c0 -216 3 -298 12 -307 19 -19 570 -17 607 3 16 8 31 11 35 8 3 -4 6 -63 6 -132 l0 -125 212 -213 c165 -166 218 -213 238 -213 20 0 71 46 232 207 114 115 212 221 218 236 5 16 10 78 10 138 l0 110 30 -16 c18 -9 30 -11 30 -5 0 6 -31 69 -69 140 -38 72 -64 127 -58 123 7 -3 -2 9 -20 28 -18 19 -39 53 -47 75 -8 23 -39 88 -70 145 l-56 104 0 -75 0 -74 -56 54 c-83 82 -84 86 -84 265 0 85 4 155 9 155 5 0 14 -6 20 -14 7 -8 26 -18 42 -21 17 -4 60 -27 97 -52 107 -72 277 -153 217 -103 -33 27 -12 31 150 28 l164 -3 66 -65 66 -65 -143 -5 -142 -5 96 -57 c95 -57 98 -58 173 -58 102 0 115 -8 115 -70 0 -49 0 -50 53 -80 28 -16 55 -30 60 -30 4 0 7 59 7 132 l0 131 -110 112 c-60 61 -110 117 -110 125 0 8 52 67 116 131 136 136 135 134 50 219 l-56 54 -62 -13 c-78 -16 -83 -19 -64 -40 9 -10 13 -21 9 -24 -3 -4 -55 -7 -115 -7 -100 0 -129 -5 -325 -55 -119 -30 -219 -57 -221 -60 -3 -3 57 -5 133 -5 l137 0 72 -70 71 -70 -168 0 -169 0 -68 66 -68 66 -79 -12 c-106 -17 -103 -15 -103 -49 0 -23 -4 -29 -15 -25 -8 4 -15 13 -15 21 0 9 -5 33 -12 54 -9 31 -14 37 -24 28 -20 -16 -41 -4 -49 28 -4 17 -22 39 -46 56 -38 26 -45 27 -159 27 -144 0 -165 7 -240 84 l-54 56 95 0 c53 0 99 3 102 6 3 4 -28 32 -71 62 l-77 56 -100 3 c-71 2 -109 -1 -130 -11z m83 -199 c23 -23 42 -46 42 -50 0 -9 -184 -9 -194 0 -9 10 75 93 94 93 9 0 35 -19 58 -43z m42 -184 c0 -12 -83 -93 -95 -93 -6 0 -33 23 -60 50 l-49 50 102 0 c56 0 102 -3 102 -7z m464 -63 l-72 -70 -168 0 -169 0 71 70 72 70 168 0 169 0 -71 -70z m1116 61 c0 -13 -88 -91 -102 -91 -13 0 -98 79 -98 92 0 4 45 8 100 8 55 0 100 -4 100 -9z m-949 -173 c1 -168 -3 -232 -16 -257 -7 -14 -39 -51 -69 -81 l-56 -54 0 162 c0 100 4 172 11 185 13 26 110 127 121 127 4 0 8 -37 9 -82z m-371 -86 c0 -5 -29 -37 -64 -70 l-64 -62 -168 0 -168 0 59 61 c33 33 69 65 80 69 26 11 325 13 325 2z m110 -248 c0 -171 -5 -187 -84 -264 l-56 -54 0 173 0 173 61 64 c34 35 66 61 70 58 5 -3 9 -70 9 -150z m-376 -12 c3 -5 -62 -75 -145 -158 l-149 -149 0 147 c0 129 2 148 18 157 20 12 269 15 276 3z m95 -388 c-9 -11 -44 -14 -150 -14 -77 0 -139 3 -139 7 0 4 66 74 148 156 l147 147 3 -141 c2 -96 -1 -146 -9 -155z m541 189 l0 -97 -135 -135 -135 -136 0 104 0 104 127 129 c70 70 131 128 135 128 4 0 8 -44 8 -97z m263 -31 l127 -129 0 -104 0 -104 -132 133 -133 132 -3 100 c-2 55 0 100 5 100 5 0 66 -58 136 -128z m-263 -492 c0 -126 -3 -230 -7 -230 -15 0 -223 215 -223 230 0 15 208 230 222 230 5 0 8 -103 8 -230z m242 123 c60 -59 108 -114 108 -123 0 -15 -208 -230 -222 -230 -5 0 -8 104 -8 230 0 127 3 230 7 230 4 0 56 -48 115 -107z"/>
    </g>
    <g id="layer106" fill="#ce409e" stroke="none">
        <path d="M2500 2129 c-65 -18 -64 -18 -46 -38 9 -9 13 -21 9 -24 -3 -4 -55 -7 -115 -7 -100 0 -129 -5 -325 -55 -119 -30 -219 -57 -221 -60 -3 -3 57 -5 133 -5 l137 0 72 -70 71 -70 -168 0 -169 0 -68 66 -68 66 -79 -12 c-106 -17 -103 -15 -103 -50 0 -17 -4 -29 -9 -26 -5 3 -11 -31 -15 -77 -19 -238 -21 -253 -40 -282 -18 -27 -78 -236 -71 -243 2 -2 21 13 43 32 22 20 42 36 46 36 3 0 6 -43 6 -96 l0 -97 -107 -111 c-60 -60 -100 -104 -90 -97 22 17 22 10 -3 -94 -10 -44 -16 -82 -14 -84 3 -3 48 39 102 92 54 53 101 97 105 97 4 0 7 -104 7 -231 0 -142 -4 -229 -10 -227 -5 2 -58 51 -117 110 l-108 107 -17 -72 -16 -72 151 -152 c117 -119 156 -153 176 -153 21 0 71 45 233 208 114 114 212 220 218 235 5 16 10 78 10 138 l0 110 30 -16 c18 -9 30 -11 30 -5 0 6 -31 69 -69 140 -38 72 -64 127 -58 123 7 -3 -2 9 -20 28 -18 19 -39 53 -47 75 -8 23 -39 88 -70 145 l-56 104 0 -75 0 -74 -56 54 c-83 82 -84 86 -84 265 0 85 4 155 9 155 5 0 14 -6 20 -14 7 -8 26 -18 42 -21 17 -4 60 -27 97 -52 107 -72 277 -153 217 -103 -33 27 -12 31 150 28 l164 -3 66 -65 66 -65 -143 -5 -142 -5 96 -57 c95 -57 98 -58 173 -58 102 0 115 -8 115 -70 0 -49 0 -50 53 -80 28 -16 55 -30 60 -30 4 0 7 59 7 132 l0 131 -110 112 c-60 61 -110 118 -110 126 0 8 52 66 115 129 63 63 115 123 115 133 0 10 -25 45 -57 78 -59 63 -72 67 -143 48z m-30 -198 c0 -13 -88 -91 -102 -91 -13 0 -98 79 -98 92 0 4 45 8 100 8 55 0 100 -4 100 -9z m-687 -749 l127 -129 0 -104 0 -104 -132 133 -133 132 -3 100 c-2 55 0 100 5 100 5 0 66 -58 136 -128z m-21 -369 c60 -59 108 -114 108 -123 0 -15 -208 -230 -222 -230 -5 0 -8 104 -8 230 0 127 3 230 7 230 4 0 56 -48 115 -107z"/>
    </g>
    <g id="layer107" fill="#e4cb1a" stroke="none">
        <path d="M765 2316 c-43 -20 -305 -288 -305 -312 0 -11 47 -67 115 -134 63 -63 115 -121 115 -129 0 -8 -49 -65 -110 -126 l-110 -112 0 -294 c0 -216 3 -298 12 -307 9 -9 85 -12 278 -12 242 0 268 2 282 18 17 19 128 226 128 238 0 4 -11 -3 -25 -16 l-25 -23 0 172 0 173 61 64 c34 35 66 61 70 58 5 -3 9 -65 9 -137 l0 -132 60 110 c59 109 59 111 60 193 0 94 6 110 64 170 39 40 41 46 40 99 -1 39 -6 59 -17 65 -9 4 -18 20 -22 36 -4 16 -22 38 -46 55 -38 26 -45 27 -159 27 -144 0 -165 7 -240 84 l-54 56 95 0 c53 0 99 3 102 6 3 4 -28 32 -71 62 l-77 56 -100 3 c-71 2 -109 -1 -130 -11z m83 -199 c23 -23 42 -46 42 -50 0 -9 -184 -9 -194 0 -9 10 75 93 94 93 9 0 35 -19 58 -43z m42 -184 c0 -12 -83 -93 -95 -93 -6 0 -33 23 -60 50 l-49 50 102 0 c56 0 102 -3 102 -7z m464 -63 l-72 -70 -168 0 -169 0 71 70 72 70 168 0 169 0 -71 -70z m-204 -198 c0 -5 -29 -37 -64 -70 l-64 -62 -168 0 -168 0 59 61 c33 33 69 65 80 69 26 11 325 13 325 2z m-266 -260 c3 -5 -62 -75 -145 -158 l-149 -149 0 147 c0 129 2 148 18 157 20 12 269 15 276 3z m95 -388 c-9 -11 -44 -14 -150 -14 -77 0 -139 3 -139 7 0 4 66 74 148 156 l147 147 3 -141 c2 -96 -1 -146 -9 -155z"/>
    </g>
    <g id="layer108" fill="#dea33c" stroke="none">
        <path d="M765 2317 c-16 -8 -77 -63 -135 -122 -117 -121 -117 -113 5 -133 186 -32 585 -103 628 -112 27 -5 72 -10 101 -10 51 0 53 -1 49 -24 -3 -13 0 -27 6 -30 6 -4 11 -20 11 -36 0 -26 -10 -33 -132 -98 -109 -57 -146 -83 -204 -141 l-71 -71 -70 0 c-66 0 -78 -4 -184 -57 l-114 -58 110 -3 c60 -1 113 -6 117 -10 4 -4 -60 -75 -142 -157 l-150 -150 0 142 0 141 -60 -26 -60 -27 0 -210 c0 -151 3 -214 12 -223 9 -9 85 -12 278 -12 242 0 268 2 282 18 17 19 128 226 128 238 0 4 -11 -3 -25 -16 l-25 -23 0 172 0 173 61 64 c34 35 66 61 70 58 5 -3 9 -65 9 -137 l0 -132 60 110 c59 109 59 111 60 193 0 94 6 110 64 170 39 40 41 46 40 99 -1 39 -6 59 -17 65 -9 4 -18 20 -22 36 -4 16 -22 38 -46 55 -38 26 -45 27 -159 27 -144 0 -165 7 -240 84 l-54 56 95 0 c53 0 99 3 102 6 3 4 -28 32 -71 62 l-77 56 -100 3 c-70 2 -109 -1 -130 -10z m83 -200 c23 -23 42 -46 42 -50 0 -4 -45 -7 -100 -7 -55 0 -100 3 -100 7 0 14 85 93 100 93 9 0 35 -19 58 -43z m131 -1093 c-9 -11 -44 -14 -150 -14 -77 0 -139 3 -139 7 0 4 66 74 148 156 l147 147 3 -141 c2 -96 -1 -146 -9 -155z"/>
    </g>


</svg>