<svg xmlns="http://www.w3.org/2000/svg" width="268.8" height="320" viewBox="0 0 185 220">
    <g id="Kawaii-Builder" fill="none" fill-rule="evenodd">
        <g id="kawaii-cat">
            <g id="kawaii-cat_tail" transform="translate(29.23 153.846)" fill-rule="nonzero">
                <path d="M45.487 29.59l3.18 5.077s-7.744 6.666-17.282 8.615C24.513 44.718.05 46.564.05 21.846s17.231-28.82 9.436-7.949c0 0-2.82 8.77.82 14.667 3.642 5.898 14.052 11.128 23.488 6.257l11.692-5.231z"
                      id="tail_inner_shadow" fill="#43a047"/>
                <path d="M45.487 29.59l3.18 5.077s-7.744 6.666-17.282 8.615C24.513 44.718.05 46.564.05 21.846s17.231-28.82 9.436-7.949c0 0-2.82 8.77.82 14.667 3.642 5.898 14.052 11.128 23.488 6.257l11.692-5.231z"
                      id="tail_inner" fill="#121212" opacity="0.25"/>
            </g>
            <g id="kawaii-cat_legs" transform="translate(81 190)" fill="#43a047" fill-rule="nonzero">
                <path d="M8.846 3.692C7.36 11.59 4.59 20.615 8.692 28.205c.667 1.23-1.897 1.487-2.513 1.59C4.744 29.949 3 29.333 2.231 28c-4.36-8.051.102-18.205 1.743-26.667C4.18.205 9.154 2 8.846 3.693zM14.128 14.359c-.256 4.872 1.026 9.692 2.667 14.205.872 2.36 6.564.872 5.743-1.436-1.487-4.154-2.717-8.513-2.615-12.923.103-3.23 1.026-6.308 2.256-9.282 1.129-2.82-4.153-2.718-5.025-.564h-.513c-1.282 3.23-2.359 6.513-2.513 10z"
                      id="kawaii-cat_legs_inner"/>
            </g>
            <g id="kawaii-cat_arms" transform="translate(58 132)" fill="#43a047" fill-rule="nonzero">
                <path d="M55.949.205s27.948 51.641 2 53.898" id="arm-r"/>
                <path d="M13.641.205s-27.949 51.641-2 53.898" id="arm-l"/>
            </g>
            <g id="kawaii-cat_arms-shadow" transform="translate(58 132)" fill="#121212" fill-rule="nonzero"
               opacity="0.25">
                <path d="M55.949.205s27.948 51.641 2 53.898" id="arm-r"/>
                <path d="M13.641.205s-27.949 51.641-2 53.898" id="arm-l"/>
            </g>
            <path d="M113.876 132.295c.91 2.705 21.818 65.749-6.184 65.397H77.846c-27.898.35-7.248-62.228-6.195-65.365-19.954-2.157-47.848-9.752-55.173-35.81-3.673-1.957-6.497-3.081-6.497-3.081l4.667-5.333S-3.096 89.64 1.109 85.436s13.333-15.744 13.333-15.744-11.23 2.103-9.128 0c1.044-1.044 6.153-3.788 12.67-8.442 3.162-9.69 8.325-17.38 14.502-23.48-4.482-10.424-.853-20.191 1.822-21.206 2.226-.83 14.75 3.197 21.214 5.384 4.043-6.006 6.53-12.307 6.53-12.307l5.333 4.667S65.846-3.436 70.05.769s15.744 13.334 15.744 13.334-2.103-11.231 0-9.129c2.051 2.052 10.667 19.795 27.436 33.077-9.487-7.436-22-14.41-37.949-21.23-10.77 4.615-19.897 9.076-27.641 13.64 8.462-5.743 14.41-20.82 14.41-20.82l5.334 4.667S65.846-3.436 70.05.769c4.2 4.2 15.712 13.308 15.744 13.334-.008-.041-2.099-11.227 0-9.129.862.863 2.885 4.5 6.187 9.412l.48-.018v-.009s.052 0 .153.004l.154-.004c.306.019.832.04 1.554.084 3.182-4.76 5.14-8.265 5.985-9.11 2.102-2.102 0 9.129 0 9.129s11.538-9.129 15.743-13.334 2.667 13.539 2.667 13.539L124.05 10s2.475 6.22 6.474 12.204c6.58-2.216 18.582-6.04 20.757-5.23 2.672 1.014 6.296 10.76 1.838 21.17 6.084 6.113 11.15 13.797 14.24 23.454 6.28 4.443 11.16 7.077 12.178 8.094 2.103 2.103-9.128 0-9.128 0s9.128 11.539 13.334 15.744c4.018 4.018-12.005 2.792-13.437 2.675l-.01.097 4.575 5.228s-2.6 1.034-6.054 2.846c-7.188 26.118-34.949 33.806-54.942 36.013z"
                  id="kawaii-cat_body" fill="#43a047" fill-rule="nonzero"/>
            <g id="kawaii-cat_ears" transform="translate(34 23)" fill="#121212" fill-rule="nonzero" opacity="0.25">
                <path d="M103.795 2.897s18.718-8.974 13.077 8.975" id="kawaii-cat_ear-r"/>
                <path d="M14.923 2.538S-3.795-6.436 1.846 11.513" id="kawaii-cat_ear-l"/>
            </g>
            <path d="M92.243 190.282h.004v-48.667h-.004c7.075-.36 11.946-2.615 11.946-2.615 16.709 54.254-11.62 51.324-11.946 51.282-.376.042-28.705 2.972-11.945-51.282 0 0 4.869 2.255 11.942 2.615z"
                  id="kawaii-cat_belly" fill="#121212" fill-rule="nonzero" opacity="0.25"/>
            <g id="kawaii-face" transform="translate(59 67)">
                <defs>
                    <path d="M1.45656876,3.14684877 C1.45656876,3.14684877 1.45656876,3.14684877 1.45656876,3.14684877 L0,3.14685315 C0,2.31818182 0.346033696,1.50734266 0.949429952,0.922027972 C1.55390756,0.335664336 2.38979521,0 3.2440659,0 L25.9525272,0 C26.8067979,0 27.6416041,0.335664336 28.2460818,0.922027972 C28.8505594,1.50734266 29.1965931,2.31818182 29.1965931,3.14685315 C29.1890236,5.85734266 28.240675,8.44825175 26.7127199,10.6814685 C25.1771954,12.9104895 23.0317865,14.8122378 20.4040931,16.0227273 C18.6544603,16.8251748 16.6809868,17.3087413 14.5982965,17.3076923 C11.4666916,17.3076923 8.61299495,16.2241259 6.33025392,14.5951049 C4.0399434,12.9587413 2.264358,10.779021 1.16245695,8.33811189 C0.431460764,6.70909091 0.0010813553,4.95314685 0,3.14685315 L1.45656896,3.14685315 Z"
                          id="kawaii-face__path-1"/>
                </defs>
                <g id="kawaii-face__mouth" transform="translate(18.000000, 16.000000)">
                    <g id="kawaii-face__mouth__joy" transform="translate(0.000000, 1.000000)">
                        <mask id="kawaii-face__mask-2-a7eqkct4n36" fill="white">
                            <!--                                                        <use href="#kawaii-face__path-1"/>-->
                        </mask>

<!--                        <use id="Combined-Shape" fill="#000000" href="#kawaii-face__path-1"/>-->
                        <path d="M9.59865983,9.95467851 C9.59865983,9.95467851 9.59865983,9.95467851 9.59865983,9.95467851 L9,9.95467851 C9,9.66740582 9.14222222,9.38631493 9.39022222,9.18340586 C9.63866667,8.98013316 10.3333333,8 15,8 C19.6666667,8 20.3608889,8.98013316 20.6093333,9.18340586 C20.8577778,9.38631493 21,9.66740582 21,9.95467851 C20.9968889,10.8943148 20.6071111,11.7924965 19.9791111,12.5666783 C19.348,13.3394055 18.4662222,13.9986781 17.3862222,14.4183144 C16.6671111,14.6964962 15.856,14.8641326 15,14.8637689 C13.7128889,14.8637689 12.54,14.4881326 11.6017778,13.9234054 C10.6604444,13.3561327 9.93066667,12.6004964 9.47777778,11.7543147 C9.17733333,11.1895875 9.00044444,10.5808603 9,9.95467851 L9.59865983,9.95467851 Z"
                              id="kawaii-face__tongue" fill="#E74144" mask="url(#kawaii-face__mask-2-a7eqkct4n36"
                              transform="translate(15.000000, 11.431885) scale(1, -1) translate(-15.000000, -11.431885)"/>
                    </g>
                </g>
                <g id="kawaii-face__blush" transform="translate(0.000000, 15.000000)" fill="#000000" opacity="0.2">
                    <circle id="Oval" cx="3" cy="3" r="3"/>
                    <circle id="Oval" cx="63" cy="3" r="3"/>
                </g>
                <g id="kawaii-face__eyes" transform="translate(2.000000, 0.000000)" fill="#000000">
                    <g id="kawaii-face__eyes__circle" transform="translate(1.000000, 2.000000)">
                        <circle id="Oval-3" cx="4.5" cy="4.5" r="4.5"/>
                        <circle id="Oval-3" cx="56.5" cy="4.5" r="4.5"/>
                    </g>
                </g>
            </g>
            <path d="M96.935 77.625c-.975-2.106-8.13-2.227-8.889 0-.47 1.458 2.746 4.454 4.372 4.373 1.663-.121 5.095-3.118 4.517-4.373z"
                  id="kawaii-cat_nose" fill="#121212" fill-rule="nonzero"/>
            <path d="M167.36 61.598c6.28 4.443 11.16 7.077 12.178 8.094 2.103 2.103-9.128 0-9.128 0s9.128 11.539 13.334 15.744c4.018 4.018-12.005 2.792-13.437 2.675l-.01.097 4.575 5.228s-2.6 1.034-6.054 2.846c-7.17 26.053-34.81 33.768-54.791 35.996-.72.08-1.433-.184-2.142-.791.847-.136 1.701-.282 2.562-.44 23.176-4.238 50.835-16.837 47.912-53.816-3.869-48.949-50.714-59.804-69.841-62.199-.02-.224-.038-.448-.056-.673 0 0 .667.011 1.878.085a1.95 1.95 0 0 1 .132-.224c3.094-4.646 5.004-8.055 5.836-8.887 2.102-2.102 0 9.129 0 9.129s11.538-9.129 15.743-13.334 2.667 13.539 2.667 13.539L124.05 10s2.508 6.302 6.554 12.323c1.037-.522 2.307-.958 2.492-1.02 10.446-3.511 16.508-4.954 18.185-4.329 2.672 1.014 6.296 10.76 1.838 21.17 6.084 6.113 11.15 13.797 14.24 23.454z"
                  id="kawaii-cat_shadow" fill="#121212" fill-rule="nonzero" opacity="0.1"/>
        </g>
    </g>
</svg>