<svg xmlns="http://www.w3.org/2000/svg" width="320px" height="313px" viewBox="0 0 3200 3130"
     preserveAspectRatio="xMidYMid meet">
    <g id="layer101" fill="#333333" stroke="none">
        <path d="M1410 2864 c-267 -43 -520 -173 -715 -369 -513 -512 -513 -1338 0 -1850 512 -513 1338 -513 1850 0 354 353 474 869 315 1345 -124 371 -449 696 -820 820 -187 63 -441 85 -630 54z m155 -274 c25 -49 50 -90 55 -90 5 0 30 41 55 90 l45 90 43 -6 c62 -10 217 -49 257 -66 34 -14 37 -20 73 -134 50 -158 49 -170 -13 -239 -27 -30 -50 -58 -50 -60 0 -9 90 -185 94 -185 3 0 39 104 81 230 42 127 81 230 86 230 5 0 24 -15 43 -32 27 -26 51 -76 112 -230 43 -109 80 -198 84 -198 3 0 18 25 33 56 26 52 29 55 41 38 41 -63 101 -247 120 -371 l6 -43 -53 0 -52 0 -47 93 -47 92 0 -92 -1 -93 -153 0 -153 0 -44 45 c-24 25 -49 45 -55 45 -6 0 -31 -20 -55 -45 l-44 -45 -156 0 -156 0 -44 45 c-24 25 -49 45 -55 45 -6 0 -31 -20 -55 -45 l-44 -45 -151 0 -151 0 -44 45 c-24 25 -49 45 -55 45 -6 0 -31 -20 -55 -45 l-44 -45 -153 0 -152 0 -3 93 -3 92 -48 -92 -48 -93 -50 0 -49 0 6 43 c19 124 79 308 120 371 12 17 15 14 41 -38 15 -31 30 -56 33 -56 4 0 41 89 84 198 61 154 85 204 112 230 19 17 38 32 43 32 5 0 44 -103 86 -230 42 -126 78 -230 81 -230 2 0 24 41 49 91 l46 91 -50 53 c-45 48 -51 59 -51 97 1 24 18 95 38 158 l38 115 63 23 c55 19 222 59 258 61 7 1 33 -39 58 -89z"/>
        <path d="M1567 2222 c-20 -21 -37 -42 -37 -48 0 -16 74 -84 91 -84 16 0 89 70 89 86 0 16 -74 84 -91 84 -8 0 -32 -17 -52 -38z"/>
    </g>
</svg>