<svg xmlns="http://www.w3.org/2000/svg" width="279px" height="333px" viewBox="0 0 2790 3330"
     preserveAspectRatio="xMidYMid meet">
    <g id="layer101" fill="#ee6622" stroke="none">
        <path d="M1364 2990 c-12 -4 -31 -21 -43 -36 l-21 -27 0 -1358 0 -1358 22 -7 c18 -5 43 15 155 128 154 155 157 163 93 232 -59 64 -83 126 -83 213 0 275 327 415 525 225 66 -63 79 -57 239 105 114 115 139 145 139 168 0 24 -25 54 -143 172 -152 153 -174 165 -213 122 -63 -70 -181 -116 -271 -105 -156 18 -276 148 -277 299 -1 213 198 371 396 313 31 -9 59 -16 63 -16 4 0 50 41 101 92 124 121 124 122 5 241 l-90 90 -48 -8 c-26 -5 -84 -9 -128 -9 -64 0 -89 4 -122 22 -93 48 -142 110 -168 208 -14 50 -14 70 -4 135 15 93 4 130 -46 153 -37 18 -50 19 -81 6z"/>
        <path d="M662 2050 c-111 -56 -166 -144 -166 -270 -1 -41 5 -92 12 -113 23 -65 85 -132 153 -166 53 -27 73 -31 139 -31 66 0 86 4 138 30 113 57 167 145 167 275 0 94 -24 154 -88 218 -60 60 -127 87 -218 87 -65 0 -85 -4 -137 -30z"/>
    </g>
</svg>