<svg xmlns="http://www.w3.org/2000/svg" width="329px" height="335px" viewBox="0 0 3290 3350"
     preserveAspectRatio="xMidYMid meet">
    <g id="layer101" fill="#222222" stroke="none">
        <path d="M868 2973 c-145 -151 -228 -793 -162 -1253 31 -219 111 -493 203 -696 156 -345 337 -562 557 -666 66 -32 74 -33 194 -33 124 0 126 0 203 37 43 21 104 58 136 82 287 221 538 742 615 1276 55 382 6 921 -105 1156 -78 165 -153 165 -230 1 l-31 -68 -27 18 c-190 126 -344 173 -565 173 -208 0 -384 -53 -544 -162 -24 -17 -45 -28 -46 -26 -1 1 -10 25 -20 51 -10 27 -32 67 -50 90 -42 55 -88 62 -128 20z"/>
    </g>
    <g id="layer102" fill="#edaa00" stroke="none">
        <path d="M1536 1291 c-122 -122 -121 -124 7 -187 50 -24 102 -44 117 -44 15 0 67 20 117 44 128 63 129 65 7 187 -73 73 -105 99 -124 99 -19 0 -51 -26 -124 -99z"/>
    </g>
    <g id="layer103" fill="#ffffff" stroke="none">
        <path d="M1472 2740 c-225 -59 -427 -245 -506 -467 -38 -108 -52 -225 -38 -326 29 -200 141 -313 377 -379 74 -20 102 -22 355 -22 253 0 281 2 355 22 236 66 348 179 377 379 48 345 -200 704 -548 793 -103 27 -270 26 -372 0z"/>
        <path d="M1192 1034 c-23 -16 -29 -53 -12 -84 14 -26 57 -34 86 -15 47 31 21 115 -36 115 -9 0 -26 -7 -38 -16z"/>
        <path d="M2052 1034 c-53 -37 -11 -124 52 -108 68 17 56 124 -14 124 -9 0 -26 -7 -38 -16z"/>
    </g>
</svg>