<svg xmlns="http://www.w3.org/2000/svg" width="320px" height="313px" viewBox="0 0 3200 3130"
     preserveAspectRatio="xMidYMid meet">
    <g id="layer101" fill="#1199ff" stroke="none">
        <path d="M790 2774 c-106 -29 -194 -105 -242 -210 -22 -48 -23 -58 -26 -424 l-3 -375 93 -189 93 -190 3 -205 c3 -193 5 -207 24 -228 17 -19 32 -23 77 -23 102 0 197 63 240 160 20 43 21 64 21 546 0 567 1 575 69 637 62 56 95 59 531 55 352 -3 388 -5 419 -21 40 -22 79 -62 95 -97 8 -18 12 -244 16 -770 l5 -744 110 -23 c144 -29 208 -29 259 0 111 63 112 237 2 302 -26 15 -90 35 -166 50 -68 14 -125 27 -128 29 -2 3 41 27 96 55 163 82 182 125 142 324 l-22 114 21 41 c29 56 26 110 -11 272 -24 108 -32 167 -37 300 -4 107 -11 173 -19 188 -21 37 -72 62 -124 62 -38 0 -54 -6 -82 -31 l-35 -30 -16 24 c-23 35 -487 366 -549 391 -48 20 -70 21 -426 23 -307 2 -385 0 -430 -13z"/>
    </g>
    <g id="layer102" fill="#ff6699" stroke="none">
        <path d="M1510 2223 c-50 -19 -72 -80 -46 -131 8 -16 23 -32 31 -36 9 -3 75 -6 146 -6 125 0 131 1 154 25 27 26 33 72 15 106 -21 38 -63 49 -177 48 -59 0 -115 -3 -123 -6z"/>
        <path d="M1220 1937 c-51 -26 -50 -6 -47 -839 l2 -777 23 -23 23 -23 410 -3 410 -3 29 30 30 29 0 777 c0 513 -3 783 -10 796 -26 47 -44 49 -457 49 -291 0 -394 -3 -413 -13z"/>
    </g>
</svg>