<!DOCTYPE svg PUBLIC "-//W3C//DTD SVG 20010904//EN" "http://www.w3.org/TR/2001/REC-SVG-20010904/DTD/svg10.dtd">
<svg version="1.0" xmlns="http://www.w3.org/2000/svg" width="306px" height="302px" viewBox="0 0 3060 3020" preserveAspectRatio="xMidYMid meet">
<g id="layer101" fill="#333333" stroke="none">
 <path d="M830 2384 c-46 -20 -87 -59 -113 -109 -29 -56 -29 -155 0 -210 27 -50 675 -697 722 -720 41 -21 131 -23 186 -5 56 18 693 650 730 724 58 116 9 259 -108 315 -43 21 -54 21 -713 21 -575 -1 -674 -3 -704 -16z m819 -83 c60 -31 113 -82 145 -141 31 -56 29 -80 -6 -80 -35 -1 -155 -46 -199 -74 -49 -33 -58 -32 -116 3 -51 31 -114 55 -176 66 -20 4 -40 11 -42 16 -10 16 44 106 91 152 86 86 204 108 303 58z m-4 -556 c90 -52 123 -141 69 -184 -24 -19 -40 -21 -181 -21 -150 0 -155 1 -178 25 -40 39 -33 77 21 136 77 81 178 98 269 44z"/>
 <path d="M824 1610 c-107 -25 -172 -135 -144 -241 16 -58 82 -125 133 -134 48 -9 56 -1 34 36 -62 109 48 231 157 174 46 -24 60 -20 52 16 -20 100 -134 173 -232 149z"/>
 <path d="M2164 1610 c-90 -21 -149 -97 -148 -190 1 -65 20 -105 68 -148 34 -29 100 -52 113 -38 4 3 -1 22 -10 41 -44 93 8 185 106 185 18 0 42 -7 53 -15 10 -8 27 -15 38 -15 16 0 17 5 12 32 -20 100 -133 172 -232 148z"/>
 <path d="M287 1313 c-4 -3 -7 -126 -7 -272 0 -293 4 -313 66 -375 61 -61 86 -66 336 -66 215 0 229 1 248 20 12 12 20 33 20 52 0 29 -32 64 -307 340 -294 294 -332 326 -356 301z"/>
 <path d="M2428 1012 c-330 -330 -331 -331 -287 -386 l20 -26 230 0 c213 0 232 2 274 21 53 25 101 79 116 129 6 21 9 140 7 300 l-3 265 -25 3 c-21 2 -75 -47 -332 -306z"/>
 </g>

</svg>