<!DOCTYPE svg PUBLIC "-//W3C//DTD SVG 20010904//EN" "http://www.w3.org/TR/2001/REC-SVG-20010904/DTD/svg10.dtd">
<svg version="1.0" xmlns="http://www.w3.org/2000/svg" width="344px" height="329px" viewBox="0 0 3440 3290" preserveAspectRatio="xMidYMid meet">
<g id="layer101" fill="#ee2211" stroke="none">
 <path d="M2175 2830 c-17 -5 -45 -23 -62 -40 -67 -66 -69 -167 -4 -231 21 -21 51 -41 67 -45 53 -13 54 -15 54 -185 l0 -159 25 0 c70 0 159 65 203 147 73 138 56 313 -42 430 -53 63 -172 104 -241 83z"/>
 <path d="M1340 2458 c-101 -69 -103 -59 45 -208 71 -71 133 -130 137 -130 5 0 8 31 8 69 0 59 -7 85 -49 187 -27 67 -55 120 -63 122 -8 2 -43 -16 -78 -40z"/>
 <path d="M1106 2142 c-9 -32 -16 -79 -16 -105 l0 -47 220 0 220 0 0 23 c0 19 -23 31 -188 99 -103 43 -194 80 -203 83 -13 5 -20 -7 -33 -53z"/>
 <path d="M2230 2024 c0 -38 -4 -74 -8 -81 -4 -7 -48 -12 -117 -15 -126 -4 -160 -19 -195 -88 -38 -74 -15 -164 52 -212 29 -20 47 -23 143 -26 69 -3 113 -8 117 -15 4 -7 8 -85 8 -174 0 -90 3 -163 7 -163 3 0 39 32 79 70 76 74 103 84 158 58 38 -17 55 -50 69 -135 10 -62 16 -77 34 -86 17 -7 29 -6 49 7 22 15 25 22 19 49 -4 18 -9 56 -12 86 -6 68 -23 95 -74 115 -21 9 -39 18 -39 21 0 3 12 10 27 16 l27 10 -97 97 c-53 54 -97 101 -97 105 0 4 11 24 24 45 38 58 51 123 37 187 -21 91 -99 175 -179 191 l-32 7 0 -69z"/>
 <path d="M1090 1861 c-5 -11 -10 -42 -10 -70 0 -81 1 -81 229 -81 140 0 200 3 209 12 7 7 12 38 12 69 0 90 2 89 -230 89 -187 0 -200 -1 -210 -19z"/>
 <path d="M1087 1593 c-26 -25 0 -42 191 -121 108 -45 200 -82 204 -82 9 0 34 86 43 149 5 32 3 46 -6 52 -16 10 -422 12 -432 2z"/>
 <path d="M655 1568 c-89 -31 -151 -127 -143 -222 5 -56 37 -131 57 -131 17 0 311 284 311 301 0 8 -24 26 -52 39 -57 26 -121 31 -173 13z"/>
 <path d="M1024 1496 c-5 -13 139 -381 157 -400 18 -20 168 73 169 104 0 18 -290 310 -308 310 -7 0 -15 -6 -18 -14z"/>
 <path d="M841 1290 c-56 -134 -81 -204 -74 -211 14 -14 168 -43 187 -36 15 6 16 32 14 224 -3 211 -4 218 -23 221 -18 2 -32 -24 -104 -198z"/>
 <path d="M2670 1475 c0 -2 11 -21 25 -41 29 -43 31 -64 8 -111 -13 -29 -14 -41 -5 -67 19 -52 14 -83 -19 -120 -39 -45 -83 -54 -134 -30 l-37 17 -31 -31 c-29 -30 -30 -34 -19 -65 21 -59 15 -96 -22 -133 -27 -27 -42 -34 -75 -34 -22 0 -51 5 -64 11 -20 9 -30 8 -51 -6 -37 -25 -36 -92 3 -160 50 -88 174 -187 215 -172 23 9 74 105 88 165 10 48 16 56 52 74 68 34 126 88 172 159 42 64 47 69 102 84 69 20 162 74 162 94 0 46 -115 173 -192 212 -21 11 -45 34 -54 52 -31 61 -74 107 -100 107 -13 0 -24 -2 -24 -5z"/>
 <path d="M2378 1199 c-33 -19 -20 -89 16 -89 24 0 66 34 66 53 -1 33 -50 56 -82 36z"/>
 <path d="M1425 1066 c-64 -30 -107 -76 -142 -151 -25 -53 -28 -71 -28 -160 1 -110 17 -162 74 -234 92 -116 267 -128 338 -21 27 39 31 116 8 159 -19 38 -71 81 -107 88 -15 3 -31 10 -35 16 -3 5 -5 73 -4 151 1 78 -1 149 -4 159 -10 23 -40 21 -100 -7z"/>
 <path d="M2226 994 c-3 -27 -3 -51 1 -55 5 -4 43 -9 87 -11 90 -4 108 8 90 59 -8 24 -16 29 -59 34 -28 4 -64 9 -81 13 -31 7 -31 6 -38 -40z"/>
 </g>

</svg>