<svg xmlns="http://www.w3.org/2000/svg" width="320px" height="286px" viewBox="0 0 3200 2860"
     preserveAspectRatio="xMidYMid meet">
    <g id="layer101" fill="#1199ff" stroke="none">
        <path d="M629 2589 c-20 -20 -20 -28 -17 -392 l3 -372 32 -67 c63 -134 179 -220 319 -239 38 -4 292 -9 564 -9 466 0 497 -1 526 -19 34 -21 64 -75 64 -116 0 -42 -29 -93 -65 -115 -31 -19 -49 -20 -531 -20 -275 0 -528 -5 -563 -10 -137 -19 -252 -107 -314 -238 -29 -61 -32 -75 -32 -168 0 -96 2 -103 38 -176 43 -88 107 -152 195 -195 l57 -28 495 -5 495 -5 24 -43 c13 -24 42 -57 64 -73 124 -90 290 -48 363 92 14 28 18 29 84 29 91 0 100 12 100 131 0 71 -4 91 -19 110 l-19 24 -764 5 c-852 6 -797 1 -833 76 -29 62 -8 129 59 178 27 21 41 21 654 26 l627 5 66 32 c82 41 150 111 192 201 l32 67 3 643 3 642 -25 25 c-23 23 -32 25 -116 25 -128 0 -130 -3 -130 -165 0 -137 -9 -173 -54 -214 -37 -34 -118 -40 -164 -11 -51 31 -62 71 -62 215 0 120 -1 127 -25 150 -22 23 -32 25 -115 25 -128 0 -130 -3 -130 -165 0 -137 -9 -173 -54 -214 -36 -34 -118 -40 -162 -13 -52 33 -64 73 -64 220 0 129 0 131 -26 151 -23 18 -41 21 -115 21 -127 0 -129 -2 -129 -170 0 -140 -6 -165 -54 -209 -36 -34 -118 -40 -162 -13 -52 33 -64 73 -64 220 0 129 0 131 -26 151 -23 18 -41 21 -115 21 -76 0 -92 -3 -110 -21z m1550 -2065 c27 -35 26 -59 -4 -89 -45 -46 -115 -19 -115 45 0 65 79 94 119 44z"/>
    </g>
</svg>