<svg xmlns="http://www.w3.org/2000/svg" width="344px" height="323px" viewBox="0 0 3440 3230"
     preserveAspectRatio="xMidYMid meet">
    <g id="layer101" fill="#333333" stroke="none">
        <path d="M1290 2623 l0 -50 55 -12 c30 -7 78 -28 106 -48 l51 -35 42 29 c55 38 85 51 144 59 62 8 140 -14 204 -56 l47 -31 51 35 c27 19 75 40 105 47 l55 12 0 50 0 50 -52 -6 c-29 -3 -78 -16 -108 -29 l-55 -25 -55 26 c-49 23 -68 26 -165 26 -100 0 -114 -2 -162 -27 l-52 -28 -54 26 c-31 13 -78 27 -106 31 l-51 6 0 -50z"/>
        <path d="M850 2386 l0 -53 45 -6 c49 -7 114 -36 134 -61 18 -22 43 -20 74 4 99 78 254 80 353 5 40 -30 48 -31 84 -5 113 80 247 80 360 0 36 -26 44 -25 84 5 94 72 235 74 337 5 50 -34 71 -37 90 -14 20 25 85 54 134 61 l46 6 -3 51 -3 51 -44 -3 c-25 -2 -72 -14 -105 -27 l-61 -25 -65 27 c-93 39 -217 39 -310 0 l-65 -27 -65 27 c-54 23 -80 27 -155 27 -78 0 -98 -3 -152 -28 l-61 -28 -69 28 c-57 24 -82 28 -158 28 -77 0 -99 -4 -153 -29 l-63 -28 -47 21 c-43 20 -119 41 -149 42 -9 0 -13 -17 -13 -54z"/>
        <path d="M410 2152 l0 -49 55 -12 c30 -7 79 -28 107 -48 41 -27 56 -32 68 -24 98 70 177 91 264 72 30 -7 64 -20 76 -29 18 -15 19 -20 7 -52 -21 -59 -22 -60 -113 -60 l-84 0 0 -225 0 -225 230 0 229 0 3 83 3 82 208 3 208 2 -3 -77 -3 -78 -147 -5 c-143 -5 -147 -6 -190 -35 -59 -41 -100 -122 -96 -190 l3 -50 155 -3 c85 -1 159 -7 165 -13 6 -6 -38 -55 -131 -147 -155 -151 -185 -197 -192 -293 -7 -100 51 -192 143 -230 17 -6 89 -15 160 -18 l130 -6 3 -97 3 -98 49 0 49 0 3 98 3 97 135 6 c144 6 190 20 237 71 34 36 63 109 63 160 l0 48 -162 2 c-150 3 -163 5 -166 22 -3 13 37 58 137 155 110 106 146 148 166 191 41 91 30 178 -34 251 -56 67 -94 79 -248 79 l-133 0 0 80 0 80 481 0 480 0 -3 53 -3 52 -100 5 c-64 4 -111 11 -130 22 -56 30 -96 89 -109 161 -6 31 -3 41 19 63 33 33 103 64 163 71 62 7 144 -16 200 -57 23 -16 44 -30 46 -30 2 0 27 15 55 34 28 19 76 40 106 47 l55 12 0 50 0 50 -55 -6 c-30 -3 -80 -17 -110 -31 l-55 -25 -57 27 c-52 24 -70 27 -163 27 -93 0 -111 -3 -163 -27 -52 -24 -61 -26 -80 -14 -87 55 -258 61 -355 14 l-54 -26 -56 26 c-50 24 -69 27 -162 27 -93 0 -111 -3 -162 -27 l-58 -27 -57 27 c-52 24 -70 27 -163 27 -93 0 -111 -3 -162 -27 l-58 -27 -57 27 c-52 24 -70 27 -163 27 -94 0 -111 -3 -164 -28 -41 -19 -62 -24 -71 -17 -21 17 -126 50 -162 50 -33 0 -33 0 -33 -48z m976 -74 c16 -7 48 -25 72 -41 l43 -28 46 31 c50 32 129 60 173 60 44 0 123 -28 173 -60 l46 -31 43 28 c24 16 56 34 71 41 42 18 128 25 159 13 36 -14 69 -68 66 -106 l-3 -30 -592 -3 c-659 -2 -616 -7 -573 63 37 60 101 87 191 80 32 -2 70 -10 85 -17z m934 -250 c46 -50 71 -48 -700 -48 l-720 0 0 28 c0 16 3 32 7 35 3 4 318 7 699 7 l693 0 21 -22z m-1185 -193 l0 -30 -117 -3 -118 -3 0 29 c0 16 3 32 7 36 4 3 57 5 117 4 l111 -3 0 -30z m391 -250 c13 -8 24 -22 24 -30 0 -12 -18 -15 -95 -15 -52 0 -95 4 -95 8 0 11 40 48 60 55 23 9 79 0 106 -18z m534 -10 c38 -36 50 -78 36 -130 -10 -41 -30 -63 -209 -234 -56 -53 -86 -91 -108 -137 l-30 -64 -85 0 -84 0 0 -39 c0 -95 -98 -159 -180 -116 -41 21 -60 53 -60 103 0 81 25 115 191 264 110 99 149 167 148 259 0 35 -4 73 -8 84 -18 44 -9 46 180 43 l178 -3 31 -30z m17 -681 c2 -7 -11 -21 -30 -33 -31 -19 -49 -21 -204 -21 -93 0 -172 3 -176 6 -3 3 -1 19 5 35 l10 29 196 -2 c135 -2 197 -7 199 -14z"/>
    </g>
</svg>