<svg xmlns="http://www.w3.org/2000/svg" width="344px" height="329px" viewBox="0 0 3440 3290"
     preserveAspectRatio="xMidYMid meet">
    <g id="layer101" fill="#333333" stroke="none">
        <path d="M380 2572 c0 -235 156 -431 374 -471 40 -7 337 -11 884 -11 l824 0 -4 148 c-3 124 -7 154 -25 193 -30 66 -86 124 -151 156 -74 37 -191 39 -263 7 -110 -51 -173 -147 -185 -285 -6 -73 -8 -79 -29 -79 -21 0 -23 5 -27 83 -3 58 -11 94 -27 125 -94 183 -321 237 -478 114 -72 -57 -105 -125 -112 -231 l-6 -86 -195 0 c-190 0 -197 1 -250 26 -113 54 -177 151 -187 284 l-6 75 -68 0 -69 0 0 -48z m1155 -111 c76 -34 111 -97 103 -186 l-3 -40 -167 -3 -168 -2 0 54 c0 66 12 101 48 140 53 56 117 69 187 37z m681 0 c70 -32 109 -103 102 -186 l-3 -40 -167 -3 -168 -2 0 61 c0 81 31 138 92 168 53 26 90 26 144 2z"/>
        <path d="M383 1733 c8 -270 28 -359 121 -540 134 -260 380 -452 673 -525 126 -32 360 -32 486 0 191 48 362 145 499 283 l78 79 353 0 c414 0 433 3 509 79 108 108 99 288 -25 479 -146 225 -381 352 -649 352 l-108 0 0 -146 0 -146 -72 67 c-91 84 -140 118 -231 160 -139 64 -149 65 -933 65 l-707 0 6 -207z m772 30 c37 -230 150 -428 316 -555 83 -63 213 -129 304 -154 33 -8 102 -18 153 -21 50 -3 92 -10 92 -14 0 -13 -96 -86 -163 -123 -69 -38 -139 -66 -237 -93 -97 -26 -318 -23 -425 6 -321 87 -569 337 -645 653 -21 85 -38 293 -27 322 6 14 41 16 316 16 l310 0 6 -37z m754 5 c122 -44 232 -130 344 -269 l37 -47 -30 -83 c-16 -46 -45 -109 -63 -139 l-33 -55 -125 -3 c-141 -3 -236 13 -336 58 -178 81 -315 233 -377 422 -14 42 -26 93 -26 113 l0 36 268 -3 c261 -3 269 -4 341 -30z m726 -2 c155 -56 287 -172 357 -312 67 -137 57 -235 -30 -271 -57 -24 -173 -13 -242 22 -59 30 -168 134 -236 225 -41 54 -41 56 -34 110 5 30 9 102 9 159 l1 104 55 -7 c30 -3 84 -17 120 -30z m-176 -526 l62 -70 -95 0 -94 0 31 70 c17 39 31 70 32 70 0 0 29 -31 64 -70z"/>
    </g>
</svg>