<svg xmlns="http://www.w3.org/2000/svg" width="338px" height="279px" viewBox="0 0 3380 2790" preserveAspectRatio="xMidYMid meet">
    <g id="layer101" fill="#333333" stroke="none">
        <path d="M1464 2347 c-71 -19 -138 -60 -164 -102 -30 -49 -24 -68 27 -77 56 -9 71 -18 150 -89 85 -75 129 -99 188 -99 48 0 108 25 137 57 23 25 48 86 48 117 l0 25 48 -16 c79 -27 122 -71 142 -145 18 -63 65 -49 177 53 76 69 129 99 173 99 37 0 40 26 9 76 -63 103 -276 143 -417 79 -70 -32 -90 -50 -112 -99 l-18 -38 -17 36 c-47 99 -228 159 -371 123z"/>
        <path d="M545 2054 c-265 -52 -459 -298 -417 -526 35 -186 185 -340 382 -393 93 -25 215 -29 300 -10 122 28 109 37 141 -105 75 -340 202 -570 359 -652 34 -17 61 -23 110 -23 71 1 123 22 184 75 43 38 69 38 112 0 61 -53 113 -74 184 -75 49 0 76 6 110 23 158 82 289 324 364 672 26 121 16 115 146 85 287 -65 601 113 667 379 14 57 15 80 6 133 -36 209 -208 371 -443 419 -246 49 -454 -38 -1035 -435 l-180 -123 -64 7 c-71 7 -148 23 -233 50 l-58 19 0 141 c0 155 -3 165 -57 165 -34 0 -37 -3 -47 -51 -17 -78 -103 -142 -190 -142 -58 0 -98 18 -138 60 -35 37 -48 73 -48 138 0 44 6 62 35 106 20 29 34 58 31 66 -7 17 -126 16 -221 -3z"/>
        <path d="M1485 1871 c-50 -22 -91 -69 -105 -119 -18 -67 -16 -72 40 -72 48 0 50 1 50 28 0 50 65 99 116 86 32 -8 74 -59 74 -90 0 -22 4 -24 45 -24 44 0 45 1 45 31 0 42 -24 89 -63 126 -57 54 -131 67 -202 34z"/>
    </g>
</svg>