<svg xmlns="http://www.w3.org/2000/svg" width="360px" height="307px" viewBox="0 0 3600 3070"
     preserveAspectRatio="xMidYMid meet">
    <g id="layer101" fill="#333333" stroke="none">
        <path d="M570 2283 l0 -438 520 -520 c512 -512 521 -521 501 -539 -19 -18 -21 -17 -50 3 -142 101 -354 45 -421 -111 -27 -64 -30 -164 -6 -222 45 -108 142 -171 261 -171 119 1 136 13 425 300 l256 255 190 -193 191 -192 -4 -71 c-6 -77 12 -128 59 -170 59 -54 159 -71 236 -39 53 23 365 337 391 395 49 107 2 233 -104 281 -43 20 -110 24 -148 10 -22 -9 -40 7 -218 185 l-194 194 139 139 140 140 27 -20 c76 -54 199 -65 284 -25 212 98 216 401 7 503 -46 22 -69 27 -127 27 -43 -1 -85 -8 -110 -19 -24 -10 -95 -72 -183 -158 l-142 -142 -518 518 -517 517 -443 0 -442 0 0 -437z"/>
    </g>
    <g id="layer102" fill="#115488" stroke="none">
        <path d="M1460 1935 l645 -645 145 145 145 145 -500 500 -500 500 -290 0 -290 0 645 -645z"/>
        <path d="M2870 1853 c-47 -24 -80 -76 -80 -125 0 -50 18 -84 70 -130 58 -54 85 -51 148 16 60 64 71 102 47 164 -31 77 -115 111 -185 75z"/>
        <path d="M2300 944 l0 -150 45 -44 45 -44 0 150 0 150 -45 44 -45 44 0 -150z"/>
        <path d="M2733 567 c-149 -148 -163 -165 -163 -197 0 -28 9 -44 44 -78 37 -36 50 -43 77 -40 47 4 77 48 62 88 -11 29 -9 32 118 164 81 85 129 143 129 156 0 30 -44 70 -76 70 -22 0 -60 -33 -191 -163z"/>
        <path d="M1303 680 c-52 -31 -78 -97 -62 -155 11 -40 82 -119 116 -129 27 -8 47 1 95 46 46 43 58 67 58 120 0 109 -115 175 -207 118z"/>
    </g>
    <g id="layer103" fill="#286ca0" stroke="none">
        <path d="M710 2200 l0 -295 503 -503 502 -502 148 148 147 147 -650 650 -650 650 0 -295z"/>
        <path d="M1078 2323 c45 -49 294 -301 554 -561 l473 -472 145 145 145 146 -417 415 -417 414 -282 0 -281 0 80 -87z"/>
        <path d="M2810 1798 c-23 -39 -26 -98 -6 -136 8 -15 33 -44 56 -64 58 -54 85 -51 148 16 63 66 73 104 43 170 l-20 46 -101 0 -100 0 -20 -32z"/>
        <path d="M2300 912 l0 -118 45 -44 45 -44 0 150 c0 165 -3 174 -57 174 l-33 0 0 -118z"/>
        <path d="M2490 747 c0 -140 1 -144 25 -167 l25 -23 25 23 c23 22 25 30 25 124 l0 100 -42 43 c-23 24 -46 43 -50 43 -4 0 -8 -64 -8 -143z"/>
        <path d="M1272 647 c-54 -57 -46 -132 21 -201 66 -69 89 -69 159 -4 47 43 58 67 58 122 0 33 -6 52 -26 75 -25 30 -28 31 -108 31 -74 0 -85 -3 -104 -23z"/>
        <path d="M2702 537 c-119 -119 -132 -135 -132 -167 0 -28 9 -44 44 -78 37 -36 50 -43 77 -40 21 2 39 12 53 31 17 23 19 32 9 57 -11 30 -9 32 113 159 79 82 124 136 124 150 0 20 -5 21 -77 20 l-78 -1 -133 -131z"/>
    </g>
    <g id="layer104" fill="#4f94ca" stroke="none">
        <path d="M710 2192 l0 -287 503 -503 502 -502 148 148 147 147 -643 643 c-353 353 -645 642 -650 642 -4 0 -7 -129 -7 -288z"/>
        <path d="M1488 1913 c88 -93 262 -269 386 -393 l226 -225 146 145 146 145 -254 247 -253 248 -279 0 -278 0 160 -167z"/>
        <path d="M2794 1745 c-14 -35 7 -84 56 -134 68 -69 90 -69 159 3 46 50 51 59 51 100 l0 46 -130 0 c-107 0 -132 -3 -136 -15z"/>
        <path d="M2170 975 l-24 -26 27 -27 27 -27 0 53 c0 28 -1 52 -3 52 -2 0 -14 -11 -27 -25z"/>
        <path d="M2300 852 c0 -55 2 -60 45 -102 l45 -44 0 102 0 102 -45 0 -45 0 0 -58z"/>
        <path d="M2496 744 l-7 -138 26 -25 25 -25 22 22 c21 21 23 30 20 125 l-4 102 -37 38 -38 39 -7 -138z"/>
        <path d="M1240 566 c0 -49 12 -75 54 -118 71 -73 99 -71 170 9 34 38 40 51 40 91 l1 47 -132 3 -133 3 0 -35z"/>
        <path d="M2653 478 c-102 -100 -106 -120 -39 -186 37 -36 50 -43 77 -40 21 2 39 12 53 31 18 24 19 31 8 60 -12 32 -12 32 80 124 l93 93 -95 0 -95 0 -82 -82z"/>
    </g>
    <g id="layer105" fill="#6fb6ed" stroke="none">
        <path d="M2875 1680 c-10 -11 -26 -20 -37 -20 -27 0 -22 -12 25 -58 25 -24 52 -42 65 -42 14 0 41 19 70 48 44 44 46 47 24 50 -13 2 -32 12 -43 23 -25 25 -80 25 -104 -1z"/>
        <path d="M1975 1430 l130 -130 127 127 c71 70 128 129 128 130 0 2 -116 3 -257 3 l-258 0 130 -130z"/>
        <path d="M2496 704 c-14 -36 -6 -89 19 -119 l25 -30 23 27 c18 22 21 37 19 82 l-4 56 -38 0 c-25 0 -40 -5 -44 -16z"/>
        <path d="M1327 520 c-14 -11 -35 -20 -46 -20 -30 0 -26 -9 20 -57 57 -60 90 -59 149 5 43 46 44 47 20 50 -13 2 -35 13 -49 23 -31 24 -62 24 -94 -1z"/>
        <path d="M2570 366 c0 -32 81 -116 112 -116 13 0 34 7 46 16 20 14 22 23 20 70 l-3 54 -87 0 c-86 0 -88 -1 -88 -24z"/>
    </g>
    <g id="layer106" fill="#ffffff" stroke="none">
        <path d="M710 2192 l0 -287 503 -503 502 -502 143 143 c78 78 142 147 142 152 0 11 -1271 1285 -1282 1285 -5 0 -8 -129 -8 -288z"/>
        <path d="M2882 1680 c-13 -12 -22 -33 -22 -49 0 -33 37 -71 69 -71 28 0 71 42 71 70 0 28 -43 70 -73 70 -13 0 -33 -9 -45 -20z"/>
        <path d="M2170 971 l-25 -21 25 -21 25 -21 3 21 c2 11 2 31 0 42 l-3 21 -25 -21z"/>
        <path d="M2300 849 c0 -52 2 -57 45 -99 l45 -44 0 55 c0 52 -2 57 -45 99 l-45 44 0 -55z"/>
        <path d="M2490 658 c0 -56 39 -110 63 -89 33 27 31 51 -9 92 -21 21 -42 39 -46 39 -4 0 -8 -19 -8 -42z"/>
        <path d="M1327 512 c-21 -23 -22 -76 -1 -96 21 -22 77 -20 97 2 22 25 21 75 -1 95 -25 22 -75 21 -95 -1z"/>
        <path d="M2647 378 c-45 -35 -36 -104 16 -123 44 -15 81 11 85 57 5 61 -55 100 -101 66z"/>
    </g>


</svg>