<!DOCTYPE svg PUBLIC "-//W3C//DTD SVG 20010904//EN" "http://www.w3.org/TR/2001/REC-SVG-20010904/DTD/svg10.dtd">
<svg version="1.0" xmlns="http://www.w3.org/2000/svg" width="320px" height="307px" viewBox="0 0 3200 3070" preserveAspectRatio="xMidYMid meet">
<g id="layer101" fill="#333333" stroke="none">
<path d="M1025 2751 c-569 -191 -590 -199 -587 -222 1 -13 101 -544 222 -1179 121 -635 220 -1159 220 -1163 0 -43 37 72 151 473 l134 470 455 0 455 0 134 -470 c74 -259 137 -473 141 -475 4 -3 22 73 40 168 18 94 120 626 226 1182 105 556 189 1013 186 1016 -5 5 -1127 381 -1177 395 -5 1 -275 -87 -600 -195z"/>
</g>
<g id="layer102" fill="#ee2211" stroke="none">
<path d="M1074 2654 l-521 -175 17 -87 c202 -1071 337 -1762 343 -1762 4 0 7 7 7 15 0 9 37 144 81 300 l82 285 315 0 c295 0 314 1 307 18 -39 90 -45 227 -16 392 18 104 18 105 -3 150 -17 37 -21 65 -21 160 0 108 2 119 30 175 36 71 113 151 176 185 37 19 52 35 74 79 37 76 106 180 151 230 20 23 35 43 33 45 -11 10 -497 166 -514 165 -11 0 -254 -79 -541 -175z m159 -347 c15 -208 94 -285 308 -303 l79 -7 0 -52 0 -52 -87 -6 c-143 -9 -212 -43 -256 -126 -28 -51 -47 -138 -47 -213 l0 -48 -54 0 -53 0 -6 83 c-11 153 -66 247 -165 282 -26 9 -86 19 -134 22 l-88 6 0 52 0 52 79 7 c215 18 292 96 308 309 l6 77 52 0 52 0 6 -83z"/>
<path d="M2457 2423 c-3 -71 -12 -161 -21 -201 -16 -72 -16 -74 7 -115 19 -37 22 -57 22 -157 0 -104 -3 -121 -27 -173 -33 -69 -112 -156 -174 -188 -38 -20 -52 -38 -95 -115 -28 -50 -75 -123 -105 -162 -30 -40 -54 -74 -54 -77 0 -3 33 -5 74 -5 l73 0 83 -292 c96 -342 92 -331 98 -298 6 37 341 1802 346 1822 3 14 -17 24 -103 53 -58 19 -109 35 -112 35 -3 0 -9 -57 -12 -127z"/>
</g>
<g id="layer103" fill="#fcfcfc" stroke="none">
<path d="M2233 2599 c-54 -34 -145 -165 -208 -297 -25 -52 -34 -63 -71 -77 -61 -23 -129 -87 -159 -150 -37 -76 -37 -170 0 -253 l27 -60 -21 -122 c-55 -320 4 -448 141 -304 38 41 128 176 128 192 0 16 -102 20 -126 5 -34 -21 -49 7 -47 84 0 36 3 67 6 69 2 2 24 -5 48 -16 31 -13 66 -20 116 -20 259 -1 392 305 217 500 -40 44 -122 90 -161 90 -13 0 -23 4 -23 8 0 12 53 83 78 106 23 20 52 16 52 -8 0 -20 90 -80 102 -68 6 6 12 63 15 129 7 145 -3 186 -49 202 -37 13 -27 15 -65 -10z"/>
<path d="M1146 2040 c-14 -22 -44 -52 -67 -67 -36 -23 -38 -28 -22 -36 29 -15 63 -49 94 -91 16 -21 29 -35 29 -29 0 15 71 94 102 113 l28 17 -40 27 c-22 14 -52 44 -66 66 -15 22 -28 40 -29 40 -1 0 -14 -18 -29 -40z"/>
</g>


</svg>