<svg xmlns="http://www.w3.org/2000/svg" width="320px" height="313px" viewBox="0 0 3200 3130"
     preserveAspectRatio="xMidYMid meet">
    <g id="layer101" fill="#333333" stroke="none">
        <path d="M1167 2684 c-5 -44 -12 -54 -143 -185 l-139 -139 33 -32 32 -33 130 130 c86 86 138 146 153 177 l22 47 60 1 60 0 -133 -133 -132 -132 85 -85 85 -85 0 -247 0 -248 45 0 45 0 0 140 c0 119 2 140 15 140 41 0 97 -39 193 -133 l104 -102 -6 -47 c-12 -109 -96 -222 -204 -275 -50 -25 -68 -28 -152 -28 -79 0 -103 4 -142 24 -159 78 -243 259 -193 413 15 44 36 71 126 164 l109 110 -28 27 c-15 15 -33 27 -39 27 -21 0 -202 -198 -229 -251 -23 -45 -28 -70 -32 -151 l-4 -98 -29 0 c-35 0 -36 6 -7 37 l21 23 -21 23 c-32 35 -42 71 -42 162 0 110 -24 176 -91 250 -65 70 -137 106 -229 113 l-70 5 0 -120 c0 -149 11 -208 55 -301 68 -145 209 -249 370 -275 74 -11 78 -13 95 -47 35 -68 108 -138 184 -175 176 -87 376 -56 511 79 53 53 115 160 115 198 0 35 19 24 105 -62 l88 -88 -49 -6 c-152 -20 -258 -70 -361 -172 -267 -263 -219 -699 99 -905 94 -60 171 -81 322 -87 103 -3 136 -8 160 -23 20 -12 50 -19 84 -19 l52 0 0 40 c0 39 -1 40 -34 40 -19 0 -41 3 -50 6 -26 10 -18 24 14 24 l30 0 0 240 0 239 -90 3 -90 3 30 45 c53 79 75 162 75 277 l0 103 105 -105 c99 -98 108 -105 145 -105 93 0 182 55 205 126 l12 34 71 0 72 0 -115 -115 -115 -115 -110 0 -111 0 -39 40 c-21 22 -44 40 -50 40 -6 0 -22 -11 -35 -25 l-24 -25 54 -55 54 -55 156 0 155 0 188 188 c103 103 187 191 187 195 0 4 -94 7 -210 7 l-210 0 0 -32 c0 -42 -33 -96 -66 -108 -59 -23 -74 -15 -182 93 -56 56 -102 106 -102 110 0 4 24 7 53 7 49 0 56 3 95 43 46 47 51 70 30 139 -11 39 -11 39 35 86 l47 47 0 -115 0 -114 -65 -66 -65 -66 30 -29 30 -29 80 79 80 80 0 235 0 235 -152 -152 -151 -151 26 -32 c57 -67 26 -100 -94 -100 l-84 0 -153 153 -152 152 0 79 c0 73 -2 81 -30 113 l-30 34 0 142 0 142 200 200 c110 110 200 203 200 207 0 5 -90 8 -200 8 l-200 0 0 -42 c0 -40 -5 -46 -152 -195 l-152 -153 32 -32 32 -33 140 140 c94 94 148 156 163 187 l22 47 60 1 60 0 -148 -148 -147 -147 0 -145 c1 -186 5 -205 65 -286 5 -7 6 -16 2 -20 -4 -5 -38 22 -75 58 -67 66 -137 110 -199 123 l-33 7 0 77 0 77 -70 69 -70 70 172 172 173 173 -201 0 -201 0 -6 -46z m-599 -499 c47 -20 108 -78 134 -130 16 -30 23 -68 28 -157 6 -104 10 -122 34 -158 34 -51 18 -52 -60 -2 -138 89 -203 222 -204 415 0 53 7 57 68 32z m1462 -830 c27 -81 32 -147 16 -223 -23 -110 -57 -164 -182 -292 l-113 -116 104 -104 105 -105 0 61 c0 58 2 61 45 104 35 35 45 51 45 77 0 31 2 33 35 33 l35 0 0 -191 0 -192 -137 6 c-190 7 -284 42 -387 141 -246 239 -178 657 130 806 81 39 124 49 213 47 l74 -2 17 -50z m-60 -563 c0 -10 -18 -35 -40 -57 -34 -33 -40 -36 -46 -21 -5 12 5 29 32 57 42 43 54 48 54 21z"/>
    </g>
</svg>