<svg xmlns="http://www.w3.org/2000/svg" width="296px" height="315px" viewBox="0 0 2960 3150"
     preserveAspectRatio="xMidYMid meet">
    <g id="layer101" fill="#333333" stroke="none">
        <path d="M1418 2860 c-52 -15 -81 -47 -143 -151 l-61 -104 -84 -17 c-122 -25 -154 -35 -184 -59 -64 -50 -88 -166 -51 -239 10 -19 49 -69 87 -110 l70 -75 -7 -83 c-11 -138 -10 -136 -92 -143 -146 -14 -264 -70 -374 -179 -83 -82 -136 -175 -164 -285 -19 -76 -19 -224 0 -300 36 -141 142 -292 257 -364 51 -32 56 -40 78 -104 46 -133 141 -265 255 -352 151 -114 284 -159 475 -159 191 0 324 45 475 159 114 87 209 219 255 352 22 64 27 72 78 104 115 72 221 223 257 364 19 76 19 212 0 294 -24 100 -89 214 -165 291 -106 106 -270 179 -401 180 -46 0 -46 0 -53 40 -3 22 -9 73 -12 113 l-6 72 69 75 c87 93 106 129 105 196 0 58 -17 96 -59 136 -37 36 -79 52 -189 73 l-91 17 -54 95 c-30 52 -69 108 -86 124 -50 43 -121 58 -185 39z"/>
    </g>
    <g id="layer102" fill="#66cc66" stroke="none">
        <path d="M1350 1735 c-84 -39 -136 -44 -214 -20 -98 30 -239 14 -341 -37 -52 -27 -151 -122 -182 -176 -83 -142 -83 -333 0 -475 36 -60 145 -160 201 -183 34 -14 48 -26 52 -44 52 -245 216 -427 449 -496 82 -25 248 -25 330 0 233 69 397 251 449 496 4 18 18 30 52 44 56 23 165 123 201 183 83 142 83 333 0 475 -31 54 -130 149 -182 176 -102 51 -243 67 -341 37 -78 -24 -127 -19 -214 20 -104 47 -158 47 -260 0z"/>
    </g>
    <g id="layer103" fill="#ffff88" stroke="none">
        <path d="M1458 2708 c-9 -7 -45 -62 -79 -123 -34 -60 -62 -111 -64 -112 -1 -2 -60 -15 -131 -29 -96 -19 -133 -31 -146 -46 -23 -26 -19 -31 86 -147 47 -51 86 -100 86 -110 0 -9 -7 -69 -15 -134 -16 -126 -11 -157 24 -157 10 0 73 25 140 55 l121 55 121 -55 c67 -30 130 -55 140 -55 35 0 40 31 24 157 -8 65 -15 125 -15 134 0 10 39 59 86 110 105 116 109 121 86 147 -13 15 -50 27 -146 46 -71 14 -130 27 -131 29 -2 1 -30 52 -64 112 -56 99 -83 135 -101 135 -3 0 -14 -6 -22 -12z"/>
    </g>
</svg>