<svg version="1.0" xmlns="http://www.w3.org/2000/svg" width="310px" height="305px" viewBox="0 0 3100 3050"
     preserveAspectRatio="xMidYMid meet">
    <g id="layer101" fill="#ce304f" stroke="none">
        <path d="M847 2726 c-161 -68 -267 -212 -267 -364 0 -51 25 -146 55 -207 37 -76 88 -130 210 -220 166 -123 200 -170 154 -213 -28 -27 -61 -32 -218 -32 -84 0 -160 -6 -199 -15 -141 -33 -259 -121 -314 -233 -30 -61 -33 -74 -32 -157 2 -180 95 -330 240 -385 82 -31 223 -31 312 -1 72 25 99 40 236 140 54 39 116 76 138 83 35 10 41 9 61 -11 32 -31 27 -83 -24 -236 -63 -195 -65 -322 -4 -452 35 -76 104 -145 178 -179 57 -27 71 -29 177 -29 106 0 120 2 177 29 141 65 223 211 223 397 0 64 -8 102 -44 217 -58 184 -62 231 -21 258 36 23 76 7 208 -89 140 -100 211 -134 308 -146 147 -19 265 16 347 103 62 66 100 147 114 245 26 178 -58 323 -236 407 -93 44 -151 54 -311 54 -73 0 -146 3 -163 6 -38 8 -72 38 -72 64 0 31 62 92 171 170 161 116 231 214 260 358 34 175 -54 338 -228 424 -63 31 -74 33 -168 33 -90 0 -106 -3 -158 -29 -78 -38 -176 -131 -214 -203 -17 -32 -47 -110 -68 -173 -42 -130 -76 -196 -105 -205 -55 -17 -88 30 -145 205 -50 154 -85 217 -161 290 -89 85 -154 114 -269 118 -77 2 -99 -1 -148 -22z m565 -816 c74 -54 120 -80 138 -80 19 0 64 26 138 80 113 82 142 92 174 63 25 -23 23 -40 -22 -180 -26 -80 -38 -132 -34 -148 4 -17 40 -50 108 -99 131 -96 142 -109 130 -144 -15 -44 -46 -52 -195 -52 -117 0 -138 -2 -151 -17 -8 -10 -32 -72 -52 -138 -42 -132 -56 -155 -96 -155 -40 0 -54 23 -95 155 -20 66 -44 128 -53 138 -13 14 -35 17 -146 18 -154 1 -176 6 -196 42 -21 37 -12 48 116 144 61 45 113 92 118 106 7 18 -1 54 -33 148 -46 139 -48 155 -24 181 29 32 61 21 175 -62z"/>
    </g>
    <g id="layer102" fill="#ad3571" stroke="none">
        <path d="M847 2726 c-161 -68 -267 -212 -267 -364 0 -51 25 -146 55 -207 37 -76 88 -130 210 -220 166 -123 200 -170 154 -213 -28 -27 -61 -32 -218 -32 -84 0 -160 -6 -199 -15 -141 -33 -259 -121 -314 -233 -30 -61 -33 -74 -32 -157 2 -180 95 -330 240 -385 46 -17 80 -22 154 -22 111 -1 192 23 274 77 191 129 253 178 353 278 l112 112 -140 5 c-133 5 -142 6 -160 29 -38 47 -27 63 129 175 58 43 94 76 98 91 4 15 -9 70 -35 147 -46 139 -49 158 -23 181 32 29 61 19 174 -63 74 -54 120 -80 138 -80 19 0 64 26 138 80 115 83 146 94 175 62 24 -26 22 -40 -23 -179 -26 -80 -38 -132 -34 -148 4 -17 40 -50 108 -99 131 -96 142 -109 130 -144 -15 -44 -46 -52 -195 -52 -117 0 -138 -2 -151 -17 -8 -10 -32 -72 -52 -138 -42 -132 -56 -155 -96 -155 -31 0 -56 23 -65 63 -4 15 -11 27 -15 27 -4 0 -28 -87 -54 -192 -26 -106 -70 -286 -98 -400 -60 -244 -60 -239 50 -291 63 -30 74 -32 182 -32 106 0 120 2 177 29 141 65 223 211 223 397 0 64 -8 102 -44 217 -58 184 -62 231 -21 258 36 23 76 7 208 -89 140 -100 211 -134 308 -146 147 -19 265 16 347 103 62 66 100 147 114 245 26 178 -58 323 -236 407 -93 44 -151 54 -311 54 -73 0 -146 3 -163 6 -38 8 -72 38 -72 64 0 31 62 92 171 170 161 116 231 214 260 358 34 175 -54 338 -228 424 -63 31 -74 33 -168 33 -90 0 -106 -3 -158 -29 -78 -38 -176 -131 -214 -203 -17 -32 -47 -110 -68 -173 -57 -175 -90 -222 -145 -205 -29 9 -63 75 -105 205 -50 154 -85 217 -161 290 -89 85 -154 114 -269 118 -77 2 -99 -1 -148 -22z"/>
    </g>
    <g id="layer103" fill="#954385" stroke="none">
        <path d="M847 2726 c-161 -68 -267 -212 -267 -364 0 -51 25 -146 55 -207 37 -76 88 -130 210 -220 166 -123 200 -170 154 -213 -28 -27 -61 -32 -218 -32 -84 0 -160 -6 -199 -15 -141 -33 -259 -121 -314 -233 -30 -61 -33 -74 -32 -157 1 -134 48 -242 142 -327 41 -37 134 -78 178 -78 14 0 66 28 122 67 232 159 325 222 454 309 l138 92 -92 4 c-80 4 -93 7 -109 27 -38 47 -26 63 129 175 58 43 94 76 98 91 4 15 -9 70 -35 147 -46 139 -49 158 -23 181 32 29 61 19 174 -63 74 -54 120 -80 138 -80 19 0 64 26 138 80 115 83 146 94 175 62 24 -26 22 -40 -23 -179 -26 -80 -38 -132 -34 -148 4 -17 40 -50 108 -99 131 -96 142 -109 130 -144 -15 -44 -46 -52 -195 -52 -117 0 -138 -2 -151 -17 -8 -10 -32 -72 -52 -138 -42 -132 -56 -155 -96 -155 -31 0 -56 23 -65 63 -4 15 -11 27 -15 27 -4 0 -28 -87 -54 -192 -26 -106 -70 -286 -98 -400 -60 -244 -60 -239 50 -291 63 -30 74 -32 182 -32 106 0 120 2 177 29 141 65 223 211 223 397 0 64 -8 102 -44 217 -58 184 -62 231 -21 258 36 23 76 7 208 -89 140 -100 211 -134 308 -146 147 -19 265 16 347 103 62 66 100 147 114 245 26 178 -58 323 -236 407 -93 44 -151 54 -311 54 -73 0 -146 3 -163 6 -38 8 -72 38 -72 64 0 31 62 92 171 170 161 116 231 214 260 358 34 175 -54 338 -228 424 -63 31 -74 33 -168 33 -90 0 -106 -3 -158 -29 -78 -38 -176 -131 -214 -203 -17 -32 -47 -110 -68 -173 -57 -175 -90 -222 -145 -205 -29 9 -63 75 -105 205 -50 154 -85 217 -161 290 -89 85 -154 114 -269 118 -77 2 -99 -1 -148 -22z"/>
    </g>
    <g id="layer104" fill="#d4503f" stroke="none">
        <path d="M847 2726 c-161 -68 -267 -212 -267 -364 0 -51 25 -146 55 -207 37 -76 88 -130 210 -220 166 -123 200 -170 154 -213 -28 -27 -61 -32 -218 -32 -84 0 -160 -6 -199 -15 -141 -33 -259 -121 -314 -233 -29 -58 -33 -76 -33 -147 0 -76 18 -170 36 -181 4 -2 50 11 101 30 241 90 415 152 545 195 135 43 142 47 136 69 -7 30 9 47 134 138 66 49 105 84 109 99 4 15 -9 70 -35 147 -46 139 -49 158 -23 181 32 29 61 19 174 -63 74 -54 120 -80 138 -80 19 0 64 26 138 80 115 83 146 94 175 62 24 -26 22 -40 -23 -179 -26 -80 -38 -132 -34 -148 4 -17 40 -50 108 -99 131 -96 142 -109 130 -144 -15 -44 -46 -52 -195 -52 -117 0 -138 -2 -151 -17 -8 -10 -32 -72 -52 -138 -42 -132 -56 -155 -96 -155 -31 0 -56 23 -65 63 -4 15 -11 27 -15 27 -4 0 -28 -87 -54 -192 -26 -106 -70 -286 -98 -400 -60 -244 -60 -239 50 -291 63 -30 74 -32 182 -32 106 0 120 2 177 29 141 65 223 211 223 397 0 64 -8 102 -44 217 -58 184 -62 231 -21 258 36 23 76 7 208 -89 140 -100 211 -134 308 -146 147 -19 265 16 347 103 62 66 100 147 114 245 26 178 -58 323 -236 407 -93 44 -151 54 -311 54 -73 0 -146 3 -163 6 -38 8 -72 38 -72 64 0 31 62 92 171 170 161 116 231 214 260 358 34 175 -54 338 -228 424 -63 31 -74 33 -168 33 -90 0 -106 -3 -158 -29 -78 -38 -176 -131 -214 -203 -17 -32 -47 -110 -68 -173 -57 -175 -90 -222 -145 -205 -29 9 -63 75 -105 205 -50 154 -85 217 -161 290 -89 85 -154 114 -269 118 -77 2 -99 -1 -148 -22z"/>
    </g>
    <g id="layer105" fill="#725aa5" stroke="none">
        <path d="M847 2726 c-161 -68 -267 -212 -267 -364 0 -51 25 -146 55 -207 37 -76 88 -130 210 -220 166 -123 200 -170 154 -213 -28 -27 -61 -32 -218 -32 -84 0 -160 -6 -199 -15 -141 -33 -259 -121 -314 -233 -29 -58 -33 -76 -33 -147 0 -76 18 -170 36 -181 4 -2 50 11 101 30 241 90 415 152 545 195 135 43 142 47 136 69 -7 30 9 47 134 138 66 49 105 84 109 99 4 15 -9 70 -35 147 -46 139 -49 158 -23 181 32 29 61 19 174 -63 74 -54 120 -80 138 -80 19 0 64 26 138 80 115 83 146 94 175 62 24 -26 22 -40 -23 -179 -26 -80 -38 -132 -34 -148 4 -17 40 -50 108 -99 131 -96 142 -109 130 -144 -15 -44 -46 -52 -197 -52 -109 0 -139 -3 -143 -14 -5 -13 32 -75 121 -200 19 -26 35 -44 35 -39 0 6 12 15 26 22 40 18 79 0 207 -92 140 -100 211 -134 308 -146 147 -19 265 16 347 103 62 66 100 147 114 245 26 178 -58 323 -236 407 -93 44 -151 54 -311 54 -73 0 -146 3 -163 6 -38 8 -72 38 -72 64 0 31 62 92 171 170 161 116 231 214 260 358 34 175 -54 338 -228 424 -63 31 -74 33 -168 33 -90 0 -106 -3 -158 -29 -78 -38 -176 -131 -214 -203 -17 -32 -47 -110 -68 -173 -57 -175 -90 -222 -145 -205 -29 9 -63 75 -105 205 -50 154 -85 217 -161 290 -89 85 -154 114 -269 118 -77 2 -99 -1 -148 -22z"/>
    </g>
    <g id="layer106" fill="#db742f" stroke="none">
        <path d="M847 2726 c-161 -68 -267 -212 -267 -364 0 -51 25 -146 55 -207 37 -76 88 -130 210 -220 108 -80 175 -144 175 -168 0 -16 274 -118 278 -103 1 6 -16 65 -38 131 -45 134 -48 155 -22 178 32 29 61 19 174 -63 74 -54 120 -80 138 -80 19 0 64 26 138 80 115 83 146 94 175 62 24 -26 22 -40 -23 -179 -26 -80 -38 -132 -34 -148 4 -17 40 -50 108 -99 131 -96 142 -109 130 -144 -15 -44 -46 -52 -197 -52 -109 0 -139 -3 -143 -14 -5 -13 32 -75 121 -200 19 -26 35 -44 35 -39 0 6 12 15 26 22 40 18 79 0 207 -92 140 -100 211 -134 308 -146 147 -19 265 16 347 103 62 66 100 147 114 245 26 178 -58 323 -236 407 -93 44 -151 54 -311 54 -73 0 -146 3 -163 6 -38 8 -72 38 -72 64 0 31 62 92 171 170 161 116 231 214 260 358 34 175 -54 338 -228 424 -63 31 -74 33 -168 33 -90 0 -106 -3 -158 -29 -78 -38 -176 -131 -214 -203 -17 -32 -47 -110 -68 -173 -57 -175 -90 -222 -145 -205 -29 9 -63 75 -105 205 -50 154 -85 217 -161 290 -89 85 -154 114 -269 118 -77 2 -99 -1 -148 -22z"/>
    </g>
    <g id="layer107" fill="#4975cc" stroke="none">
        <path d="M847 2726 c-161 -68 -267 -212 -267 -364 0 -51 25 -146 55 -207 37 -76 88 -130 210 -220 108 -80 175 -144 175 -168 0 -16 274 -118 278 -103 1 6 -16 65 -38 131 -45 134 -48 155 -22 178 32 29 61 19 174 -63 74 -54 120 -80 138 -80 19 0 64 26 138 80 115 83 146 94 175 62 24 -26 22 -40 -23 -179 -26 -80 -38 -132 -34 -148 4 -16 38 -48 98 -91 153 -112 165 -128 127 -175 -17 -21 -30 -24 -110 -29 l-92 -5 167 -130 c91 -71 191 -151 222 -176 32 -25 87 -68 124 -96 37 -28 65 -53 62 -55 -6 -7 24 -10 98 -9 187 2 330 140 360 349 10 67 9 89 -5 146 -28 115 -106 203 -231 262 -93 44 -151 54 -311 54 -73 0 -146 3 -163 6 -38 8 -72 38 -72 64 0 31 62 92 171 170 161 116 231 214 260 358 34 175 -54 338 -228 424 -63 31 -74 33 -168 33 -90 0 -106 -3 -158 -29 -78 -38 -176 -131 -214 -203 -17 -32 -47 -110 -68 -173 -57 -175 -90 -222 -145 -205 -29 9 -63 75 -105 205 -50 154 -85 217 -161 290 -89 85 -154 114 -269 118 -77 2 -99 -1 -148 -22z"/>
    </g>
    <g id="layer108" fill="#e09321" stroke="none">
        <path d="M847 2726 c-161 -68 -267 -212 -267 -364 0 -52 25 -146 57 -211 33 -68 152 -191 185 -191 6 0 45 -19 87 -42 83 -45 86 -47 249 -138 62 -34 115 -60 118 -57 3 3 -8 48 -25 99 -36 108 -38 129 -13 151 32 29 61 19 174 -63 74 -54 120 -80 138 -80 19 0 64 26 138 80 115 83 146 94 175 62 24 -26 22 -40 -23 -179 -26 -80 -38 -132 -34 -148 4 -16 38 -48 98 -91 153 -112 165 -128 127 -175 -17 -21 -30 -24 -110 -29 l-92 -5 167 -130 c91 -71 191 -151 222 -176 32 -25 87 -68 124 -96 37 -28 65 -53 62 -55 -6 -7 24 -10 98 -9 187 2 330 140 360 349 10 67 9 89 -5 146 -28 115 -106 203 -231 262 -93 44 -151 54 -311 54 -73 0 -146 3 -163 6 -38 8 -72 38 -72 64 0 31 62 92 171 170 161 116 231 214 260 358 34 175 -54 338 -228 424 -63 31 -74 33 -168 33 -90 0 -106 -3 -158 -29 -78 -38 -176 -131 -214 -203 -17 -32 -47 -110 -68 -173 -57 -175 -90 -222 -145 -205 -29 9 -63 75 -105 205 -50 154 -85 217 -161 290 -89 85 -154 114 -269 118 -77 2 -99 -1 -148 -22z"/>
    </g>
    <g id="layer109" fill="#2192ed" stroke="none">
        <path d="M847 2726 c-161 -68 -267 -212 -267 -364 0 -52 25 -146 57 -211 33 -68 152 -191 185 -191 6 0 45 -19 87 -42 83 -45 86 -47 249 -138 62 -34 115 -60 118 -57 3 3 -8 48 -25 99 -36 108 -38 129 -13 151 32 29 61 19 174 -63 74 -54 120 -80 138 -80 19 0 64 26 138 80 115 83 146 94 175 62 24 -26 22 -40 -23 -179 -26 -80 -38 -132 -34 -148 4 -17 40 -50 108 -99 128 -94 140 -106 131 -144 -6 -28 -4 -30 52 -50 32 -11 108 -38 168 -61 61 -22 166 -61 235 -86 69 -25 159 -59 200 -76 112 -46 116 -46 135 -10 9 18 21 67 27 110 26 178 -58 323 -236 407 -93 44 -151 54 -311 54 -73 0 -146 3 -163 6 -38 8 -72 38 -72 64 0 31 62 92 171 170 161 116 231 214 260 358 34 175 -54 338 -228 424 -63 31 -74 33 -168 33 -90 0 -106 -3 -158 -29 -78 -38 -176 -131 -214 -203 -17 -32 -47 -110 -68 -173 -57 -175 -90 -222 -145 -205 -29 9 -63 75 -105 205 -50 154 -85 217 -161 290 -89 85 -154 114 -269 118 -77 2 -99 -1 -148 -22z"/>
    </g>
    <g id="layer110" fill="#54adaf" stroke="none">
        <path d="M1989 2732 c-99 -40 -206 -138 -252 -228 -13 -27 -41 -101 -62 -164 -20 -63 -48 -134 -61 -157 -38 -65 -85 -69 -123 -10 -11 18 -21 29 -21 25 0 -4 11 -77 25 -162 14 -85 25 -166 25 -180 0 -49 46 -34 168 54 115 83 146 94 175 62 24 -26 22 -40 -23 -179 -26 -80 -38 -132 -34 -148 4 -17 40 -50 108 -99 128 -94 140 -106 131 -144 -6 -28 -4 -30 52 -50 32 -11 108 -38 168 -61 61 -22 166 -61 235 -86 69 -25 159 -59 200 -76 112 -46 116 -46 135 -10 9 18 21 67 27 110 26 178 -58 323 -236 407 -93 44 -151 54 -311 54 -73 0 -146 3 -163 6 -38 8 -72 38 -72 64 0 31 62 92 171 170 161 116 231 214 260 358 34 175 -54 338 -228 424 -59 29 -78 33 -158 36 -69 1 -101 -2 -136 -16z"/>
    </g>
    <g id="layer111" fill="#74b78a" stroke="none">
        <path d="M2368 2523 c-36 -43 -117 -140 -179 -216 -203 -245 -250 -301 -280 -334 -16 -18 -29 -38 -29 -44 0 -7 -18 -68 -40 -136 -26 -80 -38 -132 -34 -148 4 -17 40 -50 108 -99 128 -94 140 -106 131 -144 -6 -28 -4 -30 52 -50 32 -11 108 -38 168 -61 61 -22 166 -61 235 -86 69 -25 159 -59 200 -76 112 -46 116 -46 135 -10 9 18 21 67 27 110 26 178 -58 323 -236 407 -93 44 -151 54 -311 54 -73 0 -146 3 -163 6 -38 8 -72 38 -72 64 0 31 62 92 171 170 118 85 179 151 218 234 69 146 66 283 -7 394 l-29 42 -65 -77z"/>
    </g>
    <g id="layer112" fill="#90bf6b" stroke="none">
        <path d="M2405 2168 c-38 -28 -125 -92 -192 -142 -67 -50 -146 -108 -175 -129 -169 -121 -218 -162 -228 -196 -16 -59 -4 -76 104 -155 128 -94 140 -106 131 -144 -6 -28 -4 -30 52 -50 32 -11 108 -38 168 -61 61 -22 166 -61 235 -86 69 -25 159 -59 200 -76 112 -46 116 -46 135 -10 9 18 21 67 27 110 26 178 -58 323 -236 407 -93 44 -151 54 -311 54 -73 0 -146 3 -163 6 -38 8 -72 38 -72 64 0 30 62 92 170 170 54 38 115 90 137 113 58 63 120 177 96 177 -4 0 -39 -23 -78 -52z"/>
    </g>
    <g id="layer113" fill="#e5c50e" stroke="none">
        <path d="M2040 1720 c-38 -12 -220 -87 -226 -93 -3 -3 41 -39 98 -80 131 -95 142 -107 133 -145 -6 -28 -4 -30 52 -50 32 -11 108 -38 168 -61 61 -22 166 -61 235 -86 69 -25 159 -59 200 -76 112 -46 116 -46 135 -10 9 18 21 67 27 110 29 200 -78 353 -306 438 -28 11 -100 17 -231 22 -157 5 -194 9 -215 24 -27 19 -33 19 -70 7z"/>
    </g>
    <g id="layer114" fill="#bbcd3a" stroke="none">
        <path d="M2040 1720 c-14 -4 -63 -23 -110 -42 -47 -19 -94 -38 -104 -42 -17 -6 -18 -8 -5 -22 13 -13 23 -13 85 1 160 36 301 64 329 66 17 1 0 5 -37 9 -37 5 -77 15 -90 24 -25 17 -31 18 -68 6z"/>
    </g>
</svg>