<svg xmlns="http://www.w3.org/2000/svg" width="320px" height="313px" viewBox="0 0 3200 3130"
     preserveAspectRatio="xMidYMid meet">
    <g id="layer101" fill="#333333" stroke="none">
        <path d="M1372 2097 c-325 -325 -592 -595 -592 -600 0 -4 109 -7 243 -7 l243 0 74 -75 74 -75 -34 0 c-32 0 -49 -14 -185 -150 l-150 -150 -167 167 -167 167 -103 -102 -103 -102 267 -267 268 -268 213 213 212 212 113 0 c63 0 112 -3 110 -7 -59 -117 -63 -128 -63 -213 0 -75 4 -93 31 -150 17 -36 47 -80 65 -99 162 -162 428 -141 553 43 39 58 66 140 66 202 0 63 -35 165 -76 219 l-37 47 124 124 c68 68 128 124 134 124 5 0 83 -73 172 -162 l163 -163 95 95 c52 52 95 99 95 105 0 6 -118 128 -263 273 l-262 262 -210 -210 -210 -210 -120 0 -121 0 -67 68 c-37 37 -67 71 -67 75 0 4 44 7 97 7 l98 0 -135 135 -134 135 -38 -37 -38 -37 -43 42 -42 42 262 262 263 263 93 -93 92 -92 100 100 100 100 -190 190 c-104 105 -194 190 -200 190 -6 0 -277 -267 -603 -593z m658 -1207 c26 -26 26 -81 1 -104 -25 -23 -76 -23 -101 -1 -45 41 -12 125 50 125 17 0 39 -9 50 -20z"/>
        <path d="M823 2118 l-213 -213 -95 95 -94 94 -101 -100 -100 -99 197 -197 198 -198 315 315 315 315 -100 100 c-55 55 -102 100 -105 100 -3 0 -101 -96 -217 -212z"/>
    </g>
</svg>