<!DOCTYPE svg PUBLIC "-//W3C//DTD SVG 20010904//EN" "http://www.w3.org/TR/2001/REC-SVG-20010904/DTD/svg10.dtd">
<svg version="1.0" xmlns="http://www.w3.org/2000/svg" width="318px" height="277px" viewBox="0 0 3180 2770" preserveAspectRatio="xMidYMid meet">
<g id="layer101" fill="#333333" stroke="none">
<path d="M1495 2450 c-326 -51 -604 -236 -777 -517 l-51 -83 -239 0 -238 0 0 -300 c0 -196 4 -300 10 -300 6 0 87 38 180 85 93 47 171 85 174 85 2 0 6 -55 9 -122 12 -274 121 -521 317 -717 212 -212 484 -321 801 -321 l99 0 0 304 0 305 58 -35 c173 -105 396 -111 586 -16 87 43 102 56 338 290 l248 245 -95 98 c-117 123 -180 211 -255 359 -131 260 -287 419 -525 536 -153 75 -272 104 -445 109 -74 2 -162 0 -195 -5z"/>
</g>
<g id="layer102" fill="#eeaa00" stroke="none">
<path d="M1085 1716 c-113 -29 -198 -99 -249 -206 -29 -62 -31 -71 -30 -180 1 -93 7 -132 28 -205 91 -305 328 -527 637 -600 l59 -13 0 459 c0 436 -1 461 -20 513 -39 102 -113 178 -215 218 -60 24 -150 30 -210 14z"/>
</g>
<g id="layer103" fill="#eedd00" stroke="none">
<path d="M1540 2209 c-93 -14 -234 -64 -310 -109 -64 -38 -170 -118 -170 -129 0 -3 43 -5 95 -3 213 7 402 -90 521 -269 64 -96 92 -182 104 -320 8 -94 15 -125 40 -176 71 -144 235 -232 383 -204 103 19 143 46 307 207 l154 152 -46 50 c-64 68 -114 149 -164 264 -96 219 -240 372 -439 464 -145 67 -329 95 -475 73z m670 -744 c55 -28 76 -105 45 -165 -32 -62 -129 -80 -184 -35 -40 34 -56 84 -41 130 24 74 109 107 180 70z"/>
<path d="M992 1682 c-57 -31 -124 -104 -156 -172 -29 -62 -31 -71 -30 -180 2 -136 31 -250 95 -369 41 -76 125 -191 140 -191 5 0 9 209 9 465 0 366 -3 465 -12 465 -7 -1 -28 -9 -46 -18z"/>
</g>
<g id="layer104" fill="#cc44ee" stroke="none">
<path d="M1290 1142 l0 -559 78 -26 c42 -15 96 -31 120 -36 l42 -9 0 459 c0 440 -1 460 -21 514 -11 31 -35 74 -52 97 -34 44 -107 101 -144 112 l-23 7 0 -559z"/>
</g>


</svg>