<svg xmlns="http://www.w3.org/2000/svg" width="320px" height="313px" viewBox="0 0 3200 3130"
     preserveAspectRatio="xMidYMid meet">
    <g id="layer101" fill="#333333" stroke="none">
        <path d="M310 2320 l0 -400 65 0 65 0 0 335 0 335 1180 0 1180 0 0 -335 0 -335 65 0 65 0 0 400 0 400 -1310 0 -1310 0 0 -400z"/>
        <path d="M1280 2503 c-44 -23 -60 -39 -83 -83 -25 -48 -28 -63 -24 -114 7 -77 44 -132 112 -166 28 -14 51 -25 52 -26 2 0 -10 -25 -27 -55 -16 -30 -32 -73 -36 -97 l-7 -42 67 0 c44 0 66 4 66 12 0 19 41 98 51 98 5 0 9 -25 9 -55 l0 -55 65 0 65 0 0 95 0 95 30 0 30 0 0 -95 0 -95 65 0 65 0 0 56 c0 48 2 55 14 44 8 -6 23 -31 32 -56 l17 -44 64 0 65 0 -7 33 c-3 17 -20 60 -37 95 -16 35 -28 64 -26 65 1 1 25 13 53 27 141 71 150 261 17 355 -41 28 -50 30 -131 30 -81 0 -94 -3 -156 -35 l-69 -35 -66 33 c-51 26 -84 35 -141 39 -68 5 -79 3 -129 -24z m170 -113 c20 -5 44 -16 53 -23 17 -12 16 -16 -8 -70 l-26 -57 -50 0 c-88 0 -128 36 -114 100 12 54 65 72 145 50z m465 -22 c20 -23 25 -38 20 -57 -11 -47 -39 -65 -107 -69 l-63 -3 -27 60 -26 60 31 14 c51 23 60 25 104 26 35 1 45 -4 68 -31z"/>
        <path d="M755 2270 l-90 -90 185 0 185 0 -90 90 c-49 50 -92 90 -95 90 -3 0 -46 -40 -95 -90z"/>
        <path d="M2382 2225 c-93 -41 -146 -120 -158 -237 l-7 -68 67 0 66 0 0 38 c1 53 33 118 69 136 94 49 191 -19 191 -134 l0 -40 65 0 65 0 0 43 c0 24 -7 68 -16 98 -20 67 -97 148 -160 167 -55 16 -141 15 -182 -3z"/>
        <path d="M580 2029 c-40 -25 -55 -43 -69 -81 l-10 -28 159 0 160 0 -11 28 c-34 89 -149 130 -229 81z"/>
        <path d="M962 2030 c-32 -20 -72 -74 -72 -97 0 -10 38 -13 156 -13 l155 0 -7 23 c-28 90 -151 136 -232 87z"/>
        <path d="M310 1555 l0 -305 65 0 65 0 0 305 0 305 -65 0 -65 0 0 -305z"/>
        <path d="M2800 1555 l0 -305 65 0 65 0 0 305 0 305 -65 0 -65 0 0 -305z"/>
        <path d="M310 885 l0 -305 1310 0 1310 0 0 305 0 305 -65 0 -65 0 0 -240 0 -240 -1180 0 -1180 0 0 240 0 240 -65 0 -65 0 0 -305z"/>
        <path d="M500 1063 c0 -147 13 -187 73 -240 55 -48 97 -55 301 -51 177 3 182 4 228 31 29 17 57 44 73 71 23 40 25 51 25 179 l0 137 -350 0 -350 0 0 -127z m578 -39 c4 -46 -22 -102 -53 -114 -15 -6 -98 -10 -186 -10 -156 0 -160 1 -184 25 -21 20 -25 34 -25 80 l0 55 223 -2 222 -3 3 -31z"/>
        <path d="M1270 1175 c0 -24 28 -85 54 -120 37 -48 112 -84 194 -91 l72 -7 0 117 0 116 -65 0 -65 0 0 -36 c0 -43 -16 -42 -45 4 -19 29 -24 31 -82 32 -50 0 -63 -3 -63 -15z"/>
        <path d="M1650 1074 l0 -117 64 6 c116 11 187 57 232 152 35 74 34 75 -46 75 -51 0 -70 -4 -70 -13 0 -8 -11 -24 -25 -37 l-25 -23 0 36 0 37 -65 0 -65 0 0 -116z"/>
        <path d="M2044 1144 c13 -96 83 -186 188 -241 48 -25 63 -28 153 -28 90 0 105 3 153 28 29 15 70 44 92 63 47 42 100 144 100 191 l0 33 -65 0 c-52 0 -65 -3 -65 -15 0 -25 -36 -88 -67 -117 -114 -109 -322 -52 -362 98 -7 28 -10 29 -71 32 l-63 3 7 -47z"/>
        <path d="M2230 1165 c28 -74 76 -105 162 -105 63 0 101 22 135 77 13 21 23 41 23 46 0 4 -74 7 -165 7 l-165 0 10 -25z"/>
    </g>
    <g id="layer102" fill="#ee2211" stroke="none">
        <path d="M1270 1555 l0 -305 65 0 65 0 0 305 0 305 -65 0 -65 0 0 -305z"/>
        <path d="M1460 1555 l0 -305 65 0 65 0 0 305 0 305 -65 0 -65 0 0 -305z"/>
        <path d="M1650 1555 l0 -305 65 0 65 0 0 305 0 305 -65 0 -65 0 0 -305z"/>
        <path d="M1840 1555 l0 -305 65 0 65 0 0 305 0 305 -65 0 -65 0 0 -305z"/>
    </g>
    <g id="layer103" fill="#1199ff" stroke="none">
        <path d="M2030 1555 l0 -305 65 0 65 0 0 305 0 305 -65 0 -65 0 0 -305z"/>
        <path d="M2220 1555 l0 -305 65 0 65 0 0 305 0 305 -65 0 -65 0 0 -305z"/>
        <path d="M2420 1555 l0 -305 65 0 65 0 0 305 0 305 -65 0 -65 0 0 -305z"/>
        <path d="M2610 1555 l0 -305 65 0 65 0 0 305 0 305 -65 0 -65 0 0 -305z"/>
    </g>
    <g id="layer104" fill="#eedd00" stroke="none">
        <path d="M500 1555 l0 -305 65 0 65 0 0 305 0 305 -65 0 -65 0 0 -305z"/>
        <path d="M690 1555 l0 -305 65 0 65 0 0 305 0 305 -65 0 -65 0 0 -305z"/>
        <path d="M880 1555 l0 -305 65 0 65 0 0 305 0 305 -65 0 -65 0 0 -305z"/>
        <path d="M1080 1555 l0 -305 60 0 60 0 0 305 0 305 -60 0 -60 0 0 -305z"/>
    </g>


</svg>