<svg xmlns="http://www.w3.org/2000/svg" width="360px" height="230px" viewBox="0 0 3600 2300"
     preserveAspectRatio="xMidYMid meet">
    <g id="layer101" fill="#ee6622" stroke="none">
        <path d="M1552 2023 c-7 -3 -87 -154 -178 -336 -181 -361 -181 -362 -114 -389 30 -13 20 -18 -487 -262 -285 -137 -528 -255 -541 -263 -13 -8 -22 -22 -20 -31 3 -16 72 -17 948 -22 l945 -5 51 -154 c29 -84 60 -165 71 -180 31 -43 100 -73 153 -67 64 7 825 366 863 406 l27 30 0 161 c0 176 -8 207 -58 233 -15 7 -169 55 -342 106 -173 50 -318 94 -322 96 -14 9 21 62 67 99 25 21 45 44 45 52 0 9 -10 33 -22 54 -26 47 -48 50 -117 15 -66 -34 -107 -70 -137 -122 -18 -31 -31 -43 -43 -40 -229 66 -235 68 -291 118 -74 66 -176 115 -280 134 -47 9 -91 18 -97 20 -8 2 -13 22 -13 52 0 62 3 65 183 168 120 69 142 85 142 105 l0 24 -210 2 c-115 1 -216 -1 -223 -4z m1017 -1318 c27 -13 41 -33 41 -56 0 -12 -125 -69 -151 -69 -16 0 -19 7 -19 44 0 37 5 48 31 70 35 30 58 32 98 11z"/>
    </g>
</svg>