<svg xmlns="http://www.w3.org/2000/svg" width="320px" height="313px" viewBox="0 0 3200 3130"
     preserveAspectRatio="xMidYMid meet">
    <g id="layer101" fill="#123b97" stroke="none">
        <path d="M412 2698 c-16 -16 -17 -1711 -1 -1838 22 -183 108 -285 267 -319 119 -25 364 -7 409 31 9 7 17 7 26 0 6 -5 31 -16 55 -23 35 -10 46 -19 58 -48 45 -108 175 -161 358 -148 137 10 219 52 264 137 l19 35 94 6 c174 12 279 77 330 205 l24 59 5 717 5 717 22 22 c31 32 109 31 135 0 17 -22 18 -56 18 -665 0 -389 4 -675 11 -726 17 -142 73 -236 169 -285 80 -40 222 -59 248 -33 8 8 12 57 12 155 0 154 3 146 -60 193 l-25 18 -5 754 c-5 673 -7 758 -23 803 -37 112 -114 188 -222 221 -117 35 -328 28 -428 -15 -57 -25 -123 -83 -148 -133 -45 -88 -49 -137 -49 -615 0 -261 -4 -462 -10 -477 -12 -33 -33 -43 -107 -48 l-63 -4 0 646 c0 489 -3 649 -12 658 -8 8 -59 12 -163 12 -104 0 -155 -4 -163 -12 -9 -9 -12 -164 -12 -635 0 -610 0 -623 -20 -643 -29 -29 -110 -28 -136 1 -18 20 -19 48 -22 650 l-2 629 -23 5 c-12 3 -87 4 -167 3 l-145 -3 -5 -630 c-3 -346 -9 -637 -13 -647 -17 -34 -116 -39 -147 -8 -20 20 -20 33 -20 643 0 471 -3 626 -12 635 -17 17 -309 17 -326 0z"/>
    </g>
    <g id="layer102" fill="#ed4300" stroke="none">
        <path d="M412 2698 c-16 -16 -17 -1711 -1 -1838 22 -183 108 -285 267 -319 119 -25 364 -7 409 31 9 7 17 7 26 0 6 -5 31 -16 55 -23 35 -10 46 -19 58 -48 45 -108 175 -161 358 -148 137 10 219 52 264 137 l19 35 94 6 c174 12 279 77 330 205 l24 59 5 717 5 717 22 22 c31 32 109 31 135 0 17 -22 18 -56 18 -665 0 -389 4 -675 11 -726 17 -142 73 -236 169 -285 80 -40 222 -59 248 -33 8 8 12 57 12 155 0 154 3 146 -60 193 l-25 18 -5 754 c-6 830 -4 800 -70 900 -60 90 -158 135 -320 145 -256 15 -402 -61 -461 -242 -9 -30 -14 -168 -18 -533 l-6 -494 -24 -19 c-16 -13 -39 -19 -75 -19 -28 0 -56 -4 -63 -8 -8 -5 -12 -91 -15 -297 -5 -322 -9 -348 -73 -437 -69 -94 -172 -131 -368 -131 -108 -1 -130 2 -145 17 -15 14 -17 39 -17 189 0 149 3 183 23 252 75 259 212 363 545 411 l37 5 0 642 c0 487 -3 646 -12 655 -8 8 -59 12 -163 12 -104 0 -155 -4 -163 -12 -9 -9 -12 -164 -12 -635 0 -610 0 -623 -20 -643 -29 -29 -110 -28 -136 1 -18 20 -19 48 -22 650 l-2 629 -23 5 c-12 3 -87 4 -167 3 l-145 -3 -5 -630 c-3 -346 -9 -637 -13 -647 -17 -34 -116 -39 -147 -8 -20 20 -20 33 -20 643 0 471 -3 626 -12 635 -17 17 -309 17 -326 0z"/>
    </g>
    <g id="layer103" fill="#eeaa00" stroke="none">
        <path d="M412 2698 c-16 -16 -17 -1711 -1 -1838 22 -183 108 -285 267 -319 108 -23 350 -8 403 24 4 3 -16 29 -45 58 -35 35 -61 72 -77 112 -23 58 -24 72 -29 390 -3 182 -9 320 -13 309 -14 -39 -113 -48 -147 -14 -20 20 -20 33 -20 643 0 471 -3 626 -12 635 -17 17 -309 17 -326 0z"/>
    </g>
    <g id="layer104" fill="#1199ff" stroke="none">
        <path d="M2274 2700 c-142 -26 -231 -102 -275 -235 -9 -30 -14 -168 -18 -533 l-6 -494 -24 -19 c-16 -13 -39 -19 -75 -19 -28 0 -56 -4 -63 -8 -8 -5 -12 -91 -15 -297 -5 -322 -9 -348 -73 -437 -40 -54 -101 -93 -182 -116 -72 -19 -304 -22 -326 -4 -8 7 -18 33 -22 57 l-6 45 -39 -32 c-21 -18 -37 -35 -34 -39 2 -3 24 -12 49 -19 38 -11 48 -19 61 -49 45 -108 174 -161 358 -148 137 10 219 52 264 137 l19 35 94 6 c174 12 279 77 330 205 l24 59 5 717 5 717 22 22 c31 32 109 31 135 0 17 -22 18 -56 18 -665 0 -389 4 -675 11 -726 17 -142 73 -236 169 -285 80 -40 222 -59 248 -33 8 8 12 57 12 155 0 154 3 146 -60 193 l-25 18 -5 754 c-5 673 -7 758 -23 803 -37 112 -114 188 -222 221 -60 18 -259 27 -331 14z"/>
    </g>
    <g id="layer105" fill="#ff6699" stroke="none">
        <path d="M1462 2698 c-9 -9 -12 -164 -12 -635 0 -610 0 -623 -20 -643 -26 -26 -105 -28 -132 -3 -17 16 -18 11 -17 -128 0 -137 1 -143 16 -119 35 52 119 122 187 155 63 30 151 52 279 71 l37 5 0 642 c0 487 -3 646 -12 655 -17 17 -309 17 -326 0z"/>
        <path d="M1146 604 l-39 -33 27 -11 c15 -5 38 -13 51 -16 23 -6 23 -5 14 38 -5 23 -11 46 -12 50 -1 3 -19 -9 -41 -28z"/>
    </g>


</svg>