<svg xmlns="http://www.w3.org/2000/svg" width="344px" height="329px" viewBox="0 0 3440 3290"
     preserveAspectRatio="xMidYMid meet">
    <g id="layer101" fill="#333333" stroke="none">
        <path d="M1278 2780 c-193 -35 -378 -142 -485 -281 -52 -68 -258 -424 -289 -498 -128 -317 -17 -715 256 -916 45 -33 48 -37 54 -96 30 -262 212 -504 465 -616 111 -50 212 -63 481 -63 269 0 370 13 481 63 253 112 435 354 465 616 6 59 9 63 54 96 244 179 362 520 286 820 -34 131 -254 519 -360 632 -225 242 -585 319 -880 189 -52 -23 -53 -23 -88 -5 -100 51 -322 81 -440 59z m260 -76 c42 -9 92 -22 111 -30 l33 -14 -48 -38 c-27 -22 -70 -61 -95 -89 l-46 -49 -68 4 c-185 12 -360 -88 -447 -253 -129 -249 -35 -537 216 -661 l80 -39 268 -3 268 -3 53 -92 c30 -51 60 -102 66 -115 l12 -23 -343 3 c-339 4 -344 4 -415 30 -218 78 -385 243 -452 444 -63 189 -49 368 42 554 33 69 58 102 132 175 116 117 211 168 365 200 90 18 177 18 268 -1z m757 -8 c33 -9 98 -35 145 -58 67 -32 102 -59 171 -127 47 -47 94 -101 104 -120 9 -18 13 -31 8 -29 -4 2 -46 23 -93 46 -109 53 -181 72 -305 79 -214 12 -407 -57 -562 -201 -86 -80 -109 -114 -278 -406 -81 -140 -152 -260 -157 -267 -8 -9 -21 -8 -59 6 -69 27 -139 69 -139 85 0 20 385 682 433 744 97 127 245 219 413 256 83 19 230 15 319 -8z m-855 -287 c0 -6 -27 -57 -60 -114 l-61 -103 -102 -4 c-57 -3 -121 -12 -147 -21 -24 -9 -46 -14 -48 -12 -2 2 8 27 24 55 49 90 161 175 261 199 55 13 133 13 133 0z m1034 -13 c192 -53 371 -202 455 -380 128 -270 74 -588 -137 -802 -66 -67 -82 -76 -82 -45 0 10 -12 64 -26 120 l-25 101 35 58 c59 95 69 135 70 257 1 129 -17 188 -84 283 -48 69 -99 113 -178 153 -78 39 -151 52 -255 46 -78 -4 -99 -9 -171 -45 -116 -58 -159 -108 -296 -344 l-114 -198 -129 0 c-70 0 -126 3 -124 8 84 155 303 521 338 562 93 112 242 201 393 236 77 17 249 12 330 -10z m-1204 -283 c0 -13 -194 -343 -202 -343 -25 0 -78 155 -78 230 0 41 3 48 32 64 50 30 138 55 196 55 28 1 52 -2 52 -6z m1195 -32 c65 -32 65 -32 65 -74 0 -72 -48 -212 -79 -231 -9 -6 -201 314 -201 335 0 8 22 10 75 7 57 -4 90 -12 140 -37z m-108 -306 c102 -176 200 -351 218 -390 178 -380 -22 -834 -426 -969 -60 -20 -170 -39 -200 -34 -21 3 -16 8 32 35 278 157 430 484 375 802 -23 129 -49 185 -224 489 -84 144 -152 266 -152 271 0 22 153 123 179 119 7 -2 97 -147 198 -323z m-1707 27 c78 -284 312 -503 598 -558 54 -10 160 -14 402 -14 l328 0 11 -50 c12 -56 14 -123 5 -158 l-7 -23 -446 3 -446 3 -80 27 c-114 39 -199 92 -285 178 -87 87 -140 172 -177 285 -23 69 -27 97 -27 205 0 136 13 205 61 308 l26 57 9 -95 c5 -52 17 -128 28 -168z m2021 58 c30 -77 36 -182 14 -256 -17 -59 -53 -134 -65 -134 -3 0 -35 50 -70 111 -52 92 -62 114 -52 128 44 61 74 126 88 190 l17 75 24 -30 c13 -16 33 -54 44 -84z m-604 -180 c160 -277 175 -306 204 -400 18 -59 23 -98 23 -185 0 -132 -17 -206 -76 -325 -61 -122 -188 -250 -308 -308 -125 -62 -193 -77 -335 -76 -100 1 -133 5 -197 26 -238 78 -418 268 -478 504 -11 43 -18 80 -15 83 3 3 27 -3 53 -13 62 -24 142 -46 168 -46 15 0 28 -16 50 -62 35 -75 127 -172 200 -210 99 -53 236 -72 344 -47 173 40 319 189 360 368 17 71 8 191 -19 261 -11 30 -70 141 -130 245 -106 186 -108 191 -94 219 27 52 115 198 117 194 2 -2 62 -104 133 -228z m-563 -811 c17 -36 54 -85 88 -119 32 -32 58 -62 58 -65 0 -4 -37 -6 -83 -3 -136 7 -254 74 -326 187 -17 26 -31 51 -31 54 0 4 60 7 133 7 l132 0 29 -61z m456 56 c0 -50 -157 -205 -206 -205 -39 0 -194 157 -194 196 0 12 35 14 200 14 110 0 200 -2 200 -5z"/>
    </g>
</svg>