<svg version="1.0" xmlns="http://www.w3.org/2000/svg" width="320px" height="286px" viewBox="0 0 3200 2860"
     preserveAspectRatio="xMidYMid meet">
    <g id="layer101" fill="#333333" stroke="none">
        <path d="M509 2348 c-23 -16 -45 -46 -69 -95 l-35 -73 -92 0 c-70 0 -95 -4 -107 -16 -14 -14 -16 -54 -14 -327 l3 -312 240 -121 240 -122 5 -243 5 -244 200 -102 200 -102 601 -1 602 0 62 70 62 70 272 0 c252 0 274 1 289 18 15 16 17 53 17 316 0 163 -4 305 -9 314 -5 9 -49 37 -99 61 l-90 44 -4 111 c-8 176 -60 297 -144 332 -40 17 -229 19 -271 3 -42 -16 -77 -54 -104 -112 -13 -29 -24 -53 -25 -55 -1 -2 -73 33 -161 76 l-158 80 -2 84 c-3 161 -56 306 -126 348 -27 17 -51 20 -161 20 -111 0 -133 -3 -161 -20 -32 -20 -95 -122 -95 -154 0 -14 -25 -16 -223 -16 l-222 0 -18 50 c-10 27 -29 63 -43 80 -45 53 -70 60 -207 60 -112 0 -127 -2 -158 -22z m105 -105 c71 -107 78 -357 15 -484 -37 -74 -71 -77 -105 -9 -68 135 -53 423 26 508 28 30 36 28 64 -15z m-265 -218 c35 -18 41 -32 41 -98 0 -113 54 -257 111 -298 87 -62 182 -11 229 122 12 37 24 55 37 56 10 1 122 -50 248 -115 l230 -117 7 -45 c24 -164 31 -197 54 -245 36 -77 83 -115 141 -115 40 0 50 5 88 43 24 24 50 64 60 92 27 74 31 77 73 59 74 -31 72 -23 72 -259 0 -181 -2 -214 -16 -226 -13 -11 -39 -1 -174 66 -144 72 -160 77 -178 64 -11 -8 -77 -80 -147 -161 -69 -82 -130 -148 -135 -148 -6 0 -80 35 -165 77 l-155 78 0 227 c0 124 -3 234 -6 243 -4 9 -111 68 -238 132 -127 63 -234 120 -238 127 -4 6 -8 106 -8 222 0 243 3 254 69 219z m1125 -204 c58 -64 85 -288 51 -421 -18 -71 -57 -140 -79 -140 -21 0 -52 44 -73 103 -26 74 -26 300 0 374 20 57 52 103 71 103 7 0 21 -8 30 -19z m1410 -532 c16 -23 12 -47 -12 -66 -12 -10 -130 -13 -513 -13 -439 0 -499 2 -513 16 -19 18 -20 38 -6 65 10 18 27 19 520 19 507 0 509 0 524 -21z m-294 -189 c24 -24 24 -29 4 -58 -15 -22 -19 -22 -233 -22 -155 0 -220 3 -229 12 -17 17 -15 48 5 70 15 16 35 18 225 18 195 0 209 -1 228 -20z m-576 -102 c10 -13 16 -43 16 -73 0 -80 -16 -95 -104 -95 -43 0 -77 5 -84 12 -15 15 -16 132 -2 159 9 16 22 19 85 19 65 0 76 -3 89 -22z m870 0 c10 -13 16 -43 16 -73 0 -80 -16 -95 -104 -95 -43 0 -77 5 -84 12 -16 16 -16 150 0 166 7 7 41 12 84 12 64 0 75 -3 88 -22z m-302 -80 c24 -20 28 -44 12 -67 -15 -20 -23 -21 -233 -21 -229 0 -241 2 -241 46 0 48 28 54 245 54 146 0 205 -3 217 -12z"/>
    </g>
</svg>