<svg xmlns="http://www.w3.org/2000/svg" width="320px" height="286px" viewBox="0 0 3200 2860"
     preserveAspectRatio="xMidYMid meet">
    <g id="layer101" fill="#333333" stroke="none">
        <path d="M1206 2519 c-15 -12 -47 -61 -71 -110 -33 -64 -53 -93 -75 -104 -16 -8 -103 -26 -193 -39 -91 -13 -174 -29 -185 -35 -31 -16 -37 -33 -62 -155 -12 -60 -27 -121 -33 -135 -6 -14 -69 -108 -139 -207 -71 -100 -133 -195 -139 -212 -14 -41 -12 -44 200 -407 99 -170 181 -318 181 -328 0 -34 -19 -54 -135 -147 -75 -60 -115 -98 -113 -109 2 -12 83 -36 348 -103 l345 -88 515 3 515 2 305 78 c331 84 350 90 350 110 0 8 -50 53 -110 101 -138 110 -140 112 -140 144 0 15 75 154 189 351 104 179 190 333 191 341 6 45 -9 71 -124 209 -69 82 -133 166 -144 187 -11 22 -30 100 -42 174 -23 141 -38 183 -67 194 -9 4 -94 18 -187 32 -117 16 -179 30 -196 42 -14 10 -46 58 -72 108 -29 56 -57 95 -75 106 -25 16 -65 18 -419 18 -383 0 -392 0 -418 -21z"/>
    </g>
    <g id="layer102" fill="#ff931e" stroke="none">
        <path d="M1206 2519 c-15 -12 -47 -61 -71 -110 -33 -64 -53 -93 -75 -104 -16 -8 -103 -26 -193 -39 -91 -13 -174 -29 -185 -35 -31 -16 -37 -33 -62 -155 -12 -60 -27 -121 -33 -135 -6 -14 -69 -108 -139 -207 -71 -100 -133 -195 -139 -212 -14 -41 -12 -44 200 -407 99 -170 181 -318 181 -328 0 -34 -19 -54 -135 -147 -75 -60 -115 -98 -113 -109 2 -12 83 -36 348 -103 327 -83 351 -87 454 -88 l109 0 -25 20 c-32 25 -52 73 -44 105 7 27 254 330 263 321 3 -2 -16 -68 -42 -146 -54 -162 -54 -188 0 -240 20 -19 33 -40 31 -47 -4 -10 17 -13 94 -13 77 0 98 3 94 13 -2 7 11 28 31 47 54 52 54 78 0 240 -26 78 -45 144 -42 146 10 10 257 -295 263 -324 7 -34 -15 -83 -48 -107 -22 -16 -16 -16 107 -12 122 4 150 9 435 81 330 83 350 89 350 109 0 8 -50 53 -110 101 -138 110 -140 112 -140 144 0 15 75 154 189 351 104 179 190 333 191 341 6 45 -9 71 -124 209 -69 82 -133 166 -144 187 -11 22 -30 100 -42 174 -23 141 -38 183 -67 194 -9 4 -94 18 -187 32 -117 16 -179 30 -196 42 -14 10 -46 58 -72 108 -29 56 -57 95 -75 106 -25 16 -65 18 -419 18 -383 0 -392 0 -418 -21z m770 -120 c16 -17 20 -43 26 -143 l7 -121 112 -300 113 -300 1 -244 c0 -217 -2 -245 -17 -254 -12 -8 -42 -1 -128 33 -101 39 -133 60 -117 76 3 3 55 26 117 52 62 26 113 52 113 57 0 6 -105 39 -234 75 -163 46 -234 70 -234 79 0 13 73 36 387 122 l38 10 -71 142 c-39 78 -73 144 -75 146 -13 13 -25 -28 -46 -149 -13 -74 -27 -134 -33 -133 -5 1 -19 50 -31 108 -12 58 -24 108 -27 112 -4 3 -14 -11 -22 -33 -44 -113 -49 -115 -236 -112 -170 3 -178 7 -206 95 -26 83 -29 80 -61 -82 -10 -49 -22 -89 -27 -88 -6 1 -21 65 -34 142 -14 82 -29 141 -35 141 -6 0 -44 -65 -84 -145 l-72 -145 28 -7 c187 -46 397 -112 397 -124 0 -9 -71 -33 -234 -79 -129 -36 -235 -69 -234 -75 0 -5 52 -31 114 -57 150 -61 150 -68 1 -127 -88 -35 -117 -43 -130 -34 -15 9 -17 38 -20 244 -1 144 1 242 8 254 5 11 58 151 116 310 l106 290 7 121 c9 179 -26 164 371 164 320 0 327 0 346 -21z m-1036 -563 c0 -2 -34 -84 -76 -183 -42 -98 -79 -196 -81 -218 -2 -24 16 -140 46 -289 28 -138 51 -257 51 -265 0 -13 -2 -13 -14 -1 -32 35 -376 588 -376 606 0 10 4 24 8 31 4 7 100 82 212 167 179 135 230 169 230 152z m1603 -147 c111 -83 208 -159 215 -167 6 -9 12 -25 12 -36 0 -18 -344 -571 -376 -606 -12 -12 -14 -12 -14 1 0 8 23 127 51 265 35 173 49 263 45 294 -3 25 -30 104 -61 175 -82 187 -96 225 -85 225 6 0 102 -68 213 -151z m-819 -445 c20 -19 20 -21 1 -74 -24 -69 -19 -76 26 -36 26 24 48 36 62 34 27 -4 99 -105 95 -133 -3 -20 -10 -20 -278 -20 -268 0 -275 0 -278 20 -4 28 68 129 95 133 14 2 36 -10 62 -34 45 -40 50 -33 26 36 -19 53 -19 55 1 74 11 12 36 16 94 16 58 0 83 -4 94 -16z m-674 -229 c0 -4 -7 -20 -16 -37 -11 -21 -15 -46 -11 -74 16 -142 203 -184 277 -62 22 36 27 107 9 140 -17 31 -1 35 27 6 27 -27 57 -118 47 -144 -4 -11 5 -10 42 6 26 11 49 19 50 18 2 -2 -81 -75 -183 -163 -204 -176 -210 -184 -186 -263 16 -55 17 -72 5 -72 -11 0 -234 178 -243 194 -12 21 5 34 94 75 l87 40 -31 33 c-17 18 -37 47 -44 65 -29 67 -11 168 38 220 20 22 38 30 38 18z m1197 -17 c75 -83 68 -233 -14 -298 l-25 -19 88 -41 c91 -42 108 -55 96 -76 -9 -16 -232 -194 -243 -194 -13 0 -11 16 7 74 12 38 13 58 5 78 -5 14 -88 94 -185 177 -96 83 -177 155 -181 161 -3 5 14 1 39 -10 l46 -19 0 40 c0 57 45 139 76 139 10 0 10 -6 -2 -27 -49 -96 26 -213 137 -213 108 0 183 119 134 214 -8 15 -15 30 -15 32 0 11 19 1 37 -18z m-1027 -1 c0 -21 -38 -188 -44 -195 -3 -3 -8 -3 -10 -1 -5 5 -46 186 -46 201 0 4 23 8 50 8 34 0 50 -4 50 -13z m915 -24 c-17 -94 -37 -173 -45 -173 -8 0 -28 79 -45 173 l-7 37 52 0 52 0 -7 -37z"/>
    </g>
    <g id="layer103" fill="#fdfdfd" stroke="none">
        <path d="M1360 2287 c-24 -12 -25 -16 -28 -136 -2 -77 1 -122 7 -119 6 1 27 28 48 58 56 81 81 90 243 90 162 0 187 -9 243 -90 21 -30 42 -57 48 -58 6 -3 9 42 7 119 -3 120 -4 124 -28 136 -18 9 -93 13 -270 13 -177 0 -252 -4 -270 -13z"/>
        <path d="M1172 1685 l-72 -145 28 -7 c187 -46 397 -112 397 -124 0 -9 -71 -33 -234 -79 -129 -36 -235 -69 -235 -75 -1 -5 51 -31 114 -57 149 -60 150 -68 10 -124 -58 -24 -113 -43 -123 -44 -10 0 -15 -4 -12 -10 3 -5 -2 -24 -11 -41 -11 -21 -15 -47 -11 -75 21 -190 308 -170 294 21 -2 28 -7 58 -11 68 -7 14 -3 17 22 17 25 0 29 3 25 23 -6 29 65 131 94 135 14 2 36 -10 62 -34 45 -40 50 -33 26 36 -19 53 -19 55 1 74 22 23 166 23 188 0 20 -19 20 -21 1 -74 -24 -69 -19 -76 26 -36 26 24 48 36 62 34 29 -4 100 -106 94 -135 -4 -20 0 -23 29 -23 33 0 33 0 18 -27 -49 -96 26 -213 137 -213 108 0 183 119 134 214 -8 15 -12 32 -9 37 3 5 -3 9 -13 9 -35 1 -228 86 -231 102 -2 11 19 25 75 48 142 58 166 70 159 78 -4 4 -111 36 -239 72 -161 45 -232 70 -232 79 0 13 73 36 387 122 l38 10 -71 142 c-39 78 -73 144 -75 146 -13 13 -25 -28 -46 -149 -13 -74 -27 -134 -33 -133 -5 1 -19 50 -31 108 -12 58 -24 108 -27 112 -4 3 -14 -11 -22 -33 -44 -113 -49 -115 -236 -112 -170 3 -178 7 -206 95 -26 83 -29 79 -61 -80 -9 -48 -21 -88 -27 -88 -5 0 -21 63 -34 140 -14 82 -29 141 -35 141 -6 0 -44 -65 -84 -145z m48 -688 c0 -21 -38 -188 -44 -195 -3 -3 -8 -3 -10 -1 -5 5 -46 186 -46 201 0 4 23 8 50 8 34 0 50 -4 50 -13z m915 -24 c-17 -94 -37 -173 -45 -173 -8 0 -28 79 -45 173 l-7 37 52 0 52 0 -7 -37z"/>
    </g>
</svg>