<!DOCTYPE svg PUBLIC "-//W3C//DTD SVG 20010904//EN" "http://www.w3.org/TR/2001/REC-SVG-20010904/DTD/svg10.dtd">
<svg version="1.0" xmlns="http://www.w3.org/2000/svg" width="316px" height="313px" viewBox="0 0 3160 3130" preserveAspectRatio="xMidYMid meet">
<g id="layer101" fill="#333333" stroke="none">
<path d="M768 2759 c-10 -5 -18 -20 -18 -32 0 -12 30 -111 66 -220 59 -177 68 -198 91 -203 13 -4 35 -2 49 5 19 8 24 18 24 46 0 27 9 45 40 79 23 25 40 53 40 67 0 16 -36 59 -123 146 -68 68 -129 123 -137 123 -8 0 -23 -5 -32 -11z"/>
<path d="M1275 2290 c-215 -32 -398 -159 -507 -350 -53 -94 -101 -288 -77 -314 5 -6 24 -1 48 12 155 88 393 95 556 18 90 -43 168 -126 118 -126 -10 0 -33 -9 -50 -20 -28 -16 -33 -26 -33 -57 0 -30 8 -44 45 -80 48 -45 241 -145 345 -178 30 -10 61 -22 68 -28 11 -9 13 -93 11 -452 -2 -242 0 -446 5 -453 4 -6 13 -12 20 -12 7 0 131 178 276 395 l263 394 161 -6 c247 -9 366 20 374 91 7 59 -146 166 -354 246 -43 16 -86 30 -96 30 -27 0 -37 -30 -35 -109 2 -62 -1 -75 -18 -87 -31 -23 -91 -35 -152 -32 l-55 3 -20 53 c-33 88 -96 171 -176 231 l-73 55 176 176 c96 96 175 181 175 188 0 9 -56 12 -240 12 l-240 0 0 -40 c0 -22 -4 -40 -9 -40 -5 0 -25 18 -45 40 -44 49 -44 49 53 145 98 96 97 104 -17 218 l-87 87 -180 -1 c-99 -1 -202 -5 -230 -9z"/>
<path d="M2380 2282 c-133 -67 -87 -282 61 -282 55 0 59 10 59 146 0 98 -3 126 -16 138 -20 21 -61 20 -104 -2z"/>
</g>
<g id="layer102" fill="#eeaa00" stroke="none">
<path d="M292 2458 c-7 -7 -12 -42 -12 -85 l0 -73 65 -32 c88 -44 89 -66 3 -70 l-63 -3 -3 -160 c-1 -88 0 -170 3 -182 10 -42 38 -37 234 47 l189 81 38 57 c20 31 66 85 102 120 35 34 62 65 60 68 -13 13 -565 244 -583 244 -12 0 -26 -5 -33 -12z"/>
<path d="M1910 2186 c0 -8 4 -17 9 -21 5 -3 12 -19 16 -35 l7 -30 142 0 142 0 -1 48 -1 47 -157 3 c-133 2 -157 0 -157 -12z"/>
<path d="M2570 2150 l0 -50 99 0 c105 0 131 10 131 50 0 36 -38 50 -137 50 l-93 0 0 -50z"/>
</g>


</svg>