<!DOCTYPE svg PUBLIC "-//W3C//DTD SVG 20010904//EN" "http://www.w3.org/TR/2001/REC-SVG-20010904/DTD/svg10.dtd">
<svg version="1.0" xmlns="http://www.w3.org/2000/svg" width="1200px" height="1200px" viewBox="0 0 12000 12000"
     preserveAspectRatio="xMidYMid meet">
    <g id="layer101" fill="#323334" stroke="none">
        <path d="M558 11688 l-38 -22 0 -533 0 -532 27 -58 c28 -59 111 -153 136 -153 7 0 18 -5 25 -12 25 -25 90 -38 195 -38 l107 0 0 -55 c0 -42 -3 -55 -15 -55 -12 0 -15 -13 -15 -59 0 -40 5 -63 15 -71 8 -7 15 -20 15 -30 0 -81 115 -180 209 -180 35 0 118 36 144 62 31 31 57 80 57 107 0 13 20 33 55 58 50 35 55 41 55 76 0 33 -3 37 -25 37 -27 0 -32 9 -14 27 9 9 5 18 -15 38 -14 14 -24 31 -21 36 4 5 39 9 78 9 72 0 137 16 159 38 7 7 18 12 25 12 25 0 108 94 136 153 l27 58 0 532 0 533 -39 22 c-30 17 -55 22 -114 22 -42 0 -88 -6 -103 -12 -22 -10 -28 -10 -32 0 -3 9 -48 12 -178 12 l-174 0 0 -90 c0 -104 -27 -227 -45 -208 -16 15 -35 131 -35 208 l0 90 -174 0 c-114 0 -176 -4 -178 -11 -2 -7 -12 -7 -31 0 -16 6 -63 11 -105 11 -61 0 -85 -5 -114 -22z m367 -301 c5 -56 9 -147 9 -202 1 -118 -9 -128 -76 -71 -23 20 -46 36 -52 36 -7 0 -11 28 -11 73 0 60 -5 80 -27 120 l-27 47 32 0 c18 0 42 7 54 15 23 16 48 78 38 94 -4 7 5 7 23 0 29 -10 29 -11 37 -112z m610 113 c-10 -17 15 -79 38 -95 12 -8 36 -15 54 -15 l32 0 -27 -47 c-22 -40 -27 -60 -27 -120 0 -45 -4 -73 -11 -73 -6 0 -29 -16 -52 -36 -67 -57 -77 -47 -76 71 0 55 4 146 9 202 8 107 9 108 63 122 2 1 0 -4 -3 -9z"/>
        <path d="M10755 11698 c-192 -66 -334 -153 -475 -290 -163 -158 -236 -277 -301 -488 -10 -30 -14 -94 -13 -195 1 -174 16 -239 90 -384 43 -85 60 -109 148 -201 89 -93 203 -165 321 -201 22 -6 51 -15 65 -20 14 -4 67 -13 118 -20 144 -19 303 7 452 73 87 39 168 96 236 168 88 92 105 116 148 201 75 148 90 209 89 389 0 151 -7 204 -42 293 -78 199 -246 396 -453 531 -94 61 -205 115 -299 145 -40 13 -43 13 -84 -1z"/>
        <path d="M3532 11671 c-112 -29 -196 -172 -163 -280 14 -48 31 -54 31 -11 0 25 4 30 24 30 21 0 95 -25 152 -52 17 -8 39 -4 95 17 41 15 89 30 107 32 29 5 33 3 38 -26 11 -53 24 -23 24 55 0 108 -32 167 -116 214 -41 23 -140 34 -192 21z"/>
        <path d="M7893 11627 c-124 -66 -180 -173 -154 -294 19 -84 47 -138 94 -179 75 -64 82 -70 117 -94 77 -54 95 -86 66 -116 -11 -10 -42 -14 -121 -14 -58 0 -127 -5 -153 -11 -173 -40 -276 -176 -243 -323 25 -113 73 -178 158 -216 56 -25 153 -26 220 -4 43 15 170 93 204 126 8 7 27 19 44 26 27 12 31 12 47 -8 20 -25 17 -50 -19 -160 -32 -96 -39 -173 -23 -241 34 -143 120 -209 270 -209 148 0 232 64 269 205 18 67 13 135 -19 235 -46 147 -38 206 26 178 16 -7 34 -17 41 -23 120 -100 217 -144 314 -145 144 0 235 78 270 233 33 149 -70 289 -240 326 -28 6 -99 11 -157 11 -78 0 -109 4 -120 14 -29 30 -11 63 66 116 39 26 44 31 112 90 79 70 122 198 98 293 -32 128 -136 207 -272 207 -86 0 -135 -21 -201 -85 -50 -49 -64 -73 -102 -189 -64 -193 -107 -192 -171 4 -37 110 -49 133 -99 185 -63 64 -112 85 -205 84 -58 0 -84 -5 -117 -22z m395 -544 c37 -26 69 -51 70 -55 5 -10 82 -10 82 0 0 4 15 16 33 27 17 10 49 32 70 49 30 24 42 28 55 20 26 -17 26 -48 -2 -126 -41 -114 -45 -107 107 -221 43 -32 44 -40 17 -67 -17 -17 -33 -20 -120 -20 -112 0 -107 3 -131 -85 -27 -103 -54 -140 -85 -120 -9 6 -30 53 -48 105 l-32 95 -108 5 c-92 4 -110 8 -122 24 -20 28 -18 32 23 63 152 114 149 107 108 219 -28 77 -31 104 -13 122 18 18 24 16 96 -35z"/>
        <path d="M6060 11563 c-58 -8 -279 -68 -363 -99 -27 -10 -93 -14 -245 -14 -179 0 -212 -3 -247 -19 -80 -36 -114 -103 -102 -202 10 -81 66 -138 150 -153 44 -8 45 -27 1 -37 -74 -15 -160 -84 -193 -155 -29 -60 -29 -193 -1 -258 18 -42 80 -134 112 -167 47 -46 59 -99 24 -99 -48 0 -86 -43 -86 -96 0 -49 64 -120 140 -157 60 -29 217 -36 273 -12 163 68 244 306 170 500 -14 38 -30 72 -35 73 -4 2 -8 9 -8 16 0 13 -16 32 -81 101 l-38 40 159 -3 160 -3 0 -213 c0 -124 4 -227 11 -247 56 -178 227 -341 342 -326 49 7 76 37 77 85 0 17 3 32 6 32 3 0 21 -15 40 -34 44 -44 131 -86 178 -86 26 0 44 7 61 25 23 22 25 31 25 128 l0 103 59 61 c33 33 69 82 81 108 23 51 50 144 50 174 0 12 13 22 43 31 23 7 46 17 51 22 6 4 17 8 26 8 9 0 26 10 38 23 19 20 22 35 22 114 0 96 -4 105 -60 130 -14 6 -50 22 -80 36 -78 35 -124 55 -151 65 -19 8 -14 10 31 16 110 15 170 80 170 183 -1 74 -23 119 -78 158 -42 29 -47 30 -173 33 l-130 4 -64 44 c-34 24 -69 44 -77 44 -8 0 -19 5 -25 11 -12 12 -202 21 -263 12z"/>
        <path d="M8330 9243 c-60 -22 -150 -76 -196 -118 -6 -5 -46 -41 -87 -78 -42 -37 -91 -82 -109 -99 -18 -17 -53 -47 -78 -67 -137 -109 -293 -268 -323 -328 -42 -85 -52 -136 -37 -201 13 -58 54 -129 99 -170 37 -34 148 -105 201 -128 91 -41 266 -87 385 -103 167 -23 424 -11 570 25 96 25 197 56 245 78 53 23 164 94 201 128 45 41 86 112 99 170 32 141 -64 283 -338 503 -28 23 -44 37 -178 161 -153 142 -178 163 -196 170 -10 3 -18 9 -18 14 0 4 -8 10 -17 13 -10 4 -36 13 -58 21 -39 15 -134 20 -165 9z m118 -430 c-27 -2 -69 -2 -95 0 -27 2 -5 3 47 3 52 0 74 -1 48 -3z m-340 -47 c48 -32 108 -51 210 -66 126 -19 289 10 374 66 21 13 44 24 52 24 24 0 30 -22 10 -37 -10 -7 -26 -19 -34 -26 -41 -33 -112 -56 -227 -71 -149 -21 -342 13 -413 71 -8 7 -24 19 -34 26 -20 15 -14 37 10 37 8 0 31 -11 52 -24z m-175 -46 c10 -16 35 -42 55 -57 20 -15 39 -30 42 -33 3 -3 16 -10 30 -16 124 -56 177 -66 340 -66 163 0 216 10 340 66 14 6 27 13 30 16 3 3 22 18 42 33 20 15 45 41 55 57 24 41 33 38 33 -12 0 -38 -5 -47 -49 -88 -27 -25 -61 -51 -75 -58 -67 -31 -117 -47 -193 -62 -52 -11 -66 -10 -79 1 -23 19 -172 19 -207 0 -22 -12 -36 -12 -84 -2 -77 17 -126 34 -189 63 -14 7 -48 33 -75 58 -44 41 -49 50 -49 88 0 50 9 53 33 12z m-89 -129 c50 -72 230 -171 312 -171 27 0 31 -18 12 -53 -7 -12 -13 -23 -14 -25 -2 -7 -194 63 -231 84 -86 50 -163 153 -148 197 3 7 10 26 16 42 l12 30 7 -33 c4 -18 20 -50 34 -71z m1174 52 c8 -23 7 -42 -1 -69 -13 -42 -80 -113 -140 -148 -37 -21 -229 -91 -231 -84 -1 2 -7 13 -13 25 -20 35 -16 53 11 53 48 0 168 51 244 104 50 35 102 109 102 145 0 30 13 18 28 -26z m-1300 -125 c17 -42 111 -132 172 -165 30 -17 80 -38 110 -48 30 -10 65 -21 78 -26 13 -5 33 -9 46 -9 20 0 25 -7 33 -49 l10 -50 -31 6 c-123 21 -251 70 -334 126 -126 84 -167 176 -125 279 l18 43 6 -40 c3 -22 11 -52 17 -67z m1422 -11 c1 -144 -185 -272 -486 -332 -20 -4 -21 -3 -11 45 8 43 13 50 33 50 13 0 33 4 46 9 13 5 48 16 78 26 163 52 298 182 301 289 l1 31 19 -40 c10 -22 19 -57 19 -78z m-1500 -137 c31 -48 82 -100 99 -100 5 0 11 -4 13 -8 5 -15 130 -79 193 -100 62 -20 109 -32 209 -52 34 -7 76 -25 101 -42 81 -57 203 -58 286 -2 28 19 73 37 106 44 99 20 146 32 208 52 63 21 188 85 193 100 2 4 8 8 13 8 17 0 68 52 99 100 16 25 36 73 43 106 l14 59 18 -35 c29 -55 25 -146 -8 -202 -108 -184 -440 -308 -827 -308 -387 0 -719 124 -827 308 -33 56 -37 147 -8 202 l18 35 14 -59 c7 -33 27 -81 43 -106z m826 -2 c60 -16 124 -71 124 -106 0 -42 -39 -109 -83 -144 -37 -30 -48 -33 -107 -33 -59 0 -70 3 -107 33 -45 35 -83 102 -83 145 0 48 101 113 182 116 15 1 48 -5 74 -11z"/>
        <path d="M10640 9136 c-47 -12 -105 -33 -130 -46 -133 -68 -258 -181 -322 -289 l-33 -56 -167 -3 -168 -2 0 -215 c0 -157 3 -215 12 -215 6 0 60 25 119 55 59 30 112 55 118 55 7 0 11 -26 11 -67 0 -38 5 -86 10 -108 22 -86 42 -145 51 -151 5 -3 9 -11 9 -18 0 -26 74 -136 133 -199 148 -156 338 -237 551 -237 l96 0 0 200 c0 110 3 200 6 200 3 0 18 -6 32 -14 95 -49 180 -63 275 -46 71 12 143 40 182 70 11 8 96 90 190 182 l170 168 -76 77 c-89 92 -131 150 -183 256 -39 80 -92 154 -155 218 -41 42 -204 149 -225 149 -8 0 -17 4 -20 9 -6 9 -10 10 -121 35 -103 23 -260 20 -365 -8z"/>
        <path d="M2640 9015 c0 -90 21 -143 84 -208 38 -40 58 -53 139 -86 20 -8 200 -11 622 -11 l595 0 0 85 c0 47 -6 106 -12 131 -13 48 -58 104 -113 138 -40 26 -156 27 -204 2 -74 -39 -112 -98 -119 -183 -2 -34 -8 -63 -12 -63 -4 0 -10 27 -14 61 -8 80 -38 132 -100 171 -44 29 -57 32 -121 32 -57 -1 -77 -5 -110 -26 -73 -46 -115 -120 -115 -198 l0 -40 -110 0 c-134 0 -181 13 -235 65 -51 50 -65 81 -65 150 l0 55 -55 0 -55 0 0 -75z m821 -76 c23 -25 29 -40 29 -75 l0 -44 -110 0 c-82 0 -110 3 -110 13 0 31 22 83 47 109 21 22 35 28 71 28 36 0 49 -5 73 -31z m458 10 c27 -25 41 -60 41 -100 l0 -29 -111 0 -112 0 7 48 c3 26 11 49 16 50 6 2 10 9 10 15 0 37 114 49 149 16z"/>
        <path d="M731 9056 c-7 -8 -11 -30 -9 -48 3 -32 5 -33 49 -36 31 -2 53 -10 64 -23 17 -18 17 -20 0 -39 -17 -18 -31 -20 -164 -20 -80 0 -152 -4 -159 -9 -8 -5 -12 -23 -10 -47 l3 -39 199 -3 c204 -2 226 -7 226 -43 0 -32 -34 -39 -184 -39 -135 0 -146 -1 -156 -20 -6 -11 -8 -31 -4 -45 6 -23 10 -25 69 -25 78 0 115 -23 96 -58 -11 -21 -17 -22 -186 -22 -144 0 -176 -3 -189 -16 -19 -18 -20 -38 -6 -65 10 -18 24 -19 248 -19 244 -1 272 -5 272 -42 0 -31 -43 -38 -260 -41 l-215 -2 -3 -35 c-6 -55 11 -60 180 -60 140 0 148 -1 159 -21 16 -30 -9 -52 -68 -59 l-48 -5 0 -40 0 -40 135 -5 c74 -3 141 -9 148 -13 16 -11 15 -42 -1 -56 -9 -7 -86 -12 -213 -13 l-199 -3 -3 -39 c-2 -24 2 -42 10 -47 7 -5 108 -9 225 -9 179 0 214 -2 227 -16 20 -20 20 -27 -2 -47 -13 -12 -37 -17 -81 -17 -57 0 -62 -2 -72 -26 -7 -20 -6 -32 6 -50 l15 -24 338 0 c403 0 446 6 602 74 69 30 250 185 250 214 0 6 6 17 13 24 45 46 107 254 107 358 0 118 -49 271 -121 377 -38 56 -146 163 -165 163 -16 0 -78 -34 -120 -65 -43 -33 -87 -127 -92 -196 -5 -70 20 -160 56 -198 7 -7 22 -31 33 -53 20 -39 20 -42 4 -78 -16 -35 -34 -50 -78 -64 -10 -3 -39 2 -65 11 -57 20 -186 22 -233 3 -95 -38 -165 -113 -191 -205 l-15 -48 -19 29 c-35 51 -44 82 -34 110 6 14 10 36 10 50 0 40 -47 120 -90 155 -22 18 -40 36 -40 41 0 5 16 18 35 29 37 22 44 45 23 80 -10 17 -10 23 0 26 7 3 12 21 12 43 0 22 6 43 16 51 12 10 15 24 10 59 -6 43 -4 48 19 58 14 7 56 12 94 12 63 0 71 3 107 34 38 33 39 35 39 103 0 60 -3 72 -25 94 -44 44 -77 49 -330 49 -194 0 -240 -3 -249 -14z m362 -100 c23 -17 22 -43 -2 -56 -11 -5 -51 -10 -89 -10 -54 0 -72 4 -85 18 -15 16 -15 20 -1 40 13 19 24 22 87 22 44 -1 79 -6 90 -14z m-213 -361 c28 -33 -17 -69 -50 -40 -15 13 -17 22 -9 36 12 23 42 25 59 4z m94 -358 c25 -41 -79 -76 -135 -47 -22 12 -25 40 -7 58 20 20 128 11 142 -11z m136 -364 c0 -24 -31 -43 -52 -32 -23 12 -23 45 -1 58 22 12 53 -3 53 -26z"/>
        <path d="M5745 8988 c-52 -27 -75 -47 -75 -67 0 -19 169 -191 187 -191 22 0 16 113 -8 168 -34 77 -52 112 -58 112 -3 -1 -24 -10 -46 -22z"/>
        <path d="M5581 8791 c-13 -9 -30 -74 -31 -123 l0 -28 160 0 160 0 0 24 c0 20 -10 28 -67 51 -64 25 -88 35 -171 71 -38 16 -34 16 -51 5z"/>
        <path d="M2640 8462 c0 -213 22 -291 125 -447 35 -53 123 -141 172 -172 15 -9 30 -20 33 -23 11 -13 120 -61 185 -81 100 -32 302 -32 393 0 155 53 228 96 320 187 l52 53 258 3 c272 3 281 5 338 55 36 31 45 61 45 143 0 88 -19 139 -82 225 -43 59 -78 91 -139 131 -94 62 -169 84 -287 84 l-93 0 0 -91 0 -92 -43 39 c-66 59 -78 68 -132 94 -100 48 -110 49 -642 50 l-503 0 0 -158z m520 26 c1 -42 59 -190 96 -246 99 -149 249 -240 428 -258 62 -6 67 -8 50 -21 -10 -7 -27 -20 -37 -29 -23 -19 -139 -72 -197 -90 -59 -18 -225 -18 -292 0 -29 8 -72 24 -95 35 -23 12 -47 21 -53 21 -5 0 -10 5 -10 10 0 6 -7 10 -15 10 -20 0 -174 154 -200 200 -58 105 -85 200 -85 308 l0 82 205 0 205 0 0 -22z m509 1 c90 -29 165 -84 238 -173 36 -44 34 -59 -19 -163 l-32 -63 -86 0 c-104 0 -227 38 -295 90 -25 19 -96 90 -115 115 -23 30 -61 114 -76 168 l-12 47 167 0 c142 0 177 -3 230 -21z m500 1 c53 -18 138 -68 177 -105 22 -22 76 -102 90 -134 38 -90 1 -161 -82 -161 -77 0 -159 51 -234 146 -59 74 -58 72 -49 116 4 24 8 69 9 101 0 66 0 66 89 37z m-106 -366 l29 -34 -52 0 c-28 0 -49 4 -46 9 3 4 10 20 15 35 13 33 20 32 54 -10z"/>
        <path d="M5511 8316 c-9 -10 1 -44 44 -147 30 -73 60 -138 65 -143 18 -18 130 51 130 80 0 13 -207 224 -220 224 -4 0 -13 -6 -19 -14z"/>
        <path d="M5422 8269 c-7 -22 -22 -61 -33 -87 -12 -26 -26 -58 -31 -72 -6 -14 -17 -38 -25 -53 -9 -16 -11 -32 -7 -36 14 -12 89 -31 123 -31 l31 0 0 160 c0 159 0 160 -23 160 -17 0 -25 -9 -35 -41z"/>
        <path d="M6648 8303 c-23 -6 -23 -16 2 -38 20 -18 27 -55 13 -69 -5 -5 -8 -33 -8 -63 0 -48 -3 -58 -27 -76 -23 -17 -31 -18 -59 -8 -29 10 -37 9 -59 -8 -25 -19 -27 -31 -14 -84 12 -52 -67 -102 -104 -65 -9 9 -17 8 -37 -2 -21 -11 -25 -21 -25 -57 0 -51 37 -112 97 -162 67 -55 104 -37 138 67 14 42 25 56 60 76 37 22 55 40 103 101 4 6 11 18 15 28 3 9 12 17 19 17 23 0 138 59 144 74 12 30 -104 166 -142 166 -7 0 -20 15 -29 34 -17 36 -51 77 -63 75 -4 -1 -15 -3 -24 -6z"/>
        <path d="M8328 7808 c-47 -27 -63 -59 -62 -122 0 -86 50 -136 134 -136 84 0 134 50 134 136 1 64 -16 96 -64 123 -48 27 -95 26 -142 -1z m130 -89 c28 -11 29 -47 1 -83 -28 -36 -82 -36 -116 0 -35 38 -28 74 17 90 34 12 50 11 98 -7z"/>
        <path d="M3348 6921 c-100 -20 -230 -112 -290 -207 -66 -103 -86 -257 -49 -381 19 -63 69 -153 108 -191 11 -11 10 -19 -4 -45 -32 -58 -31 -58 -76 -34 -33 17 -63 23 -137 25 -91 3 -97 2 -139 -26 -24 -16 -56 -49 -72 -72 -25 -37 -29 -52 -29 -115 0 -92 10 -108 186 -283 173 -172 181 -175 378 -180 164 -4 219 5 276 46 106 76 120 117 120 357 l0 185 29 0 30 0 3 -352 3 -353 27 -50 c33 -62 51 -83 109 -123 59 -40 124 -56 202 -50 82 7 131 31 194 95 88 88 88 88 88 398 0 229 -3 281 -19 340 -19 72 -70 190 -93 213 -7 7 -13 15 -13 17 0 2 19 32 43 67 68 99 82 145 81 273 -1 99 -4 116 -29 170 -69 149 -183 244 -330 276 -48 10 -544 10 -597 0z"/>
        <path d="M5253 6867 c-18 -12 -35 -28 -38 -35 -4 -12 25 -59 66 -105 9 -10 21 -34 27 -55 18 -64 41 -156 44 -177 3 -21 13 -27 213 -121 261 -122 285 -135 285 -157 0 -11 4 -36 10 -56 5 -20 12 -48 15 -63 4 -21 19 -33 71 -58 36 -18 66 -31 68 -29 2 2 -5 38 -15 79 -10 41 -26 111 -36 155 l-19 80 -70 35 c-39 19 -113 55 -165 79 -90 42 -241 113 -247 117 -1 1 -9 30 -18 65 -33 140 -37 149 -87 206 -27 32 -55 59 -61 60 -6 1 -26 -8 -43 -20z"/>
        <path d="M10830 6635 l0 -135 -115 -115 -115 -116 0 -99 0 -100 80 0 80 0 0 68 0 67 115 115 115 115 0 92 0 93 145 0 145 0 0 -402 0 -402 27 -28 27 -28 -40 0 c-31 0 -49 -8 -89 -41 -119 -99 -324 -158 -477 -138 -74 10 -123 22 -168 41 -58 24 -143 71 -167 91 -81 68 -98 86 -139 143 -104 146 -134 281 -134 606 0 183 -2 218 -14 218 -8 0 -17 -4 -20 -9 -4 -5 -31 -17 -61 -26 -30 -10 -59 -23 -63 -29 -9 -11 -53 -169 -48 -173 1 -1 40 11 86 27 46 16 86 28 87 26 3 -3 -91 -86 -143 -126 -47 -36 -58 -68 -51 -156 3 -42 8 -78 11 -81 3 -3 31 18 63 47 86 76 99 80 58 16 -19 -30 -35 -57 -35 -60 0 -3 -15 -31 -34 -63 -30 -52 -33 -63 -26 -98 18 -79 23 -95 31 -101 5 -3 9 -14 9 -25 0 -25 30 -25 37 1 3 11 8 20 12 20 4 0 22 29 41 65 19 35 35 63 37 61 2 -2 -4 -43 -12 -92 -37 -204 -37 -205 -8 -249 15 -22 43 -58 64 -80 37 -39 38 -39 42 -15 13 63 26 139 33 185 l7 50 8 -45 c4 -25 15 -85 25 -135 9 -49 20 -110 24 -134 5 -28 16 -52 31 -63 35 -29 141 -89 146 -84 6 5 -35 265 -43 278 -3 4 -3 8 0 8 3 0 13 -17 23 -37 9 -20 42 -77 72 -127 29 -50 66 -113 81 -140 23 -40 35 -52 68 -61 46 -14 162 -28 162 -20 0 3 -34 62 -76 131 -41 70 -73 129 -70 131 5 5 85 -56 116 -87 8 -9 37 -34 65 -55 27 -22 59 -49 71 -60 65 -62 76 -66 139 -60 69 8 135 25 135 35 0 4 -15 19 -32 33 -18 14 -42 33 -53 44 -11 10 -40 34 -65 53 -25 19 -47 37 -50 40 -3 3 -24 22 -48 43 -23 20 -38 37 -34 37 5 0 12 -3 15 -7 4 -4 35 -16 70 -29 115 -40 212 -75 232 -84 90 -39 195 -62 195 -42 0 4 12 13 28 19 15 7 43 26 62 42 l35 29 -40 17 c-60 26 -76 33 -125 49 -25 8 -76 27 -115 41 -38 15 -86 32 -105 38 -29 10 15 13 253 17 l287 5 -135 135 -135 135 0 442 0 443 -305 0 -305 0 0 -135z"/>
        <path d="M982 6568 c-7 -7 -12 -19 -12 -27 0 -17 192 -211 209 -211 14 0 41 24 41 37 0 12 -203 213 -215 213 -6 0 -16 -5 -23 -12z"/>
        <path d="M1342 6523 c-35 -39 -42 -53 -42 -88 0 -46 13 -31 -224 -265 -71 -69 -83 -100 -41 -100 17 0 46 21 92 65 l68 65 5 -131 5 -130 85 86 c80 80 87 85 127 85 24 0 43 -2 43 -5 0 -3 -9 -15 -20 -27 -11 -12 -20 -31 -20 -42 0 -14 -91 -112 -267 -288 l-268 -268 -335 0 -335 0 -22 -24 c-13 -13 -23 -27 -23 -30 0 -3 168 -6 373 -6 l374 0 281 282 c211 211 282 287 282 305 0 13 11 34 25 47 23 21 25 31 25 105 0 94 -8 100 -60 46 -29 -30 -41 -35 -79 -35 -41 0 -50 -5 -93 -47 l-48 -47 0 46 c0 44 3 49 68 107 61 55 71 61 112 61 41 0 51 5 98 50 29 27 52 54 52 60 0 5 -17 10 -38 10 -29 0 -45 -7 -67 -30 -24 -25 -37 -30 -74 -30 l-46 0 3 49 c3 38 10 55 33 77 21 20 29 37 29 61 0 48 -27 43 -78 -14z"/>
        <path d="M1493 6522 c-51 -54 -56 -82 -15 -82 40 0 92 56 92 98 0 45 -25 40 -77 -16z"/>
        <path d="M912 6498 c-7 -7 -12 -16 -12 -20 0 -11 204 -218 214 -218 12 0 36 28 36 42 0 19 -192 208 -211 208 -8 0 -20 -5 -27 -12z"/>
        <path d="M852 6438 c-7 -7 -12 -19 -12 -27 0 -17 192 -211 209 -211 14 0 41 24 41 37 0 12 -203 213 -215 213 -6 0 -16 -5 -23 -12z"/>
        <path d="M1592 6362 c-62 -56 -66 -72 -16 -72 29 0 45 9 90 51 30 29 54 56 54 60 0 5 -17 9 -37 9 -31 -1 -48 -10 -91 -48z"/>
        <path d="M830 6318 c0 -40 5 -48 74 -115 41 -40 77 -73 81 -73 11 0 35 28 35 42 0 13 -169 188 -182 188 -5 0 -8 -19 -8 -42z"/>
        <path d="M7750 6317 c-68 -24 -136 -65 -175 -108 -79 -86 -115 -169 -115 -270 0 -75 -9 -89 -60 -89 -52 0 -70 -24 -70 -91 1 -96 -34 -89 468 -89 l441 0 18 23 c17 21 26 22 138 22 111 0 122 -2 143 -23 l22 -22 443 2 442 3 3 73 c4 89 -5 102 -64 102 l-44 0 0 38 c0 64 -21 154 -49 212 -22 47 -96 133 -142 165 -95 67 -262 86 -369 42 -80 -33 -145 -81 -189 -140 -44 -59 -81 -160 -81 -223 0 -51 -6 -54 -108 -54 -117 0 -118 1 -126 73 -16 150 -92 258 -232 328 -63 31 -78 34 -164 36 -54 1 -110 -3 -130 -10z"/>
        <path d="M5530 6287 c0 -5 18 -94 30 -147 4 -19 11 -43 15 -52 6 -14 2 -18 -18 -18 -39 0 -110 -59 -125 -105 -16 -48 -9 -121 14 -146 16 -17 18 -17 53 9 20 15 43 34 51 42 8 8 34 30 57 48 l43 33 62 -30 c35 -16 124 -58 198 -93 74 -35 174 -81 222 -103 71 -32 87 -44 88 -62 0 -12 4 -32 9 -45 5 -13 15 -50 21 -83 7 -33 21 -93 32 -134 15 -60 16 -76 6 -82 -7 -5 -16 -9 -19 -9 -13 0 -45 -36 -57 -63 -15 -35 -15 -79 0 -112 13 -28 30 -32 55 -11 10 8 43 35 74 59 l55 45 60 -14 c99 -24 257 -57 297 -61 l37 -5 0 76 c0 42 -3 76 -7 76 -5 0 -21 12 -38 26 -16 14 -57 44 -90 67 -33 22 -63 45 -67 51 -4 6 -8 80 -8 164 l0 152 -56 25 c-31 14 -58 25 -60 25 -2 0 -4 -96 -4 -214 l0 -213 43 -29 c51 -34 32 -44 -41 -20 -48 16 -48 16 -61 79 -7 34 -21 94 -31 132 -9 39 -23 97 -30 130 -15 74 -27 105 -40 105 -5 0 -63 25 -127 56 -273 130 -322 154 -396 189 -62 30 -78 43 -83 64 -6 29 -24 107 -30 133 -6 19 -134 82 -134 65z"/>
        <path d="M6546 6246 c-43 -37 -44 -35 19 -111 25 -30 45 -65 49 -87 8 -44 12 -44 -99 10 -38 19 -104 50 -145 69 -41 19 -90 42 -108 50 -18 9 -35 13 -38 10 -3 -3 1 -35 10 -71 17 -71 44 -189 51 -221 4 -19 13 -25 98 -60 l39 -16 -6 33 c-4 18 -12 52 -18 76 -6 23 -8 45 -5 48 3 3 50 -15 104 -41 54 -26 127 -61 163 -77 36 -17 78 -37 93 -45 16 -8 31 -12 34 -9 4 3 1 27 -6 54 -26 100 -46 191 -58 252 -3 19 -9 37 -12 40 -4 3 -25 27 -46 55 -51 64 -62 75 -72 75 -4 -1 -26 -16 -47 -34z"/>
        <path d="M1376 6239 c-36 -28 -33 -39 12 -39 34 0 92 34 92 54 0 16 -79 5 -104 -15z"/>
        <path d="M830 6187 c0 -38 5 -49 40 -80 30 -28 48 -37 75 -37 21 0 35 5 35 13 0 12 -131 147 -143 147 -4 0 -7 -20 -7 -43z"/>
        <path d="M11122 6170 c-45 -32 -60 -73 -47 -129 8 -38 61 -81 98 -81 l27 0 0 120 c0 138 -5 143 -78 90z"/>
        <path d="M740 6005 c-18 -19 -20 -26 -9 -30 8 -3 87 -4 174 -3 l160 3 3 28 3 27 -154 0 c-150 0 -154 0 -177 -25z"/>
        <path d="M1514 6015 c-14 -35 3 -45 79 -45 41 0 77 3 80 7 4 3 -3 17 -15 30 -18 19 -32 23 -80 23 -43 0 -60 -4 -64 -15z"/>
        <path d="M656 5919 c-14 -11 -26 -25 -26 -30 0 -5 75 -9 178 -9 174 0 179 1 200 23 12 13 22 26 22 30 0 4 -78 7 -174 7 -160 0 -175 -2 -200 -21z"/>
        <path d="M1456 5919 c-14 -11 -26 -25 -26 -30 0 -5 72 -9 170 -9 98 0 170 4 170 9 0 5 -12 19 -26 30 -24 19 -40 21 -144 21 -104 0 -120 -2 -144 -21z"/>
        <path d="M568 5833 c-37 -43 -38 -43 151 -43 173 0 181 1 201 22 11 12 20 25 20 30 0 4 -80 8 -178 8 -158 0 -181 -2 -194 -17z"/>
        <path d="M1460 5842 c0 -5 9 -18 20 -30 20 -21 28 -22 201 -22 189 0 188 0 151 43 -13 15 -36 17 -194 17 -98 0 -178 -4 -178 -8z"/>
        <path d="M472 5737 c-42 -44 -34 -47 150 -47 l172 0 28 27 c15 15 28 30 28 35 0 4 -80 8 -178 8 -174 0 -179 -1 -200 -23z"/>
        <path d="M1550 5753 c0 -4 12 -20 27 -35 l27 -28 173 0 c186 0 197 4 150 48 -22 21 -32 22 -200 22 -97 0 -177 -3 -177 -7z"/>
        <path d="M1242 5708 c-7 -7 -12 -17 -12 -23 0 -7 57 -69 127 -138 l127 -127 373 0 c205 0 373 3 373 8 0 4 -11 17 -24 30 -24 22 -25 22 -358 22 l-333 0 -120 120 c-66 66 -124 120 -130 120 -6 0 -16 -5 -23 -12z"/>
        <path d="M386 5649 c-14 -11 -26 -25 -26 -30 0 -5 75 -9 178 -9 174 0 179 1 200 23 12 13 19 27 15 30 -3 4 -81 7 -173 7 -154 0 -169 -2 -194 -21z"/>
        <path d="M1647 5663 c-4 -3 3 -17 15 -30 21 -22 26 -23 200 -23 103 0 178 4 178 9 0 5 -12 19 -26 30 -25 19 -40 21 -194 21 -92 0 -170 -3 -173 -7z"/>
        <path d="M286 5549 c-14 -11 -26 -25 -26 -30 0 -5 75 -9 178 -9 174 0 179 1 200 23 12 13 22 26 22 30 0 4 -78 7 -174 7 -160 0 -175 -2 -200 -21z"/>
        <path d="M1740 5562 c0 -5 10 -18 23 -30 22 -21 32 -22 200 -22 102 0 177 4 177 9 0 5 -12 19 -26 30 -25 19 -40 21 -200 21 -96 0 -174 -4 -174 -8z"/>
        <path d="M10219 4454 c-11 -13 -5 -38 37 -162 l49 -147 40 0 c36 0 40 3 43 28 2 16 17 43 33 59 16 17 29 38 29 47 0 8 -39 55 -87 103 -89 90 -117 104 -144 72z"/>
        <path d="M5670 4450 c-82 -12 -147 -37 -222 -86 -92 -62 -146 -131 -247 -319 -9 -16 -18 -32 -21 -35 -3 -3 -15 -25 -27 -50 -54 -114 -70 -211 -54 -319 23 -146 62 -224 163 -324 65 -63 80 -84 84 -115 22 -170 140 -330 299 -406 101 -48 118 -51 355 -51 237 0 254 3 355 51 160 76 277 236 299 407 4 31 18 51 79 110 103 100 144 180 167 328 17 108 1 205 -54 319 -36 77 -142 253 -185 307 -51 65 -156 135 -246 164 -100 32 -253 32 -347 -1 l-68 -24 -62 21 c-73 25 -189 35 -268 23z m209 -76 l40 -16 -54 -54 -54 -54 -65 0 c-62 0 -77 -4 -154 -37 -32 -14 -77 -54 -114 -101 -28 -34 -44 -73 -57 -136 -31 -144 47 -301 184 -366 63 -30 63 -30 244 -30 179 0 182 0 191 -22 10 -23 21 -41 54 -91 l19 -29 -239 4 c-170 3 -248 8 -269 17 -96 43 -125 61 -176 111 -101 99 -149 210 -149 345 0 211 128 382 345 459 56 20 204 20 254 0z m497 1 c116 -47 185 -95 249 -175 l20 -24 -26 16 c-84 53 -282 74 -399 43 -130 -35 -272 -144 -331 -255 -13 -25 -26 -47 -30 -50 -3 -3 -13 -21 -23 -40 -9 -19 -31 -57 -48 -85 -17 -27 -42 -72 -56 -98 -14 -27 -31 -51 -38 -54 -12 -4 -114 42 -114 52 0 10 55 110 63 113 4 2 7 8 7 12 0 5 29 59 65 120 36 61 65 115 65 121 0 5 5 9 10 9 6 0 10 5 10 10 0 19 66 115 106 156 68 68 93 84 189 120 75 28 221 33 281 9z m-636 -244 c-17 -33 -37 -64 -43 -69 -7 -5 -43 -12 -82 -15 -38 -3 -79 -9 -90 -13 -19 -8 -19 -7 2 27 42 67 136 124 211 128 l32 1 -30 -59z m724 48 c45 -12 83 -26 106 -40 8 -5 31 -18 50 -28 48 -28 89 -67 130 -126 70 -100 85 -150 85 -275 0 -88 -4 -115 -24 -165 -35 -85 -131 -212 -151 -200 -4 3 -10 24 -14 47 -3 24 -9 58 -12 77 -4 18 -2 36 3 40 5 3 22 32 36 63 30 64 37 167 15 242 -15 50 -76 136 -120 169 -69 51 -107 62 -208 61 -86 0 -100 -3 -149 -30 -59 -32 -126 -92 -142 -127 -12 -26 -19 -39 -90 -157 l-53 -90 -73 0 c-40 0 -73 4 -73 8 0 5 25 50 55 100 30 50 55 96 55 102 0 5 5 10 10 10 6 0 10 6 10 13 0 8 24 49 53 92 71 106 168 178 284 209 61 17 164 19 217 5z m-850 -267 c-20 -37 -45 -79 -55 -94 -11 -14 -19 -31 -19 -37 0 -19 -16 -12 -27 12 -39 80 -42 131 -7 153 27 18 124 44 137 37 4 -2 -9 -34 -29 -71z m826 57 c49 -12 80 -36 80 -63 0 -25 -15 -77 -33 -113 -11 -24 -27 -31 -27 -12 0 6 -8 23 -19 37 -22 32 -91 157 -91 166 0 6 18 3 90 -15z m-127 -65 c20 -36 37 -70 37 -75 0 -5 3 -9 8 -9 4 0 14 -15 21 -32 8 -18 29 -55 46 -83 28 -44 59 -99 123 -218 33 -61 44 -108 44 -196 0 -96 -9 -136 -50 -221 -29 -60 -150 -190 -176 -190 -9 0 -16 -3 -16 -8 0 -15 -142 -65 -172 -60 -22 3 -21 4 8 20 42 23 131 114 161 166 34 57 59 133 73 218 15 97 -6 218 -56 323 -21 42 -40 78 -44 81 -3 3 -10 12 -14 20 -4 8 -12 24 -19 35 -11 19 -88 152 -114 198 -11 20 -9 25 19 47 31 24 68 47 78 49 3 0 22 -29 43 -65z m-1074 -158 c56 -173 150 -267 356 -356 21 -9 110 -15 290 -19 l260 -6 3 -67 3 -68 -284 0 c-156 0 -297 4 -313 9 -16 5 -49 15 -74 22 -43 12 -133 66 -175 105 -36 33 -90 117 -115 179 -21 51 -25 77 -25 165 0 58 5 119 12 135 6 17 15 39 19 50 5 15 9 7 14 -31 4 -29 17 -81 29 -118z m1370 79 c15 -32 21 -64 21 -114 0 -97 -37 -177 -57 -123 -4 9 -20 39 -36 65 -26 43 -28 50 -14 65 23 26 44 73 51 115 4 20 8 37 10 37 2 0 13 -20 25 -45z m-440 -84 c28 -45 56 -96 63 -112 7 -16 16 -29 20 -29 5 0 8 -4 8 -10 0 -5 13 -31 29 -57 49 -79 65 -138 65 -243 1 -58 -5 -113 -14 -140 -15 -47 -56 -127 -74 -146 -6 -6 -25 -26 -42 -46 -47 -54 -114 -96 -212 -132 -62 -23 -202 -21 -272 5 -30 11 -63 23 -72 26 -10 3 -18 9 -18 14 0 5 -7 9 -16 9 -26 0 -147 130 -176 190 -28 58 -52 129 -46 135 3 3 138 -32 143 -37 2 -2 17 -27 35 -55 66 -109 164 -163 295 -163 78 0 133 17 201 64 44 30 105 116 122 172 26 88 9 217 -37 283 -10 14 -35 58 -56 96 -20 39 -46 84 -57 102 l-19 32 36 55 c19 30 35 61 35 67 0 18 4 12 59 -80z m-343 -628 c16 -25 42 -60 59 -76 l30 -30 -52 5 c-61 6 -125 37 -175 86 -56 53 -51 62 35 62 l73 0 30 -47z m278 20 c-19 -30 -46 -57 -81 -80 -20 -14 -26 -14 -45 0 -36 23 -63 50 -82 80 l-18 27 122 0 122 0 -18 -27z"/>
        <path d="M1060 4293 c-63 -22 -100 -47 -115 -79 -20 -42 -15 -51 33 -63 21 -6 60 -31 87 -56 83 -77 142 -92 205 -54 42 26 57 45 64 82 4 19 12 27 27 27 28 0 85 -61 94 -99 4 -20 13 -31 23 -31 20 0 80 35 102 59 30 33 86 69 119 76 31 7 33 9 27 38 -12 60 -98 107 -196 107 -69 0 -124 -19 -165 -56 l-33 -29 -36 31 c-19 17 -53 36 -74 42 -40 12 -134 15 -162 5z"/>
        <path d="M10509 4126 c-109 -37 -173 -81 -240 -166 -56 -71 -99 -181 -99 -257 0 -38 14 -42 62 -17 82 42 197 56 282 33 65 -18 128 -49 146 -72 17 -20 16 -21 -14 -38 -45 -24 -46 -60 -4 -102 33 -34 133 -93 196 -115 17 -7 45 -17 62 -23 l30 -11 2 -312 c3 -310 3 -311 25 -314 16 -2 29 8 52 42 17 24 31 49 31 55 0 6 4 11 8 11 5 0 14 11 20 25 7 14 17 31 22 38 6 7 56 80 111 162 55 83 106 159 114 170 8 10 15 22 15 25 0 3 69 5 153 6 155 0 186 6 214 43 21 27 14 49 -26 88 -46 43 -75 59 -215 117 -44 18 -82 21 -91 5 -4 -5 -8 -35 -9 -65 -3 -67 -11 -74 -88 -74 -51 0 -58 2 -58 19 0 11 -4 23 -10 26 -5 3 -10 13 -10 21 0 8 -4 20 -10 27 -5 7 -22 27 -37 46 -15 19 -44 46 -64 61 l-38 27 120 119 c65 65 119 124 119 131 0 10 -41 13 -175 13 l-175 0 0 -27 c0 -25 0 -26 -20 -8 -11 10 -20 23 -20 29 1 6 25 36 55 66 30 30 55 64 55 75 0 12 -27 47 -63 83 l-63 62 -149 -1 c-127 0 -160 -4 -216 -23z"/>
        <path d="M11330 4133 c-40 -28 -49 -45 -50 -96 0 -41 5 -53 29 -78 24 -24 38 -29 76 -29 l46 0 -3 108 -3 107 -35 3 c-21 2 -45 -4 -60 -15z"/>
        <path d="M384 4078 c-169 -55 -271 -213 -239 -369 26 -128 109 -214 249 -260 57 -18 82 -20 154 -16 48 3 99 9 114 12 24 6 28 4 33 -21 41 -209 105 -363 184 -445 58 -59 97 -79 159 -79 40 0 60 7 102 35 29 19 56 35 60 35 4 0 31 -16 60 -35 71 -48 135 -49 203 -4 74 49 95 79 187 269 7 14 42 158 55 224 5 26 9 28 38 22 224 -46 401 24 494 196 25 47 25 188 0 241 -66 137 -201 217 -368 217 -112 0 -193 -30 -399 -148 -25 -14 -47 -29 -50 -32 -3 -3 -38 -26 -77 -53 l-73 -47 0 32 c0 35 -25 81 -56 102 -84 59 -214 -1 -214 -97 0 -35 2 -37 34 -37 28 0 36 5 46 30 25 61 85 61 110 -1 9 -21 20 -29 43 -31 30 -3 29 -5 -47 -57 l-79 -54 -81 17 c-122 26 -130 28 -143 39 -9 6 -13 41 -13 108 l0 99 -35 0 c-29 0 -36 -4 -41 -27 -16 -63 -64 -103 -124 -103 -100 0 -153 109 -94 195 14 21 23 44 20 51 -8 22 -138 17 -212 -8z"/>
        <path d="M10660 2095 c-198 -30 -359 -111 -501 -254 -114 -113 -181 -226 -228 -381 -33 -112 -45 -246 -31 -357 11 -90 36 -193 60 -250 28 -66 38 -84 78 -148 76 -121 245 -271 362 -322 14 -5 36 -15 50 -21 58 -26 161 -51 253 -62 111 -14 245 -2 357 31 101 30 145 50 235 107 143 90 277 252 346 417 52 125 76 306 59 443 -28 225 -107 392 -259 543 -70 70 -175 147 -243 177 -105 46 -161 62 -268 78 -112 16 -156 16 -270 -1z"/>
        <path d="M8365 2088 c-3 -7 -6 -114 -7 -238 l-3 -224 -47 47 c-27 26 -60 52 -74 57 -33 13 -355 13 -388 0 -34 -13 -216 -196 -216 -218 0 -9 37 -54 82 -99 l83 -83 -78 -78 -77 -78 2 -214 3 -215 205 0 c113 0 213 4 223 9 16 7 17 0 17 -82 l0 -90 146 -146 c81 -80 155 -146 164 -146 21 0 298 274 311 307 5 14 9 56 9 94 0 66 1 69 20 59 12 -7 92 -9 217 -8 l198 3 3 215 2 214 -77 78 -78 78 83 83 c45 45 82 90 82 99 0 22 -181 205 -215 218 -34 13 -356 13 -389 0 -14 -5 -47 -31 -74 -57 l-47 -48 -5 235 -5 235 -33 3 c-20 2 -34 -2 -37 -10z m-123 -485 c21 -20 38 -41 38 -45 0 -4 -43 -8 -95 -8 -105 0 -131 9 -179 59 l-30 31 114 0 114 0 38 -37z m552 6 c-48 -50 -74 -59 -179 -59 -52 0 -95 3 -95 7 0 4 17 24 37 45 l37 38 115 0 115 0 -30 -31z m-899 -24 c14 -13 25 -27 25 -30 0 -3 -27 -5 -60 -5 -33 0 -60 3 -60 7 0 13 43 53 57 53 8 0 25 -11 38 -25z m1082 3 c13 -12 23 -25 23 -30 0 -4 -27 -8 -60 -8 -33 0 -60 2 -60 5 0 12 46 54 59 54 8 1 25 -9 38 -21z m-1084 -159 l-31 -32 -26 26 c-14 14 -26 29 -26 32 0 3 26 5 57 5 l58 0 -32 -31z m377 25 c0 -4 -19 -24 -42 -45 l-43 -39 -109 0 -110 0 45 44 44 44 108 1 c59 1 107 -2 107 -5z m517 -39 l47 -45 -110 0 -109 0 -43 39 c-23 21 -42 41 -42 45 0 3 47 6 105 6 l105 0 47 -45z m185 13 l-32 -33 -32 33 -33 32 65 0 65 0 -33 -32z m-612 -137 l0 -109 -45 -49 -44 -48 -1 113 0 112 41 45 c23 25 43 45 45 45 2 0 4 -49 4 -109z m170 -91 l-1 -115 -44 48 -45 49 0 111 0 111 45 -44 45 -44 0 -116z m-430 84 c0 -4 -18 -24 -40 -45 l-40 -39 -105 0 c-58 0 -105 2 -105 5 0 11 37 49 65 66 24 15 49 19 128 19 53 0 97 -3 97 -6z m818 -8 c25 -13 72 -60 72 -71 0 -3 -47 -5 -105 -5 l-105 0 -40 39 c-22 21 -40 41 -40 45 0 13 191 6 218 -8z m-738 -161 c0 -105 -9 -131 -59 -179 l-31 -30 0 114 0 114 37 38 c20 21 41 38 45 38 4 0 8 -43 8 -95z m495 55 l40 -41 3 -109 c3 -63 0 -110 -5 -110 -12 0 -67 59 -82 87 -12 25 -15 213 -3 213 4 0 26 -18 47 -40z m-755 -65 c0 -3 -45 -51 -100 -105 l-100 -100 0 94 c0 80 3 97 18 105 17 11 182 15 182 6z m1144 -8 c14 -10 16 -26 14 -102 l-3 -89 -97 96 c-54 53 -98 99 -98 102 0 12 166 6 184 -7z m-1078 -254 c-4 -10 -31 -13 -103 -13 l-98 0 100 100 100 100 3 -86 c2 -48 1 -93 -2 -101z m374 127 l0 -60 -83 -85 c-45 -47 -86 -85 -90 -85 -4 0 -7 27 -7 60 l0 61 83 84 c45 46 85 84 90 84 4 1 7 -26 7 -59z m176 -24 l84 -85 0 -60 c0 -34 -3 -61 -7 -61 -4 0 -43 37 -87 82 l-80 81 -4 64 c-3 34 -1 63 3 63 4 0 45 -38 91 -84z m388 -114 c-48 -2 -93 -1 -101 2 -10 4 -13 31 -13 103 l0 98 100 -100 100 -100 -86 -3z m-564 -222 c0 -82 -4 -150 -8 -150 -4 0 -41 34 -82 75 l-74 76 74 74 c41 41 78 75 82 75 5 0 8 -67 8 -150z m170 75 l74 -74 -74 -76 c-41 -41 -78 -75 -82 -75 -4 0 -8 68 -8 150 0 83 3 150 8 150 4 0 41 -34 82 -75z"/>
        <path d="M5507 2073 c-4 -3 -7 -42 -7 -85 l0 -79 44 -43 c34 -34 71 -99 170 -297 l127 -253 -50 -48 c-65 -63 -89 -63 -147 -3 -59 60 -60 97 -4 155 35 37 40 47 40 89 0 42 -5 51 -40 86 -31 30 -40 47 -42 79 l-3 41 -205 0 -205 0 -3 -250 -2 -249 77 -78 77 -78 -37 -38 c-37 -38 -37 -38 -37 -125 l0 -87 223 -2 222 -3 5 -113 c3 -64 10 -116 16 -120 6 -4 21 -25 33 -47 20 -37 38 -48 189 -123 l167 -82 88 0 87 0 0 58 c0 54 2 60 40 97 39 38 40 41 40 107 l0 68 -44 0 c-50 0 -59 8 -50 45 5 22 11 25 50 25 37 0 44 3 44 19 0 11 39 96 86 190 l85 171 -71 142 -71 143 106 210 106 210 110 53 110 54 -3 81 -3 82 -292 3 -293 2 0 -79 c0 -78 -1 -82 -67 -210 -36 -72 -69 -131 -72 -131 -5 0 -62 112 -82 160 -4 9 2 35 12 58 15 33 19 60 17 120 l-3 77 -266 3 c-146 1 -268 -1 -272 -5z m883 -1010 c-1 -5 -13 -33 -28 -63 l-27 -55 -64 -3 c-94 -4 -95 -3 -59 68 l31 60 74 0 c40 0 73 -3 73 -7z m-261 -365 c15 -40 3 -48 -63 -48 -72 0 -90 11 -74 46 10 21 18 24 70 24 52 0 60 -3 67 -22z"/>
        <path d="M1115 2037 c-27 -8 -70 -23 -95 -34 -187 -86 -330 -152 -420 -193 -267 -121 -279 -129 -301 -207 -9 -35 -9 -52 1 -86 14 -44 222 -671 240 -722 5 -16 38 -115 73 -220 58 -174 65 -191 95 -208 26 -15 37 -17 64 -8 18 6 42 23 53 38 35 47 156 197 193 240 l37 43 145 0 145 0 37 -43 c37 -43 158 -193 193 -240 11 -15 35 -32 53 -38 27 -9 38 -7 64 8 30 17 37 34 95 208 35 105 68 204 73 220 18 51 226 678 240 722 10 34 10 51 1 86 -22 77 -38 88 -291 202 -52 24 -169 78 -260 120 -91 42 -189 86 -218 96 -69 25 -155 32 -217 16z"/>
        <path d="M3292 1968 c3 -41 5 -43 40 -49 20 -3 55 -18 77 -32 l40 -27 48 30 c38 24 58 30 103 30 45 0 65 -6 103 -30 l48 -30 40 27 c22 14 57 29 77 32 35 6 37 8 40 49 l3 42 -38 0 c-20 0 -56 -7 -80 -16 -39 -15 -45 -15 -83 0 -24 9 -69 16 -110 16 -41 0 -86 -7 -110 -16 -38 -15 -44 -15 -83 0 -24 9 -60 16 -80 16 l-38 0 3 -42z"/>
        <path d="M2990 1812 c0 -40 1 -42 43 -52 23 -7 58 -23 79 -37 36 -24 37 -24 65 -7 15 10 30 21 33 25 3 3 26 11 51 17 53 13 119 -3 157 -38 27 -25 36 -25 68 3 38 33 104 47 156 34 41 -10 50 -15 83 -44 19 -18 32 -16 57 7 11 10 41 26 66 34 53 19 101 10 164 -30 l40 -25 36 25 c21 13 56 29 80 36 41 10 42 12 42 52 l0 41 -48 -5 c-27 -3 -63 -12 -82 -21 -18 -10 -38 -13 -44 -9 -48 36 -192 41 -255 9 -18 -9 -39 -13 -45 -9 -29 18 -86 32 -136 32 -50 0 -107 -14 -136 -32 -6 -4 -27 0 -45 9 -63 32 -207 27 -255 -9 -6 -4 -26 -1 -44 9 -19 9 -55 18 -82 21 l-48 5 0 -41z"/>
        <path d="M2694 1677 c-3 -8 -4 -28 -2 -43 2 -24 10 -30 46 -41 24 -6 59 -22 78 -34 l35 -21 42 28 c35 23 53 28 109 28 75 1 92 -9 82 -48 -6 -24 -10 -26 -65 -26 l-59 0 0 -165 0 -165 160 0 159 0 3 58 3 57 138 3 137 3 0 -46 0 -45 -87 0 c-71 -1 -96 -5 -132 -23 -52 -27 -84 -80 -85 -141 l-1 -41 108 -3 c59 -1 107 -7 107 -11 0 -5 -44 -53 -98 -108 -85 -84 -101 -105 -111 -147 -33 -133 44 -213 209 -218 l85 -3 3 -67 3 -68 39 0 39 0 3 67 3 68 96 5 c82 4 101 9 136 32 45 30 77 94 71 144 l-3 29 -115 5 -115 5 106 105 c95 94 107 110 118 157 10 42 10 60 0 90 -30 92 -83 123 -214 123 l-85 0 0 45 0 45 330 0 330 0 0 45 0 45 -59 0 c-69 0 -103 11 -135 43 -21 21 -53 94 -44 101 63 47 75 51 138 51 55 0 72 -5 107 -29 l42 -28 35 21 c19 12 54 28 78 34 41 12 43 14 43 52 l0 40 -46 -2 c-25 -1 -61 -9 -80 -17 -30 -12 -37 -12 -64 2 -42 23 -188 23 -230 0 -27 -14 -34 -15 -65 -2 -49 21 -138 28 -190 14 -82 -21 -100 -23 -116 -9 -23 19 -205 19 -228 0 -16 -14 -34 -12 -116 9 -52 14 -141 7 -190 -14 -31 -13 -38 -12 -65 2 -21 11 -56 16 -115 16 -59 0 -94 -5 -115 -16 -26 -14 -35 -14 -62 -3 -18 8 -52 17 -77 20 -36 6 -47 4 -52 -8z m715 -113 l41 -27 43 29 c36 24 52 29 107 28 54 0 72 -5 108 -28 l42 -29 40 27 c79 52 180 42 180 -19 l0 -25 -395 0 c-217 0 -395 4 -395 9 0 15 51 60 73 65 47 10 116 -3 156 -30z m599 -151 c3 -10 -97 -13 -477 -13 -264 0 -482 4 -485 9 -3 4 -3 11 1 15 4 3 220 5 481 4 370 -2 476 -6 480 -15z m-813 -118 c0 -11 -119 -20 -142 -11 -8 3 -11 11 -8 16 8 14 150 9 150 -5z m259 -180 c18 -14 15 -15 -35 -15 -50 1 -52 2 -35 15 25 19 46 19 70 0z m369 -5 c14 -11 29 -29 32 -40 10 -31 -29 -92 -96 -150 -81 -70 -104 -96 -125 -142 -16 -36 -18 -37 -78 -40 l-61 -3 -3 -39 c-7 -87 -97 -104 -137 -26 -12 24 -13 34 -3 57 7 15 17 33 23 39 5 7 17 20 26 30 9 11 35 34 59 53 23 19 60 58 82 87 39 52 40 55 36 124 l-3 70 111 0 c97 0 115 -3 137 -20z m9 -472 c-9 -9 -55 -14 -137 -16 -111 -3 -124 -2 -119 12 5 13 27 16 137 16 105 0 129 -3 119 -12z"/>
    </g>
    <g id="layer102" fill="#e1342a" stroke="none">
        <path d="M10755 11698 c-192 -66 -334 -153 -475 -290 -163 -158 -236 -277 -301 -488 -21 -68 -17 -327 5 -405 25 -85 108 -253 146 -295 56 -63 116 -125 139 -143 68 -55 177 -113 256 -138 22 -6 51 -15 65 -20 14 -4 67 -13 118 -20 144 -19 303 7 452 73 87 39 168 96 236 168 88 92 105 116 148 201 75 148 90 209 89 389 0 151 -7 204 -42 293 -115 296 -418 568 -752 675 -40 14 -43 14 -84 0z m107 -375 c114 -147 161 -244 183 -385 l6 -36 58 5 c76 7 131 -21 169 -86 22 -37 26 -57 27 -120 l0 -76 -95 -3 c-103 -3 -153 6 -194 39 -49 39 -61 74 -66 209 -5 114 -8 131 -37 192 -44 93 -95 168 -114 168 -26 0 -98 -115 -129 -206 -15 -43 -20 -84 -20 -161 0 -84 -4 -111 -20 -142 -40 -80 -98 -104 -240 -99 l-95 3 0 76 c1 63 5 83 27 120 38 65 93 93 168 86 63 -5 69 0 70 63 1 43 47 158 94 233 61 99 126 177 146 177 10 0 37 -26 62 -57z"/>
        <path d="M7893 11627 c-124 -66 -180 -173 -154 -294 19 -84 47 -138 94 -179 75 -64 82 -70 117 -94 77 -54 95 -86 66 -116 -11 -10 -42 -14 -121 -14 -58 0 -127 -5 -153 -11 -173 -40 -276 -176 -243 -323 17 -74 47 -135 87 -171 67 -62 189 -82 290 -48 44 15 170 92 205 125 8 7 27 19 44 26 27 12 31 12 47 -8 20 -25 17 -50 -19 -160 -37 -111 -41 -184 -13 -270 40 -123 122 -180 260 -180 148 0 232 64 269 205 18 67 13 135 -19 235 -46 147 -38 206 26 178 16 -7 34 -17 41 -23 120 -100 217 -144 314 -145 144 0 235 78 270 233 33 149 -70 289 -240 326 -28 6 -99 11 -157 11 -78 0 -109 4 -120 14 -29 30 -11 63 66 116 39 26 44 31 112 90 79 70 122 198 98 293 -32 128 -136 207 -272 207 -88 0 -138 -22 -203 -88 -52 -52 -62 -72 -100 -186 -64 -193 -107 -192 -171 4 -37 110 -48 130 -101 184 -63 64 -115 86 -206 86 -55 0 -82 -6 -114 -23z m395 -544 c37 -26 69 -51 70 -55 5 -10 82 -10 82 0 0 4 15 16 33 27 17 10 49 32 70 49 30 24 42 28 55 20 26 -17 26 -48 -2 -126 -41 -114 -45 -107 107 -221 43 -32 44 -40 17 -67 -17 -17 -33 -20 -120 -20 -112 0 -107 3 -131 -85 -27 -103 -54 -140 -85 -120 -9 6 -30 53 -48 105 l-32 95 -108 5 c-92 4 -110 8 -122 24 -20 28 -18 32 23 63 152 114 149 107 108 219 -28 77 -31 104 -13 122 18 18 24 16 96 -35z"/>
        <path d="M6020 11491 c-47 -11 -137 -35 -200 -55 -63 -20 -155 -41 -205 -46 -50 -6 -109 -20 -132 -31 -48 -23 -99 -77 -119 -125 -18 -44 -18 -146 1 -191 20 -48 20 -49 -22 -51 -124 -8 -223 -87 -243 -195 -16 -82 17 -169 105 -277 65 -80 75 -100 75 -142 0 -46 -23 -76 -63 -80 -68 -6 -34 -83 58 -130 56 -29 162 -36 220 -14 119 46 192 227 152 379 -21 80 -58 138 -148 234 -86 91 -101 123 -74 153 16 18 17 18 53 -3 34 -20 55 -22 232 -27 l195 -5 5 -165 c5 -154 7 -169 33 -221 15 -31 45 -77 67 -102 22 -25 40 -53 40 -64 1 -54 81 -198 127 -229 35 -22 43 -7 43 87 l0 76 80 -1 79 -1 26 -51 c29 -58 98 -130 114 -120 7 5 11 49 11 117 l0 110 55 51 c68 62 120 164 130 254 l7 60 73 32 c41 18 79 32 84 32 16 0 31 36 31 74 l0 36 -292 2 -293 3 -3 51 c-3 44 1 55 26 82 69 74 175 43 206 -60 5 -16 20 -18 138 -18 l133 1 -156 66 -156 67 9 41 c14 57 4 153 -20 208 -29 64 -104 142 -170 174 -73 36 -190 41 -312 14z m279 -71 c132 -67 131 -255 -1 -319 -57 -27 -147 -29 -176 -3 -26 22 -196 251 -205 276 -5 11 -1 28 8 42 15 24 18 24 176 24 139 0 165 -3 198 -20z m455 -590 c15 -5 34 -25 43 -44 26 -55 8 -67 -86 -64 l-76 3 -3 31 c-2 25 3 37 28 58 34 28 54 32 94 16z m-416 -198 c2 -14 -7 -33 -27 -52 -41 -42 -90 -41 -125 1 -25 30 -33 59 -19 73 4 4 43 5 88 4 74 -3 80 -5 83 -26z m337 17 c11 -16 -3 -57 -27 -79 -28 -26 -78 -26 -111 0 -25 20 -42 63 -32 80 8 14 162 13 170 -1z"/>
        <path d="M3985 11390 c-22 -10 -62 -39 -88 -63 -26 -24 -70 -62 -96 -83 -78 -63 -92 -91 -89 -182 3 -69 5 -77 23 -80 12 -2 103 24 203 58 100 33 186 60 192 60 14 0 13 -49 -2 -91 -15 -44 -32 -58 -213 -179 -82 -55 -157 -105 -165 -112 -32 -28 -40 -58 -40 -160 0 -82 4 -107 18 -124 23 -29 54 -44 90 -44 24 0 31 -5 38 -32 12 -40 65 -78 108 -78 43 0 84 28 110 75 21 37 26 40 60 37 69 -6 92 10 141 103 37 69 49 85 63 85 20 0 38 21 78 96 21 38 50 87 65 109 40 60 55 103 63 175 13 134 -23 239 -114 330 -88 89 -169 120 -311 120 -72 0 -103 -5 -134 -20z"/>
        <path d="M6413 10979 c-19 -7 -43 -37 -43 -53 0 -3 29 -6 65 -6 69 0 82 12 48 42 -26 22 -45 26 -70 17z"/>
        <path d="M6270 9217 c-64 -50 -67 -146 -7 -200 12 -10 31 -20 44 -23 22 -6 23 -10 23 -114 0 -60 4 -111 8 -114 5 -3 26 -3 46 1 81 13 156 125 156 233 0 89 -49 183 -112 216 -33 17 -137 18 -158 1z"/>
        <path d="M731 9056 c-7 -8 -11 -30 -9 -48 3 -32 5 -33 49 -36 31 -2 53 -10 64 -23 17 -18 17 -20 0 -39 -17 -18 -31 -20 -164 -20 -80 0 -152 -4 -159 -9 -8 -5 -12 -23 -10 -47 l3 -39 199 -3 c204 -2 226 -7 226 -43 0 -32 -34 -39 -184 -39 -135 0 -146 -1 -156 -20 -6 -11 -8 -31 -4 -45 6 -23 10 -25 69 -25 78 0 115 -23 96 -58 -11 -21 -17 -22 -186 -22 -144 0 -176 -3 -189 -16 -19 -18 -20 -38 -6 -65 10 -18 24 -19 248 -19 244 -1 272 -5 272 -42 0 -31 -43 -38 -260 -41 l-215 -2 -3 -35 c-6 -55 11 -60 180 -60 140 0 148 -1 159 -21 16 -30 -9 -52 -68 -59 l-48 -5 0 -40 0 -40 135 -5 c74 -3 141 -9 148 -13 16 -11 15 -42 -1 -56 -9 -7 -86 -12 -213 -13 l-199 -3 -3 -39 c-2 -24 2 -42 10 -47 7 -5 108 -9 225 -9 179 0 214 -2 227 -16 20 -20 20 -27 -2 -47 -13 -12 -37 -17 -81 -17 -57 0 -62 -2 -72 -26 -7 -20 -6 -32 6 -50 l15 -24 338 0 c241 0 358 4 412 14 87 16 93 18 190 59 70 31 190 132 237 201 15 22 30 43 33 46 3 3 20 38 38 78 35 78 62 198 62 272 0 118 -50 273 -121 376 -34 49 -145 164 -159 164 -17 0 -77 -30 -116 -58 -78 -57 -124 -202 -94 -298 15 -50 32 -85 48 -103 7 -7 22 -31 33 -53 20 -39 20 -42 4 -78 -16 -35 -34 -50 -78 -64 -10 -3 -39 2 -65 11 -57 20 -186 22 -233 3 -95 -38 -165 -113 -191 -205 l-15 -48 -19 29 c-35 51 -44 82 -34 110 6 14 10 36 10 50 0 40 -47 120 -90 155 -22 18 -40 36 -40 41 0 5 16 18 35 29 37 22 44 45 23 80 -10 17 -10 23 0 26 7 3 12 21 12 43 0 22 6 43 16 51 12 10 15 24 10 59 -6 43 -4 48 19 58 14 7 56 12 94 12 63 0 71 3 107 34 38 33 39 35 39 103 0 60 -3 72 -25 94 -44 44 -77 49 -330 49 -194 0 -240 -3 -249 -14z m362 -100 c23 -17 22 -43 -2 -56 -11 -5 -51 -10 -89 -10 -54 0 -72 4 -85 18 -15 16 -15 20 -1 40 13 19 24 22 87 22 44 -1 79 -6 90 -14z m-213 -361 c28 -33 -17 -69 -50 -40 -15 13 -17 22 -9 36 12 23 42 25 59 4z m94 -358 c25 -41 -79 -76 -135 -47 -22 12 -25 40 -7 58 20 20 128 11 142 -11z m136 -364 c0 -24 -31 -43 -52 -32 -23 12 -23 45 -1 58 22 12 53 -3 53 -26z"/>
        <path d="M5747 8989 c-50 -27 -77 -50 -77 -69 0 -18 169 -190 187 -190 22 0 16 113 -8 168 -34 77 -52 112 -58 112 -3 -1 -23 -10 -44 -21z"/>
        <path d="M5581 8790 c-14 -8 -30 -74 -31 -122 l0 -28 160 0 160 0 0 24 c0 20 -10 28 -67 51 -38 15 -81 33 -98 40 -73 32 -112 43 -124 35z"/>
        <path d="M6337 8723 c-4 -3 -7 -28 -7 -55 l0 -48 -60 0 c-109 0 -162 -40 -164 -124 -2 -87 34 -117 147 -124 l77 -5 0 -118 c0 -83 3 -119 12 -119 6 0 35 23 64 50 58 55 83 61 114 28 22 -24 28 -42 32 -98 3 -32 6 -35 39 -38 45 -4 49 5 42 87 -4 46 -12 67 -28 83 -13 12 -20 28 -18 36 4 8 -22 41 -61 81 l-67 68 20 37 c51 90 9 211 -88 252 -38 16 -45 17 -54 7z"/>
        <path d="M279 8689 c-8 -16 -8 -28 0 -46 11 -23 12 -24 138 -21 l128 3 0 40 0 40 -127 3 c-121 2 -128 2 -139 -19z"/>
        <path d="M10403 8631 c-144 -67 -188 -226 -116 -425 53 -145 135 -242 276 -324 52 -30 164 -65 183 -58 14 5 15 44 12 323 -3 304 -4 320 -25 358 -26 49 -76 101 -117 122 -48 25 -162 27 -213 4z"/>
        <path d="M5552 8513 l3 -58 155 0 155 0 3 58 3 57 -161 0 -161 0 3 -57z"/>
        <path d="M5257 8366 c-77 -34 -122 -124 -97 -195 15 -44 28 -61 46 -61 8 0 63 47 121 104 118 114 120 120 45 152 -41 17 -77 17 -115 0z"/>
        <path d="M5547 8373 c-21 -21 -2 -33 148 -93 11 -4 41 -17 67 -29 71 -31 82 -28 96 24 7 25 12 59 12 75 l0 30 -158 0 c-87 0 -162 -3 -165 -7z"/>
        <path d="M5511 8316 c-9 -10 2 -45 46 -152 34 -82 64 -140 73 -142 20 -3 114 59 118 79 3 15 -201 229 -218 229 -4 0 -13 -6 -19 -14z"/>
        <path d="M5422 8269 c-7 -22 -22 -61 -33 -87 -12 -26 -26 -58 -31 -72 -6 -14 -16 -36 -24 -50 -7 -14 -10 -30 -6 -36 9 -13 82 -34 121 -34 l31 0 0 160 c0 159 0 160 -23 160 -17 0 -25 -9 -35 -41z"/>
        <path d="M6648 8303 c-23 -6 -23 -16 2 -38 20 -18 27 -55 13 -69 -5 -5 -8 -33 -8 -63 0 -48 -3 -58 -27 -76 -23 -17 -31 -18 -59 -8 -29 10 -37 9 -59 -8 -25 -19 -27 -31 -14 -84 12 -52 -67 -102 -104 -65 -9 9 -17 8 -37 -2 -21 -11 -25 -21 -25 -57 0 -51 37 -112 97 -162 66 -55 104 -36 138 66 14 42 25 56 65 82 27 18 58 44 70 59 11 15 23 32 28 37 4 6 11 18 15 28 3 9 12 17 19 17 23 0 138 59 144 74 12 30 -104 166 -142 166 -7 0 -20 15 -29 34 -17 36 -51 77 -63 75 -4 -1 -15 -3 -24 -6z"/>
        <path d="M6428 8094 c-14 -29 -2 -57 26 -62 21 -4 59 37 51 56 -3 7 -5 18 -5 23 0 5 -14 9 -30 9 -23 0 -33 -6 -42 -26z"/>
        <path d="M5810 8033 c-36 -7 -72 -36 -105 -82 -55 -80 -57 -215 -4 -295 41 -62 86 -86 159 -86 52 0 62 3 89 31 26 26 31 38 31 81 0 61 -26 101 -75 119 l-34 13 -3 110 c-3 119 -3 119 -58 109z"/>
        <path d="M6330 7967 c0 -43 1 -45 33 -50 17 -3 44 -9 59 -12 31 -8 58 12 58 43 0 26 -17 38 -65 45 -22 3 -50 9 -62 13 -21 6 -23 3 -23 -39z"/>
        <path d="M7751 6222 c-56 -22 -134 -91 -169 -151 -26 -44 -27 -52 -27 -176 l0 -130 295 -3 c162 -1 305 0 318 3 21 5 22 10 22 110 0 126 -20 190 -82 259 -61 71 -125 99 -228 103 -63 2 -96 -2 -129 -15z"/>
        <path d="M8830 6231 c-86 -28 -158 -89 -202 -173 -18 -35 -23 -63 -26 -156 -3 -79 -1 -117 8 -127 11 -13 60 -15 316 -15 l304 0 11 27 c17 45 0 210 -28 270 -29 63 -88 124 -151 154 -50 25 -183 36 -232 20z"/>
        <path d="M8320 4493 c-258 -13 -514 -160 -668 -384 -86 -126 -115 -200 -152 -397 -18 -94 -9 -232 22 -347 86 -320 323 -557 643 -643 124 -34 227 -39 366 -18 152 23 254 63 378 148 191 132 314 316 371 556 15 67 15 311 0 377 -44 184 -122 327 -245 450 -189 188 -422 273 -715 258z"/>
        <path d="M11462 4038 l3 -43 60 -3 c32 -2 69 -1 81 2 26 7 38 36 29 66 -6 18 -15 20 -91 20 l-85 0 3 -42z"/>
        <path d="M10660 2095 c-139 -21 -233 -56 -355 -134 -68 -42 -188 -149 -206 -182 -6 -11 9 -74 45 -195 30 -99 82 -273 116 -389 34 -115 67 -219 72 -229 27 -51 193 -261 209 -264 23 -4 31 13 85 171 25 72 47 133 49 136 2 2 38 7 80 11 137 13 244 85 296 199 11 25 24 53 28 61 5 9 46 23 106 35 98 21 98 21 136 70 22 28 39 56 39 63 0 15 -50 92 -60 92 -7 0 -73 30 -309 141 l-104 49 7 108 c3 59 9 141 12 183 l6 76 -38 6 c-53 9 -114 7 -214 -8z m250 -855 c0 -56 -2 -60 -22 -59 -44 0 -163 44 -163 59 0 16 111 58 158 59 27 1 27 0 27 -59z"/>
        <path d="M8367 2094 c-4 -4 -7 -110 -7 -236 0 -125 -3 -228 -7 -228 -3 0 -25 20 -48 45 -24 24 -55 49 -69 55 -34 13 -356 13 -390 0 -33 -12 -216 -197 -216 -218 0 -9 37 -54 82 -99 l83 -83 -78 -78 -77 -78 2 -214 3 -215 205 0 c113 0 213 4 223 9 16 7 17 0 17 -82 l0 -90 146 -146 c81 -80 155 -146 164 -146 21 0 298 274 311 307 5 14 9 56 9 94 0 66 1 69 20 59 12 -7 92 -9 217 -8 l198 3 3 215 2 214 -77 78 -78 78 83 83 c45 45 82 90 82 99 0 22 -181 205 -215 218 -39 15 -358 13 -392 -2 -15 -7 -46 -32 -69 -55 -23 -24 -44 -43 -47 -43 -4 0 -8 105 -9 233 l-3 232 -30 3 c-17 2 -34 0 -38 -4z m-125 -491 c21 -20 38 -41 38 -45 0 -4 -43 -8 -95 -8 -105 0 -131 9 -179 59 l-30 31 114 0 114 0 38 -37z m552 6 c-48 -50 -74 -59 -179 -59 -52 0 -95 3 -95 7 0 4 17 24 37 45 l37 38 115 0 115 0 -30 -31z m-899 -24 c14 -13 25 -27 25 -30 0 -3 -27 -5 -60 -5 -33 0 -60 3 -60 7 0 13 43 53 57 53 8 0 25 -11 38 -25z m1082 3 c13 -12 23 -25 23 -30 0 -4 -27 -8 -60 -8 -33 0 -60 2 -60 5 0 12 46 54 59 54 8 1 25 -9 38 -21z m-1084 -159 l-31 -32 -26 26 c-14 14 -26 29 -26 32 0 3 26 5 57 5 l58 0 -32 -31z m377 25 c0 -4 -19 -24 -41 -45 l-41 -39 -111 0 -111 0 45 44 44 44 108 1 c59 1 107 -2 107 -5z m517 -39 l47 -45 -111 0 -111 0 -41 39 c-22 21 -41 41 -41 45 0 3 47 6 105 6 l105 0 47 -45z m185 13 l-32 -33 -32 33 -33 32 65 0 65 0 -33 -32z m-612 -137 l0 -109 -45 -49 -44 -48 -1 113 0 112 41 45 c23 25 43 45 45 45 2 0 4 -49 4 -109z m170 -91 l-1 -115 -44 48 -45 49 0 111 0 111 45 -44 45 -44 0 -116z m-430 84 c0 -4 -18 -24 -40 -45 l-40 -39 -105 0 c-58 0 -105 2 -105 5 0 11 37 49 65 66 24 15 49 19 128 19 53 0 97 -3 97 -6z m818 -8 c25 -13 72 -60 72 -71 0 -3 -47 -5 -105 -5 l-105 0 -40 39 c-22 21 -40 41 -40 45 0 13 191 6 218 -8z m-738 -161 c0 -105 -9 -131 -59 -179 l-31 -30 0 114 0 114 37 38 c20 21 41 38 45 38 4 0 8 -43 8 -95z m495 55 l40 -41 3 -109 c3 -63 0 -110 -5 -110 -12 0 -67 59 -82 87 -12 25 -15 213 -3 213 4 0 26 -18 47 -40z m-755 -65 c0 -3 -45 -50 -100 -106 l-100 -101 0 96 c0 80 3 97 18 105 17 10 182 16 182 6z m1148 -7 c8 -8 12 -46 12 -106 l0 -94 -100 101 c-55 56 -100 103 -100 106 0 11 176 5 188 -7z m-1082 -255 c-4 -10 -31 -13 -103 -13 l-98 0 100 100 100 100 3 -86 c2 -48 1 -93 -2 -101z m374 127 l0 -61 -82 -84 c-45 -47 -86 -85 -90 -85 -4 0 -8 27 -8 61 l0 61 83 83 c45 46 85 84 90 84 4 1 7 -26 7 -59z m176 -24 l84 -85 0 -60 c0 -34 -3 -61 -7 -61 -5 0 -44 36 -88 81 l-79 80 -4 65 c-2 35 -1 64 3 64 4 0 45 -38 91 -84z m388 -114 c-48 -2 -93 -1 -101 2 -10 4 -13 31 -13 103 l0 98 100 -100 100 -100 -86 -3z m-564 -222 c0 -82 -3 -150 -8 -150 -4 0 -41 34 -82 75 l-74 75 74 75 c41 41 78 75 82 75 5 0 8 -67 8 -150z m170 75 l74 -75 -74 -75 c-41 -41 -78 -75 -82 -75 -5 0 -8 68 -8 150 0 83 3 150 8 150 4 0 41 -34 82 -75z"/>
    </g>
    <g id="layer103" fill="#672d8e" stroke="none">
        <path d="M7893 11627 c-124 -66 -180 -173 -154 -294 19 -84 47 -138 94 -179 75 -64 82 -70 117 -94 77 -54 95 -86 66 -116 -11 -10 -42 -14 -121 -14 -58 0 -127 -5 -153 -11 -173 -40 -276 -176 -243 -323 24 -109 75 -180 150 -212 56 -24 82 -21 131 13 130 92 274 191 344 237 l79 51 -58 6 c-40 5 -63 13 -72 25 -19 26 -17 30 24 61 152 114 148 107 107 221 -27 77 -28 109 -3 125 12 8 32 -1 85 -39 38 -27 71 -52 72 -56 5 -10 82 -10 82 0 0 4 15 16 33 27 17 10 49 32 70 49 30 24 42 28 55 20 26 -17 26 -48 -2 -126 -41 -114 -45 -107 107 -221 43 -32 44 -40 17 -67 -16 -16 -34 -20 -92 -20 l-73 -1 94 -88 c53 -51 91 -94 87 -100 -4 -7 -1 -9 7 -5 14 5 31 -11 32 -28 0 -5 4 -8 8 -7 5 1 21 -10 35 -24 74 -68 216 -96 312 -61 91 33 145 101 171 217 33 149 -70 289 -240 326 -28 6 -99 11 -157 11 -78 0 -109 4 -120 14 -29 30 -11 63 66 116 39 26 44 31 112 90 79 70 122 198 98 293 -32 128 -136 207 -272 207 -88 0 -138 -22 -203 -88 -52 -52 -62 -72 -100 -186 -64 -193 -107 -192 -171 4 -37 110 -48 130 -101 184 -63 64 -115 86 -206 86 -55 0 -82 -6 -114 -23z"/>
        <path d="M964 11459 c3 -17 6 -51 6 -75 0 -36 6 -51 34 -82 19 -21 38 -50 41 -65 7 -26 10 -27 71 -27 l64 0 0 33 c0 26 -24 120 -57 230 -4 14 -18 17 -85 17 l-80 0 6 -31z"/>
        <path d="M1277 11473 c-33 -110 -57 -204 -57 -230 l0 -33 64 0 c61 0 64 1 71 27 3 15 22 44 41 65 30 33 34 45 34 91 0 28 3 62 6 75 6 21 4 22 -74 22 -67 0 -81 -3 -85 -17z"/>
        <path d="M1297 10547 c-37 -30 -50 -80 -33 -122 8 -18 19 -36 26 -40 7 -4 9 -18 5 -36 -9 -42 9 -59 62 -59 27 0 42 4 38 10 -3 6 -17 10 -31 10 -17 0 -24 6 -24 19 0 14 10 20 39 25 37 6 91 51 91 77 0 5 -29 9 -65 9 -58 0 -65 2 -65 20 0 18 7 20 65 20 76 0 82 11 34 59 -39 39 -99 43 -142 8z"/>
        <path d="M1806 8920 c-84 -42 -111 -74 -155 -183 -25 -64 -8 -171 39 -242 15 -22 35 -55 45 -74 16 -32 16 -36 0 -71 -26 -57 -75 -76 -138 -56 -38 13 -83 20 -114 17 -10 -1 -13 -65 -13 -285 l0 -285 -32 -4 c-27 -3 -24 -4 12 -5 45 -2 187 19 225 33 77 27 117 47 170 84 67 47 128 104 162 155 15 22 30 43 33 46 3 3 20 38 38 78 35 78 62 198 62 272 0 118 -50 273 -121 376 -38 56 -146 164 -162 164 -7 -1 -29 -9 -51 -20z"/>
        <path d="M10412 8634 c-64 -24 -129 -94 -148 -161 -41 -139 32 -361 158 -484 89 -87 277 -183 324 -165 14 5 15 44 12 323 -3 304 -4 320 -25 358 -26 49 -76 101 -117 122 -44 23 -151 26 -204 7z"/>
        <path d="M3348 6921 c-48 -10 -154 -63 -198 -100 -47 -38 -114 -137 -136 -198 -23 -65 -30 -201 -14 -261 21 -75 44 -123 88 -181 l41 -54 -17 -31 c-31 -57 -29 -56 -85 -30 -42 19 -68 24 -138 24 -78 0 -90 -3 -129 -29 -23 -16 -55 -48 -71 -71 -24 -36 -29 -53 -29 -105 0 -35 7 -79 16 -100 22 -53 294 -321 353 -349 39 -17 70 -21 195 -24 164 -4 219 5 276 46 106 76 120 117 120 357 l0 185 29 0 30 0 3 -352 3 -353 27 -51 c29 -56 97 -121 156 -150 28 -14 59 -19 127 -19 81 0 95 3 144 30 29 16 71 50 93 75 73 83 73 83 73 385 0 229 -3 281 -19 340 -19 72 -70 190 -93 213 -7 7 -13 15 -13 17 0 2 19 32 43 67 68 99 82 145 81 273 -1 99 -4 116 -29 170 -70 150 -181 243 -330 275 -47 11 -544 11 -597 1z"/>
        <path d="M7751 6222 c-56 -22 -134 -91 -169 -151 -25 -42 -27 -56 -31 -170 -2 -96 0 -125 10 -132 8 -5 147 -9 310 -9 248 0 299 2 309 15 8 10 11 48 8 122 -2 91 -7 116 -28 156 -63 125 -146 179 -280 184 -63 2 -96 -2 -129 -15z"/>
        <path d="M8830 6231 c-84 -26 -158 -89 -202 -173 -18 -35 -23 -63 -26 -156 -3 -79 -1 -117 8 -127 11 -13 59 -15 305 -15 162 0 300 3 309 6 24 9 23 218 -1 271 -62 134 -166 204 -301 202 -37 0 -78 -4 -92 -8z"/>
        <path d="M10660 2095 c-196 -29 -359 -111 -497 -249 l-73 -73 14 -44 c8 -24 38 -123 66 -219 28 -96 76 -258 107 -359 l55 -185 99 -133 c65 -88 105 -133 116 -131 16 3 22 15 73 163 55 160 52 155 112 155 135 0 253 75 313 195 13 28 26 57 29 66 2 10 26 20 62 28 154 32 149 29 187 80 21 27 37 53 37 60 0 15 -50 91 -60 91 -7 0 -73 30 -309 141 l-104 49 7 108 c3 59 9 141 12 183 l6 76 -38 6 c-53 9 -114 7 -214 -8z m248 -850 c2 -32 -1 -62 -5 -66 -5 -5 -48 3 -96 18 -113 34 -116 51 -14 82 39 13 77 24 82 26 23 8 30 -5 33 -60z"/>
        <path d="M5507 2073 c-4 -3 -7 -42 -7 -85 l0 -79 43 -42 c34 -33 70 -96 171 -296 l127 -255 -50 -48 c-65 -63 -89 -63 -147 -3 -59 60 -60 97 -4 155 35 37 40 47 40 89 0 42 -5 51 -40 86 -31 30 -40 47 -42 79 l-3 41 -205 0 -205 0 -3 -250 -2 -249 77 -78 77 -78 -37 -38 c-37 -38 -37 -38 -37 -125 l0 -87 223 -2 222 -3 5 -113 c3 -64 10 -116 16 -120 6 -4 21 -25 33 -47 20 -37 38 -48 189 -123 l167 -82 88 0 87 0 0 58 c0 54 2 60 40 97 39 38 40 41 40 107 l0 68 -44 0 c-50 0 -59 8 -50 45 5 22 11 25 50 25 37 0 44 3 44 19 0 11 39 96 86 190 l85 171 -71 142 -71 143 106 210 106 210 110 53 110 54 -3 81 -3 82 -292 3 -293 2 0 -79 c0 -78 -1 -82 -67 -210 -36 -72 -69 -131 -72 -131 -5 0 -62 112 -82 160 -4 9 2 35 12 58 15 33 19 60 17 120 l-3 77 -266 3 c-146 1 -268 -1 -272 -5z m883 -1010 c-1 -5 -13 -33 -28 -63 l-27 -55 -64 -3 c-94 -4 -95 -3 -59 68 l31 60 74 0 c40 0 73 -3 73 -7z m-261 -365 c15 -40 3 -48 -63 -48 -72 0 -90 11 -74 46 10 21 18 24 70 24 52 0 60 -3 67 -22z"/>
        <path d="M9003 1633 c-49 -17 -51 -22 -23 -48 32 -29 24 -35 -40 -35 -64 0 -74 9 -38 34 39 28 0 18 -195 -48 -205 -69 -209 -76 -54 -76 l87 0 48 -45 47 -45 -112 0 -111 0 -52 50 -51 50 -62 -7 c-34 -3 -66 -10 -72 -15 -5 -5 -11 -67 -13 -138 l-4 -130 -43 -47 c-43 -47 -44 -47 -45 -21 0 48 -16 38 -50 -32 -19 -39 -37 -70 -41 -70 -7 0 -22 -35 -22 -50 0 -11 -91 -186 -106 -203 -13 -16 -13 -17 2 -11 9 3 17 10 17 15 0 5 5 9 10 9 6 0 10 -37 10 -90 0 -90 0 -90 38 -132 87 -96 257 -258 272 -258 21 0 299 275 311 307 5 14 9 56 9 94 0 66 1 69 20 59 12 -7 92 -9 217 -8 l198 3 3 215 2 214 -77 78 -78 78 83 83 c45 45 82 90 82 99 0 14 -112 140 -122 137 -2 0 -22 -7 -45 -16z m-31 -205 l-32 -33 -32 33 -33 32 65 0 65 0 -33 -32z m-442 -228 l-1 -115 -44 48 -45 49 0 111 0 111 45 -44 45 -44 0 -116z m388 76 c25 -13 72 -60 72 -71 0 -3 -47 -5 -105 -5 l-105 0 -40 39 c-22 21 -40 41 -40 45 0 13 191 6 218 -8z m-243 -106 l40 -41 3 -109 c3 -63 0 -110 -5 -110 -12 0 -67 59 -82 87 -12 25 -15 213 -3 213 4 0 26 -18 47 -40z m393 -72 c8 -8 12 -46 12 -106 l0 -94 -100 101 c-55 56 -100 103 -100 106 0 11 176 5 188 -7z m-708 -129 l0 -62 -90 -91 -90 -91 0 69 0 68 83 84 c45 45 85 83 90 83 4 1 7 -27 7 -60z m176 -21 l84 -83 0 -70 0 -69 -87 87 -87 88 -4 65 c-2 35 -1 64 3 64 4 0 45 -37 91 -82z m388 -116 c-48 -2 -93 -1 -101 2 -10 4 -13 31 -13 103 l0 98 100 -100 100 -100 -86 -3z m-564 -222 c0 -82 -3 -150 -8 -150 -4 0 -41 34 -82 75 l-74 75 74 75 c41 41 78 75 82 75 5 0 8 -67 8 -150z m170 75 l74 -75 -74 -75 c-41 -41 -78 -75 -82 -75 -5 0 -8 68 -8 150 0 83 3 150 8 150 4 0 41 -34 82 -75z"/>
    </g>
    <g id="layer104" fill="#66cc66" stroke="none">
        <path d="M3532 11671 c-112 -29 -196 -172 -163 -280 14 -48 31 -54 31 -11 0 25 4 30 24 30 21 0 95 -25 152 -52 17 -8 39 -4 95 17 41 15 89 30 107 32 29 5 33 3 38 -26 11 -53 24 -23 24 55 0 105 -34 168 -114 213 -43 24 -141 35 -194 22z"/>
        <path d="M7893 11627 c-124 -66 -180 -173 -154 -294 16 -73 55 -146 97 -181 62 -53 80 -67 112 -89 53 -37 80 -69 84 -99 3 -26 9 -30 83 -52 44 -13 88 -26 98 -29 25 -8 22 29 -9 115 -27 77 -28 109 -3 125 12 8 32 -1 85 -39 38 -27 71 -52 72 -56 5 -10 82 -10 82 0 0 4 15 16 33 27 17 10 49 32 70 49 30 24 42 28 55 20 26 -17 26 -48 -2 -126 -41 -114 -45 -107 107 -221 43 -32 44 -40 17 -67 -16 -16 -34 -20 -92 -20 l-73 -1 94 -88 c53 -51 91 -94 87 -100 -4 -7 -1 -9 7 -5 14 5 31 -11 32 -28 0 -5 4 -8 8 -7 5 1 21 -10 35 -24 74 -68 216 -96 312 -61 91 33 145 101 171 217 33 149 -70 289 -240 326 -28 6 -99 11 -157 11 -78 0 -109 4 -120 14 -29 30 -11 63 66 116 39 26 44 31 112 90 79 70 122 198 98 293 -32 128 -136 207 -272 207 -88 0 -138 -22 -203 -88 -52 -52 -62 -72 -100 -186 -64 -193 -107 -192 -171 4 -37 110 -48 130 -101 184 -63 64 -115 86 -206 86 -55 0 -82 -6 -114 -23z"/>
        <path d="M1115 2037 c-27 -7 -99 -36 -160 -64 -60 -28 -164 -76 -230 -106 -139 -64 -249 -114 -320 -148 -62 -28 -90 -59 -106 -116 -9 -35 -9 -52 1 -86 14 -44 222 -671 240 -722 5 -16 38 -115 73 -220 58 -174 65 -191 95 -208 26 -15 37 -17 64 -8 18 6 42 23 53 38 35 47 156 197 193 240 l37 43 145 0 145 0 37 -43 c37 -43 158 -193 193 -240 11 -15 35 -32 53 -38 27 -9 38 -7 64 8 30 17 37 34 95 208 35 105 68 204 73 220 18 51 226 678 240 722 10 34 10 51 1 86 -22 77 -38 88 -291 202 -52 24 -169 78 -260 120 -91 42 -189 86 -218 96 -69 25 -155 32 -217 16z m-10 -369 c88 -21 90 -21 170 -3 168 38 225 29 293 -50 35 -39 39 -54 20 -73 -21 -21 -45 -13 -80 23 -48 50 -78 56 -172 31 -43 -12 -84 -28 -89 -37 -16 -25 0 -64 39 -101 75 -68 75 -68 72 -101 -4 -42 -43 -56 -158 -56 -115 0 -154 14 -158 56 -3 33 -3 33 72 101 39 37 55 76 39 101 -5 9 -46 25 -89 37 -94 25 -124 19 -172 -31 -35 -36 -59 -44 -80 -23 -19 19 -15 34 20 73 67 78 126 89 273 53z m-355 -198 c26 -26 25 -36 -6 -56 -22 -15 -33 -16 -92 -5 -162 30 -202 42 -202 62 0 18 9 19 140 19 127 0 142 -2 160 -20z m1200 1 c0 -20 -40 -32 -202 -62 -59 -11 -70 -10 -92 5 -31 20 -32 30 -6 56 18 18 33 20 160 20 131 0 140 -1 140 -19z m-1194 -135 c15 -12 17 -18 8 -33 -21 -35 -55 -43 -182 -43 -102 0 -124 3 -129 16 -9 24 5 31 107 52 115 25 170 27 196 8z m1114 -14 c62 -15 75 -21 75 -37 0 -19 -8 -20 -125 -23 -130 -2 -162 5 -184 41 -9 15 -7 21 9 33 24 19 107 13 225 -14z m-1090 -168 c42 -17 75 -16 152 6 38 11 49 11 62 1 25 -21 19 -46 -21 -85 -81 -79 -149 -84 -234 -20 -53 41 -69 74 -49 99 16 19 40 19 90 -1z m714 0 c48 -17 80 -15 154 7 37 12 44 11 58 -3 26 -25 10 -59 -45 -102 -85 -64 -153 -59 -234 20 -38 38 -46 61 -25 82 16 16 35 15 92 -4z m-696 -395 c61 -21 92 -47 92 -80 0 -23 -96 -168 -116 -176 -30 -11 -48 12 -59 78 -6 35 -19 81 -28 103 -20 46 -21 68 -5 84 17 17 45 15 116 -9z m926 -1 c8 -13 6 -29 -8 -65 -11 -26 -24 -77 -30 -112 -12 -66 -30 -89 -60 -78 -20 8 -116 154 -116 177 0 30 33 59 90 79 65 23 109 23 124 -1z"/>
    </g>
    <g id="layer105" fill="#ef9e14" stroke="none">
        <path d="M860 11622 c0 -68 72 -106 127 -67 18 13 22 13 33 0 7 -9 29 -15 51 -15 l39 0 0 60 0 60 -125 0 -125 0 0 -38z"/>
        <path d="M1290 11600 l0 -60 39 0 c22 0 44 6 51 15 11 13 15 13 33 0 56 -39 127 -1 127 68 l0 37 -125 0 -125 0 0 -60z"/>
        <path d="M8670 10923 c-47 -21 -87 -39 -90 -41 -6 -4 32 -37 123 -105 43 -32 44 -40 17 -67 -16 -16 -34 -20 -92 -20 l-73 -1 94 -88 c53 -51 91 -94 87 -100 -4 -6 -1 -9 7 -5 13 5 34 -12 36 -28 1 -5 4 -8 7 -7 3 1 18 -10 32 -24 74 -68 216 -96 312 -61 91 33 145 101 171 217 33 149 -70 289 -240 326 -28 6 -101 11 -160 11 -84 0 -111 3 -121 15 -16 19 -11 20 -110 -22z"/>
        <path d="M3442 10322 c-47 -42 -82 -119 -82 -177 0 -55 37 -140 76 -174 50 -45 97 -61 175 -61 95 0 150 30 201 109 25 40 28 54 28 126 0 72 -3 86 -29 127 -24 37 -77 88 -93 88 -3 0 -15 -24 -28 -52 -28 -63 -44 -77 -87 -78 -24 0 -38 8 -62 37 -18 22 -31 49 -31 65 0 38 -18 35 -68 -10z"/>
        <path d="M1020 10162 c0 -11 9 -27 20 -37 11 -10 20 -29 20 -43 0 -68 82 -142 159 -142 73 0 141 61 156 140 5 28 16 42 51 64 24 15 44 30 44 32 0 2 -101 4 -225 4 -212 0 -225 -1 -225 -18z"/>
        <path d="M594 9045 c-14 -21 -15 -31 -5 -51 9 -21 17 -25 49 -22 34 3 37 6 40 38 6 58 -53 82 -84 35z"/>
        <path d="M731 9056 c-7 -8 -11 -30 -9 -48 3 -31 5 -33 48 -36 41 -3 80 -24 80 -43 0 -4 -7 -15 -16 -23 -13 -13 -42 -16 -162 -16 -81 0 -153 -4 -160 -9 -8 -5 -12 -23 -10 -47 l3 -39 200 0 200 0 1 72 c0 46 5 77 15 89 9 11 9 15 2 10 -10 -5 -13 5 -13 42 0 47 -1 50 -31 56 -57 11 -136 7 -148 -8z"/>
        <path d="M10765 8984 c-97 -14 -201 -58 -287 -122 l-49 -37 83 -7 c126 -10 196 -38 275 -111 80 -74 133 -184 133 -277 0 -85 26 -150 84 -206 59 -57 118 -79 193 -72 76 7 121 35 232 145 l105 102 -45 48 c-29 30 -67 92 -103 166 -90 185 -210 296 -374 347 -63 20 -191 32 -247 24z m474 -530 c28 -36 27 -79 -4 -109 -51 -52 -145 -16 -145 55 0 73 104 111 149 54z"/>
        <path d="M753 8713 c-139 -3 -153 -5 -163 -23 -6 -11 -8 -31 -4 -45 6 -23 10 -25 69 -25 78 0 115 -23 96 -58 -11 -21 -17 -22 -186 -22 -144 0 -176 -3 -189 -16 -19 -18 -20 -38 -6 -65 10 -18 24 -19 248 -19 244 -1 272 -5 272 -42 0 -31 -43 -38 -260 -41 l-215 -2 -3 -35 c-6 -55 11 -60 180 -60 140 0 148 -1 159 -21 16 -30 -9 -52 -68 -59 l-48 -5 0 -40 0 -40 138 -3 137 -3 0 46 c0 42 -2 45 -26 45 -14 0 -33 4 -43 10 -47 24 -24 70 34 70 l34 0 3 230 c2 127 1 229 -2 228 -3 -1 -74 -4 -157 -5z m137 -132 c0 -25 -25 -44 -49 -36 -29 9 -33 33 -11 55 16 16 25 18 40 10 11 -6 20 -19 20 -29z"/>
        <path d="M279 8689 c-8 -16 -8 -28 0 -46 11 -23 12 -24 138 -21 139 3 143 5 129 64 -6 24 -8 24 -131 24 -117 0 -125 -1 -136 -21z"/>
        <path d="M10412 8633 c-63 -22 -128 -93 -148 -160 -41 -139 32 -361 158 -484 65 -64 153 -117 240 -144 44 -14 81 -25 84 -25 2 0 4 143 4 318 l0 318 -26 52 c-59 118 -187 170 -312 125z"/>
        <path d="M280 8341 c-25 -47 18 -92 71 -76 17 6 20 14 17 48 -3 40 -4 42 -40 45 -29 2 -39 -1 -48 -17z"/>
        <path d="M364 8156 c-3 -13 -1 -34 6 -45 10 -20 18 -22 113 -19 l102 3 3 43 3 42 -110 0 c-108 0 -111 0 -117 -24z"/>
        <path d="M507 8004 c-14 -15 -7 -82 9 -88 9 -3 102 -6 208 -6 l192 0 -6 48 -5 47 -196 3 c-107 1 -198 -1 -202 -4z"/>
        <path d="M674 7805 c-8 -31 19 -75 45 -75 21 0 51 30 51 52 0 37 -12 48 -51 48 -33 0 -40 -4 -45 -25z"/>
        <path d="M809 7804 c-7 -20 -6 -32 6 -50 14 -22 22 -24 83 -23 37 1 55 4 40 6 -26 4 -28 8 -28 49 l0 44 -45 0 c-40 0 -47 -3 -56 -26z"/>
        <path d="M7773 6226 c-81 -27 -145 -80 -193 -161 -21 -35 -25 -56 -28 -164 -3 -96 -1 -125 9 -132 8 -5 147 -9 310 -9 248 0 299 2 309 15 8 10 11 48 8 122 -3 123 -24 178 -90 245 -81 81 -222 118 -325 84z"/>
        <path d="M8845 6231 c-84 -22 -163 -83 -207 -159 -31 -54 -33 -64 -36 -170 -3 -79 -1 -117 8 -127 11 -13 59 -15 305 -15 162 0 300 3 309 6 13 5 16 25 16 118 0 106 -2 117 -30 174 -35 69 -92 125 -159 155 -49 22 -156 31 -206 18z"/>
        <path d="M9902 4254 c-8 -9 -12 -34 -10 -67 3 -51 4 -52 53 -79 l50 -27 -50 -3 -50 -3 0 -124 c0 -107 2 -125 17 -135 23 -14 88 8 250 84 22 10 55 41 83 77 25 34 56 68 70 77 34 22 31 41 -7 59 -82 38 -169 77 -173 77 -3 0 -27 9 -53 21 -26 12 -58 26 -72 31 -14 6 -33 14 -42 19 -26 13 -51 10 -66 -7z"/>
        <path d="M11010 4071 c0 -5 7 -25 15 -45 l15 -36 100 0 100 0 0 45 0 45 -115 0 c-63 0 -115 -4 -115 -9z"/>
        <path d="M11462 4038 l3 -43 60 -3 c79 -4 103 3 111 33 11 44 -10 55 -98 55 l-79 0 3 -42z"/>
        <path d="M8295 4039 c-55 -13 -153 -61 -193 -96 l-34 -28 43 -48 43 -47 187 0 188 0 19 -25 c11 -14 23 -25 27 -25 4 0 29 23 56 50 l49 50 -176 0 c-172 0 -175 0 -199 25 -29 28 -30 42 -9 70 13 18 30 20 167 25 150 5 152 5 116 21 -79 36 -197 48 -284 28z"/>
        <path d="M8285 3701 c-3 -5 8 -19 24 -30 41 -29 138 -29 175 0 14 11 24 25 21 30 -8 12 -212 12 -220 0z"/>
        <path d="M7869 3439 c-44 -89 -78 -163 -76 -166 3 -2 46 17 97 42 51 25 94 44 97 42 2 -3 -28 -69 -67 -148 -39 -78 -69 -147 -67 -152 2 -6 15 2 30 16 33 34 45 34 82 -1 57 -52 125 -89 235 -127 57 -21 249 -30 315 -17 148 31 211 61 343 167 38 31 162 205 145 205 -4 0 -40 -32 -80 -71 -41 -40 -76 -69 -79 -66 -9 9 -53 190 -49 198 3 3 35 -4 72 -17 38 -12 69 -18 71 -14 2 5 -19 42 -46 82 l-49 73 -234 58 -234 57 -212 0 -213 0 -81 -161z"/>
        <path d="M7662 3522 c-15 -30 -44 -133 -39 -138 6 -6 197 88 197 97 0 4 -34 19 -75 32 -69 24 -76 24 -83 9z"/>
        <path d="M10660 2095 c-196 -29 -359 -111 -497 -249 l-73 -73 14 -44 c8 -24 38 -123 66 -219 28 -96 76 -258 107 -359 l55 -185 99 -133 c65 -88 105 -133 116 -131 16 3 22 15 73 163 55 160 52 155 112 155 135 0 253 75 313 195 13 28 26 57 29 66 2 10 26 20 62 28 155 32 148 29 189 83 l39 50 -24 45 c-15 28 -35 49 -54 57 -36 16 -126 57 -285 132 l-114 54 7 108 c3 59 9 141 12 183 l6 76 -38 6 c-53 9 -114 7 -214 -8z m248 -850 c2 -32 -1 -62 -5 -66 -5 -5 -48 3 -96 18 -113 34 -116 51 -14 82 39 13 77 24 82 26 23 8 30 -5 33 -60z"/>
        <path d="M7843 1730 c-32 -13 -213 -198 -213 -218 0 -9 37 -54 82 -99 l83 -83 -78 -78 -77 -78 2 -214 3 -215 173 -3 c113 -2 171 1 167 7 -5 9 59 123 92 162 9 11 13 48 13 120 l0 105 38 37 c21 20 41 37 45 37 4 0 7 -28 7 -62 l0 -63 41 64 c29 44 43 80 48 117 6 40 15 63 36 84 26 27 27 33 21 85 -5 43 -2 63 9 83 15 26 15 31 -15 101 -35 81 -42 90 -83 109 -33 14 -359 16 -394 2z m399 -127 c21 -20 38 -41 38 -45 0 -4 -43 -8 -95 -8 -105 0 -131 9 -179 59 l-30 31 114 0 114 0 38 -37z m-344 -18 c12 -14 22 -27 22 -30 0 -3 -27 -5 -60 -5 -33 0 -60 3 -60 7 0 14 44 53 60 53 9 0 26 -11 38 -25z m-5 -156 l-31 -32 -26 26 c-14 14 -26 29 -26 32 0 3 26 5 57 5 l58 0 -32 -31z m377 25 c0 -4 -19 -24 -41 -45 l-41 -39 -112 0 -111 0 45 44 45 44 108 1 c59 1 107 -2 107 -5z m-170 -170 c0 -4 -18 -24 -40 -45 l-40 -39 -105 0 c-58 0 -105 2 -105 5 0 11 37 49 65 66 24 15 49 19 128 19 53 0 97 -3 97 -6z m-180 -179 c0 -3 -45 -50 -100 -106 l-100 -101 0 96 c0 80 3 97 18 105 17 10 182 16 182 6z m66 -262 c-4 -10 -31 -13 -103 -13 l-98 0 100 100 100 100 3 -86 c2 -48 1 -93 -2 -101z"/>
    </g>
    <g id="layer106" fill="#1398fd" stroke="none">
        <path d="M7893 11627 c-124 -66 -180 -173 -154 -294 16 -73 55 -146 97 -181 62 -53 80 -67 112 -89 53 -37 80 -69 84 -99 3 -26 9 -30 83 -52 44 -13 88 -26 98 -29 25 -8 22 29 -9 115 -27 77 -28 109 -3 125 12 8 32 -1 85 -39 38 -27 71 -52 72 -56 5 -10 82 -10 82 0 0 4 15 16 33 27 17 10 49 32 70 49 30 24 42 28 55 20 21 -13 27 -56 12 -84 -14 -25 -3 -47 13 -27 13 14 185 165 265 231 26 21 70 60 99 87 28 27 56 49 62 49 33 0 5 119 -41 170 -64 71 -128 100 -220 100 -88 0 -138 -22 -203 -88 -52 -52 -62 -72 -100 -186 -64 -193 -107 -192 -171 4 -37 110 -48 130 -101 184 -63 64 -115 86 -206 86 -55 0 -82 -6 -114 -23z"/>
        <path d="M2955 11398 c-103 -34 -187 -100 -235 -182 -88 -156 -79 -309 30 -466 9 -14 32 -54 50 -89 23 -43 44 -68 65 -78 16 -8 35 -24 41 -36 62 -126 99 -160 165 -156 40 3 43 1 62 -35 35 -67 105 -93 166 -62 31 16 61 56 61 81 0 10 10 15 31 15 17 0 40 5 52 12 49 26 52 35 52 161 l0 119 -36 32 c-30 25 -221 157 -303 209 -40 25 -65 55 -75 93 -13 47 -14 71 -2 78 5 3 90 -21 190 -54 100 -33 190 -60 201 -60 26 0 33 33 28 116 -4 66 -4 66 -64 122 -93 89 -184 162 -222 177 -40 17 -209 19 -257 3z"/>
        <path d="M3376 4463 c-50 -17 -114 -70 -136 -112 -7 -14 -17 -30 -21 -35 -5 -6 -25 -36 -45 -66 -68 -102 -64 -100 -181 -100 -135 0 -166 -15 -229 -109 -70 -106 -70 -105 129 -109 l167 -2 58 -88 c31 -48 62 -93 69 -100 6 -6 15 -21 18 -32 6 -17 50 -39 59 -29 2 2 24 35 50 72 67 100 63 154 -21 264 -32 42 -24 52 18 22 50 -35 129 -49 292 -49 167 0 184 -5 239 -69 54 -64 64 -87 46 -108 -33 -38 -68 -111 -68 -141 0 -29 15 -75 33 -97 4 -5 43 -64 87 -129 91 -137 114 -166 134 -166 16 0 57 49 105 124 l31 50 0 350 c0 334 -1 353 -20 384 -33 54 -8 82 76 82 55 0 121 28 154 67 36 40 63 96 59 118 -4 19 -15 20 -179 23 -96 1 -184 0 -195 -2 -11 -3 -29 -20 -39 -38 -11 -18 -21 -27 -24 -20 -2 7 -10 12 -18 12 -8 0 -14 3 -14 8 0 4 -12 14 -28 21 -21 12 -84 16 -292 18 -225 2 -272 0 -314 -14z"/>
        <path d="M3967 3250 c-56 -21 -115 -78 -146 -137 -24 -49 -30 -172 -9 -220 27 -63 68 -110 120 -138 48 -27 61 -30 143 -30 73 1 97 5 127 22 59 35 88 65 115 118 35 69 37 190 3 250 -74 133 -218 188 -353 135z"/>
        <path d="M5507 2073 c-4 -3 -7 -41 -7 -84 l0 -77 43 -44 c33 -33 74 -105 170 -298 l128 -254 -50 -48 c-65 -63 -89 -63 -147 -3 -59 60 -60 97 -4 155 35 37 40 47 40 89 0 42 -5 51 -40 86 -31 30 -40 47 -42 79 l-3 41 -205 0 -205 0 -3 -250 -2 -249 77 -78 77 -78 -37 -38 c-37 -38 -37 -38 -37 -125 l0 -87 223 -2 222 -3 5 -113 c3 -64 10 -116 16 -120 6 -4 21 -25 33 -47 20 -37 38 -48 189 -123 l167 -82 88 0 87 0 0 58 c0 54 2 60 40 97 39 38 40 41 40 107 l0 68 -44 0 c-50 0 -59 8 -50 45 5 22 11 25 50 25 37 0 44 3 44 19 0 11 39 96 86 190 l85 171 -71 142 -71 143 106 210 106 210 110 53 110 54 -3 81 -3 82 -292 3 -293 2 0 -79 c0 -78 -1 -82 -67 -210 -36 -72 -69 -131 -72 -131 -5 0 -62 112 -82 160 -4 9 2 35 12 58 15 33 19 60 17 120 l-3 77 -266 3 c-146 1 -268 -1 -272 -5z m883 -1010 c-1 -5 -13 -33 -28 -63 l-27 -55 -64 -3 c-94 -4 -95 -3 -59 68 l31 60 74 0 c40 0 73 -3 73 -7z m-260 -369 c6 -14 8 -30 4 -35 -8 -13 -128 -11 -141 2 -8 8 -8 18 -1 35 10 21 18 24 70 24 54 0 59 -2 68 -26z"/>
        <path d="M6570 1628 c-12 -29 -28 -60 -34 -68 -6 -8 -29 -52 -50 -96 l-39 -82 53 -108 c67 -138 77 -146 104 -90 13 28 16 73 16 265 0 255 -6 277 -50 179z"/>
        <path d="M6545 1011 c-44 -86 -85 -175 -85 -187 0 -11 18 -14 80 -14 l80 0 0 83 c0 73 -3 87 -23 110 -27 32 -39 34 -52 8z"/>
    </g>
    <g id="layer107" fill="#5eafa5" stroke="none">
        <path d="M8675 11629 c-49 -24 -131 -103 -150 -144 -8 -16 -26 -67 -40 -111 -50 -153 -86 -180 -132 -99 -28 49 -28 50 -2 -93 11 -64 18 -127 16 -139 -4 -21 0 -23 34 -23 22 0 39 4 39 8 0 4 15 16 33 27 17 10 49 32 70 49 30 24 42 28 55 20 21 -13 27 -56 12 -84 -14 -25 -3 -47 13 -27 13 14 185 165 265 231 26 21 70 60 99 87 28 27 56 49 62 49 33 0 5 119 -41 170 -29 31 -84 72 -121 88 -45 19 -165 15 -212 -9z"/>
        <path d="M6100 11506 c0 -3 15 -20 33 -36 26 -24 41 -29 80 -30 50 0 110 -25 139 -57 25 -27 48 -87 48 -125 0 -78 -73 -162 -152 -174 -30 -5 -42 -15 -68 -56 -35 -54 -88 -94 -137 -104 -19 -4 -35 -14 -38 -24 -15 -48 59 -138 132 -161 22 -7 133 -14 266 -16 l227 -5 0 35 c0 27 7 41 31 61 33 28 53 32 93 16 30 -11 59 -63 51 -90 -6 -18 -4 -18 41 -1 54 21 64 33 64 83 l0 38 -292 2 -293 3 -3 51 c-3 44 1 55 26 82 69 74 175 43 206 -60 5 -16 20 -18 138 -18 l133 1 -156 66 -156 67 9 41 c14 57 4 153 -20 208 -29 64 -104 142 -170 174 -44 21 -74 28 -144 31 -48 3 -88 2 -88 -2z"/>
        <path d="M966 11438 c9 -98 14 -115 40 -139 15 -13 33 -39 40 -56 14 -32 16 -33 74 -33 l60 0 0 33 c0 17 -14 80 -31 140 l-32 107 -78 0 -78 0 5 -52z"/>
        <path d="M1251 11383 c-17 -60 -31 -123 -31 -140 l0 -33 60 0 c58 0 60 1 74 33 7 17 25 43 40 56 26 24 31 41 40 139 l5 52 -78 0 -78 0 -32 -107z"/>
        <path d="M990 11233 c0 -13 5 -23 10 -23 13 0 13 11 0 30 -8 12 -10 11 -10 -7z"/>
        <path d="M1397 11236 c-4 -10 -5 -21 -2 -24 9 -9 17 6 13 25 -3 17 -4 17 -11 -1z"/>
        <path d="M7990 11039 c0 -6 9 -19 19 -28 11 -9 21 -30 23 -46 3 -27 8 -31 83 -53 44 -13 88 -26 98 -29 14 -4 17 1 17 28 0 18 -3 29 -7 26 -3 -4 -57 20 -120 53 -62 34 -113 56 -113 49z"/>
        <path d="M1291 10539 c-38 -38 -43 -101 -11 -142 15 -18 19 -34 14 -52 -9 -37 11 -55 63 -55 27 0 42 4 38 10 -3 6 -19 10 -36 10 -22 0 -29 5 -29 20 0 15 7 20 25 20 46 0 115 50 115 82 0 5 -29 8 -65 8 -58 0 -65 2 -65 20 0 18 7 20 65 20 76 0 82 11 34 59 -25 25 -39 31 -74 31 -35 0 -49 -6 -74 -31z"/>
        <path d="M5640 10477 c0 -35 -54 -103 -99 -127 -44 -22 -122 -27 -168 -9 -15 5 -43 24 -60 42 l-33 31 0 -35 c0 -47 -23 -77 -63 -81 -68 -6 -34 -83 58 -130 56 -29 162 -36 220 -14 55 21 113 86 138 152 23 60 35 194 18 194 -6 0 -11 -11 -11 -23z"/>
        <path d="M6050 10338 c1 -58 79 -202 127 -234 35 -23 43 -7 43 89 0 76 -1 78 -27 87 -46 17 -76 33 -110 58 l-33 23 0 -23z"/>
        <path d="M6500 10310 c-8 -5 -37 -17 -65 -26 -27 -9 -51 -18 -53 -19 -1 -1 9 -25 23 -52 30 -58 98 -128 114 -119 12 8 16 226 4 226 -5 0 -15 -5 -23 -10z"/>
        <path d="M10660 2095 c-68 -10 -175 -38 -187 -49 -2 -1 2 -29 7 -62 6 -32 19 -119 30 -192 20 -143 35 -178 78 -188 15 -4 183 -51 374 -105 190 -55 352 -99 360 -99 8 0 20 11 28 24 11 22 10 30 -14 70 -15 25 -31 46 -35 46 -8 0 -70 28 -310 141 l-104 49 7 108 c3 59 9 141 12 183 l6 76 -38 6 c-53 9 -114 7 -214 -8z"/>
    </g>
    <g id="layer108" fill="#dd549c" stroke="none">
        <path d="M10730 11576 c-266 -109 -513 -341 -608 -572 -43 -103 -55 -165 -54 -283 1 -165 45 -277 142 -364 77 -69 142 -91 270 -91 135 0 201 23 272 97 l48 50 48 -50 c71 -74 137 -97 272 -97 140 0 200 23 286 108 74 74 112 160 124 281 19 188 -32 368 -154 532 -118 160 -315 313 -498 386 -78 32 -77 32 -148 3z m132 -253 c114 -147 161 -244 183 -385 l6 -36 58 5 c76 7 131 -21 169 -86 22 -37 26 -57 27 -120 l0 -76 -95 -3 c-103 -3 -153 6 -194 39 -49 39 -61 74 -66 209 -5 114 -8 131 -37 192 -44 93 -95 168 -114 168 -26 0 -98 -115 -129 -206 -15 -43 -20 -84 -20 -161 0 -84 -4 -111 -20 -142 -40 -80 -98 -104 -240 -99 l-95 3 0 76 c1 63 5 83 27 120 38 65 93 93 168 86 63 -5 69 0 70 63 1 43 47 158 94 233 61 99 126 177 146 177 10 0 37 -26 62 -57z"/>
        <path d="M6100 11506 c0 -3 15 -20 33 -36 26 -24 41 -29 80 -30 50 0 110 -25 139 -57 25 -27 48 -87 48 -125 0 -78 -73 -162 -152 -174 -30 -5 -42 -15 -68 -56 -35 -54 -88 -94 -137 -104 -19 -4 -35 -14 -38 -24 -15 -48 59 -138 132 -161 22 -7 133 -14 266 -16 l227 -5 0 35 c0 50 49 91 99 83 47 -7 75 -37 75 -79 l0 -34 46 18 c45 17 45 17 48 68 l3 51 -288 2 -288 3 -3 51 c-4 60 20 96 74 114 69 23 143 -16 160 -86 6 -24 7 -24 138 -24 l131 0 -156 67 -156 67 9 41 c13 55 3 156 -21 210 -28 63 -104 140 -169 172 -44 21 -74 28 -144 31 -48 3 -88 2 -88 -2z"/>
        <path d="M5640 10477 c0 -35 -54 -103 -99 -127 -44 -22 -122 -27 -168 -9 -15 5 -43 24 -60 42 l-33 31 0 -35 c0 -47 -23 -77 -63 -81 -68 -6 -34 -83 58 -130 57 -30 160 -36 219 -13 60 23 118 88 140 157 22 72 32 173 17 182 -7 5 -11 -2 -11 -17z"/>
        <path d="M6053 10327 c10 -63 57 -153 103 -198 55 -54 64 -46 64 64 0 76 -1 78 -27 87 -46 17 -76 33 -112 59 l-34 24 6 -36z"/>
        <path d="M6500 10310 c-8 -5 -37 -17 -65 -26 -27 -9 -51 -18 -52 -19 -8 -6 45 -94 79 -131 58 -63 68 -50 68 82 0 57 -3 104 -7 104 -5 0 -15 -5 -23 -10z"/>
        <path d="M10751 10234 c-64 -46 -163 -69 -288 -69 -62 1 -113 -3 -113 -7 0 -12 87 -68 148 -95 229 -101 510 -79 707 57 25 17 45 34 45 38 0 4 -51 8 -112 7 -126 0 -222 23 -290 70 -45 30 -53 30 -97 -1z"/>
        <path d="M1808 8921 c-88 -44 -124 -88 -155 -186 -25 -79 -11 -167 37 -240 15 -22 35 -55 45 -74 16 -32 16 -36 0 -71 -26 -57 -75 -76 -138 -56 -38 13 -83 20 -114 17 -10 -1 -13 -65 -13 -285 l0 -285 -32 -4 c-27 -3 -24 -4 12 -5 45 -2 188 19 225 33 11 4 34 13 50 20 17 8 42 18 56 23 29 12 164 118 194 153 l20 24 -22 -19 -23 -19 0 441 c0 256 -4 451 -10 466 -10 28 -67 86 -84 86 -6 -1 -28 -9 -48 -19z"/>
        <path d="M3360 6791 c-84 -26 -169 -99 -211 -181 -19 -38 -23 -61 -24 -140 0 -81 4 -102 24 -144 25 -50 71 -102 128 -146 l33 -25 -59 -90 c-32 -49 -61 -99 -65 -110 -5 -17 18 -44 117 -143 68 -67 131 -122 140 -122 8 0 23 7 31 16 14 13 16 47 16 214 0 187 1 200 19 210 26 13 256 13 282 0 18 -10 19 -25 19 -401 0 -340 2 -394 16 -422 23 -45 44 -66 86 -88 81 -41 185 -13 235 63 l28 42 0 245 c0 205 -3 257 -18 311 -26 95 -61 161 -112 211 -25 24 -45 51 -45 60 0 9 18 29 40 44 120 83 171 252 118 392 -29 79 -112 162 -191 191 -54 21 -74 22 -320 21 -144 0 -273 -4 -287 -8z m346 -130 c25 -38 43 -74 39 -80 -3 -7 -43 -11 -96 -11 -69 0 -91 3 -95 14 -8 20 77 146 97 146 5 0 30 -31 55 -69z m-206 -171 c0 -11 -1 -20 -3 -20 -2 0 -46 -9 -97 -20 -136 -29 -140 -28 -140 20 l0 40 120 0 c113 0 120 -1 120 -20z m451 7 c44 -34 52 -105 15 -142 -48 -48 -122 -40 -151 16 -22 41 -18 74 11 108 21 26 33 31 67 31 23 0 49 -6 58 -13z"/>
        <path d="M7773 6226 c-82 -27 -147 -81 -193 -161 -28 -49 -42 -185 -19 -185 8 0 41 -27 74 -60 l59 -60 90 0 90 0 -59 60 c-54 55 -57 60 -34 60 17 0 43 -18 84 -60 l59 -60 60 0 60 0 -59 60 -59 60 133 0 133 0 -4 63 c-7 111 -74 209 -179 263 -63 32 -172 41 -236 20z"/>
        <path d="M8845 6231 c-135 -35 -233 -150 -243 -282 -4 -57 -2 -69 10 -69 9 0 43 -27 76 -60 l61 -60 88 0 87 0 -59 60 c-58 58 -59 60 -31 60 20 0 44 -16 90 -60 60 -58 65 -60 114 -60 29 0 52 3 52 6 0 3 -22 27 -50 53 -27 26 -50 50 -50 54 0 4 57 7 126 7 l127 0 -5 68 c-12 160 -135 280 -296 288 -37 2 -80 0 -97 -5z"/>
        <path d="M2845 5961 c-35 -15 -59 -50 -59 -87 0 -31 14 -48 140 -175 100 -100 149 -142 174 -149 19 -5 87 -10 151 -10 149 0 229 25 138 44 -24 4 -76 50 -203 176 -99 98 -186 175 -206 183 -47 20 -111 28 -135 18z"/>
        <path d="M5507 2073 c-4 -3 -7 -41 -7 -84 l0 -77 43 -44 c33 -33 74 -105 171 -298 l127 -255 -50 -47 c-65 -63 -89 -63 -147 -3 -59 60 -60 97 -4 155 35 37 40 47 40 89 0 42 -5 51 -40 86 -31 30 -40 47 -42 79 l-3 41 -205 0 -205 0 -3 -250 -2 -249 77 -78 77 -78 -37 -38 c-37 -38 -37 -38 -37 -125 l0 -87 223 -2 222 -3 5 -113 c3 -64 10 -116 16 -120 6 -4 21 -25 33 -47 20 -37 38 -48 189 -123 l167 -82 88 0 87 0 0 58 c0 54 2 60 40 97 39 38 40 41 40 107 l0 68 -44 0 c-50 0 -59 8 -50 45 5 22 11 25 50 25 37 0 44 3 44 19 0 11 39 96 86 190 l85 170 -71 144 -71 143 106 209 106 210 110 53 110 54 -3 81 -3 82 -292 3 -293 2 0 -79 c0 -78 -1 -82 -67 -210 -36 -72 -69 -131 -72 -131 -5 0 -62 112 -82 160 -4 9 2 35 12 58 15 33 19 60 17 120 l-3 77 -266 3 c-146 1 -268 -1 -272 -5z m883 -1010 c-1 -5 -13 -33 -28 -63 l-27 -55 -64 -3 c-94 -4 -95 -3 -59 68 l31 60 74 0 c40 0 73 -3 73 -7z m-260 -369 c6 -14 8 -30 4 -35 -8 -13 -128 -11 -141 2 -8 8 -8 18 -1 35 10 21 18 24 70 24 54 0 59 -2 68 -26z"/>
        <path d="M9003 1633 c-49 -17 -51 -22 -23 -48 32 -29 24 -35 -40 -35 -64 0 -74 9 -38 34 39 28 0 18 -195 -48 -205 -69 -209 -76 -54 -76 l87 0 48 -45 47 -45 -112 0 -111 0 -52 50 -51 50 -62 -7 c-34 -3 -66 -10 -72 -15 -5 -5 -11 -67 -13 -138 l-4 -130 -43 -47 c-43 -47 -44 -47 -45 -21 0 48 -16 38 -50 -32 -19 -39 -37 -70 -41 -70 -7 0 -22 -35 -22 -50 0 -11 -91 -186 -106 -203 -13 -16 -13 -17 2 -11 9 3 17 10 17 15 0 5 5 9 10 9 6 0 10 -37 10 -90 0 -90 0 -90 38 -132 87 -97 257 -258 273 -258 20 0 298 276 310 308 5 13 9 55 9 93 0 66 1 69 20 59 12 -7 92 -9 217 -8 l198 3 3 215 2 214 -77 78 -78 78 83 83 c45 45 82 90 82 99 0 15 -44 66 -100 114 -24 20 -27 21 -67 7z m-31 -205 l-32 -33 -32 33 -33 32 65 0 65 0 -33 -32z m-442 -228 l-1 -115 -44 48 -45 49 0 111 0 111 45 -44 45 -44 0 -116z m425 48 c19 -20 35 -39 35 -42 0 -3 -47 -6 -105 -6 l-105 0 -40 39 c-22 21 -40 42 -40 46 0 4 50 5 110 3 l111 -3 34 -37z m-280 -78 l40 -41 3 -109 c3 -63 0 -110 -5 -110 -12 0 -67 59 -82 87 -12 25 -15 213 -3 213 4 0 26 -18 47 -40z m393 -72 c8 -8 12 -46 12 -106 l0 -94 -100 101 c-55 56 -100 103 -100 106 0 11 176 5 188 -7z m-708 -129 l0 -62 -90 -91 -90 -91 0 69 0 68 83 84 c45 45 85 83 90 83 4 1 7 -27 7 -60z m176 -21 l84 -83 0 -70 0 -69 -87 87 -87 88 -4 65 c-2 35 -1 64 3 64 4 0 45 -37 91 -82z m388 -116 c-48 -2 -93 -1 -101 2 -10 4 -13 31 -13 103 l0 98 100 -100 100 -100 -86 -3z m-564 -222 c0 -82 -3 -150 -8 -150 -4 0 -41 34 -82 75 l-74 75 74 75 c41 41 78 75 82 75 5 0 8 -67 8 -150z m170 75 l74 -75 -74 -75 c-41 -41 -78 -75 -82 -75 -5 0 -8 68 -8 150 0 83 3 150 8 150 4 0 41 -34 82 -75z"/>
    </g>
    <g id="layer109" fill="#a2a2b2" stroke="none">
        <path d="M10749 11579 c-175 -61 -371 -204 -499 -364 -119 -151 -180 -313 -180 -481 0 -114 14 -181 52 -257 40 -80 90 -132 162 -167 163 -81 367 -56 466 57 21 24 43 43 50 43 7 0 29 -19 50 -43 99 -113 303 -138 466 -57 72 35 122 87 162 167 76 150 71 370 -12 558 -96 215 -374 463 -612 545 -49 17 -53 17 -105 -1z m113 -256 c114 -147 161 -244 183 -385 l6 -36 58 5 c76 7 131 -21 169 -86 22 -37 26 -57 27 -120 l0 -76 -95 -3 c-103 -3 -153 6 -194 39 -49 39 -61 74 -66 209 -5 114 -8 131 -37 192 -44 93 -95 168 -114 168 -26 0 -98 -115 -129 -206 -15 -43 -20 -84 -20 -161 0 -84 -4 -111 -20 -142 -40 -80 -98 -104 -240 -99 l-95 3 0 76 c1 63 5 83 27 120 38 65 93 93 168 86 63 -5 69 0 70 63 1 43 47 158 94 233 61 99 126 177 146 177 10 0 37 -26 62 -57z"/>
        <path d="M6133 11476 c32 -30 45 -36 83 -36 47 0 107 -25 136 -57 25 -27 48 -87 48 -125 0 -78 -73 -162 -151 -174 -27 -5 -41 -14 -54 -38 -37 -64 -115 -126 -159 -126 -50 0 -26 -96 35 -143 55 -41 99 -47 337 -47 l222 0 0 29 c0 44 52 85 99 77 45 -7 73 -36 75 -76 1 -27 4 -30 23 -25 68 17 73 22 73 75 l0 50 -287 2 -288 3 -3 51 c-4 60 20 96 74 114 69 23 143 -16 160 -86 6 -24 7 -24 138 -24 l131 0 -156 67 -156 67 9 41 c13 55 3 156 -21 210 -28 63 -104 140 -169 172 -45 22 -73 28 -146 31 l-91 4 38 -36z"/>
        <path d="M975 11408 c8 -68 15 -88 36 -111 15 -15 32 -41 39 -57 12 -28 15 -30 71 -30 l59 0 0 35 c0 19 -4 44 -9 57 -10 26 -23 72 -41 141 l-13 47 -76 0 -77 0 11 -82z"/>
        <path d="M1270 11443 c-18 -69 -31 -115 -41 -141 -5 -13 -9 -38 -9 -57 l0 -35 59 0 c56 0 59 2 71 30 7 16 24 42 39 57 21 23 28 43 36 111 l11 82 -77 0 -76 0 -13 -47z"/>
        <path d="M990 11116 l0 -54 -55 -26 c-105 -52 -175 -162 -175 -277 0 -42 -3 -49 -20 -49 -15 0 -20 7 -20 25 l0 25 -81 -40 c-79 -40 -80 -41 -74 -73 34 -175 170 -272 372 -265 l78 3 5 86 c3 59 11 94 23 113 41 62 173 86 252 46 22 -11 57 -20 78 -20 98 0 162 -96 134 -202 -7 -25 -5 -28 16 -28 46 0 140 31 181 59 66 46 115 122 131 208 6 32 5 33 -74 73 l-81 40 0 -25 c0 -18 -5 -25 -20 -25 -17 0 -20 7 -20 49 0 115 -70 225 -175 277 l-55 26 0 54 0 54 -210 0 -210 0 0 -54z"/>
        <path d="M1314 10555 c-55 -28 -71 -103 -34 -155 14 -20 19 -37 14 -55 -10 -38 11 -55 65 -54 44 2 44 2 11 8 -29 5 -35 10 -35 31 0 20 5 26 30 28 44 4 75 22 91 54 l15 28 -66 0 c-61 0 -65 1 -65 23 0 22 3 23 65 19 74 -5 79 2 38 48 -34 38 -85 47 -129 25z"/>
        <path d="M5637 10461 c-7 -36 -59 -96 -100 -118 -50 -25 -137 -21 -190 11 -26 14 -51 34 -56 44 -8 14 -10 10 -11 -18 0 -48 -23 -78 -63 -82 -68 -6 -34 -83 58 -130 57 -30 160 -36 219 -13 60 23 118 88 140 157 21 68 32 178 19 178 -6 0 -13 -13 -16 -29z"/>
        <path d="M6054 10319 c12 -61 58 -147 102 -190 56 -55 65 -45 62 64 l-3 78 -58 24 c-32 13 -67 31 -76 39 -26 24 -34 19 -27 -15z"/>
        <path d="M6465 10294 c-27 -13 -58 -24 -67 -24 -10 0 -18 -1 -18 -3 0 -17 50 -98 82 -133 58 -63 68 -50 68 82 0 57 -3 104 -7 103 -5 0 -30 -11 -58 -25z"/>
        <path d="M10735 10225 c-83 -48 -185 -69 -296 -63 -49 3 -89 2 -89 -2 0 -12 88 -66 160 -98 98 -44 163 -57 290 -57 127 0 192 13 290 57 72 32 160 86 160 98 0 4 -42 5 -92 3 -114 -6 -207 14 -296 62 -34 19 -64 35 -65 34 -1 0 -29 -16 -62 -34z"/>
        <path d="M7775 6227 c-22 -8 -51 -19 -64 -26 -32 -18 -111 -91 -111 -103 0 -6 21 -30 46 -54 45 -44 45 -44 18 -44 -17 0 -39 11 -56 27 -38 37 -50 22 -56 -71 -4 -61 -2 -76 9 -76 8 0 41 -27 74 -60 l59 -60 90 0 90 0 -59 60 c-54 55 -57 60 -34 60 17 0 43 -18 84 -60 l59 -60 60 0 60 0 -59 60 -59 60 132 0 133 0 -3 58 -3 57 -191 3 -190 2 -59 60 -59 60 212 0 c117 0 212 4 212 9 0 12 -56 54 -109 80 -54 28 -168 37 -226 18z"/>
        <path d="M8845 6231 c-51 -13 -112 -49 -156 -91 l-43 -40 49 -50 49 -50 -30 0 c-20 0 -39 9 -54 25 -31 33 -37 32 -49 -12 -16 -56 -14 -133 3 -133 7 0 41 -27 74 -60 l61 -60 88 0 87 0 -59 60 c-58 58 -59 60 -31 60 20 0 44 -16 90 -60 60 -58 65 -60 114 -60 29 0 52 3 52 6 0 3 -22 27 -50 53 -27 26 -50 50 -50 54 0 4 56 7 125 7 l126 0 -3 58 -3 57 -191 3 -190 2 -59 60 -59 60 219 0 219 0 -29 30 c-65 68 -207 106 -300 81z"/>
        <path d="M7402 5778 c-16 -16 -15 -33 4 -48 13 -11 19 -10 36 8 18 17 19 23 8 36 -15 19 -32 20 -48 4z"/>
        <path d="M9340 5775 c-11 -14 -10 -19 8 -38 21 -20 23 -20 39 -4 14 13 15 21 7 35 -15 23 -38 26 -54 7z"/>
        <path d="M10660 2095 c-68 -10 -175 -38 -187 -49 -2 -1 2 -29 7 -62 6 -32 19 -119 30 -192 20 -143 35 -178 78 -188 15 -4 183 -51 374 -105 190 -55 352 -99 360 -99 8 0 20 11 28 24 11 22 10 30 -14 70 -15 25 -31 46 -36 46 -8 0 -53 20 -299 136 l-114 54 7 108 c3 59 9 141 12 183 l6 76 -38 6 c-53 9 -114 7 -214 -8z"/>
        <path d="M11005 2008 c-3 -40 -7 -106 -8 -147 l-2 -75 188 -86 c103 -47 193 -92 201 -100 27 -30 166 -272 166 -290 0 -22 -1 -22 -140 -50 -58 -11 -137 -28 -177 -36 l-72 -16 -32 -56 c-67 -119 -175 -197 -312 -226 -37 -7 -69 -15 -71 -17 -2 -2 -27 -71 -56 -154 -78 -221 -85 -239 -93 -252 -17 -28 -44 -9 -102 70 -32 45 -104 142 -158 215 -77 102 -103 146 -117 195 -101 340 -201 671 -204 674 -1 2 -13 -18 -26 -44 -80 -167 -111 -344 -90 -510 28 -226 107 -393 259 -544 69 -70 176 -148 241 -176 14 -5 36 -15 50 -21 122 -54 308 -80 448 -62 91 11 194 36 252 62 14 6 36 16 50 21 65 28 172 106 241 176 114 113 181 226 228 381 33 112 45 246 31 358 -11 89 -36 192 -60 250 -28 65 -38 83 -78 147 -90 143 -255 280 -417 346 -32 13 -115 39 -124 39 -5 0 -12 -33 -16 -72z"/>
        <path d="M6570 1628 c-12 -29 -28 -60 -34 -68 -6 -8 -29 -52 -50 -96 l-39 -82 53 -108 c68 -138 77 -146 104 -90 13 28 16 73 16 265 0 255 -6 277 -50 179z"/>
    </g>
    <g id="layer110" fill="#cc44ee" stroke="none">
        <path d="M10592 8248 l3 -381 50 -17 c28 -9 62 -20 78 -24 l27 -6 0 319 0 319 -28 53 c-25 48 -98 119 -123 119 -6 0 -8 -150 -7 -382z"/>
        <path d="M7773 6226 c-59 -19 -108 -51 -143 -94 l-30 -36 47 -48 47 -48 -31 0 c-19 0 -43 10 -61 25 l-30 25 -11 -45 c-15 -61 -14 -125 2 -125 7 0 39 -27 72 -60 l59 -60 90 0 90 0 -59 60 c-54 55 -57 60 -34 60 17 0 43 -18 84 -60 l59 -60 60 0 60 0 -59 60 -59 60 132 0 133 0 -3 58 -3 57 -191 3 -190 2 -59 60 -59 60 212 0 c117 0 212 4 212 9 0 12 -56 54 -109 80 -55 29 -168 37 -228 17z"/>
        <path d="M8845 6231 c-71 -19 -185 -101 -185 -134 0 -6 19 -31 42 -54 l42 -43 -29 0 c-18 0 -40 10 -57 27 l-27 26 -11 -28 c-6 -15 -13 -54 -17 -86 -5 -49 -3 -59 9 -59 9 0 43 -27 76 -60 l61 -60 88 0 87 0 -59 60 c-58 58 -59 60 -31 60 20 0 44 -16 90 -60 60 -58 65 -60 114 -60 29 0 52 3 52 6 0 3 -22 27 -50 53 -27 26 -50 50 -50 54 0 4 56 7 125 7 l126 0 -3 58 -3 57 -191 3 -190 2 -59 60 -59 60 219 0 219 0 -29 30 c-65 68 -207 106 -300 81z"/>
        <path d="M5507 2073 c-4 -3 -7 -41 -7 -84 l0 -77 44 -44 c34 -35 73 -104 171 -299 l126 -254 -50 -47 c-65 -63 -89 -63 -147 -3 -59 60 -60 97 -4 155 35 37 40 47 40 89 0 42 -5 51 -40 86 -31 30 -40 47 -42 79 l-3 41 -205 0 -205 0 -3 -250 -2 -249 77 -78 77 -78 -37 -38 c-37 -38 -37 -38 -37 -125 l0 -87 223 -2 222 -3 5 -113 c3 -64 10 -116 16 -120 6 -4 21 -25 33 -47 20 -37 38 -48 189 -123 l167 -82 88 0 87 0 0 58 c0 54 2 60 40 97 39 38 40 41 40 107 l0 68 -44 0 c-50 0 -59 8 -50 45 5 22 11 25 50 25 37 0 44 3 44 19 0 11 39 96 86 190 l85 170 -71 144 -71 143 106 210 105 209 110 53 111 54 -3 81 -3 82 -292 3 -293 2 0 -79 c0 -78 -1 -82 -67 -210 -36 -72 -69 -131 -73 -131 -5 0 -57 102 -81 161 -4 8 2 34 12 57 15 33 19 60 17 120 l-3 77 -266 3 c-146 1 -268 -1 -272 -5z m883 -1010 c-1 -5 -13 -33 -28 -63 l-27 -55 -64 -3 c-93 -4 -94 -3 -60 67 l30 61 74 0 c41 0 75 -3 75 -7z m-260 -369 c6 -14 8 -30 4 -35 -8 -13 -128 -11 -141 2 -8 8 -8 18 -1 35 10 21 18 24 70 24 54 0 59 -2 68 -26z"/>
        <path d="M6570 1628 c-12 -29 -28 -60 -35 -68 -6 -8 -28 -52 -49 -97 l-38 -83 53 -107 c67 -137 76 -145 103 -89 13 28 16 73 16 265 0 255 -6 277 -50 179z"/>
        <path d="M8498 1348 c28 -30 32 -40 32 -90 0 -47 6 -65 43 -126 l42 -72 3 75 c2 41 6 75 10 75 5 0 26 -18 47 -40 l40 -40 3 -106 c3 -68 1 -109 -6 -113 -17 -10 74 -160 101 -166 12 -3 94 -4 182 -3 l160 3 3 117 3 118 -32 19 c-18 11 -36 18 -41 15 -4 -3 -8 -30 -8 -61 l0 -55 -100 101 c-55 56 -100 103 -100 105 0 3 14 6 30 8 29 3 27 5 -40 46 -39 23 -76 42 -82 42 -5 0 -23 14 -38 30 -16 17 -32 29 -37 28 -11 -3 -108 48 -158 82 -22 16 -51 31 -65 35 -24 7 -24 6 8 -27z m426 -516 c-48 -2 -93 -1 -101 2 -10 4 -13 31 -13 103 l0 98 100 -100 100 -100 -86 -3z"/>
        <path d="M6544 1007 c-6 -12 -28 -55 -48 -94 -51 -103 -51 -103 44 -103 l80 0 0 83 c0 73 -3 87 -23 110 -28 33 -39 34 -53 4z"/>
    </g>
    <g id="layer111" fill="#f2dc43" stroke="none">
        <path d="M8670 10923 c-47 -21 -87 -39 -90 -41 -3 -2 8 -15 25 -29 28 -25 32 -25 125 -19 52 3 179 6 282 7 122 0 190 4 194 11 4 7 2 8 -4 4 -7 -4 -12 -3 -12 3 0 5 -10 13 -22 17 -13 3 -30 12 -38 19 -23 19 -58 24 -202 31 -93 4 -138 10 -149 20 -19 17 -9 20 -109 -23z"/>
        <path d="M7621 6123 l-20 -28 47 -47 46 -48 -31 0 c-19 0 -43 10 -61 25 l-30 25 -11 -45 c-15 -61 -14 -125 2 -125 7 0 39 -27 72 -60 l59 -60 90 0 90 0 -59 60 c-54 55 -57 60 -34 60 17 0 43 -18 84 -60 l59 -60 60 0 60 0 -59 60 -59 60 132 0 133 0 -3 58 -3 57 -190 3 -191 2 -74 75 c-41 41 -78 75 -81 75 -4 0 -16 -12 -28 -27z"/>
        <path d="M8681 6129 c-11 -12 -21 -27 -21 -33 0 -6 19 -30 42 -53 l42 -43 -29 0 c-18 0 -40 10 -57 27 l-27 26 -11 -28 c-6 -15 -13 -54 -17 -86 -5 -49 -3 -59 9 -59 9 0 43 -27 76 -60 l61 -60 88 0 87 0 -59 60 c-58 58 -59 60 -31 60 20 0 44 -16 90 -60 60 -58 65 -60 114 -60 29 0 52 3 52 6 0 3 -22 27 -50 53 -27 26 -50 50 -50 54 0 4 56 7 125 7 l126 0 -3 58 -3 57 -190 3 -190 2 -76 76 -76 76 -22 -23z"/>
        <path d="M8311 3516 c-49 -49 -72 -80 -68 -90 18 -45 139 -78 209 -56 51 16 98 47 98 63 0 15 -141 157 -155 157 -6 0 -43 -34 -84 -74z"/>
        <path d="M10660 2095 c-68 -10 -175 -38 -187 -49 -2 -1 2 -29 7 -62 6 -32 19 -119 30 -192 20 -143 35 -178 78 -188 15 -4 184 -51 376 -106 191 -55 354 -97 362 -94 22 9 27 51 9 86 -17 33 -40 45 -335 180 -52 24 -100 49 -107 54 -11 10 -6 162 11 322 l6 51 -38 7 c-51 8 -112 6 -212 -9z"/>
        <path d="M11006 2003 c-4 -43 -9 -108 -12 -145 l-6 -66 64 -30 c152 -72 266 -125 299 -138 20 -9 41 -26 48 -41 7 -14 27 -49 45 -77 48 -75 116 -191 116 -199 0 -15 -49 -29 -216 -62 -97 -19 -178 -35 -180 -35 -1 0 -18 -29 -38 -64 -63 -113 -199 -209 -315 -223 -27 -3 -53 -8 -58 -12 -9 -6 -80 -198 -124 -335 -34 -106 -55 -111 -116 -28 -23 31 -94 127 -158 212 -97 131 -119 166 -136 225 -33 109 -79 263 -104 345 -12 41 -37 125 -55 185 -47 161 -42 155 -69 99 -81 -168 -112 -344 -91 -511 28 -226 107 -393 259 -544 69 -70 176 -148 241 -176 14 -5 36 -15 50 -21 122 -54 308 -80 448 -62 91 11 194 36 252 62 14 6 36 16 50 21 65 28 172 106 241 176 114 113 181 226 228 381 33 112 45 246 31 358 -11 89 -36 192 -60 250 -28 65 -38 83 -78 147 -90 143 -255 280 -417 346 -32 13 -115 39 -124 39 -5 0 -12 -35 -15 -77z"/>
        <path d="M8211 1394 c-23 -22 -32 -24 -133 -24 -77 0 -107 3 -102 11 4 8 1 8 -12 1 -11 -5 -44 -13 -74 -16 -90 -11 -109 -17 -104 -29 2 -7 -30 -46 -71 -87 l-75 -74 0 -108 c0 -69 4 -108 11 -108 5 0 7 5 3 12 -4 6 -3 8 3 5 6 -4 24 0 39 8 16 8 23 15 15 15 -9 0 -10 4 -4 13 5 6 10 26 11 42 3 44 25 55 115 55 56 0 76 3 71 12 -4 6 -3 8 3 5 5 -3 29 7 52 22 55 37 42 45 -71 44 -92 0 -92 0 -54 45 37 43 68 52 177 52 90 0 100 -2 89 -15 -11 -13 -11 -18 0 -28 10 -9 11 -9 6 1 -4 7 -1 12 8 12 9 0 16 5 16 11 0 5 4 8 9 4 6 -3 15 4 21 15 6 11 15 18 21 15 5 -4 9 -2 9 4 0 5 13 12 29 16 16 3 32 13 35 21 3 9 10 13 15 9 14 -8 32 30 25 49 -9 23 -55 18 -83 -10z"/>
        <path d="M8070 1246 c0 -9 -3 -15 -7 -13 -5 3 -14 -1 -21 -9 -18 -19 7 -19 34 0 15 12 17 17 7 27 -11 11 -13 10 -13 -5z"/>
    </g>
    <g id="layer112" fill="#fefefd" stroke="none">
        <path d="M10674 11546 c-274 -131 -492 -360 -571 -601 -20 -60 -27 -107 -31 -190 -6 -172 31 -287 125 -380 144 -144 412 -151 546 -14 26 27 52 49 58 49 6 0 29 -20 50 -44 68 -77 207 -117 334 -97 220 34 345 202 345 463 0 221 -99 423 -297 608 -135 126 -351 250 -435 250 -18 0 -74 -20 -124 -44z m163 -188 c113 -121 212 -318 213 -421 0 -29 0 -29 49 -22 58 8 110 -11 157 -56 39 -38 56 -95 52 -174 l-3 -60 -126 0 c-121 0 -127 1 -161 27 -57 44 -72 86 -78 228 -5 114 -8 131 -37 192 -36 76 -89 158 -103 158 -13 0 -68 -82 -104 -154 -27 -56 -30 -73 -36 -191 -6 -148 -20 -189 -78 -233 -34 -26 -40 -27 -161 -27 l-126 0 -3 60 c-4 79 13 136 52 174 47 45 99 64 157 56 49 -7 49 -7 49 22 0 74 51 202 121 305 44 65 116 148 128 148 4 0 21 -15 38 -32z"/>
        <path d="M6137 11502 l-29 -7 29 -21 c15 -12 52 -24 82 -27 74 -9 134 -46 160 -100 23 -47 27 -110 10 -154 -22 -59 -95 -113 -152 -113 -16 0 -28 -9 -35 -25 -22 -49 -93 -114 -136 -127 -58 -16 -69 -32 -50 -77 22 -52 50 -78 111 -101 48 -18 78 -20 276 -20 l222 0 1 30 c3 78 107 111 158 49 14 -17 26 -41 26 -55 0 -28 4 -29 50 -6 31 15 35 22 38 60 l3 42 -279 0 c-322 0 -318 -1 -309 76 10 93 104 142 187 99 30 -15 60 -61 60 -90 0 -13 18 -15 122 -15 67 0 119 2 117 5 -3 2 -67 31 -143 64 -76 33 -140 62 -142 64 -2 2 1 29 7 61 28 138 -52 293 -184 355 -64 30 -151 44 -200 33z"/>
        <path d="M990 11106 c0 -47 -3 -55 -22 -60 -13 -3 -44 -19 -70 -35 -80 -51 -138 -164 -138 -270 0 -34 -3 -41 -20 -41 -15 0 -20 7 -20 25 0 14 -2 25 -5 25 -3 0 -37 -16 -77 -36 l-71 -36 7 -45 c13 -94 101 -195 197 -226 33 -11 85 -17 144 -17 l93 0 3 79 c4 85 18 114 72 155 37 27 151 34 210 13 23 -8 62 -17 86 -20 75 -9 130 -64 138 -139 3 -25 0 -55 -6 -67 -11 -20 -9 -21 27 -21 134 0 271 116 288 243 l7 45 -71 36 c-40 20 -74 36 -77 36 -3 0 -5 -11 -5 -25 0 -18 -5 -25 -20 -25 -17 0 -20 7 -20 41 0 106 -58 219 -138 270 -26 16 -57 32 -69 35 -20 5 -23 13 -23 60 l0 54 -210 0 -210 0 0 -54z"/>
        <path d="M5636 10455 c-8 -33 -61 -92 -100 -112 -18 -9 -55 -16 -88 -16 -47 0 -67 5 -106 30 l-50 31 -11 -39 c-13 -42 -20 -49 -65 -58 -17 -4 -32 -14 -34 -22 -8 -44 102 -114 195 -125 101 -13 201 47 246 146 12 26 22 76 25 118 5 72 -1 93 -12 47z"/>
        <path d="M6056 10322 c13 -52 61 -148 93 -185 56 -63 71 -49 71 64 0 58 -3 70 -17 75 -10 2 -48 20 -86 39 l-67 34 6 -27z"/>
        <path d="M6500 10305 c-14 -7 -44 -19 -67 -26 -24 -6 -43 -18 -43 -25 0 -17 81 -136 102 -148 31 -19 39 5 36 111 l-3 101 -25 -13z"/>
        <path d="M10761 10235 c-70 -50 -154 -70 -288 -70 -68 0 -123 -3 -123 -6 0 -9 66 -52 127 -83 189 -95 457 -95 646 0 61 31 127 74 127 83 0 3 -57 6 -128 7 -137 1 -206 18 -284 69 -21 14 -39 25 -40 25 -2 -1 -19 -12 -37 -25z"/>
        <path d="M7621 6122 l-20 -28 167 -167 167 -167 55 0 55 0 -195 195 c-107 107 -198 195 -202 195 -4 0 -16 -13 -27 -28z"/>
        <path d="M8681 6129 c-11 -12 -21 -28 -21 -33 0 -6 73 -85 163 -174 l163 -163 52 3 52 3 -193 194 -194 193 -22 -23z"/>
        <path d="M7561 6005 c-20 -81 -17 -89 67 -170 l77 -74 80 -1 79 0 -119 123 c-66 67 -132 132 -146 144 l-27 23 -11 -45z"/>
        <path d="M8621 6028 c-5 -13 -12 -45 -16 -69 l-6 -44 79 -78 78 -78 82 3 82 3 -144 144 c-141 141 -145 144 -155 119z"/>
        <path d="M7406 5771 c-15 -16 -15 -20 -1 -31 18 -15 45 -7 45 13 0 8 -6 20 -13 26 -11 8 -18 6 -31 -8z"/>
        <path d="M9350 5775 c-15 -18 -6 -45 13 -45 8 0 20 6 26 14 9 11 8 18 -4 30 -20 20 -20 20 -35 1z"/>
        <path d="M8316 3511 l-79 -79 34 -21 c48 -30 107 -44 152 -37 39 7 111 39 121 54 3 5 -30 43 -72 85 l-77 77 -79 -79z"/>
        <path d="M10665 2096 c-103 -16 -197 -45 -191 -61 2 -7 17 -94 32 -195 22 -145 32 -188 49 -206 15 -18 100 -45 380 -124 198 -55 368 -103 377 -106 12 -4 22 3 30 21 9 21 8 32 -5 61 -18 37 -31 44 -337 184 -52 24 -100 49 -107 54 -11 10 -6 162 11 322 l6 51 -38 7 c-50 8 -112 6 -207 -8z"/>
    </g>


</svg>